<svg width="330" height="143" viewBox="0 0 330 143" fill="none" xmlns="http://www.w3.org/2000/svg">
<path d="M22.6966 119.306L21.9073 120.871C21.8357 120.927 21.7612 120.979 21.6843 121.027C21.6447 121.049 21.6007 121.061 21.5556 121.064C14.6926 121.077 7.83719 121.089 0.989419 121.098C0.717758 121.098 0.446096 121.07 0.174435 121.047C0.13726 121.047 0.102945 121.004 0 120.938C0.122962 120.311 0.62911 119.869 0.895052 119.306C1.18101 118.685 1.72719 118.383 2.30769 118.079C5.80783 116.243 7.89534 113.283 8.83042 109.493C9.11663 108.241 9.28891 106.965 9.34515 105.681C9.64255 100.729 9.90754 95.7766 10.1401 90.8231C10.3031 87.2919 10.4061 83.7578 10.4976 80.2237C10.6 76.6592 9.61079 73.1489 7.66371 70.1674C7.59222 70.0525 7.52073 69.9347 7.4521 69.814C7.42279 69.749 7.39888 69.6818 7.38061 69.6128C7.72222 68.6302 8.16399 67.6856 8.69888 66.7942H31.4069C32.0803 67.6428 32.7093 68.5261 33.2914 69.4405C33.4466 69.7174 33.5265 70.0306 33.523 70.3484C33.6471 72.8289 34.2289 75.2646 35.2388 77.5315C36.4851 80.4472 38.131 83.1735 40.1287 85.6312C40.2974 85.8409 40.4947 86.0277 40.6806 86.2231C41.0838 86.1139 41.1553 85.7777 41.2982 85.5163C42.5852 83.08 43.4891 80.4583 43.9777 77.7441C44.4442 75.2616 44.6921 72.7425 44.7183 70.2162C44.7183 69.9289 44.7412 69.6674 44.7555 69.3543C45.7535 68.4923 46.8773 67.7769 47.9382 66.9867C48.2509 66.7927 48.6201 66.7116 48.9848 66.7568H52.4163H69.9685H71.3983L73.217 69.8743C73.1561 70.0977 73.0826 70.3174 72.9968 70.5323C71.6299 73.4831 70.9751 76.6207 70.6119 79.8244C70.04 84.8152 70.1401 89.8146 70.5118 94.8169C71.1288 102.644 72.3226 110.415 74.0835 118.064C74.155 118.378 74.215 118.694 74.2751 119.01C74.2826 119.119 74.2826 119.228 74.2751 119.337C73.814 119.886 73.2963 120.384 72.7309 120.823C72.552 120.959 72.3394 121.044 72.1161 121.067C71.7974 121.093 71.4775 121.098 71.1581 121.084H46.0051C45.6048 120.101 45.2235 119.175 44.8613 118.306C45.4818 116.294 46.1109 114.384 46.6657 112.447C48.1844 107.245 49.1788 101.903 49.634 96.5007C50.1115 90.5703 49.9542 84.6629 48.6217 78.8331C48.4587 78.1177 48.2499 77.4137 48.0497 76.7069C47.994 76.6002 47.9216 76.5032 47.8353 76.4196C47.4893 76.5086 47.5665 76.7845 47.535 76.9798C45.7155 88.1825 42.4579 99.1009 37.8438 109.462C36.5492 112.401 35.1061 115.273 33.5201 118.064C33.2714 118.498 33.0054 118.926 32.7252 119.386C31.6313 119.125 30.5588 118.781 29.5167 118.357C29.4252 117.97 29.3051 117.579 29.2308 117.179C27.8181 107.382 24.4552 98.2648 19.6826 89.6422C18.309 87.1518 16.7937 84.7429 15.1444 82.4275C14.8899 82.0741 14.6983 81.6431 14.3065 81.4391C14.0206 81.5684 14.0864 81.7782 14.0864 81.9419C14.1035 90.1623 14.1149 98.3826 14.1636 106.603C14.1685 107.75 14.2815 108.894 14.501 110.019C14.9283 112.007 15.8885 113.839 17.2777 115.318C18.479 116.647 19.8942 117.764 21.4641 118.622L22.6966 119.306Z" fill="white"/>
<path d="M205.592 60.3401C207.27 57.3729 208.411 54.1307 208.964 50.7636C209.428 48.0923 209.607 45.379 209.498 42.6696C209.252 36.3485 207.634 30.352 205.183 24.5682L204.611 23.235L207.214 18.7987C208.237 18.9539 209.215 19.1148 210.208 19.2556C214.934 19.9222 219.673 20.1607 224.425 19.6119C225.741 19.4625 227.045 19.2067 228.357 19.0372C232.429 18.5028 236.473 18.6235 240.462 19.678C242.729 20.2417 244.887 21.1828 246.845 22.4621C251.06 25.2923 253.473 29.2142 253.876 34.3229C254.268 39.2505 252.675 43.4454 249.152 46.8876C247.842 48.1807 246.255 49.1548 244.511 49.7349C244.254 49.8183 244.008 49.9361 243.685 50.0682C243.847 50.1885 244.017 50.2979 244.194 50.3958C245.824 51.1313 246.873 52.4071 247.608 54.0103C248.251 55.4835 248.678 57.0427 248.875 58.6391C249.287 61.429 249.161 64.2276 249.124 67.029C249.092 69.3276 249.081 71.6262 249.167 73.9248C249.249 76.0389 249.615 78.1322 250.253 80.1482C250.634 81.4256 251.213 82.6347 251.969 83.7311C253.189 85.4509 255.008 86.6466 257.064 87.0805C259.121 87.5144 261.265 87.1546 263.07 86.0728C263.692 85.6896 264.257 85.2183 264.746 84.6736C266.087 83.1737 266.276 81.3464 265.318 79.5678C265.044 79.0907 264.744 78.6293 264.42 78.1858C263.596 77.0206 263.013 75.7018 262.704 74.3069C262.468 73.2259 262.46 72.107 262.681 71.0228C263.439 67.4485 266.381 65.2303 270.202 65.3108C272.564 65.3625 274.405 66.4141 275.824 68.2645C276.896 69.7029 277.611 71.3773 277.911 73.149C279.124 79.5879 277.053 89.0725 267.291 93.2904C261.348 95.8562 255.309 95.9223 249.275 93.5433C245.873 92.2284 243.012 89.7988 241.154 86.6475C239.334 83.56 238.044 80.1865 237.339 76.6687C236.784 73.924 236.402 71.1467 236.196 68.3535C235.952 65.4803 235.718 62.587 235.386 59.7137C235.214 58.3955 234.94 57.0929 234.566 55.8176C234.326 55.027 233.99 54.2693 233.565 53.5621C233.19 52.9 232.682 52.3244 232.072 51.8724C231.462 51.4205 230.765 51.1024 230.025 50.9388C229.759 50.8754 229.489 50.8264 229.218 50.7923C228.595 50.7176 227.968 50.6544 227.245 50.5768C227.053 53.9184 226.836 57.1651 228.151 60.4004L226.819 63.0553C226.479 63.0898 226.167 63.1472 225.858 63.1472C220.282 63.1472 214.706 63.1472 209.127 63.1472C208.833 63.1726 208.539 63.1272 208.266 63.0148C207.994 62.9023 207.753 62.7261 207.562 62.5008C206.97 61.7796 206.296 61.1072 205.592 60.3401ZM227.059 23.4678C226.753 23.9849 226.888 24.4993 226.899 24.9906C227.013 30.3157 227.136 35.6407 227.268 40.9658C227.268 41.1497 227.288 41.3336 227.282 41.5146C227.264 41.815 227.315 42.1156 227.431 42.3931C227.547 42.6705 227.725 42.9175 227.951 43.115C228.45 43.5815 229 43.9901 229.59 44.3332C230.654 44.9079 231.832 45.0544 233.039 45.0659C235.961 45.0918 239.29 43.3592 240.127 39.193C240.431 37.5656 240.431 35.8957 240.127 34.2683C239.887 32.6262 239.304 31.0537 238.417 29.6535C237.53 28.2533 236.359 27.057 234.98 26.1428C232.913 24.7712 230.569 23.8755 228.117 23.5195C227.766 23.4812 227.413 23.4639 227.059 23.4678V23.4678Z" fill="white"/>
<path d="M37.1321 35.789C37.7698 34.973 38.3388 34.2546 38.8907 33.5248C39.003 33.3516 39.157 33.2096 39.3385 33.1122C39.52 33.0147 39.723 32.9649 39.9287 32.9674C40.1118 32.9674 40.2948 32.9502 40.4778 32.9444C45.911 32.7529 51.3442 32.5613 56.7775 32.3698C57.3694 32.3468 57.9642 32.3698 58.6391 32.3698C59.3552 33.123 60.0048 33.9373 60.5807 34.8034C60.3119 35.9671 60.0431 37.125 59.78 38.2858C58.8129 42.4453 58.245 46.6884 58.0843 50.9568C57.9624 53.4819 58.1662 56.0122 58.6905 58.4847C58.8221 59.0593 58.7963 59.5248 58.3531 59.996C57.6325 60.7632 56.9948 61.6079 56.3142 62.4124C56.1783 62.548 56.033 62.6737 55.8796 62.7888C55.5593 62.4756 55.2647 62.194 54.9731 61.9067C54.0603 60.9987 53.0245 60.2248 51.8961 59.6081C50.757 58.9663 49.4953 58.5748 48.1944 58.4594C46.8935 58.344 45.5831 58.5073 44.3497 58.9387C42.0105 59.7164 39.6571 60.45 37.2893 61.1396C34.2131 62.0364 31.049 62.5952 27.8527 62.806C25.2481 62.9842 22.6323 62.7209 20.1146 62.0274C17.3243 61.25 14.7696 59.7889 12.6797 57.775C8.24655 53.5942 5.21664 48.132 4.00941 42.1446C2.30298 34.3169 3.14713 26.1454 6.41718 18.8368C10.1633 10.3062 18.5133 3.54544 27.561 1.54279C31.2785 0.71817 34.9959 0.818734 38.7134 1.54279C42.388 2.25823 46.0797 2.89321 49.7743 3.48797C50.9066 3.63039 52.0483 3.68227 53.1887 3.64313C54.1072 3.6177 55.0052 3.364 55.8023 2.9047C56.1626 2.7122 56.5115 2.50533 56.9462 2.2611L58.9479 3.9362C59.0724 4.04012 59.17 4.17284 59.2322 4.32297C59.2945 4.4731 59.3196 4.63616 59.3053 4.79817C59.3053 4.93608 59.3053 5.08549 59.3053 5.21192C59.4083 10.9948 59.5112 16.7796 59.6142 22.5663C59.6142 22.9772 59.6142 23.3852 59.6142 23.8276C58.8392 23.9656 58.2473 23.592 57.5553 23.411C57.3437 22.98 57.1206 22.5318 56.909 22.0807C55.0474 18.1185 52.8255 14.3862 49.9688 11.059C48.6124 9.44069 47.0445 8.01413 45.3076 6.81806C43.8047 5.76347 42.1009 5.03271 40.3034 4.67175C38.8889 4.37687 37.4275 4.39425 36.0203 4.72266C34.6132 5.05108 33.2938 5.6827 32.1535 6.57384C30.8539 7.59503 29.7543 8.84988 28.9107 10.2746C27.5489 12.5639 26.5359 15.0451 25.9053 17.6358C25.1927 20.4382 24.7069 23.294 24.4526 26.1751C24.1973 28.9188 24.1333 31.6772 24.261 34.4299C24.4298 38.4323 24.9559 42.383 26.1398 46.2246C26.6628 47.9855 27.3873 49.6796 28.2988 51.2729C28.8975 52.357 29.6509 53.3472 30.535 54.2122C31.0687 54.7119 31.6425 55.1665 32.2507 55.5712C34.5384 57.0509 36.9462 57.232 39.4169 56.0424C42.2993 54.6489 44.2496 52.4681 44.9216 49.2645C45.257 47.585 45.0898 45.8434 44.4412 44.2593C43.63 42.108 42.4319 40.1251 40.9067 38.4093C39.9774 37.3779 38.9279 36.5044 37.5782 36.0677C37.4205 35.9901 37.271 35.8967 37.1321 35.789V35.789Z" fill="white"/>
<path d="M159.753 60.2462L157.637 62.5447C156.433 62.6884 142.221 62.7229 139.77 62.5907C139.155 61.8523 138.489 61.042 137.805 60.249C137.689 60.1086 137.609 59.9417 137.571 59.7629C137.534 59.5841 137.541 59.3989 137.591 59.2233C138.074 56.6546 138.595 54.0888 138.998 51.5058C139.63 47.466 140.05 43.4032 139.953 39.3031C139.921 37.6951 139.74 36.0936 139.413 34.5191C139.223 33.5711 138.862 32.6662 138.346 31.8499C137.882 31.1086 137.273 30.4702 136.556 29.9737C134.614 28.6549 132.409 28.7353 130.576 30.2035C129.614 30.9897 128.863 32.005 128.392 33.1572C128.25 33.5422 128.182 33.9507 128.191 34.3611C128.194 36.6115 128.332 38.8596 128.606 41.0931C129.265 46.9359 130.365 52.7201 131.895 58.3958C131.971 58.6102 131.996 58.8398 131.966 59.0656C131.937 59.2914 131.855 59.507 131.726 59.6945C131.08 60.6398 130.471 61.6081 129.876 62.5246C128.755 62.6999 111.529 62.7574 109.304 62.5965C108.58 61.3954 107.954 60.0795 107.245 58.7636C107.385 58.3613 107.502 57.9706 107.654 57.5942C109.152 53.9398 110.202 50.1163 110.782 46.2075C111.597 40.4811 111.26 34.8524 109.281 29.3732C108.592 27.4247 107.66 25.5719 106.507 23.8594C106.379 23.6727 106.27 23.4715 106.104 23.1986C106.859 21.6125 107.657 20.038 108.483 18.5181C109.596 18.3543 127.019 18.3169 128.666 18.4721C129.223 19.5 129.701 20.5691 130.096 21.67C130.151 21.9803 130.114 22.3 129.99 22.5895C129.724 23.4658 129.418 24.3306 129.132 25.2041C129.08 25.4536 129.042 25.7059 129.018 25.9598C129.367 25.5776 129.59 25.3851 129.764 25.138C130.582 24.031 131.517 23.0165 132.552 22.1125C136.087 19.0669 140.222 17.7768 144.849 17.8946C147.367 17.9219 149.842 18.5523 152.069 19.7334C154.946 21.2965 156.91 23.6066 157.657 26.8562C157.92 28.07 158 29.3163 157.897 30.5541C157.562 35.2719 157.265 39.9955 157.325 44.7278C157.362 48.1268 157.494 51.5201 158.026 54.8875C158.312 56.7408 158.712 58.5682 159.753 60.2462Z" fill="white"/>
<path d="M123.62 109.378C123.314 109.039 123.034 108.746 122.762 108.439C118.347 103.31 117.098 97.483 119.402 91.1188C121.344 85.7573 125.43 82.7261 130.955 81.6744C134.564 80.9906 138.044 81.5796 141.398 83.0335L142.196 83.3754C142.519 83.1082 142.834 82.8554 143.14 82.5939C144.902 81.0515 146.928 79.8424 149.119 79.0253C151.499 78.1633 153.923 77.9306 156.386 78.646C157.804 79.0377 159.111 79.7569 160.203 80.7464C162.065 82.4703 162.714 84.993 161.856 87.283C161.284 88.8259 160.266 89.9609 158.599 90.3459C157.929 90.51 157.229 90.5109 156.559 90.3484C155.888 90.186 155.266 89.865 154.744 89.4121C154.27 89.0438 153.911 88.5472 153.708 87.9807C153.505 87.4142 153.468 86.8013 153.6 86.2142C153.744 85.6367 153.922 85.0687 154.135 84.5132C154.45 83.5392 154.135 82.8726 153.137 82.6399C152.562 82.5045 151.964 82.4937 151.384 82.6082C150.672 82.7697 149.988 83.036 149.354 83.3984C148.218 84.0572 147.212 84.9178 146.383 85.9383C146.597 86.1165 146.777 86.2946 146.983 86.4383C152.702 90.4292 154.89 95.9602 154.061 102.799C153.372 108.473 149.177 114.004 142.019 115.484C138.153 116.283 134.481 115.602 130.99 113.806C130.589 113.599 130.192 113.386 129.728 113.139C129.528 113.451 129.396 113.801 129.342 114.168C129.289 114.535 129.314 114.909 129.417 115.265C129.519 115.596 129.688 115.902 129.913 116.163C130.138 116.425 130.415 116.637 130.726 116.785C131.541 117.208 132.434 117.455 133.349 117.512C135.586 117.664 137.834 117.521 140.034 117.087C142.777 116.541 145.603 116.586 148.327 117.219C148.725 117.317 149.122 117.426 149.514 117.55C154.53 119.133 156.491 123.655 156.283 127.58C156.135 130.169 155.166 132.642 153.517 134.637C151.814 136.757 149.627 138.433 147.141 139.521C144.579 140.631 141.877 141.38 139.111 141.745C135.901 142.25 132.642 142.347 129.408 142.033C127.177 141.832 124.977 141.377 122.848 140.676C121.761 140.319 120.732 139.803 119.794 139.145C118.941 138.56 118.235 137.782 117.734 136.874C117.233 135.966 116.951 134.953 116.909 133.916C116.883 133.502 116.883 133.088 116.886 132.674C116.886 130.873 117.724 129.514 119.188 128.531C120.01 127.985 120.933 127.61 121.903 127.43C122.872 127.249 123.867 127.266 124.83 127.48C125.396 127.576 125.935 127.796 126.407 128.125C126.879 128.453 127.273 128.883 127.561 129.382C129.517 132.649 132.497 134.16 136.203 134.373C138.078 134.534 139.964 134.238 141.702 133.511C142.413 133.196 143.085 132.797 143.703 132.324C145.267 131.123 144.953 128.686 143.52 127.672C142.569 127.025 141.457 126.658 140.309 126.615C138.618 126.498 136.92 126.66 135.282 127.095C133.565 127.589 131.778 127.796 129.994 127.707C127.535 127.534 125.225 126.879 123.169 125.477C121.018 124.012 119.64 122.029 119.434 119.368C119.302 117.667 119.563 115.959 120.195 114.375C120.786 112.875 121.66 111.503 122.768 110.335L123.62 109.378ZM140.912 99.5345C140.827 98.7875 140.715 97.325 140.481 95.8798C140.246 94.3812 139.784 92.9277 139.111 91.5699C138.741 90.7788 138.215 90.0719 137.564 89.4925C137.187 89.1547 136.723 88.9302 136.226 88.8449C135.728 88.7595 135.217 88.8167 134.75 89.0098C133.887 89.3316 133.155 89.9318 132.668 90.7165C132.099 91.6048 131.69 92.5873 131.461 93.6185C130.857 96.2614 130.813 99.0026 131.333 101.664C131.586 103.251 132.086 104.788 132.817 106.218C133.186 106.958 133.689 107.622 134.301 108.177C135.865 109.536 137.813 109.355 139.108 107.729C139.629 107.032 140.017 106.244 140.252 105.405C140.789 103.732 140.895 101.997 140.912 99.5316V99.5345Z" fill="white"/>
<path d="M299.173 61.1371C298.798 61.9014 298.653 62.5737 298.169 63.1483H278.118C277.686 62.6714 277.466 62.0709 277.186 61.4618C277.809 60.4303 278.564 59.4218 278.089 57.9449C277.7 58.2753 277.389 58.5196 277.1 58.7868C275.393 60.388 273.478 61.7489 271.406 62.8323C269.591 63.8118 267.611 64.4486 265.567 64.7114C262.09 65.1079 259.053 64.1166 256.505 61.7261C255.563 60.8726 254.843 59.8017 254.405 58.6059C253.967 57.41 253.825 56.1251 253.992 54.8619C254.455 50.3567 256.811 46.995 260.451 44.4751C262.038 43.3718 263.814 42.6277 265.627 41.9869C267.523 41.3175 269.433 40.6997 271.346 40.0475C272.868 39.5592 274.335 38.9141 275.724 38.1224C276.969 37.4211 277.984 36.3721 278.647 35.1026C279.125 34.21 279.408 33.2247 279.475 32.2132C279.543 31.2016 279.394 30.1872 279.039 29.2383C278.831 28.6801 278.548 28.1532 278.198 27.6724C277.008 26.0146 275.19 25.4457 273.082 26.21C271.507 26.7846 270.654 27.9339 270.54 29.6205C270.437 30.5853 270.608 31.5598 271.035 32.4305C271.107 32.5988 271.19 32.7628 271.281 32.9218C272.928 35.3181 270.995 39.3263 267.906 40.0389C263.957 40.9497 258.939 38.1598 258.778 33.0942C258.653 29.0458 260.291 25.6842 263.337 23.0379C265.384 21.2622 267.798 20.1934 270.411 19.5728C275.77 18.2999 281.032 18.593 286.139 20.745C291.669 23.081 294.969 27.2673 295.965 33.212C296.164 34.5294 296.228 35.8638 296.156 37.1944C296.045 40.1308 295.842 43.0615 295.653 45.9951C295.484 48.6097 295.338 51.2244 295.533 53.8391C295.619 54.8901 295.811 55.9298 296.105 56.9421C296.51 58.5151 297.454 59.8944 298.77 60.8383C298.85 60.9245 298.964 60.9992 299.173 61.1371ZM278.961 42.303C278.721 42.4294 278.613 42.4495 278.575 42.5127C277.735 43.8632 276.462 44.6217 275.035 45.1906C274.312 45.4667 273.603 45.7793 272.911 46.1273C271.473 46.8708 270.383 48.1494 269.871 49.6901C269.456 50.8394 269.533 51.937 270.326 52.9282C271.732 54.6809 275.473 55.5687 277.589 53.0575C278.296 52.2138 278.8 51.2178 279.062 50.1469C279.702 47.561 279.508 44.9837 278.95 42.303H278.961Z" fill="white"/>
<path d="M328.427 59.5714L326.122 63.1371C324.274 63.2262 322.404 63.1659 320.545 63.1774C318.687 63.1889 316.799 63.1774 314.926 63.1774C313.053 63.1774 311.177 63.1774 309.304 63.1774C307.431 63.1774 305.567 63.1917 303.642 63.1774C302.976 61.9189 302.338 60.7064 301.692 59.4996C301.625 59.3552 301.59 59.1978 301.59 59.0385C301.59 58.8791 301.625 58.7217 301.692 58.5773C302.144 57.1809 302.596 55.7845 303.002 54.3766C305.693 44.9518 306.581 35.0997 305.618 25.3425C304.955 18.9237 303.617 12.66 301.16 6.66645C301.109 6.54003 301.069 6.41074 300.986 6.16938L303.454 1.30211C307.208 1.26763 310.889 1.41417 314.592 1.42853C318.295 1.4429 321.981 1.48887 325.707 1.52047C326.356 2.69563 326.788 3.90239 327.291 5.04594C326.819 6.85034 326.325 8.61451 325.899 10.393C324.89 14.7303 324.253 19.1463 323.994 23.5927C323.791 26.5705 323.737 29.5568 323.834 32.54C324.143 41.3896 325.444 50.0668 328.123 58.5371C328.206 58.81 328.292 59.1261 328.427 59.5714Z" fill="white"/>
<path d="M79.9775 39.7195C79.8591 40.7322 79.839 41.7542 79.9175 42.7709C80.014 44.7935 80.4792 46.7813 81.2901 48.6351C81.9251 50.1707 82.9363 51.5198 84.2297 52.5571C86.7405 54.4822 89.5028 54.962 92.494 53.8587C93.4472 53.5115 94.2918 52.9167 94.9418 52.1348C95.3563 51.6716 95.6445 51.1085 95.7783 50.5003C95.9121 49.8921 95.887 49.2594 95.7053 48.6639C95.4874 47.9654 95.3483 47.2444 95.2906 46.5147C95.1705 43.5265 97.6012 41.2653 100.65 41.8629C103.466 42.4117 105.253 44.4488 105.362 47.4485C105.405 48.6478 105.198 49.843 104.753 50.9567C102.239 57.3353 97.6727 61.3406 90.9441 62.6365C84.2154 63.9323 75.8168 61.5791 70.4808 56.5653C67.0322 53.3329 64.9447 49.3276 63.9238 44.7304C61.9707 35.9009 65.6824 26.4853 73.0087 21.5347C78.4162 17.88 84.3355 16.8226 90.6638 18.5351C93.5441 19.3366 96.1667 20.8785 98.2732 23.0087C101.299 25.971 103.349 29.485 104.158 33.6799C104.283 34.4491 104.337 35.2281 104.321 36.0073C104.306 36.4183 104.235 36.8252 104.11 37.2169C103.936 37.8922 103.542 38.4897 102.991 38.9141C102.44 39.3385 101.764 39.5654 101.07 39.5586C98.6936 39.5586 96.3172 39.6017 93.9381 39.6189L81.8734 39.6821C81.2815 39.6706 80.7096 39.6994 79.9775 39.7195ZM89.6573 36.1796C89.7109 35.9915 89.7491 35.7993 89.7716 35.605C89.8881 33.4491 89.7092 31.2873 89.2397 29.1804C89.0259 28.1926 88.6704 27.2412 88.1846 26.356C87.8206 25.663 87.3019 25.0641 86.669 24.6062C84.8989 23.3937 82.6655 23.4397 81.3959 25.7009C80.9805 26.4646 80.6643 27.2786 80.4551 28.1231C79.7888 30.6803 79.7402 33.2949 79.9346 35.9124C79.9346 35.9871 80.0347 36.0561 80.152 36.2141C83.0487 36.2371 86.0113 36.263 88.9738 36.2773C89.2039 36.2635 89.4325 36.2308 89.6573 36.1796Z" fill="white"/>
<path d="M178.556 39.8285C178.499 40.0455 178.457 40.2664 178.431 40.4894C178.301 42.9733 178.665 45.4583 179.503 47.7989C180.077 49.5058 181.079 51.0355 182.411 52.241C184.765 54.2867 187.464 54.9016 190.464 54.077C191.395 53.8221 192.253 53.3484 192.966 52.6949C194.221 51.5456 194.756 50.1751 194.196 48.4827C193.811 47.4451 193.73 46.3186 193.961 45.236C194.516 42.9029 196.489 41.5008 198.857 41.8197C201.919 42.222 203.83 44.3913 203.901 47.5202C203.928 48.8561 203.667 50.1822 203.138 51.4077C200.524 57.6254 195.949 61.4813 189.3 62.6766C182.08 63.9781 172.691 61.2083 167.281 54.7378C164.387 51.3171 162.593 47.0958 162.134 42.63C161.307 34.9325 163.795 28.4247 169.446 23.1925C172.734 20.1497 176.686 18.4804 181.13 17.9287C184.176 17.5162 187.276 17.8282 190.181 18.8395C193.167 19.9071 195.828 21.7345 197.902 24.1435C200.249 26.7431 201.883 29.9117 202.643 33.3379C202.891 34.4154 202.941 35.5295 202.789 36.6249C202.614 37.7742 202.077 38.6936 201.001 39.2367C200.5 39.4655 199.953 39.5728 199.403 39.5498C197.255 39.57 195.114 39.5958 192.96 39.6073C188.845 39.6332 184.733 39.6447 180.618 39.6763C179.958 39.6763 179.271 39.5987 178.556 39.8285ZM188.245 36.1422C188.403 34.5162 188.376 32.8775 188.165 31.2577C188.032 29.7951 187.667 28.3632 187.084 27.0168C186.618 26.0025 186.02 25.0802 185.045 24.4883C183 23.2499 181.024 23.7959 179.986 25.6721C179.545 26.4735 179.21 27.3293 178.988 28.2178C178.41 30.726 178.233 33.3108 178.465 35.875C178.465 35.9525 178.554 36.0272 178.602 36.102C179.743 36.2945 187.024 36.3404 188.245 36.1422Z" fill="white"/>
<path d="M116.159 119.547C115.887 120.182 115.67 120.696 115.435 121.228C115.172 121.283 114.906 121.32 114.637 121.337C109.153 121.337 103.668 121.337 98.1833 121.337C98.0489 121.337 97.9116 121.308 97.7172 121.288C97.3426 120.92 97.171 120.398 96.905 119.852C97.3883 118.955 98.0832 118.093 97.7486 116.978C97.3597 116.786 97.2224 117.105 97.0452 117.266C95.3578 118.889 93.4281 120.238 91.326 121.262C89.3243 122.228 87.2339 122.84 84.9834 122.722C83.7226 122.68 82.4834 122.382 81.3399 121.847C80.1964 121.312 79.1723 120.55 78.3291 119.607C76.5047 117.596 76.153 115.191 76.7478 112.651C77.5227 109.327 79.4444 106.767 82.2611 104.894C83.5294 104.072 84.8918 103.407 86.3188 102.914C87.9059 102.339 89.5187 101.825 91.1115 101.262C92.1438 100.897 93.1876 100.549 94.1798 100.087C95.0145 99.7153 95.8034 99.2477 96.5304 98.6931C97.6327 97.8146 98.4085 96.5888 98.7327 95.2133C99.057 93.8377 98.9107 92.3925 98.3177 91.1106C97.7858 89.99 97.0194 89.0993 95.7784 88.766C94.2771 88.3523 92.9845 88.766 91.8807 89.8349C91.4881 90.2213 91.2312 90.7255 91.1487 91.2715C90.905 92.4048 91.067 93.5881 91.6062 94.6131C92.0052 95.234 92.224 95.9544 92.2382 96.6933C92.1901 97.5926 91.8888 98.4597 91.3694 99.1937C90.85 99.9277 90.1338 100.498 89.3042 100.839C88.4027 101.186 87.4256 101.285 86.4732 101.127C82.5813 100.492 80.1507 97.1416 80.7941 93.2426C81.366 89.697 83.1733 86.9214 86.2273 85.0193C87.9038 83.9819 89.7564 83.2641 91.692 82.9018C95.9099 82.0714 100.065 82.2898 104.094 83.8557C105.201 84.2827 106.262 84.8228 107.26 85.4676C110.817 87.7662 112.764 91.1278 113.388 95.2998C113.577 96.6192 113.627 97.955 113.536 99.285C113.351 102.311 113.148 105.333 112.964 108.359C112.803 110.281 112.84 112.216 113.073 114.131C113.215 115.226 113.548 116.287 114.057 117.266C114.549 118.196 115.273 118.982 116.159 119.547V119.547ZM98.4292 102.986C96.6763 104.848 96.6763 104.845 94.2828 105.859C93.8185 106.047 93.3659 106.263 92.9273 106.505C91.7637 107.171 90.8874 108.247 90.4681 109.525C90.2686 109.993 90.2026 110.507 90.2773 111.011C90.3521 111.514 90.5647 111.987 90.8913 112.375C92.1352 113.887 95.3065 114.591 97.1224 112.594C97.8283 111.806 98.3207 110.849 98.5522 109.815C99.0812 107.592 98.9411 105.373 98.4292 102.986Z" fill="white"/>
<path d="M217.174 108.034C218.744 108.781 220.286 109.442 221.813 110.286C221.701 110.608 221.635 110.861 221.527 111.108C220.887 112.433 220.025 113.637 218.979 114.668C216.09 117.58 212.438 119.608 208.447 120.515C204.924 121.386 201.237 121.322 197.746 120.328C194.102 119.329 190.874 117.178 188.538 114.194C185.919 110.966 184.357 107.003 184.069 102.847C183.497 95.0897 186.462 88.9812 192.842 84.5937C195.416 82.8267 198.327 81.9302 201.421 81.5969C205.809 81.1246 210.24 81.9295 214.186 83.9156C216.174 84.8618 217.931 86.2349 219.333 87.9382C221.129 90.061 222.069 92.7825 221.967 95.5666C221.914 97.1333 221.478 98.6627 220.697 100.02C219.093 102.836 216.122 103.801 213.46 103.411C212.274 103.218 211.189 102.625 210.383 101.73C209.491 100.797 208.883 99.6278 208.63 98.3594C208.486 97.7296 208.502 97.0737 208.676 96.4516C208.713 96.3194 208.764 96.1901 208.799 96.058C209.371 93.8915 208.49 92.5181 206.279 92.0498C205.241 91.856 204.171 91.9463 203.18 92.3112C201.417 92.8768 199.934 94.0924 199.027 95.7132C198.334 96.8807 197.877 98.1747 197.684 99.5205C197.49 100.866 197.564 102.237 197.901 103.554C198.472 106.035 199.821 108.266 201.75 109.918C204.323 112.157 207.32 112.743 210.592 112.145C211.398 111.982 212.186 111.741 212.945 111.424C214.647 110.752 215.459 110.074 217.174 108.034Z" fill="white"/>
<path d="M162.56 86.422L164.455 82.6868C164.558 82.6265 164.596 82.6006 164.636 82.5805C164.675 82.5564 164.719 82.5407 164.764 82.5345C165.082 82.5202 165.402 82.5029 165.722 82.5029L180.792 82.5202C180.914 82.5433 181.032 82.5809 181.144 82.6322C181.47 83.3591 181.819 84.1522 182.176 84.9308C182.365 85.3474 182.242 85.7267 182.085 86.1203C181.517 87.5228 181.073 88.9727 180.758 90.4532C180.348 92.3354 180.096 94.2491 180.006 96.1738C179.689 103.271 180.864 110.155 182.891 116.921C183.034 117.404 183.177 117.881 183.357 118.433L181.513 121.286H164.696C163.984 120.424 163.552 119.349 163.069 118.332C162.931 118.045 163.043 117.617 163.126 117.275C163.477 115.838 163.906 114.445 164.221 113.014C165.339 107.848 165.608 102.533 165.019 97.28C164.645 93.5731 163.819 89.9264 162.56 86.422V86.422Z" fill="white"/>
<path d="M329.586 110.671C329.494 110.858 329.466 111.007 329.371 111.088C329.23 111.203 329.071 111.293 328.9 111.355C327.47 111.93 326.04 112.559 324.564 113.047C318.216 115.168 313.892 119.369 311.482 125.629C310.738 127.552 309.875 129.425 309.063 131.321C309.009 131.447 308.942 131.566 308.862 131.678C308.817 131.728 308.76 131.767 308.698 131.794C308.635 131.82 308.568 131.832 308.5 131.829C308.432 131.827 308.366 131.809 308.305 131.778C308.245 131.747 308.192 131.703 308.15 131.649C308.021 131.406 307.906 131.155 307.804 130.899C306.947 128.87 306.152 126.819 305.231 124.819C302.657 119.11 298.499 115.067 292.497 113.105C290.841 112.565 289.297 111.772 287.699 111.094C287.569 111.05 287.46 110.961 287.39 110.844C287.342 110.68 287.349 110.506 287.41 110.347C287.481 110.229 287.593 110.142 287.724 110.102C288.799 109.598 289.912 109.181 291.053 108.855C295.314 107.856 299.131 105.48 301.919 102.092C303.373 100.317 304.531 98.3185 305.351 96.1729C306.143 94.1616 307.015 92.1992 307.856 90.2166C307.909 90.0907 307.974 89.9696 308.047 89.8546C308.087 89.7989 308.139 89.7534 308.199 89.7221C308.26 89.6907 308.327 89.6743 308.395 89.6743C308.463 89.6743 308.53 89.6907 308.59 89.7221C308.651 89.7534 308.703 89.7989 308.742 89.8546C308.865 90.0467 308.972 90.2485 309.063 90.458C309.958 92.5181 310.861 94.5753 311.736 96.6441C314.31 102.718 318.719 106.744 325.011 108.643C326.397 109.1 327.755 109.64 329.077 110.26C329.266 110.37 329.438 110.509 329.586 110.671Z" fill="white"/>
<path d="M281.308 83.8066C281.495 84.0449 281.662 84.2976 281.809 84.5623C282.381 85.815 282.933 87.0706 283.459 88.3377C285.123 92.3603 287.994 95.0295 292.143 96.3024C293.176 96.5834 294.165 97.0059 295.083 97.558C295.117 97.9516 294.857 98.0321 294.674 98.1096C293.833 98.4631 292.995 98.8337 292.132 99.1124C287.802 100.515 284.848 103.33 283.267 107.623C282.841 108.772 282.298 109.896 281.797 111.028C281.688 111.206 281.564 111.374 281.426 111.531C281.258 111.357 281.111 111.164 280.988 110.956C280.453 109.741 279.936 108.517 279.421 107.293C277.777 103.365 275.04 100.595 270.968 99.2474C269.817 98.8625 268.702 98.376 267.637 97.7936C267.614 97.7351 267.604 97.6723 267.608 97.6096C267.612 97.5469 267.63 97.4858 267.66 97.4309C267.69 97.3759 267.733 97.3284 267.783 97.2918C267.834 97.2551 267.892 97.2302 267.954 97.2189C268.812 96.9 269.67 96.5638 270.528 96.3139C272.821 95.6636 274.897 94.4005 276.533 92.6591C277.725 91.3866 278.662 89.8949 279.292 88.2659C279.784 87.0333 280.316 85.815 280.839 84.5939C280.957 84.364 281.111 84.1486 281.308 83.8066Z" fill="white"/>
<path d="M275.727 111.77C275.99 112.215 276.145 112.431 276.25 112.666C276.659 113.589 277.054 114.517 277.452 115.442C278.715 118.393 280.846 120.393 283.897 121.387C284.813 121.628 285.686 122.008 286.488 122.513C286.313 122.674 286.121 122.816 285.916 122.935C285.198 123.223 284.486 123.51 283.743 123.772C282.282 124.25 280.948 125.055 279.842 126.127C278.736 127.198 277.886 128.508 277.357 129.958C277.008 130.854 276.614 131.733 276.213 132.615C276.087 132.844 275.942 133.062 275.782 133.268C275.604 132.96 275.478 132.785 275.393 132.59C275.027 131.751 274.663 130.909 274.312 130.061C273.031 126.975 270.894 124.8 267.697 123.726C266.757 123.447 265.861 123.036 265.035 122.504C265.481 122.005 266.03 121.901 266.516 121.706C266.851 121.571 267.22 121.516 267.569 121.418C269.021 120.99 270.359 120.238 271.483 119.219C272.607 118.201 273.489 116.941 274.063 115.534C274.449 114.652 274.804 113.755 275.184 112.87C275.307 112.569 275.464 112.293 275.727 111.77Z" fill="white"/>
<path d="M181.163 66.7948C180.532 67.5958 179.802 68.3123 178.989 68.9267C177.225 70.3481 176.003 72.3386 175.532 74.5612C175.386 75.416 175.3 76.2801 175.275 77.1471C175.198 78.2389 175.158 79.3308 175.092 80.5777C174.857 80.4797 174.633 80.3553 174.426 80.2071C173.745 79.529 173.076 78.8337 172.424 78.1355C170.116 75.7076 167.325 74.4865 163.962 74.6876C163.013 74.7443 162.061 74.6777 161.128 74.4893C161.226 74.2746 161.347 74.0721 161.492 73.886C161.85 73.5314 162.232 73.2021 162.635 72.9004C165.555 70.7857 166.976 67.9039 167.059 64.3152C167.085 63.1659 167.128 62.0338 167.162 60.9564C167.21 60.9128 167.267 60.8801 167.328 60.8605C167.39 60.8409 167.455 60.8348 167.519 60.8427C167.583 60.8506 167.644 60.8723 167.699 60.9063C167.754 60.9403 167.801 60.9858 167.837 61.0397C168.578 61.7896 169.335 62.5223 170.059 63.2895C172.412 65.7806 175.278 66.8954 178.692 66.608C179.284 66.5721 179.878 66.5721 180.471 66.608C180.706 66.6497 180.938 66.7122 181.163 66.7948V66.7948Z" fill="white"/>
<path d="M98.5562 109.815C99.0852 107.582 98.9451 105.373 98.4304 102.985C96.6791 104.842 96.6746 104.844 94.3052 105.85L94.2868 105.858C93.8225 106.046 93.3699 106.262 92.9314 106.505C91.7678 107.17 90.8915 108.247 90.4721 109.524C90.2727 109.992 90.2066 110.506 90.2814 111.01C90.3561 111.513 90.5687 111.986 90.8953 112.375C92.1393 113.886 95.3106 114.59 97.1264 112.593C97.8323 111.805 98.3247 110.849 98.5562 109.815Z" fill="white"/>
</svg>
