<svg width="325" height="246" viewBox="0 0 325 246" fill="none" xmlns="http://www.w3.org/2000/svg">
<path d="M217.996 239.664C217.721 239.502 216.977 239.308 216.682 238.84C216.093 237.87 215.596 236.847 215.195 235.785C210.766 225.298 206.592 214.698 201.877 204.343C188.987 176.017 168.388 155.907 138.514 145.99C133.886 144.47 129.342 142.706 124.901 140.705C121.042 138.964 117.183 137.253 113.324 135.522C112.858 135.371 112.451 135.076 112.164 134.679C111.877 134.281 111.723 133.803 111.725 133.313C111.734 132.824 111.895 132.35 112.185 131.956C112.475 131.562 112.88 131.267 113.344 131.114C118.853 128.711 124.239 126.023 130.175 124.679C161.475 117.734 190.249 94.4684 202.763 60.5316C206.48 50.4718 211.112 40.7581 215.328 30.8815C215.507 30.4307 215.729 29.9977 215.99 29.5884C216.203 29.2914 216.484 29.0505 216.811 28.8862C217.137 28.722 217.498 28.6393 217.864 28.6453C218.229 28.6513 218.588 28.7458 218.909 28.9207C219.229 29.0956 219.503 29.3457 219.706 29.6495C220.042 30.2073 220.328 30.7933 220.561 31.4008C225.133 41.8272 229.847 52.1925 234.226 62.7004C247.187 93.827 269.649 114.323 302.089 123.721C308.993 125.758 315.397 128.955 322.015 131.653C322.457 131.862 322.871 132.126 323.247 132.437C323.505 132.636 323.714 132.891 323.858 133.184C324.001 133.476 324.076 133.797 324.076 134.122C324.076 134.448 324.001 134.769 323.858 135.061C323.714 135.353 323.505 135.609 323.247 135.808C322.832 136.064 322.396 136.286 321.944 136.469C314.731 139.842 307.33 142.796 299.778 145.318C266.924 155.846 244.571 177.344 232.719 209.811C230.988 214.535 228.88 219.127 226.884 223.75C224.889 228.373 222.812 232.965 220.714 237.557C220.541 238.15 220.184 238.673 219.696 239.051C219.208 239.43 218.613 239.644 217.996 239.664V239.664Z" fill="white"/>
<path d="M12.116 68.2503C12.9051 67.5731 13.7498 66.9634 14.6412 66.4277C18.4622 64.6342 22.4441 63.2058 26.5338 62.1614C44.3829 57.3861 57.9047 46.8884 67.1907 30.9331C68.8384 27.9445 70.3072 24.8607 71.5894 21.698C74.3589 15.2833 77.0266 8.82784 79.735 2.40297C80.1627 1.38476 80.4681 0.173095 82.1889 0C82.775 0.658108 83.2872 1.37856 83.7162 2.14841C86.5773 8.53256 89.5302 14.8658 92.1571 21.3416C100.578 42.1537 115.433 55.7671 136.958 62.1614C141.143 63.4138 145.104 65.3281 149.177 66.9572C149.614 67.1614 150.027 67.4142 150.409 67.7107C150.559 67.8413 150.682 68.0013 150.768 68.1809C150.855 68.3605 150.904 68.5558 150.913 68.755C150.921 68.9541 150.889 69.153 150.818 69.3393C150.747 69.5257 150.639 69.6956 150.5 69.8387C149.985 70.2463 149.42 70.5883 148.82 70.8569C144.452 72.6082 140.145 74.553 135.675 75.9989C113.947 83.0448 99.2235 97.2081 91.3222 118.651C89.1432 124.588 86.333 130.3 83.7977 136.104C83.6042 136.531 83.2987 137.122 82.922 137.224C82.6511 137.337 82.3603 137.395 82.0667 137.395C81.7731 137.395 81.4824 137.337 81.2114 137.224C80.7359 136.795 80.3842 136.246 80.1932 135.635C77.4373 129.214 74.6881 122.789 71.9457 116.361C63.7186 97.1266 50.1561 83.4623 30.128 76.7422C24.5584 74.8687 19.2842 72.374 13.9488 69.9914C13.3786 69.686 12.9102 69.0038 12.116 68.2503Z" fill="white"/>
<path d="M53.6804 139.512C54.3841 140.264 55.0084 141.086 55.5437 141.966C57.7532 146.853 59.9729 151.74 62.0195 156.689C68.441 172.233 79.665 182.514 95.6915 187.53C98.9396 188.548 102.086 189.882 105.242 191.155C106.181 191.656 107.074 192.238 107.91 192.896C107.227 193.509 106.483 194.052 105.69 194.515C102.239 195.93 98.8174 197.458 95.2639 198.588C78.881 203.883 67.6909 214.543 61.5308 230.631C59.7387 235.335 57.5801 239.886 55.5539 244.499C55.2601 245.024 54.9193 245.522 54.5357 245.985C53.0288 246.138 52.7742 245.028 52.4077 244.204C50.3713 239.591 48.3348 234.979 46.4409 230.325C39.9855 214.737 29.0398 203.974 12.8402 198.649C8.68589 197.285 4.69457 195.279 0.723564 193.558C0.489377 193.456 0.377339 193.039 0.0515137 192.54C0.397704 192.173 0.723544 191.522 1.21228 191.359C4.03647 190.127 6.92963 189.059 9.87722 188.162C27.2885 183.519 39.2626 172.827 46.0235 156.17C47.9072 151.496 49.9232 146.884 51.9291 142.261C52.451 141.307 53.0361 140.388 53.6804 139.512V139.512Z" fill="white"/>
</svg>
