<svg width="1080" height="1080" viewBox="0 0 1080 1080" fill="none" xmlns="http://www.w3.org/2000/svg">
<rect width="1080" height="1080" fill="#02B987"/>
<path d="M317.73 276.564C319.632 272.049 324.703 260.176 328.996 250.177C333.291 240.179 338.053 232 339.581 232C341.108 232 347.414 243.875 353.592 258.387C378.472 316.815 392.8 338.684 418.632 357.661C434.816 369.551 454.095 379.908 468.423 384.416C487.09 390.287 514.141 401.583 514.141 403.503C514.141 406.259 498.655 413.854 481.001 419.755C472.793 422.497 462.754 426.234 458.691 428.054C454.628 429.876 450.593 431.365 449.723 431.365C448.853 431.365 441.1 435.944 432.493 441.538C404.537 459.711 378.923 489.25 368.82 514.968C356.811 545.541 342.066 576.783 339.673 576.726C338.273 576.693 333.554 567.985 329.181 557.376C309.391 509.334 308.751 508.013 296.442 490.002C283.184 470.601 274.542 461.275 259.213 449.822C246.696 440.473 216.613 424.329 211.706 424.329C208.185 424.329 169.043 407.81 165.978 405.03C162.058 401.475 171.345 396.535 196.408 388.847C259.431 369.515 290.815 340.474 317.73 276.564Z" fill="white"/>
<path d="M663.143 336.374C670.441 319.604 676.891 305.09 677.475 304.123C679.06 301.494 682.096 301.996 684.579 305.296C686.973 308.474 709.164 357.462 719.376 382.11C743.544 440.433 772.752 477.703 817.783 507.678C838.708 521.605 870.702 536.586 889.266 541.146C895.069 542.572 909.839 547.931 922.089 553.056C940.442 560.737 944.47 563.336 944.974 567.823C945.509 572.572 943.253 574.238 927.247 580.894C917.161 585.088 902.116 590.712 893.812 593.391C809.24 620.673 748.969 675.269 721.562 749.426C718.275 758.32 709.032 780.63 701.023 799.007C683.683 838.803 681.613 839.889 670.866 814.851C666.99 805.821 661.912 794.21 659.582 789.05C657.251 783.89 651.962 771.225 647.828 760.905C635.255 729.508 634.277 727.616 617.905 702.861C589.225 659.493 550.451 626.732 504.196 606.784C492.86 601.893 482.415 597.894 480.985 597.894C477.529 597.894 417.504 572.026 414.499 569.242C408.804 563.965 427.675 555.176 481.318 538.12C525.878 523.951 555.503 505.112 589.614 469.254C611.296 446.461 625.349 424.925 637.637 395.66C642.119 384.981 646.705 374.136 647.831 371.556C648.954 368.976 655.844 353.144 663.143 336.374Z" fill="white"/>
<path d="M251.373 618.865C258.231 602.817 264.824 587.809 266.022 585.515C268.172 581.401 272.654 581.968 272.654 586.354C272.654 588.512 277.78 599.993 295.279 637.031C308.636 665.303 339.783 691.999 369.952 701.036C385.752 705.767 403.948 713.578 403.948 715.63C403.948 717.722 379.342 729.241 374.869 729.241C369.301 729.241 337.534 745.974 327.523 754.18C310.685 767.983 297.612 787.732 284.328 819.436C277.512 835.702 270.779 848.625 269.365 848.154C267.951 847.683 262.955 838.413 258.261 827.556C253.57 816.699 247.469 802.961 244.703 797.027C238.891 784.561 223.11 765.368 208.911 753.5C198.928 745.155 174.316 731.586 169.162 731.586C163.578 731.586 134.21 716.695 135.016 714.272C135.471 712.905 147.117 707.904 160.893 703.157C191.421 692.637 204.583 684.44 223.991 663.858C236.781 650.294 240.675 643.896 251.373 618.865Z" fill="white"/>
</svg>
