<svg width="702" height="150" viewBox="0 0 702 150" fill="none" xmlns="http://www.w3.org/2000/svg">
<path d="M69.4346 119.277C60.6639 119.277 47.277 117.43 47.277 109.675C47.277 105.336 51.4315 102.751 55.4938 101.92C48.2925 99.7043 47 95.0881 47 92.4107C47 87.3329 51.3392 83.5477 57.8942 81.5165C52.5394 78.7468 48.4772 74.0383 48.4772 67.391C48.4772 56.0352 60.0176 50.5882 69.8962 50.5882C73.6815 50.5882 77.8361 51.4191 81.4367 53.0809C83.9294 46.1566 90.8537 43.5716 96.5777 44.8641L95.1006 55.2967H94.4543C91.0383 53.1732 87.7147 53.0809 84.2987 54.6504C88.5456 57.4201 91.4999 61.5747 91.4999 67.2987C91.4999 78.6545 79.6825 84.2862 69.8039 84.2862C66.7572 84.2862 63.6182 83.7323 60.5716 82.6244C59.0021 83.7323 57.7095 84.8402 57.7095 86.225C57.7095 88.3485 60.7562 89.364 66.2033 89.4564L80.3288 89.641C88.3609 89.7333 95.1006 94.6265 95.1006 102.936C95.1006 113.46 85.0373 119.277 69.4346 119.277ZM58.2635 106.721C58.2635 111.706 64.0799 115.492 72.7583 115.492C80.1441 115.492 85.3143 112.63 85.3143 108.383C85.3143 104.597 81.252 103.582 76.4512 103.49L65.0954 103.305C63.1566 103.305 61.4948 103.12 59.9253 102.936C58.5404 103.951 58.2635 105.613 58.2635 106.721ZM65.1877 67.4834C65.1877 72.8381 65.7417 81.0549 69.8039 81.0549C73.8662 81.0549 74.5124 72.8381 74.5124 67.4834C74.5124 62.0363 73.8662 53.9118 69.8039 53.9118C65.7417 53.9118 65.1877 62.0363 65.1877 67.4834Z" fill="#BF68FF"/>
<path d="M119.514 99.4273C108.62 99.4273 95.7872 92.2261 95.7872 74.9616C95.7872 59.4512 104.927 50.6805 119.053 50.6805C135.671 50.6805 141.395 63.4211 141.21 74.223H113.698C114.621 86.3174 120.53 90.6566 126.716 90.6566C130.87 90.6566 135.209 88.8101 139.549 84.1939L140.841 84.4709C138.902 90.3796 131.701 99.4273 119.514 99.4273ZM113.606 70.9917H124.408C124.592 65.2676 124.131 53.9118 119.145 53.9118C113.975 53.9118 113.606 66.3755 113.606 70.9917Z" fill="#BF68FF"/>
<path d="M170.419 96.8423C172.173 96.196 174.943 94.9958 174.943 88.7178V68.4989C174.943 63.0518 172.45 61.2977 169.219 61.2054C167.003 61.113 164.788 61.8516 162.941 62.7749V88.7178C162.941 94.9958 165.711 96.196 167.465 96.8423V98.3194H139.583V96.8423C141.891 96.196 145.584 94.9958 145.584 88.7178V60.8361C145.584 54.5581 141.891 53.3579 139.583 52.7116V51.2344H162.941V59.8205C164.972 55.389 169.773 50.6805 177.436 50.6805C185.56 50.6805 192.3 56.2199 192.3 66.0062V88.7178C192.3 94.9958 195.993 96.196 198.301 96.8423V98.3194H170.419V96.8423Z" fill="#BF68FF"/>
<path d="M220.944 99.4273C210.05 99.4273 197.217 92.2261 197.217 74.9616C197.217 59.4512 206.357 50.6805 220.482 50.6805C237.101 50.6805 242.825 63.4211 242.64 74.223H215.128C216.051 86.3174 221.96 90.6566 228.145 90.6566C232.3 90.6566 236.639 88.8101 240.978 84.1939L242.271 84.4709C240.332 90.3796 233.131 99.4273 220.944 99.4273ZM215.035 70.9917H225.837C226.022 65.2676 225.56 53.9118 220.575 53.9118C215.405 53.9118 215.035 66.3755 215.035 70.9917Z" fill="#BF68FF"/>
<path d="M241.193 96.8423C243.501 96.196 247.194 94.9958 247.194 88.7178V60.8361C247.194 54.5581 243.501 53.3579 241.193 52.7116V51.2344H264.551V66.0985C266.951 56.0352 274.43 49.2033 283.754 50.9574L281.077 66.4678H279.969C272.122 62.5902 265.197 66.8371 264.551 76.2541V88.7178C264.551 94.9958 268.244 96.196 270.552 96.8423V98.3194H241.193V96.8423Z" fill="#BF68FF"/>
<path d="M294.712 99.1503C287.603 99.1503 281.417 93.7033 281.417 86.1327C281.417 76.5311 290.373 69.8838 305.791 72.6535V67.2987C305.791 61.667 301.544 58.8973 296.466 58.8973C292.681 58.8973 288.249 60.4668 284.649 65.8215L283.079 65.5446C284.741 58.528 291.481 50.9574 303.298 50.6805C315.762 50.4035 322.871 58.528 322.871 67.2064V85.6711C322.871 88.2562 323.332 90.5642 325.086 90.5642C325.363 90.5642 325.917 90.4719 326.194 90.2873L326.933 90.8412C325.548 94.9958 321.486 99.2427 315.669 99.2427C310.961 99.2427 307.36 96.5653 306.16 92.78C303.852 96.196 299.974 99.1503 294.712 99.1503ZM296.835 84.1939C296.835 88.4408 298.682 91.9491 301.729 91.9491C303.39 91.9491 304.96 90.9335 305.791 90.0103V75.3309C300.159 75.1462 296.835 78.4699 296.835 84.1939Z" fill="#BF68FF"/>
<path d="M325.4 96.8423C327.708 96.196 331.401 94.9958 331.401 88.7178V42.4637C331.401 36.0934 327.708 35.5394 325.308 35.2624L325.123 33.7853L348.758 30V88.7178C348.758 94.9958 352.451 96.196 354.759 96.8423V98.3194H325.4V96.8423Z" fill="#BF68FF"/>
<path d="M603.893 58.5922C603.86 58.6058 603.794 58.6587 603.734 58.6541C603.61 58.6425 603.487 58.6195 603.367 58.5853C602.152 58.2895 600.944 57.9639 599.723 57.702C596.381 56.9849 593.259 57.4853 590.429 59.4708C589.993 59.7795 589.54 60.0648 589.072 60.3256C588.666 60.5519 588.263 60.7803 587.858 61.0073C587.814 61.0386 587.761 61.0551 587.707 61.0544C587.654 61.0537 587.601 61.036 587.558 61.0037C587.516 60.9709 587.484 60.9257 587.469 60.8744C587.453 60.823 587.453 60.768 587.47 60.717C587.619 60.0739 587.734 59.423 588.004 58.8115C589.44 55.5967 589.272 51.5364 587.098 48.2117C586.454 47.2255 585.9 46.1812 585.305 45.1631C585.277 45.1177 585.254 45.0699 585.235 45.0201C585.222 44.9819 585.22 44.9413 585.226 44.9017C585.233 44.8622 585.25 44.8249 585.274 44.7931C585.299 44.7612 585.33 44.7358 585.367 44.719C585.403 44.7021 585.443 44.6944 585.483 44.6963C585.554 44.7033 585.625 44.7164 585.694 44.7355C586.912 45.0147 588.135 45.2774 589.348 45.579C592.942 46.473 596.219 45.8336 599.171 43.5878C599.803 43.1122 600.504 42.7567 601.175 42.3496C601.222 42.3243 601.273 42.305 601.325 42.2923C601.359 42.2825 601.395 42.2808 601.43 42.2873C601.466 42.2937 601.499 42.3082 601.527 42.3295C601.556 42.3508 601.58 42.3784 601.596 42.4102C601.612 42.442 601.621 42.4771 601.622 42.5128C601.617 42.5662 601.608 42.6192 601.595 42.6711C601.42 43.5279 601.197 44.374 600.925 45.205C599.703 48.7915 600.136 52.1698 602.223 55.3399C602.527 55.8018 602.794 56.2882 603.071 56.7667C603.348 57.2453 603.617 57.729 603.885 58.2145C603.925 58.2686 603.948 58.3343 603.95 58.4021C603.951 58.4699 603.931 58.5365 603.893 58.5922Z" fill="#BF68FF"/>
<path d="M458.583 97.4408C460.337 96.7946 463.015 95.5944 463.015 89.3164V69.0975C463.015 64.112 459.691 62.2656 455.998 62.2656C454.244 62.2656 452.398 62.7272 450.644 63.3734C450.828 64.389 450.92 65.4969 450.92 66.6048V89.3164C450.92 95.5944 453.598 96.7946 455.352 97.4408V98.918H429.686V97.4408C431.44 96.7946 434.118 95.5944 434.118 89.3164V69.0975C434.118 64.0197 430.702 62.2656 426.916 62.2656C425.162 62.2656 423.408 62.6349 421.931 63.2811V89.3164C421.931 95.5944 424.608 96.7946 426.362 97.4408V98.918H399.127V97.4408C401.435 96.7946 405.036 95.5944 405.036 89.3164V61.4347C405.036 55.1567 401.435 53.9564 399.127 53.3102V51.833H421.931V60.8807C424.516 55.8952 429.224 51.2791 436.703 51.2791C443.35 51.2791 448.612 54.972 450.367 61.7116C452.859 56.4492 457.752 51.2791 465.6 51.2791C473.632 51.2791 479.91 56.8185 479.91 66.6048V89.3164C479.91 95.5944 483.511 96.7946 485.819 97.4408V98.918H458.583V97.4408Z" fill="#BF68FF"/>
<path d="M497.635 99.7489C490.527 99.7489 484.341 94.3018 484.341 86.7313C484.341 77.1297 493.296 70.4824 508.714 73.2521V67.8973C508.714 62.2656 504.467 59.4959 499.39 59.4959C495.604 59.4959 491.173 61.0654 487.572 66.4201L486.003 66.1432C487.664 59.1266 494.404 51.556 506.222 51.2791C518.685 51.0021 525.794 59.1266 525.794 67.805V86.2697C525.794 88.8547 526.256 91.1628 528.01 91.1628C528.287 91.1628 528.841 91.0705 529.118 90.8859L529.856 91.4398C528.472 95.5944 524.409 99.8413 518.593 99.8413C513.884 99.8413 510.284 97.1639 509.084 93.3786C506.775 96.7946 502.898 99.7489 497.635 99.7489ZM499.759 84.7925C499.759 89.0394 501.605 92.5477 504.652 92.5477C506.314 92.5477 507.883 91.5321 508.714 90.6089V75.9295C503.083 75.7448 499.759 79.0684 499.759 84.7925Z" fill="#BF68FF"/>
<path d="M554.107 119.875C545.336 119.875 531.95 118.029 531.95 110.274C531.95 105.935 536.104 103.35 540.166 102.519C532.965 100.303 531.673 95.6867 531.673 93.0093C531.673 87.9315 536.012 84.1462 542.567 82.1151C537.212 79.3454 533.15 74.6369 533.15 67.9896C533.15 56.6338 544.69 51.1867 554.569 51.1867C558.354 51.1867 562.509 52.0177 566.109 53.6795C568.602 46.7552 575.526 44.1702 581.25 45.4627L579.773 55.8952H579.127C575.711 53.7718 572.387 53.6795 568.971 55.249C573.218 58.0187 576.172 62.1732 576.172 67.8973C576.172 79.2531 564.355 84.8848 554.476 84.8848C551.43 84.8848 548.291 84.3309 545.244 83.223C543.675 84.3309 542.382 85.4388 542.382 86.8236C542.382 88.9471 545.429 89.9626 550.876 90.0549L565.001 90.2396C573.033 90.3319 579.773 95.2251 579.773 103.534C579.773 114.059 569.71 119.875 554.107 119.875ZM542.936 107.319C542.936 112.305 548.752 116.09 557.431 116.09C564.817 116.09 569.987 113.228 569.987 108.981C569.987 105.196 565.925 104.18 561.124 104.088L549.768 103.903C547.829 103.903 546.167 103.719 544.598 103.534C543.213 104.55 542.936 106.212 542.936 107.319ZM549.86 68.082C549.86 73.4367 550.414 81.6535 554.476 81.6535C558.539 81.6535 559.185 73.4367 559.185 68.082C559.185 62.6349 558.539 54.5104 554.476 54.5104C550.414 54.5104 549.86 62.6349 549.86 68.082Z" fill="#BF68FF"/>
<path d="M581.718 97.4408C584.026 96.7946 587.719 95.5944 587.719 89.3164V73.2521C587.719 66.9741 584.026 65.7739 581.718 65.1276V63.6504H604.983V89.3164C604.983 95.5944 608.676 96.7946 610.984 97.4408V98.918H581.718V97.4408Z" fill="#BF68FF"/>
<path d="M633.474 100.026C622.672 100.026 610.023 92.8247 610.023 75.5602C610.023 60.2344 620.825 51.2791 635.136 51.2791C640.213 51.2791 646.399 52.387 651.569 54.4181V69.0052H649.907C644.737 57.9264 641.137 55.3413 637.444 55.3413C630.796 55.3413 628.211 63.3735 628.304 72.5135C628.488 83.777 633.012 91.6244 641.044 91.6244C646.676 91.6244 650.831 87.6545 653.046 84.7925L654.339 85.0695C652.492 91.0705 645.568 100.026 633.474 100.026Z" fill="#BF68FF"/>
<path d="M377.056 92.1329C377.099 92.107 377.217 92.0763 377.264 92.002C377.357 91.8481 377.436 91.6859 377.5 91.5175C378.202 89.854 378.865 88.1727 379.612 86.5302C381.657 82.0371 384.924 78.8474 389.663 77.2743C390.397 77.0333 391.118 76.7535 391.822 76.4361C392.434 76.1599 393.046 75.8886 393.659 75.6141C393.732 75.5901 393.797 75.5432 393.842 75.4802C393.888 75.4172 393.912 75.3413 393.912 75.2636C393.911 75.186 393.885 75.1108 393.839 75.0483C393.793 74.9858 393.729 74.9391 393.655 74.9147C392.782 74.5336 391.927 74.1072 390.986 73.894C386.021 72.7926 381.457 69.1021 379.472 63.7192C378.882 62.1235 378.148 60.5827 377.479 59.0161C377.45 58.9446 377.415 58.8759 377.374 58.811C377.34 58.7639 377.295 58.7257 377.244 58.6996C377.192 58.6736 377.135 58.6605 377.077 58.6614C377.019 58.6624 376.962 58.6774 376.911 58.7051C376.86 58.7328 376.817 58.7725 376.784 58.8207C376.731 58.9092 376.686 59.0021 376.649 59.0985C375.924 60.7523 375.176 62.3964 374.481 64.0632C372.425 69.0004 368.863 72.2515 363.717 73.7422C362.622 74.0652 361.606 74.5723 360.556 75.0003C360.486 75.0335 360.421 75.0753 360.361 75.1247C360.32 75.1562 360.287 75.1967 360.264 75.2431C360.241 75.2894 360.229 75.3403 360.229 75.392C360.229 75.4436 360.241 75.4946 360.264 75.5409C360.287 75.5872 360.32 75.6277 360.361 75.6593C360.427 75.7 360.496 75.7351 360.568 75.7642C361.712 76.2992 362.886 76.7679 364.084 77.1677C369.295 78.8377 372.84 82.2476 374.72 87.3975C374.995 88.1469 375.329 88.8753 375.646 89.6085C375.962 90.3418 376.292 91.0701 376.625 91.7985C376.652 91.8926 376.709 91.9755 376.786 92.0356C376.863 92.0956 376.958 92.1297 377.056 92.1329Z" fill="#BF68FF"/>
</svg>
