<svg width="354" height="354" viewBox="0 0 354 354" fill="none" xmlns="http://www.w3.org/2000/svg">
<g clip-path="url(#clip0_527_152)">
<circle cx="177" cy="177" r="177" fill="black"/>
<path d="M238.418 259.901C238.197 259.769 237.599 259.614 237.361 259.237C236.887 258.456 236.487 257.633 236.165 256.778C232.6 248.337 229.24 239.806 225.445 231.471C215.07 208.672 198.491 192.486 174.446 184.504C170.721 183.281 167.063 181.861 163.489 180.25C160.383 178.849 157.277 177.472 154.17 176.079C153.795 175.957 153.468 175.719 153.237 175.4C153.006 175.08 152.882 174.695 152.884 174.301C152.891 173.907 153.02 173.525 153.254 173.208C153.487 172.891 153.813 172.654 154.187 172.53C158.621 170.596 162.956 168.433 167.734 167.351C192.926 161.762 216.086 143.035 226.158 115.72C229.149 107.623 232.878 99.8052 236.271 91.8557C236.416 91.4928 236.594 91.1444 236.804 90.8149C236.975 90.5759 237.202 90.3819 237.465 90.2498C237.727 90.1176 238.018 90.051 238.312 90.0558C238.606 90.0607 238.895 90.1367 239.153 90.2775C239.411 90.4183 239.632 90.6195 239.795 90.8641C240.065 91.313 240.295 91.7847 240.484 92.2737C244.163 100.666 247.958 109.008 251.482 117.466C261.914 142.519 279.993 159.016 306.103 166.581C311.66 168.22 316.815 170.793 322.142 172.965C322.497 173.133 322.83 173.345 323.133 173.596C323.341 173.756 323.509 173.961 323.624 174.196C323.74 174.432 323.8 174.69 323.8 174.952C323.8 175.214 323.74 175.473 323.624 175.708C323.509 175.943 323.341 176.148 323.133 176.308C322.799 176.515 322.448 176.693 322.084 176.841C316.279 179.556 310.322 181.934 304.243 183.963C277.799 192.437 259.808 209.74 250.269 235.872C248.876 239.675 247.179 243.371 245.573 247.091C243.967 250.812 242.295 254.508 240.606 258.204C240.467 258.681 240.18 259.102 239.787 259.407C239.394 259.712 238.915 259.884 238.418 259.901V259.901Z" fill="white"/>
<path d="M72.7102 121.933C73.3453 121.388 74.0253 120.897 74.7427 120.466C77.8181 119.023 81.0231 117.873 84.3148 117.032C98.6812 113.189 109.565 104.739 117.039 91.8974C118.365 89.4919 119.547 87.0098 120.579 84.4642C122.808 79.3012 124.955 74.1053 127.135 68.9341C127.479 68.1146 127.725 67.1393 129.11 67C129.582 67.5297 129.994 68.1096 130.34 68.7292C132.643 73.8677 135.019 78.9652 137.134 84.1774C143.911 100.929 155.868 111.886 173.193 117.032C176.561 118.04 179.749 119.581 183.027 120.892C183.38 121.057 183.712 121.26 184.019 121.499C184.14 121.604 184.239 121.733 184.308 121.877C184.378 122.022 184.418 122.179 184.424 122.339C184.431 122.5 184.406 122.66 184.349 122.81C184.291 122.96 184.204 123.096 184.093 123.212C183.678 123.54 183.223 123.815 182.74 124.031C179.225 125.441 175.758 127.006 172.16 128.17C154.672 133.841 142.821 145.241 136.462 162.5C134.708 167.278 132.446 171.875 130.405 176.547C130.25 176.891 130.004 177.366 129.7 177.448C129.482 177.539 129.248 177.586 129.012 177.586C128.776 177.586 128.542 177.539 128.324 177.448C127.941 177.103 127.658 176.662 127.504 176.17C125.286 171.001 123.073 165.83 120.866 160.656C114.244 145.175 103.328 134.177 87.2077 128.768C82.7249 127.26 78.4797 125.252 74.1854 123.335C73.7265 123.089 73.3494 122.54 72.7102 121.933Z" fill="white"/>
<path d="M106.165 179.29C106.731 179.895 107.234 180.557 107.664 181.265C109.443 185.199 111.229 189.133 112.877 193.116C118.045 205.627 127.079 213.902 139.979 217.939C142.593 218.759 145.125 219.832 147.666 220.857C148.421 221.26 149.14 221.729 149.813 222.258C149.263 222.752 148.664 223.188 148.026 223.561C145.248 224.7 142.495 225.93 139.634 226.839C126.448 231.101 117.441 239.681 112.483 252.63C111.041 256.416 109.304 260.08 107.673 263.792C107.436 264.215 107.162 264.615 106.853 264.989C105.64 265.111 105.435 264.218 105.14 263.554C103.501 259.842 101.862 256.129 100.338 252.384C95.142 239.837 86.332 231.175 73.2933 226.889C69.9496 225.79 66.7371 224.176 63.5409 222.791C63.3524 222.709 63.2622 222.373 63 221.971C63.2786 221.676 63.5409 221.152 63.9343 221.021C66.2074 220.029 68.536 219.17 70.9085 218.447C84.9225 214.71 94.5602 206.105 100.002 192.698C101.518 188.936 103.141 185.224 104.755 181.503C105.175 180.735 105.646 179.996 106.165 179.29V179.29Z" fill="white"/>
</g>
<defs>
<clipPath id="clip0_527_152">
<rect width="354" height="354" fill="white"/>
</clipPath>
</defs>
</svg>
