<svg width="354" height="354" viewBox="0 0 354 354" fill="none" xmlns="http://www.w3.org/2000/svg">
<g clip-path="url(#clip0_527_144)">
<circle cx="177" cy="177" r="177" fill="black"/>
<path d="M171.876 238.912C171.616 238.626 171.401 238.39 171.183 238.154C168.991 235.738 166.4 233.715 163.524 232.174C161.168 230.895 158.58 230.098 155.913 229.832C153.467 229.609 151.001 229.896 148.671 230.674C145.525 231.704 142.386 232.75 139.216 233.734C134.523 235.231 129.75 236.462 124.919 237.42C121.855 238.02 118.759 238.449 115.647 238.704C113.27 238.891 110.883 238.937 108.5 238.843C103.31 238.642 98.277 237.676 93.4779 235.618C89.53 233.925 85.9132 231.545 82.7953 228.59C74.9687 221.241 69.4923 212.421 66.2472 202.198C65.0615 198.45 64.2069 194.606 63.6935 190.709C63.0572 185.981 62.8582 181.205 63.0989 176.441C63.4837 168.713 64.9624 161.078 67.4908 153.765C70.9839 143.687 76.8089 135.155 84.6798 127.996C90.5565 122.603 97.3825 118.346 104.812 115.443C108.561 113.974 112.457 112.914 116.434 112.28C120.478 111.636 124.584 111.469 128.668 111.78C131.276 111.982 133.84 112.433 136.406 112.905C140.804 113.711 145.202 114.538 149.606 115.336C152.045 115.777 154.484 116.215 156.935 116.592C159.737 117.025 162.55 117.351 165.4 117.267C168.25 117.182 170.917 116.398 173.279 114.731C173.481 114.584 173.705 114.453 173.944 114.296C174.146 114.439 174.333 114.556 174.501 114.699C175.738 115.731 176.96 116.783 178.214 117.795C178.421 117.942 178.588 118.137 178.701 118.364C178.814 118.592 178.869 118.843 178.861 119.097C178.861 120.74 178.919 122.382 178.951 124.025C179.075 130.499 179.198 136.974 179.32 143.449C179.409 148.287 179.492 153.119 179.57 157.946C179.57 158.29 179.632 158.645 179.485 159.052C178.022 158.663 176.609 158.258 175.21 157.808C175.065 157.478 174.938 157.184 174.807 156.891C171.381 149.25 167.247 142.026 162.109 135.397C159.567 132.062 156.676 129.01 153.484 126.291C150.864 124.084 148.022 122.201 144.859 120.836C142.056 119.588 139.031 118.911 135.963 118.845C130.146 118.768 125.127 120.77 120.908 124.777C118.984 126.639 117.312 128.746 115.938 131.043C113.878 134.415 112.35 138.027 111.12 141.77C109.738 146.063 108.688 150.455 107.98 154.908C107.39 158.47 106.972 162.051 106.7 165.649C106.409 169.343 106.306 173.05 106.394 176.755C106.454 178.972 106.513 181.201 106.662 183.419C107.146 190.602 108.208 197.693 110.322 204.596C111.261 207.746 112.501 210.799 114.025 213.711C115.199 215.972 116.642 218.083 118.322 219.998C120.388 222.311 122.793 224.152 125.665 225.375C128.852 226.734 132.093 226.939 135.384 225.897C140.858 224.162 145.023 220.792 147.663 215.666C149.794 211.53 150.082 207.17 148.895 202.7C148.663 201.795 148.367 200.908 148.01 200.045C146.319 196.048 144.15 192.332 141.302 189.034C140.277 187.831 139.117 186.749 137.845 185.809C136.483 184.801 135.023 183.995 133.35 183.66C133.262 183.635 133.177 183.601 133.096 183.558C133.074 183.521 133.05 183.497 133.05 183.473C133.047 183.44 133.055 183.408 133.072 183.38C133.203 183.197 133.334 183.011 133.475 182.836L137.607 177.596C138.851 177.537 140.07 177.467 141.292 177.422C145.726 177.265 150.179 177.12 154.623 176.963C159.935 176.773 165.247 176.58 170.558 176.382C172.717 176.304 174.874 176.227 177.03 176.124C177.22 176.1 177.412 176.129 177.586 176.206C177.761 176.284 177.911 176.407 178.02 176.564C179.161 178.043 180.326 179.504 181.479 180.974C181.539 181.061 181.592 181.152 181.64 181.246C181.297 182.602 180.939 183.971 180.608 185.346C179.446 190.167 178.497 195.031 177.762 199.938C177.157 203.923 176.722 207.924 176.516 211.947C176.28 215.905 176.337 219.876 176.688 223.825C176.904 226.292 177.318 228.738 177.927 231.138C177.964 231.316 177.99 231.495 178.006 231.676C177.216 232.76 172.507 238.333 171.876 238.912Z" fill="white"/>
<path d="M249.79 238.974C249.286 237.723 248.772 236.441 248.25 235.163C248.125 234.861 248.24 234.603 248.33 234.326C248.875 232.676 249.425 231.027 249.943 229.368C251.743 223.621 253.135 217.754 254.109 211.81C254.583 208.92 254.927 206.009 255.179 203.087C255.502 199.363 255.609 195.624 255.5 191.888C255.339 186.498 254.742 181.161 253.394 175.927C253.177 174.96 252.886 174.011 252.523 173.089C252.255 173.117 252.273 173.29 252.249 173.449C251.225 179.971 249.86 186.434 248.161 192.813C244.821 205.358 240.357 217.484 234.455 229.056C233.3 231.319 232.014 233.518 230.781 235.743C230.627 236.019 230.438 236.275 230.24 236.58C228.606 236.086 227.036 235.536 225.468 235.01C223.212 218.439 217.425 203.234 208.843 189.04C206.333 184.886 203.848 181.338 202.998 180.639C202.916 180.949 202.892 181.271 202.925 181.59C202.911 184.459 202.889 187.325 202.897 190.193C202.92 198.793 202.951 207.393 202.99 215.993C202.99 217.154 203.06 218.312 203.086 219.471C203.153 223.011 204.354 226.436 206.513 229.241C208.686 232.129 211.479 234.266 214.682 235.893C214.938 236.024 215.192 236.161 215.446 236.296C215.468 236.308 215.474 236.35 215.486 236.374C215.499 236.437 215.499 236.501 215.486 236.564C215.083 237.37 214.68 238.176 214.277 238.956C213.531 239.065 183.178 239.091 182.009 238.984C182.055 238.836 182.114 238.691 182.185 238.553C182.789 237.598 183.394 236.65 183.987 235.693C184.149 235.416 184.395 235.196 184.688 235.064C190.116 232.595 193.401 228.316 195.056 222.672C195.613 220.774 195.83 218.824 195.935 216.859C196.188 212.195 196.439 207.531 196.689 202.867C196.852 199.747 197.013 196.619 197.15 193.505C197.32 189.641 197.473 185.778 197.61 181.915C197.71 180.048 197.691 178.178 197.554 176.314C197.196 172.124 195.811 168.086 193.522 164.559C193.349 164.289 193.168 164.022 192.954 163.698C193.593 162.35 194.238 160.987 194.903 159.588C195.161 159.566 195.413 159.528 195.665 159.526C197.178 159.514 198.692 159.508 200.208 159.508H220.884C223.043 159.508 225.201 159.493 227.36 159.487H228.303C228.465 159.677 228.598 159.814 228.707 159.969C229.513 161.092 230.319 162.221 231.125 163.339C231.348 163.616 231.474 163.958 231.482 164.313C231.514 168.312 232.585 172.071 234.169 175.703C236.092 180.038 238.611 184.082 241.653 187.72C241.735 187.819 241.82 187.921 241.909 188.008C241.958 188.053 242.011 188.093 242.068 188.129C242.372 188.083 242.431 187.796 242.552 187.589C243.934 185.185 245.017 182.622 245.777 179.956C246.697 176.797 247.311 173.557 247.611 170.281C247.831 168.101 247.933 165.911 247.915 163.72C247.915 163.563 247.939 163.406 247.953 163.224C248.139 163.085 248.316 162.948 248.496 162.821C249.856 161.842 251.223 160.874 252.571 159.88C252.928 159.605 253.37 159.463 253.821 159.477C255.335 159.501 256.844 159.501 258.362 159.503L280.401 159.534L286.296 159.546C286.552 159.546 286.808 159.546 287.03 159.546C287.538 160.122 289.366 163.22 289.813 164.26C289.769 164.373 289.721 164.526 289.652 164.663C288.187 167.701 287.276 170.912 286.649 174.217C285.958 178.021 285.554 181.872 285.439 185.736C285.315 189.121 285.349 192.505 285.52 195.881C285.673 198.904 285.923 201.928 286.205 204.937C286.49 207.886 286.822 210.833 287.247 213.763C287.786 217.458 288.402 221.142 289.049 224.819C289.731 228.687 290.555 232.526 291.468 236.334C291.051 236.939 290.035 237.906 288.685 239.007C287.197 239.109 250.592 239.075 249.79 238.974Z" fill="white"/>
<path d="M238.085 151.443C238.03 151.411 237.883 151.372 237.824 151.28C237.708 151.088 237.609 150.885 237.53 150.675C236.653 148.599 235.827 146.501 234.894 144.451C232.342 138.843 228.265 134.863 222.351 132.899C221.435 132.599 220.535 132.249 219.656 131.853C218.892 131.509 218.128 131.17 217.364 130.827C217.272 130.797 217.191 130.739 217.135 130.66C217.078 130.582 217.047 130.487 217.048 130.39C217.049 130.293 217.081 130.199 217.139 130.121C217.196 130.043 217.276 129.985 217.368 129.955C218.459 129.479 219.525 128.947 220.7 128.681C226.896 127.306 232.592 122.7 235.069 115.982C235.805 113.991 236.722 112.068 237.556 110.113C237.592 110.024 237.636 109.938 237.687 109.857C237.73 109.798 237.785 109.751 237.85 109.718C237.915 109.686 237.986 109.669 238.058 109.67C238.131 109.672 238.202 109.69 238.265 109.725C238.329 109.76 238.383 109.809 238.423 109.869C238.49 109.98 238.546 110.096 238.592 110.216C239.497 112.28 240.431 114.332 241.297 116.412C243.863 122.573 248.31 126.631 254.731 128.491C256.098 128.894 257.366 129.527 258.676 130.061C258.763 130.103 258.845 130.155 258.92 130.217C258.971 130.256 259.012 130.307 259.04 130.364C259.069 130.422 259.084 130.486 259.084 130.55C259.084 130.615 259.069 130.678 259.04 130.736C259.012 130.794 258.971 130.844 258.92 130.884C258.838 130.935 258.751 130.978 258.662 131.015C257.234 131.682 255.769 132.267 254.274 132.766C247.77 134.85 243.345 139.106 240.999 145.533C240.656 146.468 240.239 147.377 239.844 148.292C239.449 149.208 239.038 150.117 238.623 151.026C238.588 151.143 238.518 151.247 238.421 151.321C238.325 151.396 238.207 151.439 238.085 151.443V151.443Z" fill="white"/>
<path d="M197.33 117.511C197.486 117.376 197.653 117.256 197.83 117.15C198.586 116.795 199.374 116.512 200.184 116.305C203.717 115.36 206.394 113.282 208.232 110.123C208.558 109.532 208.849 108.921 209.103 108.295C209.651 107.025 210.179 105.748 210.715 104.476C210.8 104.274 210.861 104.034 211.201 104C211.317 104.13 211.419 104.273 211.503 104.425C212.07 105.689 212.654 106.943 213.174 108.225C214.841 112.345 217.782 115.039 222.043 116.305C222.871 116.553 223.656 116.932 224.462 117.255C224.548 117.295 224.63 117.345 224.706 117.404C224.735 117.43 224.76 117.461 224.777 117.497C224.794 117.532 224.804 117.571 224.805 117.61C224.807 117.65 224.801 117.689 224.787 117.726C224.773 117.763 224.751 117.797 224.724 117.825C224.622 117.906 224.51 117.973 224.391 118.027C223.527 118.373 222.674 118.758 221.789 119.044C217.488 120.439 214.573 123.243 213.009 127.488C212.578 128.663 212.022 129.794 211.52 130.942C211.481 131.027 211.421 131.144 211.346 131.164C211.293 131.187 211.235 131.198 211.177 131.198C211.119 131.198 211.061 131.187 211.008 131.164C210.914 131.079 210.844 130.971 210.806 130.85C210.261 129.579 209.716 128.307 209.173 127.034C207.545 123.227 204.86 120.522 200.895 119.192C199.793 118.821 198.749 118.327 197.693 117.855C197.58 117.795 197.487 117.66 197.33 117.511Z" fill="white"/>
<path d="M205.558 131.617C205.697 131.766 205.821 131.929 205.927 132.103C206.364 133.07 206.803 134.038 207.208 135.017C208.48 138.095 210.701 140.13 213.874 141.123C214.517 141.324 215.14 141.588 215.765 141.84C215.95 141.939 216.127 142.055 216.293 142.185C216.157 142.306 216.01 142.414 215.853 142.505C215.17 142.786 214.493 143.088 213.789 143.312C210.546 144.36 208.331 146.47 207.112 149.655C206.757 150.586 206.33 151.487 205.929 152.4C205.87 152.504 205.803 152.602 205.727 152.694C205.429 152.724 205.378 152.505 205.306 152.342C204.903 151.428 204.499 150.515 204.125 149.594C202.847 146.508 200.68 144.378 197.473 143.324C196.651 143.054 195.861 142.657 195.075 142.316C195.028 142.296 195.006 142.213 194.942 142.114C195.01 142.042 195.075 141.913 195.171 141.881C195.73 141.637 196.303 141.425 196.887 141.248C200.333 140.329 202.704 138.212 204.042 134.915C204.415 133.99 204.814 133.076 205.211 132.161C205.314 131.972 205.43 131.791 205.558 131.617V131.617Z" fill="white"/>
</g>
<defs>
<clipPath id="clip0_527_144">
<rect width="354" height="354" fill="white"/>
</clipPath>
</defs>
</svg>
