<svg width="400" height="400" viewBox="0 0 400 400" fill="none" xmlns="http://www.w3.org/2000/svg">
<rect width="400" height="400" fill="#1E0F2D"/>
<path d="M288.706 210.888C288.678 210.9 288.622 210.945 288.57 210.941C288.465 210.931 288.36 210.911 288.258 210.882C287.223 210.629 286.194 210.35 285.153 210.126C282.306 209.512 279.647 209.94 277.236 211.64C276.864 211.905 276.478 212.149 276.08 212.372C275.734 212.566 275.39 212.762 275.045 212.956C275.007 212.983 274.963 212.997 274.917 212.996C274.871 212.996 274.826 212.981 274.79 212.953C274.753 212.925 274.727 212.886 274.713 212.842C274.7 212.798 274.7 212.751 274.715 212.708C274.841 212.157 274.94 211.599 275.17 211.076C276.393 208.323 276.249 204.846 274.397 201.999C273.849 201.154 273.377 200.26 272.87 199.388C272.846 199.349 272.826 199.308 272.81 199.266C272.8 199.233 272.797 199.198 272.803 199.164C272.809 199.131 272.823 199.099 272.844 199.071C272.865 199.044 272.892 199.022 272.923 199.008C272.954 198.994 272.988 198.987 273.022 198.989C273.082 198.995 273.142 199.006 273.201 199.022C274.239 199.261 275.281 199.486 276.315 199.744C279.376 200.51 282.168 199.962 284.683 198.039C285.221 197.632 285.819 197.328 286.39 196.979C286.431 196.957 286.474 196.941 286.518 196.93C286.547 196.922 286.578 196.92 286.608 196.926C286.638 196.931 286.666 196.944 286.691 196.962C286.715 196.98 286.735 197.004 286.749 197.031C286.763 197.058 286.771 197.088 286.771 197.119C286.767 197.165 286.76 197.21 286.748 197.254C286.599 197.988 286.409 198.713 286.177 199.424C285.136 202.495 285.505 205.388 287.284 208.103C287.542 208.498 287.769 208.915 288.006 209.325C288.242 209.735 288.471 210.149 288.699 210.565C288.734 210.611 288.753 210.667 288.754 210.725C288.756 210.783 288.738 210.84 288.706 210.888Z" fill="#5A30A1"/>
<path d="M111.554 221.367C111.463 221.288 111.365 221.218 111.263 221.156C110.822 220.948 110.363 220.782 109.891 220.661C107.833 220.108 106.273 218.891 105.203 217.041C105.013 216.695 104.843 216.337 104.695 215.971C104.376 215.227 104.068 214.479 103.756 213.734C103.707 213.616 103.671 213.476 103.473 213.456C103.405 213.532 103.346 213.616 103.297 213.705C102.967 214.445 102.626 215.179 102.323 215.93C101.352 218.342 99.6393 219.92 97.157 220.661C96.6744 220.806 96.2176 221.028 95.748 221.217C95.6975 221.241 95.6498 221.27 95.6059 221.304C95.5885 221.319 95.5744 221.338 95.5644 221.359C95.5544 221.38 95.5488 221.402 95.5478 221.425C95.5468 221.448 95.5505 221.472 95.5587 221.493C95.5668 221.515 95.5793 221.534 95.5953 221.551C95.6548 221.598 95.7199 221.638 95.7891 221.669C96.2928 221.872 96.7895 222.097 97.3049 222.265C99.8107 223.082 101.509 224.723 102.42 227.209C102.671 227.897 102.995 228.559 103.288 229.232C103.31 229.282 103.345 229.35 103.388 229.362C103.42 229.375 103.453 229.382 103.487 229.382C103.521 229.382 103.554 229.375 103.586 229.362C103.641 229.312 103.681 229.249 103.703 229.178C104.021 228.433 104.338 227.689 104.654 226.944C105.603 224.714 107.167 223.13 109.477 222.351C110.119 222.134 110.727 221.845 111.343 221.569C111.408 221.533 111.462 221.454 111.554 221.367Z" fill="#5A30A1"/>
<path d="M114.256 237.401C114.187 237.341 114.113 237.287 114.034 237.24C113.698 237.082 113.348 236.955 112.988 236.863C111.419 236.441 110.23 235.513 109.413 234.102C109.268 233.838 109.139 233.566 109.026 233.286C108.783 232.719 108.548 232.148 108.31 231.581C108.272 231.491 108.245 231.383 108.094 231.368C108.042 231.426 107.997 231.49 107.96 231.558C107.708 232.122 107.448 232.682 107.217 233.255C106.477 235.094 105.17 236.298 103.277 236.863C102.909 236.974 102.561 237.143 102.203 237.287C102.164 237.305 102.128 237.327 102.094 237.353C102.081 237.365 102.07 237.379 102.063 237.395C102.055 237.411 102.051 237.428 102.05 237.446C102.049 237.463 102.052 237.481 102.058 237.497C102.065 237.514 102.074 237.529 102.086 237.542C102.132 237.578 102.181 237.608 102.234 237.632C102.618 237.786 102.997 237.958 103.39 238.086C105.301 238.709 106.596 239.961 107.291 241.856C107.482 242.381 107.73 242.886 107.952 243.399C107.969 243.437 107.996 243.489 108.029 243.498C108.053 243.508 108.079 243.513 108.105 243.513C108.131 243.513 108.156 243.508 108.18 243.498C108.222 243.46 108.253 243.412 108.269 243.358C108.512 242.79 108.754 242.222 108.995 241.654C109.718 239.954 110.911 238.746 112.672 238.152C113.162 237.986 113.626 237.766 114.095 237.555C114.145 237.528 114.187 237.468 114.256 237.401Z" fill="#5A30A1"/>
<path d="M85.6979 246.229C85.735 246.207 85.8355 246.181 85.8754 246.117C85.9549 245.985 86.0222 245.847 86.0763 245.702C86.6748 244.278 87.2389 242.838 87.876 241.432C89.6179 237.584 92.4015 234.853 96.4385 233.506C97.0639 233.299 97.6779 233.06 98.2781 232.788C98.7996 232.551 99.3211 232.319 99.8426 232.084C99.9056 232.063 99.9605 232.023 99.9993 231.969C100.038 231.915 100.059 231.85 100.059 231.784C100.057 231.717 100.036 231.653 99.9965 231.599C99.9573 231.546 99.9025 231.506 99.8398 231.485C99.0954 231.159 98.3675 230.793 97.5654 230.611C93.3357 229.668 89.4473 226.507 87.7563 221.898C87.2541 220.531 86.628 219.212 86.0584 217.871C86.0341 217.809 86.0042 217.751 85.9689 217.695C85.9402 217.655 85.9021 217.622 85.858 217.6C85.8139 217.577 85.765 217.566 85.7157 217.567C85.6663 217.568 85.6179 217.58 85.5745 217.604C85.5311 217.628 85.4942 217.662 85.4667 217.703C85.4214 217.779 85.3827 217.859 85.3511 217.941C84.7333 219.357 84.0963 220.765 83.5046 222.192C81.7531 226.42 78.7177 229.204 74.334 230.481C73.4011 230.757 72.5356 231.192 71.6413 231.558C71.5816 231.587 71.5256 231.622 71.4748 231.665C71.4399 231.692 71.4117 231.726 71.3923 231.766C71.3729 231.806 71.3628 231.849 71.3628 231.894C71.3628 231.938 71.3729 231.981 71.3923 232.021C71.4117 232.061 71.4399 232.096 71.4748 232.123C71.5309 232.157 71.5898 232.187 71.6509 232.212C72.6256 232.671 73.6257 233.072 74.6463 233.414C79.086 234.844 82.1067 237.764 83.7083 242.174C83.9422 242.816 84.227 243.44 84.4967 244.068C84.7664 244.696 85.0471 245.319 85.3305 245.943C85.3539 246.024 85.4021 246.095 85.468 246.146C85.534 246.197 85.6144 246.227 85.6979 246.229Z" fill="#5A30A1"/>
<path d="M87.4298 213.084C79.9576 213.084 68.5527 211.503 68.5527 204.862C68.5527 201.146 72.0922 198.932 75.553 198.221C69.4179 196.323 68.3167 192.37 68.3167 190.078C68.3167 185.729 72.0135 182.488 77.598 180.749C73.036 178.377 69.5752 174.345 69.5752 168.653C69.5752 158.928 79.407 154.264 87.8231 154.264C91.0479 154.264 94.5874 154.975 97.6549 156.399C99.7786 150.469 105.678 148.255 110.554 149.362L109.296 158.296H108.745C105.835 156.478 103.003 156.399 100.093 157.743C103.711 160.114 106.228 163.672 106.228 168.574C106.228 178.298 96.1605 183.121 87.7444 183.121C85.1488 183.121 82.4746 182.646 79.879 181.697C78.5418 182.646 77.4407 183.595 77.4407 184.781C77.4407 186.599 80.0363 187.469 84.6769 187.548L96.7111 187.706C103.554 187.785 109.296 191.975 109.296 199.09C109.296 208.103 100.722 213.084 87.4298 213.084ZM77.9126 202.332C77.9126 206.601 82.8679 209.842 90.2614 209.842C96.5538 209.842 100.958 207.392 100.958 203.755C100.958 200.513 97.4976 199.644 93.4076 199.565L83.7331 199.407C82.0813 199.407 80.6655 199.249 79.3284 199.09C78.1486 199.96 77.9126 201.383 77.9126 202.332ZM83.8117 168.732C83.8117 173.317 84.2836 180.353 87.7444 180.353C91.2052 180.353 91.7558 173.317 91.7558 168.732C91.7558 164.067 91.2052 157.11 87.7444 157.11C84.2836 157.11 83.8117 164.067 83.8117 168.732Z" fill="#5A30A1"/>
<path d="M130.095 196.086C120.814 196.086 109.881 189.92 109.881 175.136C109.881 161.854 117.668 154.343 129.702 154.343C143.86 154.343 148.736 165.253 148.579 174.503H125.14C125.926 184.86 130.96 188.576 136.23 188.576C139.77 188.576 143.466 186.994 147.163 183.041L148.264 183.279C146.613 188.338 140.477 196.086 130.095 196.086ZM125.061 171.736H134.264C134.421 166.834 134.028 157.11 129.78 157.11C125.376 157.11 125.061 167.783 125.061 171.736Z" fill="#5A30A1"/>
<path d="M173.463 193.873C174.958 193.319 177.317 192.291 177.317 186.915V169.601C177.317 164.937 175.194 163.435 172.441 163.356C170.553 163.277 168.665 163.909 167.092 164.7V186.915C167.092 192.291 169.452 193.319 170.946 193.873V195.137H147.193V193.873C149.159 193.319 152.305 192.291 152.305 186.915V163.04C152.305 157.663 149.159 156.636 147.193 156.082V154.817H167.092V162.17C168.823 158.375 172.913 154.343 179.441 154.343C186.363 154.343 192.104 159.087 192.104 167.467V186.915C192.104 192.291 195.251 193.319 197.217 193.873V195.137H173.463V193.873Z" fill="#5A30A1"/>
<path d="M216.508 196.086C207.226 196.086 196.293 189.92 196.293 175.136C196.293 161.854 204.08 154.343 216.114 154.343C230.272 154.343 235.149 165.253 234.991 174.503H211.552C212.339 184.86 217.373 188.576 222.643 188.576C226.182 188.576 229.879 186.994 233.576 183.041L234.677 183.279C233.025 188.338 226.89 196.086 216.508 196.086ZM211.474 171.736H220.676C220.834 166.834 220.44 157.11 216.193 157.11C211.788 157.11 211.474 167.783 211.474 171.736Z" fill="#5A30A1"/>
<path d="M233.759 193.873C235.725 193.319 238.871 192.291 238.871 186.915V163.04C238.871 157.663 235.725 156.636 233.759 156.082V154.817H253.658V167.546C255.703 158.928 262.074 153.078 270.019 154.58L267.738 167.862H266.794C260.108 164.542 254.209 168.178 253.658 176.242V186.915C253.658 192.291 256.805 193.319 258.771 193.873V195.137H233.759V193.873Z" fill="#5A30A1"/>
<path d="M279.354 195.849C273.298 195.849 268.028 191.185 268.028 184.702C268.028 176.48 275.657 170.787 288.792 173.159V168.574C288.792 163.751 285.174 161.379 280.848 161.379C277.624 161.379 273.848 162.723 270.781 167.309L269.443 167.072C270.859 161.063 276.601 154.58 286.669 154.343C297.287 154.106 303.344 161.063 303.344 168.495V184.306C303.344 186.52 303.737 188.497 305.231 188.497C305.467 188.497 305.939 188.417 306.175 188.259L306.804 188.734C305.625 192.291 302.164 195.928 297.209 195.928C293.197 195.928 290.13 193.635 289.107 190.394C287.141 193.319 283.837 195.849 279.354 195.849ZM281.163 183.041C281.163 186.678 282.736 189.682 285.332 189.682C286.747 189.682 288.085 188.813 288.792 188.022V175.452C283.995 175.294 281.163 178.14 281.163 183.041Z" fill="#5A30A1"/>
<path d="M305.499 193.873C307.465 193.319 310.611 192.291 310.611 186.915V147.307C310.611 141.852 307.465 141.377 305.42 141.14L305.263 139.875L325.398 136.634V186.915C325.398 192.291 328.544 193.319 330.511 193.873V195.137H305.499V193.873Z" fill="#5A30A1"/>
<path d="M164.91 244.155C166.404 243.602 168.685 242.574 168.685 237.198V219.884C168.685 215.615 165.854 214.034 162.708 214.034C161.213 214.034 159.64 214.429 158.146 214.982C158.303 215.852 158.382 216.801 158.382 217.749V237.198C158.382 242.574 160.663 243.602 162.157 244.155V245.42H140.291V244.155C141.786 243.602 144.067 242.574 144.067 237.198V219.884C144.067 215.536 141.156 214.034 137.931 214.034C136.437 214.034 134.943 214.35 133.684 214.903V237.198C133.684 242.574 135.965 243.602 137.46 244.155V245.42H114.256V244.155C116.223 243.602 119.29 242.574 119.29 237.198V213.322C119.29 207.946 116.223 206.918 114.256 206.365V205.1H133.684V212.848C135.886 208.579 139.898 204.626 146.269 204.626C151.932 204.626 156.415 207.788 157.91 213.559C160.033 209.053 164.202 204.626 170.888 204.626C177.731 204.626 183.079 209.369 183.079 217.749V237.198C183.079 242.574 186.147 243.602 188.113 244.155V245.42H164.91V244.155Z" fill="#5A30A1"/>
<path d="M198.18 246.132C192.124 246.132 186.854 241.467 186.854 234.984C186.854 226.762 194.484 221.07 207.619 223.442V218.856C207.619 214.034 204.001 211.662 199.675 211.662C196.45 211.662 192.674 213.006 189.607 217.591L188.27 217.354C189.686 211.346 195.427 204.863 205.495 204.626C216.114 204.388 222.17 211.346 222.17 218.777V234.589C222.17 236.803 222.563 238.779 224.058 238.779C224.294 238.779 224.766 238.7 225.002 238.542L225.631 239.016C224.451 242.574 220.99 246.211 216.035 246.211C212.024 246.211 208.956 243.918 207.934 240.677C205.967 243.602 202.664 246.132 198.18 246.132ZM199.989 233.324C199.989 236.961 201.562 239.965 204.158 239.965C205.574 239.965 206.911 239.095 207.619 238.305V225.734C202.821 225.576 199.989 228.422 199.989 233.324Z" fill="#5A30A1"/>
<path d="M246.291 263.366C238.819 263.366 227.414 261.785 227.414 255.144C227.414 251.429 230.954 249.215 234.414 248.503C228.279 246.606 227.178 242.653 227.178 240.36C227.178 236.012 230.875 232.771 236.459 231.031C231.897 228.66 228.437 224.628 228.437 218.935C228.437 209.211 238.268 204.547 246.684 204.547C249.909 204.547 253.449 205.258 256.516 206.681C258.64 200.752 264.539 198.538 269.416 199.645L268.157 208.579H267.607C264.696 206.76 261.865 206.681 258.955 208.025C262.573 210.397 265.09 213.955 265.09 218.856C265.09 228.58 255.022 233.403 246.606 233.403C244.01 233.403 241.336 232.929 238.74 231.98C237.403 232.929 236.302 233.877 236.302 235.063C236.302 236.882 238.898 237.751 243.538 237.83L255.572 237.988C262.415 238.068 268.157 242.258 268.157 249.373C268.157 258.386 259.584 263.366 246.291 263.366ZM236.774 252.614C236.774 256.884 241.729 260.125 249.123 260.125C255.415 260.125 259.82 257.674 259.82 254.037C259.82 250.796 256.359 249.926 252.269 249.847L242.594 249.689C240.943 249.689 239.527 249.531 238.19 249.373C237.01 250.243 236.774 251.666 236.774 252.614ZM242.673 219.014C242.673 223.6 243.145 230.636 246.606 230.636C250.067 230.636 250.617 223.6 250.617 219.014C250.617 214.35 250.067 207.393 246.606 207.393C243.145 207.393 242.673 214.35 242.673 219.014Z" fill="#5A30A1"/>
<path d="M269.814 244.155C271.78 243.602 274.926 242.574 274.926 237.198V223.442C274.926 218.066 271.78 217.038 269.814 216.484V215.219H289.635V237.198C289.635 242.574 292.781 243.602 294.747 244.155V245.42H269.814V244.155Z" fill="#5A30A1"/>
<path d="M313.907 246.369C304.705 246.369 293.929 240.202 293.929 225.418C293.929 212.294 303.131 204.626 315.323 204.626C319.649 204.626 324.919 205.574 329.323 207.314V219.805H327.908C323.503 210.318 320.435 208.104 317.289 208.104C311.626 208.104 309.424 214.982 309.502 222.809C309.66 232.454 313.514 239.174 320.357 239.174C325.155 239.174 328.694 235.775 330.582 233.324L331.683 233.561C330.11 238.7 324.211 246.369 313.907 246.369Z" fill="#5A30A1"/>
</svg>
