<svg width="401" height="400" viewBox="0 0 401 400" fill="none" xmlns="http://www.w3.org/2000/svg">
<rect x="0.365723" width="400" height="400" fill="#5A30A1"/>
<path d="M289.071 210.888C289.044 210.9 288.988 210.945 288.936 210.941C288.83 210.931 288.726 210.911 288.623 210.882C287.589 210.629 286.559 210.35 285.519 210.126C282.672 209.512 280.012 209.94 277.601 211.64C277.229 211.905 276.843 212.149 276.445 212.372C276.099 212.566 275.756 212.762 275.41 212.956C275.373 212.983 275.328 212.997 275.282 212.996C275.236 212.996 275.192 212.981 275.155 212.953C275.119 212.925 275.092 212.886 275.079 212.842C275.065 212.798 275.066 212.751 275.08 212.708C275.207 212.157 275.305 211.599 275.535 211.076C276.759 208.323 276.615 204.846 274.763 201.999C274.214 201.154 273.743 200.26 273.236 199.388C273.212 199.349 273.192 199.308 273.176 199.266C273.165 199.233 273.163 199.198 273.169 199.164C273.174 199.131 273.188 199.099 273.209 199.071C273.23 199.044 273.257 199.022 273.288 199.008C273.319 198.994 273.353 198.987 273.387 198.989C273.448 198.995 273.508 199.006 273.567 199.022C274.605 199.261 275.647 199.486 276.68 199.744C279.742 200.51 282.534 199.962 285.049 198.039C285.587 197.632 286.184 197.328 286.756 196.979C286.796 196.957 286.839 196.941 286.883 196.93C286.913 196.922 286.944 196.92 286.974 196.926C287.003 196.931 287.032 196.944 287.056 196.962C287.081 196.98 287.101 197.004 287.115 197.031C287.129 197.058 287.136 197.088 287.137 197.119C287.133 197.165 287.125 197.21 287.114 197.254C286.965 197.988 286.774 198.713 286.543 199.424C285.502 202.495 285.87 205.388 287.649 208.103C287.907 208.498 288.135 208.915 288.371 209.325C288.607 209.735 288.836 210.149 289.064 210.565C289.099 210.611 289.119 210.667 289.12 210.725C289.121 210.783 289.104 210.84 289.071 210.888Z" fill="#BF68FF"/>
<path d="M111.919 221.367C111.828 221.288 111.731 221.218 111.628 221.156C111.188 220.948 110.728 220.782 110.257 220.661C108.198 220.108 106.639 218.891 105.568 217.041C105.378 216.695 105.209 216.337 105.061 215.971C104.741 215.227 104.434 214.479 104.122 213.734C104.072 213.616 104.037 213.476 103.839 213.456C103.771 213.532 103.712 213.616 103.662 213.705C103.332 214.445 102.992 215.179 102.689 215.93C101.718 218.342 100.005 219.92 97.5225 220.661C97.0399 220.806 96.5831 221.028 96.1135 221.217C96.063 221.241 96.0153 221.27 95.9714 221.304C95.954 221.319 95.9399 221.338 95.9299 221.359C95.9199 221.38 95.9143 221.402 95.9133 221.425C95.9123 221.448 95.916 221.472 95.9242 221.493C95.9323 221.515 95.9448 221.534 95.9608 221.551C96.0203 221.598 96.0854 221.638 96.1546 221.669C96.6583 221.872 97.155 222.097 97.6705 222.265C100.176 223.082 101.874 224.723 102.785 227.209C103.037 227.897 103.361 228.559 103.653 229.232C103.675 229.282 103.711 229.35 103.754 229.362C103.785 229.375 103.819 229.382 103.853 229.382C103.886 229.382 103.92 229.375 103.951 229.362C104.006 229.312 104.047 229.249 104.069 229.178C104.386 228.433 104.704 227.689 105.02 226.944C105.969 224.714 107.533 223.13 109.842 222.351C110.485 222.134 111.093 221.845 111.708 221.569C111.774 221.533 111.828 221.454 111.919 221.367Z" fill="#BF68FF"/>
<path d="M114.622 237.401C114.553 237.341 114.478 237.287 114.4 237.24C114.064 237.082 113.714 236.955 113.354 236.863C111.784 236.441 110.595 235.513 109.778 234.102C109.634 233.838 109.504 233.566 109.392 233.286C109.148 232.719 108.913 232.148 108.675 231.581C108.638 231.491 108.611 231.383 108.459 231.368C108.408 231.426 108.363 231.49 108.325 231.558C108.074 232.122 107.814 232.682 107.583 233.255C106.842 235.094 105.536 236.298 103.643 236.863C103.275 236.974 102.926 237.143 102.568 237.287C102.53 237.305 102.493 237.327 102.46 237.353C102.447 237.365 102.436 237.379 102.428 237.395C102.421 237.411 102.416 237.428 102.416 237.446C102.415 237.463 102.418 237.481 102.424 237.497C102.43 237.514 102.44 237.529 102.452 237.542C102.497 237.578 102.547 237.608 102.6 237.632C102.984 237.786 103.363 237.958 103.756 238.086C105.667 238.709 106.961 239.961 107.656 241.856C107.848 242.381 108.095 242.886 108.318 243.399C108.335 243.437 108.362 243.489 108.395 243.498C108.419 243.508 108.444 243.513 108.47 243.513C108.496 243.513 108.522 243.508 108.545 243.498C108.587 243.46 108.618 243.412 108.635 243.358C108.877 242.79 109.119 242.222 109.36 241.654C110.084 239.954 111.277 238.746 113.038 238.152C113.528 237.986 113.992 237.766 114.461 237.555C114.511 237.528 114.552 237.468 114.622 237.401Z" fill="#BF68FF"/>
<path d="M86.0634 246.229C86.1005 246.207 86.201 246.181 86.2409 246.117C86.3204 245.985 86.3877 245.847 86.4418 245.702C87.0403 244.278 87.6044 242.838 88.2415 241.432C89.9834 237.584 92.767 234.853 96.804 233.506C97.4294 233.299 98.0435 233.06 98.6436 232.788C99.1651 232.551 99.6866 232.319 100.208 232.084C100.271 232.063 100.326 232.023 100.365 231.969C100.404 231.915 100.424 231.85 100.424 231.784C100.423 231.717 100.401 231.653 100.362 231.599C100.323 231.546 100.268 231.506 100.205 231.485C99.4609 231.159 98.733 230.793 97.9309 230.611C93.7012 229.668 89.8128 226.507 88.1218 221.898C87.6196 220.531 86.9935 219.212 86.4239 217.871C86.3996 217.809 86.3697 217.751 86.3344 217.695C86.3057 217.655 86.2676 217.622 86.2235 217.6C86.1794 217.577 86.1306 217.566 86.0812 217.567C86.0318 217.568 85.9834 217.58 85.94 217.604C85.8967 217.628 85.8597 217.662 85.8322 217.703C85.7869 217.779 85.7482 217.859 85.7167 217.941C85.0989 219.357 84.4618 220.765 83.8701 222.192C82.1186 226.42 79.0832 229.204 74.6995 230.481C73.7666 230.757 72.9011 231.192 72.0068 231.558C71.9471 231.587 71.8911 231.622 71.8403 231.665C71.8055 231.692 71.7772 231.726 71.7578 231.766C71.7384 231.806 71.7283 231.849 71.7283 231.894C71.7283 231.938 71.7384 231.981 71.7578 232.021C71.7772 232.061 71.8055 232.096 71.8403 232.123C71.8964 232.157 71.9553 232.187 72.0164 232.212C72.9911 232.671 73.9912 233.072 75.0118 233.414C79.4515 234.844 82.4722 237.764 84.0738 242.174C84.3077 242.816 84.5925 243.44 84.8622 244.068C85.1319 244.696 85.4126 245.319 85.696 245.943C85.7194 246.024 85.7676 246.095 85.8336 246.146C85.8995 246.197 85.98 246.227 86.0634 246.229Z" fill="#BF68FF"/>
<path d="M87.7953 213.084C80.3231 213.084 68.9182 211.503 68.9182 204.862C68.9182 201.146 72.4577 198.932 75.9185 198.221C69.7834 196.323 68.6823 192.37 68.6823 190.078C68.6823 185.729 72.379 182.488 77.9635 180.749C73.4015 178.377 69.9407 174.345 69.9407 168.653C69.9407 158.928 79.7726 154.264 88.1886 154.264C91.4134 154.264 94.9529 154.975 98.0204 156.399C100.144 150.469 106.043 148.255 110.92 149.362L109.661 158.296H109.111C106.201 156.478 103.369 156.399 100.459 157.743C104.077 160.114 106.594 163.672 106.594 168.574C106.594 178.298 96.526 183.121 88.11 183.121C85.5143 183.121 82.8401 182.646 80.2445 181.697C78.9074 182.646 77.8062 183.595 77.8062 184.781C77.8062 186.599 80.4018 187.469 85.0424 187.548L97.0766 187.706C103.92 187.785 109.661 191.975 109.661 199.09C109.661 208.103 101.088 213.084 87.7953 213.084ZM78.2781 202.332C78.2781 206.601 83.2334 209.842 90.6269 209.842C96.9193 209.842 101.324 207.392 101.324 203.755C101.324 200.513 97.8631 199.644 93.7731 199.565L84.0986 199.407C82.4468 199.407 81.031 199.249 79.6939 199.09C78.5141 199.96 78.2781 201.383 78.2781 202.332ZM84.1772 168.732C84.1772 173.317 84.6491 180.353 88.11 180.353C91.5708 180.353 92.1213 173.317 92.1213 168.732C92.1213 164.067 91.5708 157.11 88.11 157.11C84.6491 157.11 84.1772 164.067 84.1772 168.732Z" fill="#BF68FF"/>
<path d="M130.461 196.086C121.179 196.086 110.246 189.92 110.246 175.136C110.246 161.854 118.033 154.343 130.067 154.343C144.225 154.343 149.102 165.253 148.944 174.503H125.505C126.292 184.86 131.326 188.576 136.596 188.576C140.135 188.576 143.832 186.994 147.529 183.041L148.63 183.279C146.978 188.338 140.843 196.086 130.461 196.086ZM125.427 171.736H134.629C134.787 166.834 134.393 157.11 130.146 157.11C125.741 157.11 125.427 167.783 125.427 171.736Z" fill="#BF68FF"/>
<path d="M173.829 193.873C175.323 193.319 177.683 192.291 177.683 186.915V169.601C177.683 164.937 175.559 163.435 172.806 163.356C170.919 163.277 169.031 163.909 167.458 164.7V186.915C167.458 192.291 169.817 193.319 171.312 193.873V195.137H147.558V193.873C149.524 193.319 152.671 192.291 152.671 186.915V163.04C152.671 157.663 149.524 156.636 147.558 156.082V154.817H167.458V162.17C169.188 158.375 173.278 154.343 179.807 154.343C186.728 154.343 192.47 159.087 192.47 167.467V186.915C192.47 192.291 195.616 193.319 197.582 193.873V195.137H173.829V193.873Z" fill="#BF68FF"/>
<path d="M216.873 196.086C207.592 196.086 196.659 189.92 196.659 175.136C196.659 161.854 204.446 154.343 216.48 154.343C230.638 154.343 235.514 165.253 235.357 174.503H211.918C212.704 184.86 217.738 188.576 223.008 188.576C226.548 188.576 230.244 186.994 233.941 183.041L235.042 183.279C233.391 188.338 227.256 196.086 216.873 196.086ZM211.839 171.736H221.042C221.199 166.834 220.806 157.11 216.559 157.11C212.154 157.11 211.839 167.783 211.839 171.736Z" fill="#BF68FF"/>
<path d="M234.124 193.873C236.091 193.319 239.237 192.291 239.237 186.915V163.04C239.237 157.663 236.091 156.636 234.124 156.082V154.817H254.024V167.546C256.069 158.928 262.44 153.078 270.384 154.58L268.103 167.862H267.159C260.474 164.542 254.575 168.178 254.024 176.242V186.915C254.024 192.291 257.17 193.319 259.137 193.873V195.137H234.124V193.873Z" fill="#BF68FF"/>
<path d="M279.719 195.849C273.663 195.849 268.393 191.185 268.393 184.702C268.393 176.48 276.023 170.787 289.158 173.159V168.574C289.158 163.751 285.54 161.379 281.214 161.379C277.989 161.379 274.214 162.723 271.146 167.309L269.809 167.072C271.225 161.063 276.967 154.58 287.034 154.343C297.653 154.106 303.709 161.063 303.709 168.495V184.306C303.709 186.52 304.102 188.497 305.597 188.497C305.833 188.497 306.305 188.417 306.541 188.259L307.17 188.734C305.99 192.291 302.529 195.928 297.574 195.928C293.563 195.928 290.495 193.635 289.473 190.394C287.506 193.319 284.203 195.849 279.719 195.849ZM281.529 183.041C281.529 186.678 283.102 189.682 285.697 189.682C287.113 189.682 288.45 188.813 289.158 188.022V175.452C284.36 175.294 281.529 178.14 281.529 183.041Z" fill="#BF68FF"/>
<path d="M305.864 193.873C307.831 193.319 310.977 192.291 310.977 186.915V147.307C310.977 141.852 307.831 141.377 305.785 141.14L305.628 139.875L325.764 136.634V186.915C325.764 192.291 328.91 193.319 330.876 193.873V195.137H305.864V193.873Z" fill="#BF68FF"/>
<path d="M165.276 244.155C166.77 243.602 169.051 242.574 169.051 237.198V219.884C169.051 215.615 166.219 214.034 163.073 214.034C161.579 214.034 160.006 214.429 158.511 214.982C158.669 215.852 158.747 216.801 158.747 217.749V237.198C158.747 242.574 161.028 243.602 162.523 244.155V245.42H140.657V244.155C142.151 243.602 144.432 242.574 144.432 237.198V219.884C144.432 215.536 141.522 214.034 138.297 214.034C136.803 214.034 135.308 214.35 134.05 214.903V237.198C134.05 242.574 136.331 243.602 137.825 244.155V245.42H114.622V244.155C116.588 243.602 119.656 242.574 119.656 237.198V213.322C119.656 207.946 116.588 206.918 114.622 206.365V205.1H134.05V212.848C136.252 208.579 140.263 204.626 146.634 204.626C152.297 204.626 156.781 207.788 158.275 213.559C160.399 209.053 164.568 204.626 171.253 204.626C178.096 204.626 183.445 209.369 183.445 217.749V237.198C183.445 242.574 186.512 243.602 188.479 244.155V245.42H165.276V244.155Z" fill="#BF68FF"/>
<path d="M198.546 246.132C192.489 246.132 187.22 241.467 187.22 234.984C187.22 226.762 194.849 221.07 207.984 223.442V218.856C207.984 214.034 204.366 211.662 200.04 211.662C196.815 211.662 193.04 213.006 189.972 217.591L188.635 217.354C190.051 211.346 195.793 204.863 205.861 204.626C216.479 204.388 222.536 211.346 222.536 218.777V234.589C222.536 236.803 222.929 238.779 224.423 238.779C224.659 238.779 225.131 238.7 225.367 238.542L225.996 239.016C224.816 242.574 221.356 246.211 216.4 246.211C212.389 246.211 209.322 243.918 208.299 240.677C206.333 243.602 203.029 246.132 198.546 246.132ZM200.355 233.324C200.355 236.961 201.928 239.965 204.524 239.965C205.939 239.965 207.276 239.095 207.984 238.305V225.734C203.186 225.576 200.355 228.422 200.355 233.324Z" fill="#BF68FF"/>
<path d="M246.657 263.366C239.184 263.366 227.78 261.785 227.78 255.144C227.78 251.429 231.319 249.215 234.78 248.503C228.645 246.606 227.544 242.653 227.544 240.36C227.544 236.012 231.24 232.771 236.825 231.031C232.263 228.66 228.802 224.628 228.802 218.935C228.802 209.211 238.634 204.547 247.05 204.547C250.275 204.547 253.814 205.258 256.882 206.681C259.005 200.752 264.905 198.538 269.781 199.645L268.523 208.579H267.972C265.062 206.76 262.23 206.681 259.32 208.025C262.938 210.397 265.455 213.955 265.455 218.856C265.455 228.58 255.387 233.403 246.971 233.403C244.376 233.403 241.701 232.929 239.106 231.98C237.769 232.929 236.668 233.877 236.668 235.063C236.668 236.882 239.263 237.751 243.904 237.83L255.938 237.988C262.781 238.068 268.523 242.258 268.523 249.373C268.523 258.386 259.949 263.366 246.657 263.366ZM237.139 252.614C237.139 256.884 242.095 260.125 249.488 260.125C255.781 260.125 260.185 257.674 260.185 254.037C260.185 250.796 256.724 249.926 252.634 249.847L242.96 249.689C241.308 249.689 239.892 249.531 238.555 249.373C237.375 250.243 237.139 251.666 237.139 252.614ZM243.039 219.014C243.039 223.6 243.51 230.636 246.971 230.636C250.432 230.636 250.983 223.6 250.983 219.014C250.983 214.35 250.432 207.393 246.971 207.393C243.51 207.393 243.039 214.35 243.039 219.014Z" fill="#BF68FF"/>
<path d="M270.179 244.155C272.146 243.602 275.292 242.574 275.292 237.198V223.442C275.292 218.066 272.146 217.038 270.179 216.484V215.219H290V237.198C290 242.574 293.146 243.602 295.113 244.155V245.42H270.179V244.155Z" fill="#BF68FF"/>
<path d="M314.273 246.369C305.07 246.369 294.294 240.202 294.294 225.418C294.294 212.294 303.497 204.626 315.688 204.626C320.014 204.626 325.284 205.574 329.689 207.314V219.805H328.273C323.869 210.318 320.801 208.104 317.655 208.104C311.992 208.104 309.789 214.982 309.868 222.809C310.025 232.454 313.879 239.174 320.722 239.174C325.52 239.174 329.06 235.775 330.947 233.324L332.049 233.561C330.476 238.7 324.576 246.369 314.273 246.369Z" fill="#BF68FF"/>
</svg>
