<svg width="401" height="401" viewBox="0 0 401 401" fill="none" xmlns="http://www.w3.org/2000/svg">
<rect x="0.216797" y="0.783203" width="400" height="400" fill="#02B987"/>
<path d="M288.923 211.671C288.895 211.682 288.839 211.728 288.787 211.724C288.682 211.714 288.577 211.694 288.475 211.665C287.44 211.412 286.411 211.133 285.37 210.908C282.523 210.294 279.864 210.723 277.453 212.423C277.081 212.687 276.695 212.932 276.297 213.155C275.951 213.349 275.607 213.544 275.262 213.739C275.224 213.766 275.18 213.78 275.134 213.779C275.088 213.779 275.043 213.763 275.007 213.736C274.97 213.708 274.944 213.669 274.93 213.625C274.917 213.581 274.917 213.534 274.932 213.49C275.058 212.94 275.157 212.382 275.387 211.859C276.61 209.106 276.466 205.629 274.614 202.782C274.066 201.937 273.594 201.043 273.087 200.171C273.063 200.132 273.043 200.091 273.027 200.049C273.017 200.016 273.014 199.981 273.02 199.947C273.026 199.913 273.04 199.881 273.061 199.854C273.082 199.827 273.109 199.805 273.14 199.791C273.171 199.776 273.205 199.77 273.239 199.771C273.3 199.777 273.359 199.788 273.418 199.805C274.456 200.044 275.498 200.269 276.532 200.527C279.593 201.293 282.385 200.745 284.9 198.822C285.438 198.415 286.036 198.11 286.607 197.762C286.648 197.74 286.691 197.724 286.735 197.713C286.764 197.704 286.795 197.703 286.825 197.708C286.855 197.714 286.883 197.726 286.908 197.745C286.932 197.763 286.952 197.786 286.966 197.814C286.98 197.841 286.988 197.871 286.988 197.902C286.984 197.947 286.977 197.993 286.965 198.037C286.816 198.771 286.626 199.495 286.394 200.207C285.353 203.278 285.722 206.171 287.501 208.886C287.759 209.281 287.986 209.698 288.223 210.108C288.459 210.517 288.688 210.932 288.916 211.347C288.951 211.394 288.97 211.45 288.971 211.508C288.973 211.566 288.956 211.623 288.923 211.671Z" fill="#E4FF96"/>
<path d="M111.771 222.15C111.68 222.071 111.582 222 111.48 221.938C111.039 221.73 110.58 221.565 110.108 221.444C108.05 220.89 106.491 219.673 105.42 217.824C105.23 217.478 105.06 217.12 104.912 216.754C104.593 216.01 104.285 215.262 103.973 214.517C103.924 214.399 103.888 214.259 103.69 214.238C103.622 214.315 103.563 214.398 103.514 214.487C103.184 215.227 102.843 215.962 102.54 216.712C101.569 219.125 99.8563 220.703 97.374 221.444C96.8914 221.589 96.4346 221.811 95.965 222C95.9145 222.023 95.8668 222.053 95.8229 222.087C95.8055 222.102 95.7914 222.121 95.7814 222.142C95.7714 222.162 95.7658 222.185 95.7648 222.208C95.7638 222.231 95.7675 222.254 95.7757 222.276C95.7838 222.297 95.7963 222.317 95.8123 222.334C95.8718 222.381 95.9369 222.421 96.0061 222.452C96.5098 222.655 97.0065 222.88 97.522 223.048C100.028 223.864 101.726 225.506 102.637 227.992C102.888 228.68 103.212 229.342 103.505 230.015C103.527 230.064 103.562 230.133 103.605 230.145C103.637 230.158 103.67 230.164 103.704 230.164C103.738 230.164 103.772 230.158 103.803 230.145C103.858 230.095 103.898 230.031 103.92 229.96C104.238 229.216 104.555 228.471 104.871 227.726C105.82 225.497 107.384 223.913 109.694 223.134C110.336 222.917 110.944 222.628 111.56 222.351C111.625 222.316 111.679 222.237 111.771 222.15Z" fill="#E4FF96"/>
<path d="M114.473 238.184C114.404 238.124 114.33 238.07 114.251 238.023C113.915 237.864 113.565 237.738 113.206 237.646C111.636 237.224 110.447 236.296 109.63 234.885C109.485 234.621 109.356 234.348 109.243 234.069C109 233.502 108.765 232.931 108.527 232.363C108.489 232.273 108.462 232.166 108.311 232.151C108.259 232.209 108.214 232.273 108.177 232.341C107.925 232.905 107.665 233.465 107.434 234.037C106.694 235.877 105.387 237.08 103.494 237.646C103.126 237.756 102.778 237.926 102.42 238.07C102.381 238.088 102.345 238.11 102.311 238.136C102.298 238.148 102.287 238.162 102.28 238.178C102.272 238.194 102.268 238.211 102.267 238.229C102.266 238.246 102.269 238.264 102.275 238.28C102.282 238.297 102.291 238.312 102.303 238.324C102.349 238.36 102.398 238.391 102.451 238.414C102.835 238.569 103.214 238.741 103.607 238.869C105.518 239.492 106.813 240.744 107.508 242.639C107.699 243.164 107.947 243.669 108.169 244.182C108.187 244.22 108.213 244.272 108.246 244.281C108.27 244.291 108.296 244.296 108.322 244.296C108.348 244.296 108.373 244.291 108.397 244.281C108.439 244.243 108.47 244.194 108.486 244.14C108.729 243.573 108.971 243.005 109.212 242.437C109.935 240.736 111.128 239.529 112.889 238.935C113.379 238.769 113.843 238.548 114.312 238.338C114.362 238.311 114.404 238.251 114.473 238.184Z" fill="#E4FF96"/>
<path d="M85.9149 247.012C85.952 246.99 86.0525 246.964 86.0924 246.9C86.1719 246.768 86.2392 246.629 86.2933 246.485C86.8918 245.061 87.4559 243.621 88.093 242.214C89.8349 238.367 92.6185 235.635 96.6555 234.288C97.2809 234.082 97.895 233.842 98.4951 233.57C99.0166 233.334 99.5381 233.102 100.06 232.867C100.123 232.846 100.177 232.806 100.216 232.752C100.255 232.698 100.276 232.633 100.276 232.566C100.274 232.5 100.253 232.436 100.214 232.382C100.174 232.329 100.12 232.289 100.057 232.268C99.3124 231.941 98.5845 231.576 97.7824 231.394C93.5527 230.45 89.6643 227.29 87.9733 222.681C87.4711 221.314 86.845 219.995 86.2754 218.653C86.2511 218.592 86.2212 218.533 86.186 218.478C86.1572 218.437 86.1191 218.405 86.075 218.382C86.0309 218.36 85.9821 218.349 85.9327 218.35C85.8833 218.35 85.8349 218.363 85.7915 218.387C85.7482 218.411 85.7112 218.445 85.6837 218.486C85.6384 218.562 85.5997 218.641 85.5682 218.724C84.9504 220.14 84.3133 221.548 83.7216 222.975C81.9701 227.203 78.9347 229.987 74.551 231.264C73.6181 231.54 72.7526 231.974 71.8583 232.341C71.7986 232.369 71.7426 232.405 71.6918 232.447C71.657 232.474 71.6287 232.509 71.6093 232.549C71.5899 232.589 71.5798 232.632 71.5798 232.676C71.5798 232.721 71.5899 232.764 71.6093 232.804C71.6287 232.844 71.657 232.878 71.6918 232.905C71.7479 232.94 71.8068 232.97 71.8679 232.995C72.8426 233.453 73.8427 233.855 74.8633 234.197C79.303 235.627 82.3237 238.547 83.9253 242.957C84.1592 243.599 84.444 244.222 84.7137 244.85C84.9834 245.478 85.2641 246.102 85.5475 246.726C85.5709 246.806 85.6191 246.877 85.6851 246.929C85.751 246.98 85.8315 247.009 85.9149 247.012Z" fill="#E4FF96"/>
<path d="M87.6468 213.867C80.1746 213.867 68.7697 212.285 68.7697 205.644C68.7697 201.929 72.3092 199.715 75.77 199.003C69.6349 197.106 68.5338 193.153 68.5338 190.86C68.5338 186.512 72.2305 183.271 77.815 181.531C73.253 179.16 69.7922 175.128 69.7922 169.435C69.7922 159.711 79.6241 155.047 88.0401 155.047C91.2649 155.047 94.8044 155.758 97.8719 157.181C99.9956 151.252 105.895 149.038 110.771 150.145L109.513 159.079H108.962C106.052 157.26 103.22 157.181 100.31 158.525C103.928 160.897 106.445 164.455 106.445 169.356C106.445 179.081 96.3775 183.903 87.9615 183.903C85.3659 183.903 82.6916 183.429 80.096 182.48C78.7589 183.429 77.6577 184.378 77.6577 185.563C77.6577 187.382 80.2533 188.251 84.8939 188.331L96.9281 188.489C103.771 188.568 109.513 192.758 109.513 199.873C109.513 208.886 100.939 213.867 87.6468 213.867ZM78.1296 203.115C78.1296 207.384 83.0849 210.625 90.4784 210.625C96.7708 210.625 101.175 208.174 101.175 204.538C101.175 201.296 97.7146 200.427 93.6246 200.348L83.9501 200.189C82.2983 200.189 80.8825 200.031 79.5454 199.873C78.3656 200.743 78.1296 202.166 78.1296 203.115ZM84.0287 169.514C84.0287 174.1 84.5006 181.136 87.9615 181.136C91.4223 181.136 91.9728 174.1 91.9728 169.514C91.9728 164.85 91.4223 157.893 87.9615 157.893C84.5006 157.893 84.0287 164.85 84.0287 169.514Z" fill="#E4FF96"/>
<path d="M130.312 196.869C121.031 196.869 110.098 190.702 110.098 175.918C110.098 162.636 117.885 155.126 129.919 155.126C144.077 155.126 148.953 166.036 148.796 175.286H125.357C126.143 185.643 131.177 189.358 136.447 189.358C139.987 189.358 143.683 187.777 147.38 183.824L148.481 184.061C146.83 189.121 140.694 196.869 130.312 196.869ZM125.278 172.519H134.481C134.638 167.617 134.245 157.893 129.997 157.893C125.593 157.893 125.278 168.566 125.278 172.519Z" fill="#E4FF96"/>
<path d="M173.68 194.655C175.175 194.102 177.534 193.074 177.534 187.698V170.384C177.534 165.72 175.411 164.218 172.658 164.138C170.77 164.059 168.882 164.692 167.309 165.482V187.698C167.309 193.074 169.669 194.102 171.163 194.655V195.92H147.41V194.655C149.376 194.102 152.522 193.074 152.522 187.698V163.822C152.522 158.446 149.376 157.418 147.41 156.865V155.6H167.309V162.953C169.04 159.158 173.13 155.126 179.658 155.126C186.58 155.126 192.321 159.869 192.321 168.25V187.698C192.321 193.074 195.468 194.102 197.434 194.655V195.92H173.68V194.655Z" fill="#E4FF96"/>
<path d="M216.725 196.869C207.443 196.869 196.51 190.702 196.51 175.918C196.51 162.636 204.297 155.126 216.331 155.126C230.489 155.126 235.366 166.036 235.208 175.286H211.769C212.556 185.643 217.59 189.358 222.86 189.358C226.399 189.358 230.096 187.777 233.793 183.824L234.894 184.061C233.242 189.121 227.107 196.869 216.725 196.869ZM211.691 172.519H220.893C221.051 167.617 220.657 157.893 216.41 157.893C212.005 157.893 211.691 168.566 211.691 172.519Z" fill="#E4FF96"/>
<path d="M233.976 194.655C235.942 194.102 239.088 193.074 239.088 187.698V163.822C239.088 158.446 235.942 157.418 233.976 156.865V155.6H253.875V168.329C255.92 159.711 262.292 153.861 270.236 155.363L267.955 168.645H267.011C260.325 165.324 254.426 168.961 253.875 177.025V187.698C253.875 193.074 257.022 194.102 258.988 194.655V195.92H233.976V194.655Z" fill="#E4FF96"/>
<path d="M279.571 196.632C273.515 196.632 268.245 191.967 268.245 185.484C268.245 177.262 275.874 171.57 289.01 173.942V169.356C289.01 164.534 285.391 162.162 281.065 162.162C277.841 162.162 274.065 163.506 270.998 168.091L269.66 167.854C271.076 161.846 276.818 155.363 286.886 155.126C297.504 154.889 303.561 161.846 303.561 169.277V185.089C303.561 187.303 303.954 189.279 305.448 189.279C305.684 189.279 306.156 189.2 306.392 189.042L307.021 189.516C305.842 193.074 302.381 196.711 297.426 196.711C293.414 196.711 290.347 194.418 289.324 191.177C287.358 194.102 284.054 196.632 279.571 196.632ZM281.38 183.824C281.38 187.461 282.953 190.465 285.549 190.465C286.964 190.465 288.302 189.595 289.01 188.805V176.234C284.212 176.076 281.38 178.923 281.38 183.824Z" fill="#E4FF96"/>
<path d="M305.716 194.655C307.682 194.102 310.828 193.074 310.828 187.698V148.089C310.828 142.634 307.682 142.16 305.637 141.923L305.48 140.658L325.615 137.417V187.698C325.615 193.074 328.761 194.102 330.728 194.655V195.92H305.716V194.655Z" fill="#E4FF96"/>
<path d="M165.127 244.938C166.621 244.384 168.902 243.357 168.902 237.981V220.667C168.902 216.398 166.071 214.816 162.925 214.816C161.43 214.816 159.857 215.212 158.363 215.765C158.52 216.635 158.599 217.583 158.599 218.532V237.981C158.599 243.357 160.88 244.384 162.374 244.938V246.203H140.508V244.938C142.003 244.384 144.284 243.357 144.284 237.981V220.667C144.284 216.318 141.373 214.816 138.148 214.816C136.654 214.816 135.16 215.133 133.901 215.686V237.981C133.901 243.357 136.182 244.384 137.677 244.938V246.203H114.473V244.938C116.44 244.384 119.507 243.357 119.507 237.981V214.105C119.507 208.729 116.44 207.701 114.473 207.148V205.883H133.901V213.63C136.103 209.361 140.115 205.408 146.486 205.408C152.149 205.408 156.632 208.571 158.127 214.342C160.25 209.836 164.419 205.408 171.105 205.408C177.948 205.408 183.296 210.152 183.296 218.532V237.981C183.296 243.357 186.364 244.384 188.33 244.938V246.203H165.127V244.938Z" fill="#E4FF96"/>
<path d="M198.397 246.914C192.341 246.914 187.071 242.25 187.071 235.767C187.071 227.545 194.701 221.853 207.836 224.224V219.639C207.836 214.816 204.218 212.445 199.892 212.445C196.667 212.445 192.892 213.789 189.824 218.374L188.487 218.137C189.903 212.128 195.644 205.645 205.712 205.408C216.331 205.171 222.387 212.128 222.387 219.56V235.372C222.387 237.585 222.78 239.562 224.275 239.562C224.511 239.562 224.983 239.483 225.219 239.325L225.848 239.799C224.668 243.357 221.207 246.993 216.252 246.993C212.241 246.993 209.173 244.701 208.151 241.459C206.184 244.384 202.881 246.914 198.397 246.914ZM200.206 234.107C200.206 237.743 201.779 240.748 204.375 240.748C205.791 240.748 207.128 239.878 207.836 239.087V226.517C203.038 226.359 200.206 229.205 200.206 234.107Z" fill="#E4FF96"/>
<path d="M246.508 264.149C239.036 264.149 227.631 262.568 227.631 255.927C227.631 252.211 231.171 249.998 234.631 249.286C228.496 247.389 227.395 243.436 227.395 241.143C227.395 236.795 231.092 233.553 236.676 231.814C232.114 229.442 228.654 225.41 228.654 219.718C228.654 209.994 238.485 205.329 246.901 205.329C250.126 205.329 253.666 206.041 256.733 207.464C258.857 201.534 264.756 199.321 269.633 200.428L268.374 209.361H267.824C264.913 207.543 262.082 207.464 259.172 208.808C262.79 211.18 265.307 214.737 265.307 219.639C265.307 229.363 255.239 234.186 246.823 234.186C244.227 234.186 241.553 233.711 238.957 232.763C237.62 233.711 236.519 234.66 236.519 235.846C236.519 237.664 239.115 238.534 243.755 238.613L255.789 238.771C262.632 238.85 268.374 243.04 268.374 250.156C268.374 259.168 259.801 264.149 246.508 264.149ZM236.991 253.397C236.991 257.666 241.946 260.908 249.34 260.908C255.632 260.908 260.037 258.457 260.037 254.82C260.037 251.579 256.576 250.709 252.486 250.63L242.811 250.472C241.16 250.472 239.744 250.314 238.407 250.156C237.227 251.025 236.991 252.448 236.991 253.397ZM242.89 219.797C242.89 224.382 243.362 231.419 246.823 231.419C250.284 231.419 250.834 224.382 250.834 219.797C250.834 215.133 250.284 208.175 246.823 208.175C243.362 208.175 242.89 215.133 242.89 219.797Z" fill="#E4FF96"/>
<path d="M270.031 244.938C271.997 244.384 275.143 243.357 275.143 237.981V224.224C275.143 218.848 271.997 217.821 270.031 217.267V216.002H289.852V237.981C289.852 243.357 292.998 244.384 294.964 244.938V246.203H270.031V244.938Z" fill="#E4FF96"/>
<path d="M314.124 247.151C304.922 247.151 294.146 240.985 294.146 226.201C294.146 213.077 303.348 205.408 315.54 205.408C319.866 205.408 325.136 206.357 329.54 208.096V220.588H328.125C323.72 211.101 320.652 208.887 317.506 208.887C311.843 208.887 309.641 215.765 309.719 223.592C309.877 233.237 313.731 239.957 320.574 239.957C325.372 239.957 328.911 236.558 330.799 234.107L331.9 234.344C330.327 239.483 324.428 247.151 314.124 247.151Z" fill="#E4FF96"/>
</svg>
