<svg width="364" height="215" viewBox="0 0 364 215" fill="none" xmlns="http://www.w3.org/2000/svg">
<path d="M173.223 214.118C172.811 213.664 172.468 213.29 172.123 212.915C168.643 209.08 164.532 205.87 159.967 203.424C156.228 201.394 152.121 200.13 147.888 199.707C144.005 199.353 140.091 199.809 136.394 201.044C131.4 202.679 126.42 204.339 121.388 205.9C113.94 208.276 106.365 210.229 98.6975 211.751C93.8341 212.703 88.9215 213.383 83.9823 213.789C80.2088 214.084 76.4211 214.158 72.6389 214.009C64.4016 213.689 56.4139 212.157 48.7972 208.891C42.5314 206.203 36.7913 202.426 31.8428 197.736C19.4213 186.073 10.7297 172.074 5.57943 155.849C3.69754 149.902 2.34131 143.8 1.52637 137.615C0.516579 130.112 0.200679 122.531 0.582684 114.97C1.19351 102.705 3.54037 90.5882 7.55318 78.9819C13.097 62.9872 22.3419 49.4461 34.8338 38.0834C44.1606 29.5239 54.9942 22.7687 66.7848 18.1604C72.7349 15.8292 78.919 14.1465 85.2299 13.1413C91.6493 12.1193 98.1662 11.8531 104.648 12.3479C108.787 12.6678 112.856 13.3844 116.928 14.133C123.908 15.4125 130.888 16.7241 137.878 17.9909C141.749 18.6914 145.62 19.3856 149.51 19.9838C153.956 20.6716 158.422 21.1898 162.945 21.0555C167.468 20.9211 171.701 19.6767 175.45 17.0312C175.77 16.7977 176.125 16.5897 176.505 16.3402C176.825 16.5673 177.123 16.7529 177.388 16.98C179.352 18.6179 181.291 20.2877 183.281 21.8936C183.609 22.1264 183.875 22.437 184.054 22.7976C184.233 23.1582 184.32 23.5576 184.308 23.9601C184.308 26.5672 184.4 29.1744 184.452 31.7815C184.648 42.0565 184.843 52.3326 185.037 62.6097C185.178 70.2872 185.31 77.9561 185.434 85.6165C185.434 86.1636 185.533 86.7266 185.299 87.3728C182.977 86.7554 180.734 86.1124 178.514 85.399C178.284 84.8744 178.082 84.4073 177.875 83.9435C172.436 71.8163 165.875 60.3513 157.721 49.83C153.687 44.5376 149.098 39.6923 144.033 35.3771C139.874 31.8743 135.364 28.8865 130.345 26.7208C125.895 24.7388 121.095 23.6644 116.224 23.5602C106.992 23.4387 99.027 26.6152 92.3316 32.9747C89.2772 35.9295 86.6249 39.2734 84.443 42.9202C81.1737 48.2721 78.7489 54.0046 76.7975 59.945C74.604 66.7572 72.9378 73.728 71.8136 80.7957C70.8763 86.4483 70.2141 92.1328 69.7822 97.8429C69.3196 103.706 69.1573 109.589 69.296 115.469C69.392 118.988 69.4847 122.526 69.7215 126.045C70.4892 137.446 72.1751 148.7 75.5307 159.656C77.0211 164.655 78.989 169.499 81.4072 174.122C83.2705 177.71 85.5605 181.06 88.2273 184.099C91.5063 187.772 95.3226 190.692 99.8811 192.634C104.939 194.79 110.083 195.116 115.306 193.463C123.995 190.708 130.604 185.36 134.794 177.225C138.176 170.66 138.633 163.741 136.749 156.646C136.381 155.21 135.911 153.802 135.345 152.433C132.661 146.089 129.219 140.191 124.698 134.957C123.071 133.047 121.23 131.33 119.212 129.839C117.05 128.239 114.734 126.96 112.079 126.429C111.939 126.389 111.804 126.334 111.676 126.266C111.64 126.208 111.602 126.17 111.602 126.131C111.597 126.08 111.609 126.028 111.637 125.984C111.845 125.693 112.053 125.399 112.277 125.12L118.835 116.803C120.809 116.71 122.744 116.598 124.683 116.528C131.72 116.278 138.787 116.048 145.84 115.799C154.271 115.498 162.701 115.191 171.131 114.877C174.557 114.753 177.98 114.631 181.403 114.468C181.703 114.43 182.009 114.475 182.285 114.598C182.562 114.721 182.8 114.917 182.974 115.165C184.784 117.513 186.633 119.832 188.463 122.164C188.558 122.303 188.643 122.447 188.719 122.596C188.175 124.749 187.606 126.921 187.081 129.103C185.236 136.755 183.731 144.475 182.564 152.263C181.605 158.588 180.914 164.938 180.587 171.323C180.212 177.605 180.303 183.906 180.859 190.174C181.202 194.089 181.86 197.97 182.827 201.78C182.884 202.062 182.926 202.347 182.951 202.634C181.697 204.355 174.225 213.2 173.223 214.118Z" fill="#161718"/>
<path d="M296.879 214.217C296.079 212.231 295.264 210.196 294.435 208.168C294.237 207.688 294.419 207.279 294.563 206.84C295.427 204.22 296.3 201.604 297.122 198.971C299.979 189.849 302.189 180.538 303.735 171.105C304.486 166.518 305.033 161.898 305.433 157.26C305.945 151.35 306.115 145.416 305.942 139.487C305.686 130.933 304.739 122.462 302.599 114.154C302.255 112.619 301.793 111.114 301.217 109.65C300.792 109.695 300.82 109.97 300.782 110.223C299.157 120.573 296.991 130.831 294.295 140.955C288.994 160.865 281.908 180.11 272.542 198.475C270.709 202.067 268.668 205.558 266.71 209.089C266.467 209.527 266.166 209.934 265.853 210.417C263.258 209.633 260.766 208.76 258.278 207.925C254.698 181.626 245.514 157.493 231.893 134.966C227.91 128.373 223.966 122.743 222.616 121.633C222.487 122.125 222.448 122.637 222.501 123.143C222.478 127.695 222.443 132.244 222.456 136.796C222.492 150.445 222.541 164.094 222.603 177.743C222.603 179.585 222.715 181.425 222.757 183.264C222.862 188.882 224.768 194.317 228.195 198.769C231.643 203.353 236.077 206.744 241.16 209.326C241.566 209.534 241.969 209.751 242.372 209.966C242.408 209.985 242.417 210.052 242.436 210.09C242.456 210.19 242.456 210.292 242.436 210.391C241.797 211.671 241.157 212.95 240.517 214.188C239.333 214.361 191.161 214.403 189.305 214.233C189.378 213.997 189.471 213.768 189.583 213.548C190.543 212.032 191.503 210.529 192.443 209.009C192.702 208.569 193.091 208.22 193.557 208.011C202.171 204.092 207.386 197.301 210.012 188.344C210.895 185.331 211.24 182.237 211.407 179.118C211.808 171.716 212.206 164.314 212.603 156.911C212.862 151.959 213.118 146.994 213.336 142.052C213.604 135.921 213.847 129.789 214.065 123.658C214.224 120.696 214.194 117.727 213.975 114.768C213.408 108.118 211.21 101.711 207.578 96.1121C207.302 95.6834 207.015 95.2612 206.675 94.7461C207.689 92.606 208.713 90.4435 209.769 88.2235C210.178 88.1883 210.578 88.1275 210.978 88.1243C213.379 88.1051 215.783 88.0955 218.188 88.0955H251.003C254.429 88.0955 257.855 88.0731 261.281 88.0635H262.779C263.034 88.3642 263.246 88.5818 263.418 88.8281C264.698 90.6099 265.977 92.4013 267.257 94.1767C267.611 94.6154 267.81 95.1585 267.823 95.7218C267.874 102.069 269.573 108.035 272.087 113.799C275.139 120.679 279.137 127.098 283.965 132.871C284.096 133.028 284.231 133.191 284.371 133.329C284.45 133.4 284.534 133.464 284.624 133.521C285.107 133.447 285.2 132.993 285.392 132.663C287.586 128.849 289.304 124.781 290.51 120.549C291.971 115.536 292.946 110.394 293.421 105.194C293.771 101.734 293.932 98.2584 293.904 94.7813C293.904 94.5318 293.943 94.2823 293.965 93.9944C294.259 93.7736 294.541 93.5561 294.826 93.3546C296.985 91.7999 299.154 90.2644 301.294 88.6873C301.861 88.2504 302.562 88.0242 303.277 88.0475C305.68 88.0859 308.076 88.0859 310.484 88.0891L345.462 88.1371L354.818 88.1563C355.225 88.1563 355.631 88.1563 355.983 88.1563C356.789 89.0712 359.691 93.988 360.401 95.6386C360.33 95.8178 360.254 96.0609 360.145 96.2784C357.819 101.099 356.373 106.195 355.378 111.441C354.282 117.479 353.64 123.59 353.459 129.723C353.261 135.094 353.315 140.465 353.587 145.824C353.83 150.622 354.227 155.421 354.675 160.197C355.126 164.877 355.653 169.553 356.328 174.205C357.183 180.068 358.161 185.916 359.188 191.751C360.27 197.89 361.578 203.984 363.027 210.026C362.365 210.986 360.753 212.522 358.609 214.268C356.248 214.431 298.152 214.377 296.879 214.217Z" fill="#161718"/>
<path d="M278.302 75.2965C278.216 75.2453 277.982 75.1845 277.889 75.0374C277.704 74.7326 277.548 74.4113 277.422 74.0777C276.031 70.7828 274.719 67.4527 273.238 64.1994C269.188 55.2999 262.717 48.982 253.331 45.8662C251.877 45.3888 250.449 44.8346 249.054 44.206C247.842 43.6589 246.629 43.1215 245.417 42.5777C245.27 42.5302 245.143 42.4374 245.052 42.3126C244.962 42.1878 244.914 42.0375 244.915 41.8835C244.917 41.7299 244.968 41.5809 245.059 41.4571C245.15 41.3333 245.277 41.2409 245.423 41.1926C247.154 40.4376 248.846 39.5931 250.711 39.1708C260.545 36.9891 269.585 29.6796 273.516 19.0175C274.684 15.8569 276.139 12.8051 277.464 9.70216C277.52 9.56052 277.59 9.42449 277.672 9.29589C277.739 9.20259 277.827 9.1269 277.93 9.0753C278.032 9.02369 278.146 8.99772 278.261 8.99961C278.375 9.00149 278.488 9.03118 278.589 9.08613C278.69 9.14107 278.776 9.21964 278.839 9.31509C278.945 9.49034 279.035 9.67444 279.108 9.86531C280.544 13.141 282.026 16.3975 283.401 19.6989C287.473 29.478 294.53 35.9175 304.722 38.8701C306.891 39.5099 308.903 40.5144 310.982 41.3621C311.121 41.4277 311.251 41.5105 311.369 41.6084C311.45 41.6709 311.516 41.7511 311.561 41.8429C311.606 41.9347 311.63 42.0356 311.63 42.1378C311.63 42.2401 311.606 42.341 311.561 42.4328C311.516 42.5246 311.45 42.6048 311.369 42.6673C311.239 42.7479 311.102 42.8175 310.96 42.8752C308.694 43.9348 306.369 44.863 303.996 45.6551C293.674 48.9628 286.651 55.7168 282.928 65.9172C282.384 67.4015 281.722 68.8442 281.095 70.2966C280.468 71.7489 279.815 73.1916 279.156 74.6343C279.102 74.8206 278.99 74.9849 278.836 75.1038C278.683 75.2227 278.496 75.2901 278.302 75.2965V75.2965Z" fill="#161718"/>
<path d="M213.621 21.4425C213.869 21.2297 214.134 21.0382 214.414 20.8699C215.614 20.3064 216.865 19.8577 218.15 19.5296C223.758 18.0292 228.006 14.7311 230.924 9.71839C231.441 8.77945 231.903 7.81059 232.306 6.81695C233.176 4.80161 234.014 2.77348 234.865 0.754951C234.999 0.435057 235.095 0.054382 235.636 0C235.82 0.206761 235.981 0.433109 236.116 0.674977C237.014 2.68071 237.942 4.67046 238.768 6.70499C241.413 13.2436 246.08 17.5206 252.843 19.5296C254.158 19.923 255.402 20.5244 256.682 21.0363C256.819 21.1004 256.949 21.1798 257.069 21.273C257.116 21.314 257.154 21.3643 257.182 21.4207C257.209 21.4771 257.224 21.5385 257.227 21.6011C257.23 21.6636 257.22 21.7261 257.197 21.7847C257.175 21.8432 257.141 21.8966 257.097 21.9416C256.935 22.0696 256.758 22.177 256.57 22.2615C255.197 22.8117 253.844 23.4227 252.44 23.8769C245.613 26.0906 240.988 30.5403 238.505 37.2773C237.821 39.1423 236.938 40.9369 236.141 42.7603C236.08 42.8946 235.984 43.0802 235.866 43.1122C235.781 43.1477 235.69 43.166 235.597 43.166C235.505 43.166 235.414 43.1477 235.329 43.1122C235.179 42.9775 235.069 42.8051 235.009 42.6131C234.143 40.5957 233.279 38.5771 232.418 36.5575C229.833 30.5147 225.572 26.2217 219.28 24.1104C217.53 23.5218 215.873 22.7381 214.196 21.9895C214.017 21.8936 213.87 21.6792 213.621 21.4425Z" fill="#161718"/>
<path d="M226.678 43.8311C226.9 44.0673 227.096 44.3256 227.264 44.602C227.958 46.1375 228.655 47.673 229.298 49.2277C231.316 54.1114 234.842 57.3413 239.877 58.9173C240.898 59.2372 241.886 59.6562 242.878 60.0561C243.173 60.2133 243.453 60.3964 243.716 60.6031C243.501 60.7958 243.268 60.9662 243.019 61.1117C241.934 61.5564 240.859 62.0362 239.743 62.3913C234.596 64.0548 231.08 67.4041 229.145 72.4584C228.582 73.9363 227.904 75.3662 227.267 76.8154C227.175 76.9804 227.068 77.1367 226.947 77.2824C226.474 77.3304 226.394 76.9817 226.279 76.7226C225.639 75.2735 224.999 73.8244 224.404 72.3624C222.376 67.4649 218.937 64.0836 213.847 62.4105C212.542 61.9819 211.288 61.3517 210.041 60.811C209.967 60.7791 209.932 60.6479 209.83 60.4911C209.938 60.376 210.041 60.1713 210.194 60.1201C211.082 59.733 211.991 59.3976 212.917 59.1156C218.387 57.6569 222.149 54.298 224.273 49.0645C224.865 47.5962 225.498 46.1471 226.128 44.6948C226.292 44.3949 226.476 44.1064 226.678 43.8311V43.8311Z" fill="#161718"/>
</svg>
