<svg width="660" height="336" viewBox="0 0 660 336" fill="none" xmlns="http://www.w3.org/2000/svg">
<path d="M498.407 188.25C498.355 188.272 498.249 188.358 498.151 188.35C497.95 188.332 497.751 188.294 497.558 188.239C495.593 187.761 493.639 187.234 491.663 186.81C486.258 185.651 481.209 186.46 476.632 189.671C475.925 190.171 475.193 190.632 474.437 191.054C473.78 191.42 473.128 191.789 472.472 192.157C472.401 192.207 472.316 192.234 472.229 192.233C472.142 192.232 472.058 192.203 471.988 192.151C471.919 192.098 471.869 192.025 471.843 191.941C471.818 191.858 471.818 191.769 471.846 191.687C472.086 190.647 472.273 189.594 472.709 188.605C475.032 183.405 474.76 176.838 471.243 171.461C470.202 169.866 469.307 168.177 468.344 166.53C468.299 166.456 468.261 166.379 468.23 166.299C468.21 166.237 468.205 166.171 468.217 166.107C468.228 166.043 468.254 165.983 468.294 165.931C468.333 165.88 468.385 165.839 468.444 165.811C468.502 165.784 468.567 165.772 468.632 165.775C468.747 165.786 468.861 165.807 468.972 165.838C470.943 166.29 472.921 166.715 474.883 167.202C480.695 168.649 485.997 167.614 490.771 163.982C491.792 163.213 492.926 162.638 494.012 161.979C494.088 161.938 494.17 161.907 494.254 161.886C494.31 161.871 494.368 161.868 494.425 161.878C494.482 161.889 494.536 161.912 494.582 161.947C494.629 161.981 494.666 162.026 494.693 162.077C494.719 162.129 494.734 162.185 494.735 162.243C494.727 162.33 494.713 162.415 494.691 162.499C494.409 163.885 494.047 165.253 493.607 166.598C491.631 172.398 492.331 177.863 495.708 182.99C496.198 183.737 496.63 184.524 497.078 185.298C497.526 186.072 497.962 186.854 498.395 187.639C498.461 187.727 498.498 187.833 498.5 187.943C498.502 188.053 498.47 188.16 498.407 188.25Z" fill="#E4FF96"/>
<path d="M162.086 208.043C161.913 207.894 161.728 207.761 161.533 207.644C160.696 207.251 159.824 206.938 158.929 206.71C155.021 205.664 152.061 203.366 150.028 199.873C149.667 199.218 149.345 198.543 149.065 197.851C148.458 196.446 147.874 195.033 147.281 193.626C147.188 193.403 147.121 193.138 146.744 193.1C146.616 193.244 146.504 193.402 146.41 193.571C145.783 194.968 145.137 196.355 144.562 197.773C142.718 202.329 139.466 205.31 134.753 206.71C133.837 206.984 132.97 207.403 132.078 207.76C131.982 207.804 131.892 207.86 131.808 207.924C131.775 207.953 131.749 207.988 131.73 208.027C131.711 208.067 131.7 208.109 131.698 208.153C131.696 208.197 131.703 208.24 131.719 208.281C131.734 208.322 131.758 208.359 131.788 208.39C131.901 208.48 132.025 208.554 132.156 208.613C133.112 208.997 134.055 209.423 135.034 209.739C139.791 211.282 143.015 214.382 144.744 219.077C145.222 220.377 145.837 221.627 146.392 222.898C146.434 222.992 146.501 223.121 146.584 223.143C146.643 223.168 146.707 223.181 146.771 223.181C146.835 223.181 146.899 223.168 146.958 223.143C147.062 223.049 147.139 222.929 147.181 222.796C147.784 221.39 148.386 219.983 148.987 218.576C150.788 214.365 153.757 211.373 158.142 209.902C159.361 209.492 160.516 208.945 161.684 208.424C161.809 208.357 161.912 208.208 162.086 208.043Z" fill="#E4FF96"/>
<path d="M167.216 238.328C167.085 238.215 166.944 238.113 166.795 238.024C166.157 237.724 165.492 237.486 164.809 237.311C161.829 236.514 159.571 234.761 158.021 232.097C157.746 231.598 157.501 231.084 157.287 230.556C156.824 229.485 156.379 228.407 155.927 227.334C155.855 227.164 155.804 226.962 155.517 226.933C155.419 227.043 155.334 227.163 155.262 227.292C154.784 228.357 154.291 229.415 153.853 230.496C152.447 233.971 149.966 236.244 146.373 237.311C145.674 237.521 145.013 237.84 144.333 238.112C144.259 238.146 144.19 238.188 144.127 238.238C144.102 238.26 144.081 238.286 144.067 238.316C144.052 238.346 144.044 238.379 144.043 238.412C144.041 238.446 144.047 238.479 144.058 238.51C144.07 238.541 144.088 238.569 144.112 238.593C144.198 238.661 144.292 238.718 144.392 238.763C145.121 239.056 145.84 239.38 146.587 239.622C150.215 240.798 152.673 243.163 153.992 246.743C154.356 247.734 154.825 248.688 155.248 249.657C155.281 249.728 155.332 249.827 155.394 249.844C155.44 249.863 155.488 249.873 155.537 249.873C155.586 249.873 155.635 249.863 155.68 249.844C155.759 249.772 155.818 249.681 155.85 249.579C156.31 248.507 156.769 247.434 157.227 246.361C158.601 243.149 160.865 240.868 164.209 239.746C165.139 239.433 166.02 239.017 166.91 238.619C167.006 238.568 167.084 238.454 167.216 238.328Z" fill="#E4FF96"/>
<path d="M112.998 255.002C113.069 254.961 113.259 254.911 113.335 254.791C113.486 254.542 113.614 254.28 113.716 254.007C114.853 251.317 115.924 248.597 117.133 245.941C120.44 238.673 125.725 233.514 133.389 230.97C134.576 230.58 135.742 230.128 136.882 229.614C137.872 229.168 138.862 228.729 139.852 228.285C139.971 228.246 140.075 228.17 140.149 228.068C140.223 227.966 140.262 227.844 140.262 227.718C140.259 227.592 140.218 227.471 140.144 227.37C140.069 227.268 139.966 227.193 139.846 227.154C138.433 226.537 137.051 225.847 135.528 225.503C127.498 223.721 120.116 217.752 116.906 209.046C115.952 206.465 114.764 203.973 113.682 201.439C113.636 201.323 113.58 201.212 113.513 201.107C113.458 201.031 113.386 200.969 113.302 200.927C113.218 200.885 113.126 200.864 113.032 200.865C112.938 200.867 112.846 200.891 112.764 200.936C112.681 200.981 112.611 201.045 112.559 201.123C112.473 201.266 112.4 201.416 112.34 201.572C111.167 204.247 109.957 206.906 108.834 209.602C105.509 217.588 99.7462 222.846 91.4237 225.257C89.6526 225.779 88.0095 226.6 86.3116 227.292C86.1983 227.346 86.0921 227.413 85.9955 227.493C85.9294 227.544 85.8758 227.61 85.839 227.685C85.8021 227.76 85.783 227.842 85.783 227.925C85.783 228.009 85.8021 228.091 85.839 228.166C85.8758 228.241 85.9294 228.307 85.9955 228.358C86.102 228.424 86.2139 228.48 86.3299 228.528C88.1803 229.393 90.0791 230.151 92.0167 230.798C100.445 233.499 106.18 239.014 109.221 247.343C109.665 248.555 110.206 249.734 110.718 250.919C111.23 252.105 111.762 253.284 112.301 254.462C112.345 254.614 112.436 254.748 112.562 254.845C112.687 254.942 112.84 254.997 112.998 255.002Z" fill="#E4FF96"/>
<path d="M116.286 192.398C102.1 192.398 80.448 189.411 80.448 176.868C80.448 169.85 87.1676 165.669 93.738 164.325C82.0906 160.741 80 153.275 80 148.944C80 140.731 87.0183 134.609 97.6204 131.324C88.9595 126.844 82.3892 119.228 82.3892 108.477C82.3892 90.1098 101.055 81.2996 117.033 81.2996C123.155 81.2996 129.875 82.6435 135.698 85.3314C139.73 74.132 150.93 69.9509 160.188 72.0414L157.799 88.9152H156.753C151.228 85.4807 145.853 85.3314 140.328 87.8699C147.197 92.3497 151.975 99.0693 151.975 108.328C151.975 126.695 132.861 135.803 116.883 135.803C111.956 135.803 106.879 134.907 101.951 133.116C99.4123 134.907 97.3218 136.699 97.3218 138.939C97.3218 142.374 102.25 144.016 111.06 144.166L133.907 144.464C146.898 144.614 157.799 152.528 157.799 165.967C157.799 182.99 141.522 192.398 116.286 192.398ZM98.2177 172.09C98.2177 180.153 107.625 186.275 121.662 186.275C133.608 186.275 141.97 181.646 141.97 174.777C141.97 168.655 135.4 167.012 127.635 166.863L109.268 166.564C106.132 166.564 103.444 166.266 100.906 165.967C98.6657 167.61 98.2177 170.298 98.2177 172.09ZM109.417 108.626C109.417 117.287 110.313 130.577 116.883 130.577C123.454 130.577 124.499 117.287 124.499 108.626C124.499 99.816 123.454 86.6753 116.883 86.6753C110.313 86.6753 109.417 99.816 109.417 108.626Z" fill="#E4FF96"/>
<path d="M197.286 160.293C179.665 160.293 158.909 148.645 158.909 120.722C158.909 95.6349 173.692 81.4489 196.539 81.4489C223.418 81.4489 232.676 102.056 232.377 119.527H187.878C189.372 139.089 198.928 146.107 208.933 146.107C215.653 146.107 222.671 143.12 229.69 135.654L231.78 136.102C228.644 145.659 216.997 160.293 197.286 160.293ZM187.729 114.301H205.2C205.499 105.042 204.752 86.6753 196.689 86.6753C188.326 86.6753 187.729 106.834 187.729 114.301Z" fill="#E4FF96"/>
<path d="M279.62 156.112C282.457 155.066 286.937 153.125 286.937 142.971V110.269C286.937 101.459 282.905 98.6214 277.679 98.472C274.095 98.3227 270.511 99.5173 267.525 101.011V142.971C267.525 153.125 272.005 155.066 274.842 156.112V158.501H229.746V156.112C233.479 155.066 239.452 153.125 239.452 142.971V97.8747C239.452 87.7206 233.479 85.7794 229.746 84.7341V82.3449H267.525V96.2322C270.81 89.0645 278.575 81.4489 290.969 81.4489C304.11 81.4489 315.01 90.4085 315.01 106.237V142.971C315.01 153.125 320.983 155.066 324.717 156.112V158.501H279.62V156.112Z" fill="#E4FF96"/>
<path d="M361.34 160.293C343.719 160.293 322.963 148.645 322.963 120.722C322.963 95.6349 337.746 81.4489 360.593 81.4489C387.472 81.4489 396.73 102.056 396.431 119.527H351.932C353.426 139.089 362.982 146.107 372.987 146.107C379.707 146.107 386.725 143.12 393.743 135.654L395.834 136.102C392.698 145.659 381.051 160.293 361.34 160.293ZM351.783 114.301H369.254C369.553 105.042 368.806 86.6753 360.743 86.6753C352.38 86.6753 351.783 106.834 351.783 114.301Z" fill="#E4FF96"/>
<path d="M394.091 156.112C397.824 155.066 403.797 153.125 403.797 142.971V97.8747C403.797 87.7206 397.824 85.7794 394.091 84.7341V82.3449H431.871V106.386C435.753 90.1098 447.848 79.0597 462.93 81.8969L458.6 106.984H456.808C444.115 100.712 432.916 107.581 431.871 122.812V142.971C431.871 153.125 437.844 155.066 441.577 156.112V158.501H394.091V156.112Z" fill="#E4FF96"/>
<path d="M480.653 159.845C469.155 159.845 459.15 151.035 459.15 138.79C459.15 123.26 473.635 112.509 498.572 116.988V108.328C498.572 99.2187 491.703 94.7389 483.491 94.7389C477.368 94.7389 470.201 97.2774 464.377 105.938L461.838 105.49C464.526 94.1416 475.427 81.8969 494.541 81.4489C514.7 81.0009 526.198 94.1416 526.198 108.178V138.043C526.198 142.224 526.944 145.958 529.781 145.958C530.229 145.958 531.125 145.808 531.573 145.51L532.768 146.406C530.528 153.125 523.958 159.994 514.55 159.994C506.935 159.994 501.111 155.664 499.17 149.541C495.437 155.066 489.165 159.845 480.653 159.845ZM484.088 135.654C484.088 142.523 487.074 148.197 492.002 148.197C494.69 148.197 497.228 146.555 498.572 145.062V121.319C489.464 121.02 484.088 126.396 484.088 135.654Z" fill="#E4FF96"/>
<path d="M530.289 156.112C534.022 155.066 539.995 153.125 539.995 142.971V68.159C539.995 57.8555 534.022 56.9595 530.14 56.5116L529.841 54.1223L568.068 48V142.971C568.068 153.125 574.041 155.066 577.774 156.112V158.501H530.289V156.112Z" fill="#E4FF96"/>
<path d="M263.382 251.085C266.219 250.039 270.55 248.098 270.55 237.944V205.242C270.55 197.178 265.174 194.192 259.201 194.192C256.364 194.192 253.377 194.938 250.54 195.984C250.839 197.626 250.988 199.418 250.988 201.21V237.944C250.988 248.098 255.318 250.039 258.156 251.085V253.474H216.643V251.085C219.48 250.039 223.811 248.098 223.811 237.944V205.242C223.811 197.029 218.286 194.192 212.163 194.192C209.326 194.192 206.489 194.789 204.1 195.834V237.944C204.1 248.098 208.43 250.039 211.267 251.085V253.474H167.216V251.085C170.949 250.039 176.773 248.098 176.773 237.944V192.848C176.773 182.694 170.949 180.752 167.216 179.707V177.318H204.1V191.952C208.281 183.888 215.896 176.422 227.992 176.422C238.743 176.422 247.255 182.395 250.092 193.296C254.124 184.784 262.038 176.422 274.731 176.422C287.722 176.422 297.876 185.381 297.876 201.21V237.944C297.876 248.098 303.7 250.039 307.433 251.085V253.474H263.382V251.085Z" fill="#E4FF96"/>
<path d="M326.546 254.818C315.047 254.818 305.043 246.008 305.043 233.763C305.043 218.233 319.527 207.482 344.465 211.961V203.301C344.465 194.192 337.596 189.712 329.383 189.712C323.26 189.712 316.093 192.25 310.269 200.911L307.73 200.463C310.418 189.115 321.319 176.87 340.433 176.422C360.592 175.974 372.09 189.115 372.09 203.151V233.016C372.09 237.197 372.836 240.931 375.674 240.931C376.122 240.931 377.018 240.781 377.466 240.483L378.66 241.379C376.42 248.098 369.85 254.967 360.442 254.967C352.827 254.967 347.003 250.637 345.062 244.514C341.329 250.039 335.057 254.818 326.546 254.818ZM329.98 230.627C329.98 237.496 332.966 243.17 337.894 243.17C340.582 243.17 343.121 241.528 344.465 240.035V216.292C335.356 215.993 329.98 221.369 329.98 230.627Z" fill="#E4FF96"/>
<path d="M417.884 287.371C403.698 287.371 382.046 284.384 382.046 271.841C382.046 264.823 388.765 260.642 395.336 259.298C383.688 255.714 381.598 248.248 381.598 243.917C381.598 235.704 388.616 229.582 399.218 226.297C390.557 221.817 383.987 214.201 383.987 203.45C383.987 185.083 402.653 176.273 418.63 176.273C424.753 176.273 431.472 177.617 437.296 180.304C441.328 169.105 452.527 164.924 461.785 167.014L459.396 183.888H458.351C452.826 180.454 447.45 180.304 441.925 182.843C448.794 187.323 453.573 194.042 453.573 203.301C453.573 221.668 434.459 230.776 418.481 230.776C413.553 230.776 408.476 229.88 403.548 228.089C401.01 229.88 398.919 231.672 398.919 233.912C398.919 237.347 403.847 238.989 412.657 239.139L435.504 239.437C448.496 239.587 459.396 247.501 459.396 260.94C459.396 277.963 443.12 287.371 417.884 287.371ZM399.815 267.063C399.815 275.126 409.223 281.248 423.259 281.248C435.206 281.248 443.568 276.619 443.568 269.75C443.568 263.628 436.997 261.985 429.233 261.836L410.865 261.537C407.73 261.537 405.042 261.239 402.503 260.94C400.263 262.583 399.815 265.271 399.815 267.063ZM411.015 203.599C411.015 212.26 411.911 225.55 418.481 225.55C425.051 225.55 426.097 212.26 426.097 203.599C426.097 194.789 425.051 181.648 418.481 181.648C411.911 181.648 411.015 194.789 411.015 203.599Z" fill="#E4FF96"/>
<path d="M462.541 251.085C466.275 250.039 472.248 248.098 472.248 237.944V211.961C472.248 201.807 466.275 199.866 462.541 198.821V196.432H500.171V237.944C500.171 248.098 506.145 250.039 509.878 251.085V253.474H462.541V251.085Z" fill="#E4FF96"/>
<path d="M546.252 255.266C528.781 255.266 508.324 243.618 508.324 215.695C508.324 190.906 525.795 176.422 548.94 176.422C557.153 176.422 567.158 178.214 575.52 181.499V205.092H572.832C564.47 187.173 558.646 182.992 552.673 182.992C541.922 182.992 537.741 195.984 537.89 210.767C538.189 228.985 545.506 241.677 558.497 241.677C567.606 241.677 574.326 235.256 577.909 230.627L580 231.075C577.013 240.781 565.814 255.266 546.252 255.266Z" fill="#E4FF96"/>
</svg>
