<svg width="400" height="401" viewBox="0 0 400 401" fill="none" xmlns="http://www.w3.org/2000/svg">
<rect y="0.216797" width="400" height="400" fill="#396B6D"/>
<path d="M288.706 211.105C288.678 211.116 288.622 211.162 288.571 211.158C288.465 211.148 288.36 211.128 288.258 211.099C287.223 210.846 286.194 210.567 285.153 210.342C282.306 209.728 279.647 210.157 277.236 211.857C276.864 212.122 276.478 212.366 276.08 212.589C275.734 212.783 275.39 212.979 275.045 213.173C275.008 213.2 274.963 213.214 274.917 213.213C274.871 213.213 274.827 213.197 274.79 213.17C274.754 213.142 274.727 213.103 274.713 213.059C274.7 213.015 274.701 212.968 274.715 212.924C274.841 212.374 274.94 211.816 275.17 211.293C276.393 208.54 276.25 205.063 274.398 202.216C273.849 201.371 273.378 200.477 272.871 199.605C272.847 199.566 272.826 199.525 272.81 199.483C272.8 199.45 272.797 199.415 272.803 199.381C272.809 199.347 272.823 199.316 272.844 199.288C272.865 199.261 272.892 199.239 272.923 199.225C272.954 199.21 272.988 199.204 273.022 199.205C273.083 199.211 273.143 199.223 273.201 199.239C274.24 199.478 275.281 199.703 276.315 199.961C279.376 200.727 282.169 200.179 284.684 198.256C285.221 197.849 285.819 197.544 286.391 197.196C286.431 197.174 286.474 197.158 286.518 197.147C286.547 197.138 286.578 197.137 286.608 197.142C286.638 197.148 286.666 197.16 286.691 197.179C286.715 197.197 286.735 197.221 286.749 197.248C286.763 197.275 286.771 197.305 286.771 197.336C286.767 197.381 286.76 197.427 286.748 197.471C286.6 198.205 286.409 198.929 286.177 199.641C285.136 202.712 285.505 205.605 287.284 208.32C287.542 208.715 287.77 209.132 288.006 209.542C288.242 209.951 288.471 210.366 288.699 210.781C288.734 210.828 288.753 210.884 288.755 210.942C288.756 211 288.739 211.057 288.706 211.105Z" fill="#02B987"/>
<path d="M111.554 221.584C111.463 221.505 111.366 221.434 111.263 221.372C110.822 221.165 110.363 220.999 109.891 220.878C107.833 220.324 106.274 219.108 105.203 217.258C105.013 216.912 104.843 216.554 104.696 216.188C104.376 215.444 104.069 214.696 103.756 213.951C103.707 213.833 103.672 213.693 103.473 213.673C103.406 213.749 103.347 213.832 103.297 213.922C102.967 214.662 102.627 215.396 102.324 216.146C101.353 218.559 99.6395 220.137 97.1572 220.878C96.6746 221.023 96.2178 221.245 95.7482 221.434C95.6977 221.457 95.65 221.487 95.6061 221.521C95.5887 221.536 95.5746 221.555 95.5646 221.576C95.5546 221.596 95.549 221.619 95.548 221.642C95.547 221.665 95.5507 221.688 95.5589 221.71C95.567 221.731 95.5795 221.751 95.5955 221.768C95.655 221.815 95.7201 221.855 95.7893 221.886C96.293 222.089 96.7897 222.314 97.3052 222.482C99.8109 223.299 101.509 224.94 102.42 227.426C102.671 228.114 102.995 228.776 103.288 229.449C103.31 229.498 103.345 229.567 103.389 229.579C103.42 229.592 103.453 229.598 103.487 229.598C103.521 229.598 103.555 229.592 103.586 229.579C103.641 229.529 103.681 229.465 103.703 229.394C104.021 228.65 104.338 227.905 104.654 227.16C105.603 224.931 107.167 223.347 109.477 222.568C110.119 222.351 110.727 222.062 111.343 221.785C111.408 221.75 111.463 221.671 111.554 221.584Z" fill="#02B987"/>
<path d="M114.257 237.618C114.187 237.558 114.113 237.504 114.035 237.457C113.699 237.298 113.348 237.172 112.989 237.08C111.419 236.658 110.23 235.73 109.413 234.319C109.268 234.055 109.139 233.783 109.026 233.503C108.783 232.936 108.548 232.365 108.31 231.797C108.272 231.707 108.246 231.6 108.094 231.585C108.043 231.643 107.998 231.707 107.96 231.775C107.708 232.339 107.449 232.899 107.218 233.471C106.477 235.311 105.171 236.515 103.278 237.08C102.91 237.19 102.561 237.36 102.203 237.504C102.165 237.522 102.128 237.544 102.095 237.57C102.081 237.582 102.071 237.596 102.063 237.612C102.055 237.628 102.051 237.645 102.05 237.663C102.05 237.68 102.052 237.698 102.059 237.714C102.065 237.731 102.074 237.746 102.087 237.758C102.132 237.794 102.182 237.825 102.234 237.848C102.618 238.003 102.997 238.175 103.39 238.303C105.301 238.926 106.596 240.178 107.291 242.073C107.483 242.598 107.73 243.103 107.953 243.616C107.97 243.654 107.997 243.706 108.03 243.715C108.054 243.725 108.079 243.73 108.105 243.73C108.131 243.73 108.156 243.725 108.18 243.715C108.222 243.677 108.253 243.629 108.27 243.575C108.512 243.007 108.754 242.439 108.995 241.871C109.719 240.171 110.911 238.963 112.673 238.369C113.162 238.203 113.626 237.983 114.095 237.772C114.146 237.745 114.187 237.685 114.257 237.618Z" fill="#02B987"/>
<path d="M85.6981 246.446C85.7352 246.424 85.8357 246.398 85.8756 246.334C85.9551 246.202 86.0224 246.063 86.0765 245.919C86.675 244.495 87.2391 243.055 87.8762 241.648C89.6181 237.801 92.4017 235.069 96.4387 233.722C97.0641 233.516 97.6782 233.276 98.2783 233.005C98.7998 232.768 99.3213 232.536 99.8428 232.301C99.9058 232.28 99.9607 232.24 99.9995 232.186C100.038 232.132 100.059 232.067 100.059 232C100.058 231.934 100.036 231.87 99.9967 231.816C99.9575 231.763 99.9028 231.723 99.84 231.702C99.0956 231.375 98.3678 231.01 97.5656 230.828C93.3359 229.884 89.4475 226.724 87.7565 222.115C87.2543 220.748 86.6282 219.429 86.0586 218.087C86.0343 218.026 86.0044 217.967 85.9692 217.912C85.9404 217.871 85.9023 217.839 85.8582 217.816C85.8141 217.794 85.7653 217.783 85.7159 217.784C85.6665 217.784 85.6181 217.797 85.5747 217.821C85.5314 217.845 85.4944 217.879 85.4669 217.92C85.4216 217.996 85.3829 218.075 85.3514 218.158C84.7336 219.574 84.0965 220.982 83.5048 222.409C81.7533 226.637 78.7179 229.421 74.3342 230.698C73.4013 230.974 72.5358 231.409 71.6415 231.775C71.5818 231.803 71.5258 231.839 71.475 231.882C71.4402 231.909 71.4119 231.943 71.3925 231.983C71.3731 232.023 71.363 232.066 71.363 232.11C71.363 232.155 71.3731 232.198 71.3925 232.238C71.4119 232.278 71.4402 232.312 71.475 232.339C71.5311 232.374 71.59 232.404 71.6511 232.429C72.6258 232.887 73.6259 233.289 74.6465 233.631C79.0862 235.061 82.1069 237.981 83.7085 242.391C83.9424 243.033 84.2272 243.657 84.4969 244.284C84.7666 244.912 85.0473 245.536 85.3307 246.16C85.3541 246.24 85.4023 246.311 85.4683 246.363C85.5342 246.414 85.6147 246.443 85.6981 246.446Z" fill="#02B987"/>
<path d="M87.43 213.301C79.9578 213.301 68.5529 211.72 68.5529 205.079C68.5529 201.363 72.0924 199.149 75.5532 198.438C69.4181 196.54 68.317 192.587 68.317 190.294C68.317 185.946 72.0137 182.705 77.5982 180.966C73.0362 178.594 69.5754 174.562 69.5754 168.869C69.5754 159.145 79.4073 154.481 87.8233 154.481C91.0482 154.481 94.5876 155.192 97.6551 156.615C99.7788 150.686 105.678 148.472 110.555 149.579L109.296 158.513H108.745C105.835 156.694 103.004 156.615 100.093 157.959C103.712 160.331 106.229 163.889 106.229 168.79C106.229 178.515 96.1607 183.337 87.7447 183.337C85.1491 183.337 82.4748 182.863 79.8792 181.914C78.5421 182.863 77.4409 183.812 77.4409 184.998C77.4409 186.816 80.0365 187.686 84.6771 187.765L96.7113 187.923C103.554 188.002 109.296 192.192 109.296 199.307C109.296 208.32 100.723 213.301 87.43 213.301ZM77.9128 202.549C77.9128 206.818 82.8681 210.059 90.2616 210.059C96.554 210.059 100.959 207.608 100.959 203.972C100.959 200.73 97.4978 199.861 93.4078 199.782L83.7333 199.623C82.0815 199.623 80.6657 199.465 79.3286 199.307C78.1488 200.177 77.9128 201.6 77.9128 202.549ZM83.8119 168.949C83.8119 173.534 84.2839 180.57 87.7447 180.57C91.2055 180.57 91.756 173.534 91.756 168.949C91.756 164.284 91.2055 157.327 87.7447 157.327C84.2839 157.327 83.8119 164.284 83.8119 168.949Z" fill="#02B987"/>
<path d="M130.095 196.303C120.814 196.303 109.881 190.136 109.881 175.352C109.881 162.07 117.668 154.56 129.702 154.56C143.86 154.56 148.736 165.47 148.579 174.72H125.14C125.927 185.077 130.96 188.792 136.23 188.792C139.77 188.792 143.467 187.211 147.163 183.258L148.264 183.495C146.613 188.555 140.478 196.303 130.095 196.303ZM125.061 171.953H134.264C134.421 167.051 134.028 157.327 129.781 157.327C125.376 157.327 125.061 168 125.061 171.953Z" fill="#02B987"/>
<path d="M173.463 194.089C174.958 193.536 177.318 192.508 177.318 187.132V169.818C177.318 165.154 175.194 163.652 172.441 163.573C170.553 163.493 168.666 164.126 167.092 164.917V187.132C167.092 192.508 169.452 193.536 170.947 194.089V195.354H147.193V194.089C149.159 193.536 152.305 192.508 152.305 187.132V163.256C152.305 157.88 149.159 156.853 147.193 156.299V155.034H167.092V162.387C168.823 158.592 172.913 154.56 179.441 154.56C186.363 154.56 192.105 159.303 192.105 167.684V187.132C192.105 192.508 195.251 193.536 197.217 194.089V195.354H173.463V194.089Z" fill="#02B987"/>
<path d="M216.508 196.303C207.227 196.303 196.294 190.136 196.294 175.352C196.294 162.07 204.08 154.56 216.115 154.56C230.272 154.56 235.149 165.47 234.992 174.72H211.553C212.339 185.077 217.373 188.792 222.643 188.792C226.182 188.792 229.879 187.211 233.576 183.258L234.677 183.495C233.025 188.555 226.89 196.303 216.508 196.303ZM211.474 171.953H220.677C220.834 167.051 220.441 157.327 216.193 157.327C211.789 157.327 211.474 168 211.474 171.953Z" fill="#02B987"/>
<path d="M233.759 194.089C235.725 193.536 238.872 192.508 238.872 187.132V163.256C238.872 157.88 235.725 156.853 233.759 156.299V155.034H253.659V167.763C255.704 159.145 262.075 153.295 270.019 154.797L267.738 168.079H266.794C260.108 164.758 254.209 168.395 253.659 176.459V187.132C253.659 192.508 256.805 193.536 258.771 194.089V195.354H233.759V194.089Z" fill="#02B987"/>
<path d="M279.354 196.066C273.298 196.066 268.028 191.401 268.028 184.918C268.028 176.696 275.657 171.004 288.793 173.376V168.79C288.793 163.968 285.175 161.596 280.849 161.596C277.624 161.596 273.848 162.94 270.781 167.525L269.444 167.288C270.859 161.28 276.601 154.797 286.669 154.56C297.287 154.323 303.344 161.28 303.344 168.711V184.523C303.344 186.737 303.737 188.713 305.232 188.713C305.468 188.713 305.939 188.634 306.175 188.476L306.805 188.95C305.625 192.508 302.164 196.145 297.209 196.145C293.197 196.145 290.13 193.852 289.107 190.611C287.141 193.536 283.837 196.066 279.354 196.066ZM281.163 183.258C281.163 186.895 282.736 189.899 285.332 189.899C286.748 189.899 288.085 189.03 288.793 188.239V175.669C283.995 175.51 281.163 178.357 281.163 183.258Z" fill="#02B987"/>
<path d="M305.499 194.089C307.465 193.536 310.611 192.508 310.611 187.132V147.524C310.611 142.068 307.465 141.594 305.42 141.357L305.263 140.092L325.398 136.851V187.132C325.398 192.508 328.545 193.536 330.511 194.089V195.354H305.499V194.089Z" fill="#02B987"/>
<path d="M164.91 244.372C166.405 243.818 168.686 242.791 168.686 237.415V220.101C168.686 215.832 165.854 214.25 162.708 214.25C161.213 214.25 159.64 214.646 158.146 215.199C158.303 216.069 158.382 217.017 158.382 217.966V237.415C158.382 242.791 160.663 243.818 162.157 244.372V245.637H140.291V244.372C141.786 243.818 144.067 242.791 144.067 237.415V220.101C144.067 215.753 141.157 214.25 137.932 214.25C136.437 214.25 134.943 214.567 133.684 215.12V237.415C133.684 242.791 135.965 243.818 137.46 244.372V245.637H114.257V244.372C116.223 243.818 119.291 242.791 119.291 237.415V213.539C119.291 208.163 116.223 207.135 114.257 206.582V205.317H133.684V213.065C135.887 208.795 139.898 204.842 146.269 204.842C151.932 204.842 156.416 208.005 157.91 213.776C160.034 209.27 164.202 204.842 170.888 204.842C177.731 204.842 183.079 209.586 183.079 217.966V237.415C183.079 242.791 186.147 243.818 188.113 244.372V245.637H164.91V244.372Z" fill="#02B987"/>
<path d="M198.181 246.348C192.124 246.348 186.854 241.684 186.854 235.201C186.854 226.979 194.484 221.287 207.619 223.658V219.073C207.619 214.25 204.001 211.879 199.675 211.879C196.45 211.879 192.675 213.223 189.607 217.808L188.27 217.571C189.686 211.562 195.428 205.08 205.495 204.842C216.114 204.605 222.17 211.562 222.17 218.994V234.806C222.17 237.019 222.563 238.996 224.058 238.996C224.294 238.996 224.766 238.917 225.002 238.759L225.631 239.233C224.451 242.791 220.99 246.427 216.035 246.427C212.024 246.427 208.956 244.135 207.934 240.893C205.967 243.818 202.664 246.348 198.181 246.348ZM199.99 233.541C199.99 237.178 201.563 240.182 204.158 240.182C205.574 240.182 206.911 239.312 207.619 238.522V225.951C202.821 225.793 199.99 228.639 199.99 233.541Z" fill="#02B987"/>
<path d="M246.291 263.583C238.819 263.583 227.414 262.002 227.414 255.361C227.414 251.645 230.954 249.432 234.415 248.72C228.279 246.823 227.178 242.87 227.178 240.577C227.178 236.229 230.875 232.987 236.46 231.248C231.898 228.876 228.437 224.844 228.437 219.152C228.437 209.428 238.269 204.763 246.685 204.763C249.909 204.763 253.449 205.475 256.516 206.898C258.64 200.968 264.539 198.755 269.416 199.862L268.157 208.795H267.607C264.697 206.977 261.865 206.898 258.955 208.242C262.573 210.614 265.09 214.171 265.09 219.073C265.09 228.797 255.022 233.62 246.606 233.62C244.01 233.62 241.336 233.146 238.741 232.197C237.403 233.146 236.302 234.094 236.302 235.28C236.302 237.098 238.898 237.968 243.538 238.047L255.573 238.205C262.416 238.284 268.157 242.474 268.157 249.59C268.157 258.603 259.584 263.583 246.291 263.583ZM236.774 252.831C236.774 257.1 241.729 260.342 249.123 260.342C255.415 260.342 259.82 257.891 259.82 254.254C259.82 251.013 256.359 250.143 252.269 250.064L242.595 249.906C240.943 249.906 239.527 249.748 238.19 249.59C237.01 250.459 236.774 251.883 236.774 252.831ZM242.673 219.231C242.673 223.817 243.145 230.853 246.606 230.853C250.067 230.853 250.617 223.817 250.617 219.231C250.617 214.567 250.067 207.609 246.606 207.609C243.145 207.609 242.673 214.567 242.673 219.231Z" fill="#02B987"/>
<path d="M269.814 244.372C271.78 243.818 274.927 242.791 274.927 237.415V223.658C274.927 218.282 271.78 217.255 269.814 216.701V215.436H289.635V237.415C289.635 242.791 292.781 243.818 294.748 244.372V245.637H269.814V244.372Z" fill="#02B987"/>
<path d="M313.907 246.586C304.705 246.586 293.929 240.419 293.929 225.635C293.929 212.511 303.132 204.842 315.323 204.842C319.649 204.842 324.919 205.791 329.324 207.53V220.022H327.908C323.503 210.535 320.436 208.321 317.289 208.321C311.626 208.321 309.424 215.199 309.503 223.026C309.66 232.671 313.514 239.391 320.357 239.391C325.155 239.391 328.694 235.992 330.582 233.541L331.683 233.778C330.11 238.917 324.211 246.586 313.907 246.586Z" fill="#02B987"/>
</svg>
