<svg width="401" height="401" viewBox="0 0 401 401" fill="none" xmlns="http://www.w3.org/2000/svg">
<rect x="0.433838" y="0.783203" width="400" height="400" fill="#E4FF96"/>
<path d="M289.14 211.671C289.112 211.682 289.056 211.728 289.004 211.724C288.899 211.714 288.794 211.694 288.692 211.665C287.657 211.412 286.628 211.133 285.587 210.908C282.74 210.294 280.081 210.723 277.67 212.423C277.298 212.687 276.912 212.932 276.514 213.155C276.168 213.349 275.824 213.544 275.479 213.739C275.442 213.766 275.397 213.78 275.351 213.779C275.305 213.779 275.26 213.763 275.224 213.736C275.187 213.708 275.161 213.669 275.147 213.625C275.134 213.581 275.134 213.534 275.149 213.49C275.275 212.94 275.374 212.382 275.604 211.859C276.827 209.106 276.684 205.629 274.832 202.782C274.283 201.937 273.811 201.043 273.304 200.171C273.281 200.132 273.26 200.091 273.244 200.049C273.234 200.016 273.231 199.981 273.237 199.947C273.243 199.913 273.257 199.881 273.278 199.854C273.299 199.827 273.326 199.805 273.357 199.791C273.388 199.776 273.422 199.77 273.456 199.771C273.517 199.777 273.577 199.788 273.635 199.805C274.674 200.044 275.715 200.269 276.749 200.527C279.81 201.293 282.603 200.745 285.117 198.822C285.655 198.415 286.253 198.11 286.824 197.762C286.865 197.74 286.908 197.724 286.952 197.713C286.981 197.704 287.012 197.703 287.042 197.708C287.072 197.714 287.1 197.726 287.125 197.745C287.149 197.763 287.169 197.786 287.183 197.814C287.197 197.841 287.205 197.871 287.205 197.902C287.201 197.947 287.194 197.993 287.182 198.037C287.034 198.771 286.843 199.495 286.611 200.207C285.57 203.278 285.939 206.171 287.718 208.886C287.976 209.281 288.204 209.698 288.44 210.108C288.676 210.517 288.905 210.932 289.133 211.347C289.168 211.394 289.187 211.45 289.188 211.508C289.19 211.566 289.173 211.623 289.14 211.671Z" fill="#BF68FF"/>
<path d="M111.988 222.15C111.897 222.071 111.8 222 111.697 221.938C111.256 221.73 110.797 221.565 110.325 221.444C108.267 220.89 106.708 219.673 105.637 217.824C105.447 217.478 105.277 217.12 105.129 216.754C104.81 216.01 104.502 215.262 104.19 214.517C104.141 214.399 104.106 214.259 103.907 214.238C103.84 214.315 103.78 214.398 103.731 214.487C103.401 215.227 103.061 215.962 102.758 216.712C101.787 219.125 100.073 220.703 97.5911 221.444C97.1085 221.589 96.6517 221.811 96.1821 222C96.1316 222.023 96.0839 222.053 96.04 222.087C96.0226 222.102 96.0085 222.121 95.9985 222.142C95.9885 222.162 95.9829 222.185 95.9819 222.208C95.9809 222.231 95.9846 222.254 95.9928 222.276C96.0009 222.297 96.0134 222.317 96.0294 222.334C96.0889 222.381 96.154 222.421 96.2232 222.452C96.7269 222.655 97.2236 222.88 97.7391 223.048C100.245 223.864 101.943 225.506 102.854 227.992C103.105 228.68 103.429 229.342 103.722 230.015C103.744 230.064 103.779 230.133 103.823 230.145C103.854 230.158 103.887 230.164 103.921 230.164C103.955 230.164 103.989 230.158 104.02 230.145C104.075 230.095 104.115 230.031 104.137 229.96C104.455 229.216 104.772 228.471 105.088 227.726C106.037 225.497 107.601 223.913 109.911 223.134C110.553 222.917 111.161 222.628 111.777 222.351C111.842 222.316 111.896 222.237 111.988 222.15Z" fill="#BF68FF"/>
<path d="M114.691 238.184C114.621 238.124 114.547 238.07 114.468 238.023C114.132 237.864 113.782 237.738 113.423 237.646C111.853 237.224 110.664 236.296 109.847 234.885C109.702 234.621 109.573 234.348 109.46 234.069C109.217 233.502 108.982 232.931 108.744 232.363C108.706 232.273 108.679 232.166 108.528 232.151C108.477 232.209 108.431 232.273 108.394 232.341C108.142 232.905 107.882 233.465 107.651 234.037C106.911 235.877 105.604 237.08 103.711 237.646C103.343 237.756 102.995 237.926 102.637 238.07C102.598 238.088 102.562 238.11 102.529 238.136C102.515 238.148 102.505 238.162 102.497 238.178C102.489 238.194 102.485 238.211 102.484 238.229C102.483 238.246 102.486 238.264 102.493 238.28C102.499 238.297 102.508 238.312 102.52 238.324C102.566 238.36 102.615 238.391 102.668 238.414C103.052 238.569 103.431 238.741 103.824 238.869C105.735 239.492 107.03 240.744 107.725 242.639C107.916 243.164 108.164 243.669 108.387 244.182C108.404 244.22 108.43 244.272 108.464 244.281C108.487 244.291 108.513 244.296 108.539 244.296C108.565 244.296 108.59 244.291 108.614 244.281C108.656 244.243 108.687 244.194 108.704 244.14C108.946 243.573 109.188 243.005 109.429 242.437C110.152 240.736 111.345 239.529 113.107 238.935C113.596 238.769 114.06 238.548 114.529 238.338C114.58 238.311 114.621 238.251 114.691 238.184Z" fill="#BF68FF"/>
<path d="M86.132 247.012C86.1691 246.99 86.2696 246.964 86.3095 246.9C86.389 246.768 86.4563 246.629 86.5104 246.485C87.1089 245.061 87.673 243.621 88.3101 242.214C90.052 238.367 92.8356 235.635 96.8726 234.288C97.498 234.082 98.1121 233.842 98.7122 233.57C99.2337 233.334 99.7552 233.102 100.277 232.867C100.34 232.846 100.395 232.806 100.433 232.752C100.472 232.698 100.493 232.633 100.493 232.566C100.491 232.5 100.47 232.436 100.431 232.382C100.391 232.329 100.337 232.289 100.274 232.268C99.5295 231.941 98.8017 231.576 97.9995 231.394C93.7698 230.45 89.8814 227.29 88.1904 222.681C87.6882 221.314 87.0621 219.995 86.4925 218.653C86.4682 218.592 86.4383 218.533 86.4031 218.478C86.3743 218.437 86.3362 218.405 86.2921 218.382C86.248 218.36 86.1992 218.349 86.1498 218.35C86.1004 218.35 86.052 218.363 86.0086 218.387C85.9653 218.411 85.9283 218.445 85.9008 218.486C85.8555 218.562 85.8168 218.641 85.7853 218.724C85.1675 220.14 84.5304 221.548 83.9387 222.975C82.1872 227.203 79.1518 229.987 74.7681 231.264C73.8352 231.54 72.9697 231.974 72.0754 232.341C72.0157 232.369 71.9597 232.405 71.9089 232.447C71.8741 232.474 71.8458 232.509 71.8264 232.549C71.807 232.589 71.7969 232.632 71.7969 232.676C71.7969 232.721 71.807 232.764 71.8264 232.804C71.8458 232.844 71.8741 232.878 71.9089 232.905C71.965 232.94 72.0239 232.97 72.085 232.995C73.0597 233.453 74.0598 233.855 75.0804 234.197C79.5201 235.627 82.5408 238.547 84.1424 242.957C84.3763 243.599 84.6611 244.222 84.9308 244.85C85.2005 245.478 85.4812 246.102 85.7646 246.726C85.788 246.806 85.8362 246.877 85.9022 246.929C85.9681 246.98 86.0486 247.009 86.132 247.012Z" fill="#BF68FF"/>
<path d="M87.8639 213.867C80.3917 213.867 68.9868 212.285 68.9868 205.644C68.9868 201.929 72.5263 199.715 75.9871 199.003C69.852 197.106 68.7509 193.153 68.7509 190.86C68.7509 186.512 72.4476 183.271 78.0321 181.531C73.4701 179.16 70.0093 175.128 70.0093 169.435C70.0093 159.711 79.8412 155.047 88.2572 155.047C91.4821 155.047 95.0215 155.758 98.089 157.181C100.213 151.252 106.112 149.038 110.988 150.145L109.73 159.079H109.179C106.269 157.26 103.438 157.181 100.527 158.525C104.145 160.897 106.662 164.455 106.662 169.356C106.662 179.081 96.5946 183.903 88.1786 183.903C85.583 183.903 82.9087 183.429 80.3131 182.48C78.976 183.429 77.8748 184.378 77.8748 185.563C77.8748 187.382 80.4704 188.251 85.111 188.331L97.1452 188.489C103.988 188.568 109.73 192.758 109.73 199.873C109.73 208.886 101.157 213.867 87.8639 213.867ZM78.3467 203.115C78.3467 207.384 83.302 210.625 90.6955 210.625C96.9879 210.625 101.393 208.174 101.393 204.538C101.393 201.296 97.9317 200.427 93.8417 200.348L84.1672 200.189C82.5154 200.189 81.0996 200.031 79.7625 199.873C78.5827 200.743 78.3467 202.166 78.3467 203.115ZM84.2458 169.514C84.2458 174.1 84.7178 181.136 88.1786 181.136C91.6394 181.136 92.1899 174.1 92.1899 169.514C92.1899 164.85 91.6394 157.893 88.1786 157.893C84.7178 157.893 84.2458 164.85 84.2458 169.514Z" fill="#BF68FF"/>
<path d="M130.529 196.869C121.248 196.869 110.315 190.702 110.315 175.918C110.315 162.636 118.102 155.126 130.136 155.126C144.294 155.126 149.17 166.036 149.013 175.286H125.574C126.36 185.643 131.394 189.358 136.664 189.358C140.204 189.358 143.9 187.777 147.597 183.824L148.698 184.061C147.047 189.121 140.912 196.869 130.529 196.869ZM125.495 172.519H134.698C134.855 167.617 134.462 157.893 130.215 157.893C125.81 157.893 125.495 168.566 125.495 172.519Z" fill="#BF68FF"/>
<path d="M173.897 194.655C175.392 194.102 177.751 193.074 177.751 187.698V170.384C177.751 165.72 175.628 164.218 172.875 164.138C170.987 164.059 169.099 164.692 167.526 165.482V187.698C167.526 193.074 169.886 194.102 171.38 194.655V195.92H147.627V194.655C149.593 194.102 152.739 193.074 152.739 187.698V163.822C152.739 158.446 149.593 157.418 147.627 156.865V155.6H167.526V162.953C169.257 159.158 173.347 155.126 179.875 155.126C186.797 155.126 192.539 159.869 192.539 168.25V187.698C192.539 193.074 195.685 194.102 197.651 194.655V195.92H173.897V194.655Z" fill="#BF68FF"/>
<path d="M216.942 196.869C207.661 196.869 196.728 190.702 196.728 175.918C196.728 162.636 204.514 155.126 216.548 155.126C230.706 155.126 235.583 166.036 235.426 175.286H211.987C212.773 185.643 217.807 189.358 223.077 189.358C226.616 189.358 230.313 187.777 234.01 183.824L235.111 184.061C233.459 189.121 227.324 196.869 216.942 196.869ZM211.908 172.519H221.11C221.268 167.617 220.874 157.893 216.627 157.893C212.222 157.893 211.908 168.566 211.908 172.519Z" fill="#BF68FF"/>
<path d="M234.193 194.655C236.159 194.102 239.305 193.074 239.305 187.698V163.822C239.305 158.446 236.159 157.418 234.193 156.865V155.6H254.093V168.329C256.138 159.711 262.509 153.861 270.453 155.363L268.172 168.645H267.228C260.542 165.324 254.643 168.961 254.093 177.025V187.698C254.093 193.074 257.239 194.102 259.205 194.655V195.92H234.193V194.655Z" fill="#BF68FF"/>
<path d="M279.788 196.632C273.732 196.632 268.462 191.967 268.462 185.484C268.462 177.262 276.091 171.57 289.227 173.942V169.356C289.227 164.534 285.608 162.162 281.282 162.162C278.058 162.162 274.282 163.506 271.215 168.091L269.878 167.854C271.293 161.846 277.035 155.363 287.103 155.126C297.721 154.889 303.778 161.846 303.778 169.277V185.089C303.778 187.303 304.171 189.279 305.665 189.279C305.901 189.279 306.373 189.2 306.609 189.042L307.239 189.516C306.059 193.074 302.598 196.711 297.643 196.711C293.631 196.711 290.564 194.418 289.541 191.177C287.575 194.102 284.271 196.632 279.788 196.632ZM281.597 183.824C281.597 187.461 283.17 190.465 285.766 190.465C287.182 190.465 288.519 189.595 289.227 188.805V176.234C284.429 176.076 281.597 178.923 281.597 183.824Z" fill="#BF68FF"/>
<path d="M305.933 194.655C307.899 194.102 311.045 193.074 311.045 187.698V148.089C311.045 142.634 307.899 142.16 305.854 141.923L305.697 140.658L325.832 137.417V187.698C325.832 193.074 328.979 194.102 330.945 194.655V195.92H305.933V194.655Z" fill="#BF68FF"/>
<path d="M165.344 244.938C166.839 244.384 169.12 243.357 169.12 237.981V220.667C169.12 216.398 166.288 214.816 163.142 214.816C161.647 214.816 160.074 215.212 158.58 215.765C158.737 216.635 158.816 217.583 158.816 218.532V237.981C158.816 243.357 161.097 244.384 162.591 244.938V246.203H140.725V244.938C142.22 244.384 144.501 243.357 144.501 237.981V220.667C144.501 216.318 141.59 214.816 138.366 214.816C136.871 214.816 135.377 215.133 134.118 215.686V237.981C134.118 243.357 136.399 244.384 137.894 244.938V246.203H114.691V244.938C116.657 244.384 119.724 243.357 119.724 237.981V214.105C119.724 208.729 116.657 207.701 114.691 207.148V205.883H134.118V213.63C136.321 209.361 140.332 205.408 146.703 205.408C152.366 205.408 156.849 208.571 158.344 214.342C160.468 209.836 164.636 205.408 171.322 205.408C178.165 205.408 183.513 210.152 183.513 218.532V237.981C183.513 243.357 186.581 244.384 188.547 244.938V246.203H165.344V244.938Z" fill="#BF68FF"/>
<path d="M198.614 246.914C192.558 246.914 187.288 242.25 187.288 235.767C187.288 227.545 194.918 221.853 208.053 224.224V219.639C208.053 214.816 204.435 212.445 200.109 212.445C196.884 212.445 193.109 213.789 190.041 218.374L188.704 218.137C190.12 212.128 195.862 205.645 205.929 205.408C216.548 205.171 222.604 212.128 222.604 219.56V235.372C222.604 237.585 222.997 239.562 224.492 239.562C224.728 239.562 225.2 239.483 225.436 239.325L226.065 239.799C224.885 243.357 221.424 246.993 216.469 246.993C212.458 246.993 209.39 244.701 208.368 241.459C206.401 244.384 203.098 246.914 198.614 246.914ZM200.423 234.107C200.423 237.743 201.997 240.748 204.592 240.748C206.008 240.748 207.345 239.878 208.053 239.087V226.517C203.255 226.359 200.423 229.205 200.423 234.107Z" fill="#BF68FF"/>
<path d="M246.725 264.149C239.253 264.149 227.848 262.568 227.848 255.927C227.848 252.211 231.388 249.998 234.848 249.286C228.713 247.389 227.612 243.436 227.612 241.143C227.612 236.795 231.309 233.553 236.893 231.814C232.331 229.442 228.871 225.41 228.871 219.718C228.871 209.994 238.703 205.329 247.119 205.329C250.343 205.329 253.883 206.041 256.95 207.464C259.074 201.534 264.973 199.321 269.85 200.428L268.591 209.361H268.041C265.13 207.543 262.299 207.464 259.389 208.808C263.007 211.18 265.524 214.737 265.524 219.639C265.524 229.363 255.456 234.186 247.04 234.186C244.444 234.186 241.77 233.711 239.174 232.763C237.837 233.711 236.736 234.66 236.736 235.846C236.736 237.664 239.332 238.534 243.972 238.613L256.007 238.771C262.849 238.85 268.591 243.04 268.591 250.156C268.591 259.168 260.018 264.149 246.725 264.149ZM237.208 253.397C237.208 257.666 242.163 260.908 249.557 260.908C255.849 260.908 260.254 258.457 260.254 254.82C260.254 251.579 256.793 250.709 252.703 250.63L243.028 250.472C241.377 250.472 239.961 250.314 238.624 250.156C237.444 251.025 237.208 252.448 237.208 253.397ZM243.107 219.797C243.107 224.382 243.579 231.419 247.04 231.419C250.501 231.419 251.051 224.382 251.051 219.797C251.051 215.133 250.501 208.175 247.04 208.175C243.579 208.175 243.107 215.133 243.107 219.797Z" fill="#BF68FF"/>
<path d="M270.248 244.938C272.214 244.384 275.36 243.357 275.36 237.981V224.224C275.36 218.848 272.214 217.821 270.248 217.267V216.002H290.069V237.981C290.069 243.357 293.215 244.384 295.181 244.938V246.203H270.248V244.938Z" fill="#BF68FF"/>
<path d="M314.341 247.151C305.139 247.151 294.363 240.985 294.363 226.201C294.363 213.077 303.566 205.408 315.757 205.408C320.083 205.408 325.353 206.357 329.758 208.096V220.588H328.342C323.937 211.101 320.87 208.887 317.723 208.887C312.06 208.887 309.858 215.765 309.937 223.592C310.094 233.237 313.948 239.957 320.791 239.957C325.589 239.957 329.128 236.558 331.016 234.107L332.117 234.344C330.544 239.483 324.645 247.151 314.341 247.151Z" fill="#BF68FF"/>
</svg>
