<svg width="401" height="400" viewBox="0 0 401 400" fill="none" xmlns="http://www.w3.org/2000/svg">
<rect x="0.58252" width="400" height="400" fill="#BF68FF"/>
<path d="M289.288 210.888C289.26 210.899 289.204 210.944 289.153 210.941C289.047 210.931 288.942 210.911 288.84 210.882C287.805 210.628 286.776 210.35 285.735 210.125C282.888 209.511 280.229 209.94 277.818 211.64C277.446 211.904 277.06 212.149 276.662 212.372C276.316 212.566 275.972 212.761 275.627 212.956C275.59 212.982 275.545 212.997 275.499 212.996C275.453 212.995 275.409 212.98 275.372 212.953C275.336 212.924 275.309 212.886 275.296 212.842C275.282 212.798 275.283 212.751 275.297 212.707C275.424 212.156 275.522 211.599 275.752 211.075C276.975 208.322 276.832 204.845 274.98 201.998C274.431 201.154 273.96 200.26 273.453 199.388C273.429 199.349 273.409 199.308 273.392 199.265C273.382 199.233 273.38 199.198 273.385 199.164C273.391 199.13 273.405 199.098 273.426 199.071C273.447 199.044 273.474 199.022 273.505 199.008C273.536 198.993 273.57 198.986 273.604 198.988C273.665 198.994 273.725 199.005 273.783 199.022C274.822 199.261 275.863 199.486 276.897 199.744C279.958 200.51 282.751 199.962 285.266 198.039C285.804 197.632 286.401 197.327 286.973 196.979C287.013 196.957 287.056 196.94 287.1 196.929C287.13 196.921 287.16 196.92 287.19 196.925C287.22 196.931 287.249 196.943 287.273 196.961C287.297 196.98 287.317 197.003 287.331 197.03C287.345 197.058 287.353 197.088 287.353 197.118C287.35 197.164 287.342 197.209 287.33 197.254C287.182 197.988 286.991 198.712 286.759 199.424C285.718 202.495 286.087 205.388 287.866 208.103C288.124 208.498 288.352 208.915 288.588 209.324C288.824 209.734 289.053 210.148 289.281 210.564C289.316 210.61 289.335 210.667 289.337 210.725C289.338 210.783 289.321 210.84 289.288 210.888Z" fill="#E4FF96"/>
<path d="M112.136 221.366C112.045 221.288 111.948 221.217 111.845 221.155C111.404 220.947 110.945 220.782 110.474 220.661C108.415 220.107 106.856 218.89 105.785 217.041C105.595 216.694 105.426 216.337 105.278 215.97C104.958 215.227 104.651 214.479 104.338 213.734C104.289 213.616 104.254 213.475 104.055 213.455C103.988 213.532 103.929 213.615 103.879 213.704C103.549 214.444 103.209 215.178 102.906 215.929C101.935 218.341 100.222 219.919 97.7393 220.661C97.2567 220.806 96.7999 221.028 96.3303 221.216C96.2798 221.24 96.2321 221.269 96.1882 221.304C96.1708 221.319 96.1567 221.338 96.1467 221.358C96.1367 221.379 96.1311 221.402 96.1301 221.425C96.1291 221.448 96.1328 221.471 96.141 221.493C96.1491 221.514 96.1616 221.534 96.1776 221.55C96.2371 221.598 96.3022 221.637 96.3714 221.669C96.8751 221.872 97.3718 222.097 97.8873 222.265C100.393 223.081 102.091 224.723 103.002 227.209C103.253 227.897 103.577 228.559 103.87 229.231C103.892 229.281 103.927 229.35 103.971 229.361C104.002 229.374 104.036 229.381 104.069 229.381C104.103 229.381 104.137 229.374 104.168 229.361C104.223 229.312 104.263 229.248 104.285 229.177C104.603 228.433 104.92 227.688 105.237 226.943C106.185 224.714 107.749 223.13 110.059 222.351C110.701 222.134 111.31 221.844 111.925 221.568C111.991 221.533 112.045 221.454 112.136 221.366Z" fill="#E4FF96"/>
<path d="M114.839 237.401C114.769 237.341 114.695 237.287 114.617 237.24C114.281 237.081 113.93 236.955 113.571 236.862C112.001 236.44 110.812 235.512 109.995 234.102C109.85 233.838 109.721 233.565 109.608 233.286C109.365 232.719 109.13 232.148 108.892 231.58C108.854 231.49 108.828 231.383 108.676 231.368C108.625 231.426 108.58 231.489 108.542 231.558C108.29 232.122 108.031 232.682 107.8 233.254C107.059 235.094 105.753 236.297 103.86 236.862C103.492 236.973 103.143 237.142 102.785 237.286C102.747 237.304 102.71 237.327 102.677 237.353C102.663 237.365 102.653 237.379 102.645 237.395C102.637 237.41 102.633 237.428 102.632 237.445C102.632 237.463 102.634 237.481 102.641 237.497C102.647 237.513 102.656 237.528 102.669 237.541C102.714 237.577 102.764 237.607 102.816 237.631C103.201 237.786 103.579 237.958 103.972 238.086C105.883 238.708 107.178 239.96 107.873 241.856C108.065 242.381 108.312 242.886 108.535 243.399C108.552 243.436 108.579 243.489 108.612 243.498C108.636 243.508 108.661 243.513 108.687 243.513C108.713 243.513 108.738 243.508 108.762 243.498C108.804 243.46 108.835 243.411 108.852 243.357C109.094 242.79 109.336 242.222 109.577 241.653C110.301 239.953 111.493 238.745 113.255 238.151C113.745 237.986 114.208 237.765 114.678 237.555C114.728 237.528 114.769 237.467 114.839 237.401Z" fill="#E4FF96"/>
<path d="M86.2802 246.229C86.3173 246.207 86.4178 246.18 86.4577 246.117C86.5372 245.985 86.6045 245.846 86.6586 245.702C87.2571 244.277 87.8212 242.838 88.4583 241.431C90.2002 237.584 92.9838 234.852 97.0208 233.505C97.6462 233.299 98.2603 233.059 98.8604 232.787C99.3819 232.551 99.9034 232.318 100.425 232.083C100.488 232.063 100.543 232.023 100.582 231.969C100.62 231.915 100.641 231.85 100.641 231.783C100.64 231.717 100.618 231.652 100.579 231.599C100.54 231.545 100.485 231.505 100.422 231.484C99.6777 231.158 98.9498 230.793 98.1477 230.61C93.918 229.667 90.0296 226.507 88.3386 221.897C87.8364 220.531 87.2103 219.212 86.6407 217.87C86.6164 217.809 86.5865 217.75 86.5512 217.694C86.5225 217.654 86.4844 217.621 86.4403 217.599C86.3962 217.577 86.3474 217.566 86.298 217.566C86.2486 217.567 86.2002 217.58 86.1568 217.604C86.1134 217.628 86.0765 217.661 86.049 217.703C86.0037 217.779 85.965 217.858 85.9335 217.941C85.3157 219.357 84.6786 220.765 84.0869 222.192C82.3354 226.42 79.3 229.204 74.9163 230.48C73.9834 230.757 73.1179 231.191 72.2236 231.558C72.1639 231.586 72.1079 231.622 72.0571 231.664C72.0222 231.691 71.994 231.726 71.9746 231.766C71.9552 231.805 71.9451 231.849 71.9451 231.893C71.9451 231.937 71.9552 231.981 71.9746 232.021C71.994 232.06 72.0222 232.095 72.0571 232.122C72.1132 232.157 72.1721 232.187 72.2332 232.212C73.2079 232.67 74.208 233.071 75.2286 233.414C79.6683 234.844 82.689 237.764 84.2906 242.174C84.5245 242.816 84.8093 243.439 85.079 244.067C85.3487 244.695 85.6294 245.319 85.9128 245.943C85.9362 246.023 85.9844 246.094 86.0504 246.145C86.1163 246.197 86.1968 246.226 86.2802 246.229Z" fill="#E4FF96"/>
<path d="M88.0121 213.083C80.5399 213.083 69.135 211.502 69.135 204.861C69.135 201.145 72.6745 198.932 76.1353 198.22C70.0002 196.323 68.899 192.37 68.899 190.077C68.899 185.729 72.5958 182.488 78.1803 180.748C73.6183 178.376 70.1575 174.344 70.1575 168.652C70.1575 158.928 79.9894 154.263 88.4054 154.263C91.6302 154.263 95.1697 154.975 98.2372 156.398C100.361 150.469 106.26 148.255 111.137 149.362L109.878 158.295H109.328C106.417 156.477 103.586 156.398 100.676 157.742C104.294 160.114 106.811 163.671 106.811 168.573C106.811 178.297 96.7428 183.12 88.3268 183.12C85.7311 183.12 83.0569 182.646 80.4613 181.697C79.1242 182.646 78.023 183.594 78.023 184.78C78.023 186.599 80.6186 187.468 85.2592 187.547L97.2934 187.705C104.136 187.785 109.878 191.975 109.878 199.09C109.878 208.103 101.305 213.083 88.0121 213.083ZM78.4949 202.331C78.4949 206.601 83.4502 209.842 90.8437 209.842C97.1361 209.842 101.541 207.391 101.541 203.754C101.541 200.513 98.0799 199.643 93.9899 199.564L84.3154 199.406C82.6636 199.406 81.2478 199.248 79.9107 199.09C78.7309 199.96 78.4949 201.383 78.4949 202.331ZM84.394 168.731C84.394 173.317 84.8659 180.353 88.3268 180.353C91.7876 180.353 92.3381 173.317 92.3381 168.731C92.3381 164.067 91.7876 157.11 88.3268 157.11C84.8659 157.11 84.394 164.067 84.394 168.731Z" fill="#E4FF96"/>
<path d="M130.677 196.086C121.396 196.086 110.463 189.919 110.463 175.135C110.463 161.853 118.25 154.343 130.284 154.343C144.442 154.343 149.319 165.253 149.161 174.503H125.722C126.509 184.859 131.543 188.575 136.812 188.575C140.352 188.575 144.049 186.994 147.745 183.041L148.847 183.278C147.195 188.338 141.06 196.086 130.677 196.086ZM125.643 171.736H134.846C135.003 166.834 134.61 157.11 130.363 157.11C125.958 157.11 125.643 167.783 125.643 171.736Z" fill="#E4FF96"/>
<path d="M174.046 193.872C175.54 193.319 177.9 192.291 177.9 186.915V169.601C177.9 164.936 175.776 163.434 173.023 163.355C171.135 163.276 169.248 163.909 167.675 164.699V186.915C167.675 192.291 170.034 193.319 171.529 193.872V195.137H147.775V193.872C149.741 193.319 152.887 192.291 152.887 186.915V163.039C152.887 157.663 149.741 156.635 147.775 156.082V154.817H167.675V162.169C169.405 158.375 173.495 154.343 180.023 154.343C186.945 154.343 192.687 159.086 192.687 167.466V186.915C192.687 192.291 195.833 193.319 197.799 193.872V195.137H174.046V193.872Z" fill="#E4FF96"/>
<path d="M217.09 196.086C207.809 196.086 196.876 189.919 196.876 175.135C196.876 161.853 204.663 154.343 216.697 154.343C230.855 154.343 235.731 165.253 235.574 174.503H212.135C212.921 184.859 217.955 188.575 223.225 188.575C226.764 188.575 230.461 186.994 234.158 183.041L235.259 183.278C233.607 188.338 227.472 196.086 217.09 196.086ZM212.056 171.736H221.259C221.416 166.834 221.023 157.11 216.775 157.11C212.371 157.11 212.056 167.783 212.056 171.736Z" fill="#E4FF96"/>
<path d="M234.341 193.872C236.307 193.319 239.454 192.291 239.454 186.915V163.039C239.454 157.663 236.307 156.635 234.341 156.082V154.817H254.241V167.545C256.286 158.928 262.657 153.078 270.601 154.58L268.32 167.862H267.376C260.69 164.541 254.791 168.178 254.241 176.242V186.915C254.241 192.291 257.387 193.319 259.353 193.872V195.137H234.341V193.872Z" fill="#E4FF96"/>
<path d="M279.936 195.849C273.88 195.849 268.61 191.184 268.61 184.701C268.61 176.479 276.239 170.787 289.375 173.159V168.573C289.375 163.751 285.757 161.379 281.431 161.379C278.206 161.379 274.43 162.723 271.363 167.308L270.026 167.071C271.442 161.063 277.183 154.58 287.251 154.343C297.87 154.105 303.926 161.063 303.926 168.494V184.306C303.926 186.52 304.319 188.496 305.814 188.496C306.05 188.496 306.522 188.417 306.757 188.259L307.387 188.733C306.207 192.291 302.746 195.928 297.791 195.928C293.779 195.928 290.712 193.635 289.689 190.393C287.723 193.319 284.42 195.849 279.936 195.849ZM281.745 183.041C281.745 186.678 283.318 189.682 285.914 189.682C287.33 189.682 288.667 188.812 289.375 188.022V175.451C284.577 175.293 281.745 178.139 281.745 183.041Z" fill="#E4FF96"/>
<path d="M306.081 193.872C308.047 193.319 311.193 192.291 311.193 186.915V147.306C311.193 141.851 308.047 141.377 306.002 141.14L305.845 139.875L325.981 136.633V186.915C325.981 192.291 329.127 193.319 331.093 193.872V195.137H306.081V193.872Z" fill="#E4FF96"/>
<path d="M165.492 244.155C166.987 243.601 169.268 242.573 169.268 237.197V219.883C169.268 215.614 166.436 214.033 163.29 214.033C161.796 214.033 160.222 214.428 158.728 214.982C158.885 215.851 158.964 216.8 158.964 217.749V237.197C158.964 242.573 161.245 243.601 162.739 244.155V245.42H140.873V244.155C142.368 243.601 144.649 242.573 144.649 237.197V219.883C144.649 215.535 141.739 214.033 138.514 214.033C137.019 214.033 135.525 214.349 134.266 214.903V237.197C134.266 242.573 136.547 243.601 138.042 244.155V245.42H114.839V244.155C116.805 243.601 119.873 242.573 119.873 237.197V213.322C119.873 207.946 116.805 206.918 114.839 206.364V205.099H134.266V212.847C136.469 208.578 140.48 204.625 146.851 204.625C152.514 204.625 156.998 207.787 158.492 213.559C160.616 209.052 164.784 204.625 171.47 204.625C178.313 204.625 183.662 209.369 183.662 217.749V237.197C183.662 242.573 186.729 243.601 188.695 244.155V245.42H165.492V244.155Z" fill="#E4FF96"/>
<path d="M198.763 246.131C192.706 246.131 187.436 241.467 187.436 234.984C187.436 226.762 195.066 221.069 208.201 223.441V218.856C208.201 214.033 204.583 211.661 200.257 211.661C197.032 211.661 193.257 213.005 190.189 217.591L188.852 217.354C190.268 211.345 196.01 204.862 206.078 204.625C216.696 204.388 222.752 211.345 222.752 218.777V234.588C222.752 236.802 223.146 238.779 224.64 238.779C224.876 238.779 225.348 238.7 225.584 238.541L226.213 239.016C225.033 242.573 221.572 246.21 216.617 246.21C212.606 246.21 209.538 243.917 208.516 240.676C206.549 243.601 203.246 246.131 198.763 246.131ZM200.572 233.324C200.572 236.96 202.145 239.964 204.74 239.964C206.156 239.964 207.493 239.095 208.201 238.304V225.734C203.403 225.576 200.572 228.422 200.572 233.324Z" fill="#E4FF96"/>
<path d="M246.873 263.366C239.401 263.366 227.996 261.785 227.996 255.144C227.996 251.428 231.536 249.214 234.997 248.503C228.862 246.605 227.76 242.652 227.76 240.36C227.76 236.012 231.457 232.77 237.042 231.031C232.48 228.659 229.019 224.627 229.019 218.935C229.019 209.211 238.851 204.546 247.267 204.546C250.492 204.546 254.031 205.258 257.099 206.681C259.222 200.751 265.121 198.538 269.998 199.644L268.739 208.578H268.189C265.279 206.76 262.447 206.681 259.537 208.025C263.155 210.396 265.672 213.954 265.672 218.856C265.672 228.58 255.604 233.403 247.188 233.403C244.592 233.403 241.918 232.928 239.323 231.98C237.985 232.928 236.884 233.877 236.884 235.063C236.884 236.881 239.48 237.751 244.121 237.83L256.155 237.988C262.998 238.067 268.739 242.257 268.739 249.373C268.739 258.385 260.166 263.366 246.873 263.366ZM237.356 252.614C237.356 256.883 242.312 260.125 249.705 260.125C255.997 260.125 260.402 257.674 260.402 254.037C260.402 250.796 256.941 249.926 252.851 249.847L243.177 249.689C241.525 249.689 240.109 249.531 238.772 249.373C237.592 250.242 237.356 251.665 237.356 252.614ZM243.255 219.014C243.255 223.599 243.727 230.636 247.188 230.636C250.649 230.636 251.199 223.599 251.199 219.014C251.199 214.349 250.649 207.392 247.188 207.392C243.727 207.392 243.255 214.349 243.255 219.014Z" fill="#E4FF96"/>
<path d="M270.396 244.155C272.362 243.601 275.509 242.573 275.509 237.197V223.441C275.509 218.065 272.362 217.037 270.396 216.484V215.219H290.217V237.197C290.217 242.573 293.363 243.601 295.33 244.155V245.42H270.396V244.155Z" fill="#E4FF96"/>
<path d="M314.489 246.368C305.287 246.368 294.511 240.202 294.511 225.418C294.511 212.294 303.714 204.625 315.905 204.625C320.231 204.625 325.501 205.574 329.906 207.313V219.804H328.49C324.085 210.317 321.018 208.104 317.872 208.104C312.208 208.104 310.006 214.982 310.085 222.809C310.242 232.454 314.096 239.174 320.939 239.174C325.737 239.174 329.277 235.774 331.164 233.324L332.265 233.561C330.692 238.7 324.793 246.368 314.489 246.368Z" fill="#E4FF96"/>
</svg>
