<svg width="313" height="313" viewBox="0 0 313 313" fill="none" xmlns="http://www.w3.org/2000/svg">
<g clip-path="url(#clip0_527_86)">
<path d="M0 0L263 0C290.614 0 313 22.3858 313 50L313 263C313 290.614 290.614 313 263 313L50 313C22.3858 313 0 290.614 0 263L0 0Z" fill="white"/>
<path d="M151.876 212.912C151.616 212.626 151.401 212.39 151.183 212.154C148.991 209.738 146.4 207.715 143.524 206.174C141.168 204.895 138.58 204.098 135.913 203.832C133.467 203.609 131.001 203.896 128.671 204.674C125.525 205.704 122.386 206.75 119.216 207.734C114.523 209.231 109.75 210.462 104.919 211.42C101.855 212.02 98.7595 212.449 95.6474 212.704C93.2698 212.891 90.8832 212.937 88.5001 212.843C83.31 212.642 78.277 211.676 73.4779 209.618C69.53 207.925 65.9132 205.545 62.7953 202.59C54.9687 195.241 49.4923 186.421 46.2472 176.198C45.0615 172.45 44.2069 168.606 43.6935 164.709C43.0572 159.981 42.8582 155.205 43.0989 150.441C43.4837 142.713 44.9624 135.078 47.4908 127.765C50.9839 117.687 56.8089 109.155 64.6798 101.996C70.5565 96.6026 77.3825 92.3462 84.8116 89.4426C88.5606 87.9738 92.4571 86.9135 96.4335 86.2802C100.478 85.6363 104.584 85.4685 108.668 85.7803C111.276 85.9819 113.84 86.4334 116.406 86.905C120.804 87.7113 125.202 88.5376 129.606 89.3358C132.045 89.7772 134.484 90.2146 136.935 90.5915C139.737 91.0249 142.55 91.3514 145.4 91.2668C148.25 91.1821 150.917 90.398 153.279 88.7311C153.481 88.584 153.705 88.453 153.944 88.2958C154.146 88.4389 154.333 88.5558 154.501 88.6989C155.738 89.7309 156.96 90.783 158.214 91.7948C158.421 91.9416 158.588 92.1373 158.701 92.3645C158.814 92.5917 158.869 92.8433 158.861 93.0969C158.861 94.7396 158.919 96.3823 158.951 98.025C159.075 104.499 159.198 110.974 159.32 117.449C159.409 122.287 159.492 127.119 159.57 131.945C159.57 132.29 159.632 132.645 159.485 133.052C158.022 132.663 156.609 132.258 155.21 131.808C155.065 131.478 154.938 131.184 154.807 130.891C151.381 123.25 147.247 116.026 142.109 109.397C139.567 106.062 136.676 103.009 133.484 100.291C130.864 98.0835 128.022 96.2009 124.859 94.8364C122.056 93.5876 119.031 92.9106 115.963 92.845C110.146 92.7684 105.127 94.7699 100.908 98.7769C98.9836 100.639 97.3125 102.746 95.9377 105.043C93.8777 108.415 92.3499 112.027 91.1204 115.77C89.7383 120.063 88.6885 124.455 87.9801 128.908C87.3895 132.47 86.9723 136.051 86.7002 139.649C86.4087 143.343 86.3064 147.05 86.3938 150.755C86.4543 152.972 86.5128 155.201 86.6619 157.419C87.1457 164.602 88.2079 171.693 90.3222 178.596C91.2613 181.746 92.5012 184.799 94.0249 187.711C95.1989 189.972 96.6418 192.083 98.3221 193.998C100.388 196.311 102.793 198.152 105.665 199.375C108.852 200.734 112.093 200.939 115.384 199.897C120.858 198.162 125.023 194.792 127.663 189.666C129.794 185.53 130.082 181.17 128.895 176.7C128.663 175.795 128.367 174.908 128.01 174.045C126.319 170.048 124.15 166.332 121.302 163.034C120.277 161.831 119.117 160.749 117.845 159.809C116.483 158.801 115.023 157.995 113.35 157.66C113.262 157.635 113.177 157.601 113.096 157.558C113.074 157.521 113.05 157.497 113.05 157.473C113.047 157.44 113.055 157.408 113.072 157.38C113.203 157.197 113.334 157.011 113.475 156.836L117.607 151.596C118.851 151.537 120.07 151.467 121.292 151.422C125.726 151.265 130.179 151.12 134.623 150.963C139.935 150.773 145.247 150.58 150.558 150.382C152.717 150.304 154.874 150.227 157.03 150.124C157.22 150.1 157.412 150.129 157.586 150.206C157.761 150.284 157.911 150.407 158.02 150.564C159.161 152.043 160.326 153.504 161.479 154.974C161.539 155.061 161.592 155.152 161.64 155.246C161.297 156.602 160.939 157.971 160.608 159.345C159.446 164.167 158.497 169.031 157.762 173.938C157.157 177.923 156.722 181.924 156.516 185.947C156.28 189.905 156.337 193.876 156.688 197.825C156.904 200.292 157.318 202.738 157.927 205.138C157.964 205.316 157.99 205.495 158.006 205.676C157.216 206.76 152.507 212.333 151.876 212.912Z" fill="#161718"/>
<path d="M229.79 212.974C229.286 211.723 228.772 210.441 228.25 209.163C228.125 208.861 228.24 208.603 228.33 208.326C228.875 206.676 229.425 205.027 229.943 203.368C231.743 197.621 233.135 191.754 234.109 185.81C234.583 182.92 234.927 180.009 235.179 177.087C235.502 173.363 235.609 169.624 235.5 165.888C235.339 160.498 234.742 155.161 233.394 149.927C233.177 148.96 232.886 148.011 232.523 147.089C232.255 147.117 232.273 147.29 232.249 147.449C231.225 153.971 229.86 160.434 228.161 166.813C224.821 179.358 220.357 191.484 214.455 203.056C213.3 205.319 212.014 207.518 210.781 209.743C210.627 210.02 210.438 210.275 210.24 210.58C208.606 210.086 207.036 209.536 205.468 209.01C203.212 192.44 197.425 177.234 188.843 163.04C186.333 158.886 183.848 155.338 182.998 154.639C182.916 154.949 182.892 155.271 182.925 155.59C182.911 158.459 182.889 161.325 182.897 164.193C182.92 172.793 182.951 181.393 182.99 189.993C182.99 191.154 183.06 192.313 183.086 193.471C183.153 197.011 184.354 200.436 186.513 203.241C188.686 206.129 191.479 208.266 194.682 209.893C194.938 210.024 195.192 210.161 195.446 210.296C195.468 210.308 195.474 210.35 195.486 210.374C195.499 210.437 195.499 210.501 195.486 210.564C195.083 211.37 194.68 212.176 194.277 212.956C193.531 213.065 163.178 213.091 162.009 212.984C162.055 212.836 162.114 212.692 162.185 212.553C162.789 211.598 163.394 210.65 163.987 209.693C164.149 209.416 164.395 209.196 164.688 209.064C170.116 206.595 173.401 202.316 175.056 196.672C175.613 194.774 175.83 192.824 175.935 190.859C176.188 186.195 176.439 181.531 176.689 176.867C176.852 173.747 177.013 170.619 177.15 167.505C177.32 163.641 177.473 159.778 177.61 155.915C177.71 154.048 177.691 152.178 177.554 150.314C177.196 146.124 175.811 142.086 173.522 138.559C173.349 138.289 173.168 138.022 172.954 137.698C173.593 136.35 174.238 134.987 174.903 133.588C175.161 133.566 175.413 133.528 175.665 133.526C177.178 133.514 178.692 133.508 180.208 133.508H200.884C203.043 133.508 205.201 133.493 207.36 133.487H208.303C208.465 133.677 208.598 133.814 208.707 133.969C209.513 135.092 210.319 136.221 211.125 137.339C211.348 137.616 211.474 137.958 211.482 138.313C211.514 142.312 212.585 146.071 214.169 149.703C216.092 154.038 218.611 158.082 221.653 161.72C221.735 161.819 221.82 161.921 221.909 162.008C221.958 162.053 222.011 162.093 222.068 162.129C222.372 162.083 222.431 161.796 222.552 161.589C223.934 159.185 225.017 156.622 225.777 153.956C226.697 150.797 227.311 147.557 227.611 144.281C227.831 142.101 227.933 139.911 227.915 137.72C227.915 137.563 227.939 137.406 227.953 137.224C228.139 137.085 228.316 136.948 228.496 136.821C229.856 135.842 231.223 134.874 232.571 133.88C232.928 133.605 233.37 133.463 233.821 133.477C235.335 133.501 236.844 133.501 238.362 133.504L260.401 133.534L266.296 133.546C266.552 133.546 266.808 133.546 267.03 133.546C267.538 134.122 269.366 137.22 269.813 138.26C269.769 138.373 269.721 138.526 269.652 138.663C268.187 141.701 267.276 144.912 266.649 148.217C265.958 152.021 265.554 155.872 265.439 159.736C265.315 163.121 265.349 166.505 265.52 169.881C265.673 172.904 265.923 175.928 266.205 178.937C266.49 181.886 266.822 184.833 267.247 187.763C267.786 191.458 268.402 195.142 269.049 198.819C269.731 202.687 270.555 206.526 271.468 210.334C271.051 210.939 270.035 211.906 268.685 213.007C267.197 213.109 230.592 213.075 229.79 212.974Z" fill="#161718"/>
<path d="M218.085 125.443C218.03 125.411 217.883 125.372 217.825 125.28C217.708 125.088 217.61 124.885 217.53 124.675C216.654 122.599 215.827 120.501 214.894 118.451C212.342 112.843 208.265 108.863 202.351 106.899C201.435 106.599 200.535 106.249 199.656 105.853C198.892 105.509 198.128 105.17 197.364 104.827C197.272 104.797 197.192 104.739 197.135 104.66C197.078 104.582 197.047 104.487 197.048 104.39C197.05 104.293 197.081 104.199 197.139 104.121C197.196 104.043 197.276 103.985 197.368 103.955C198.459 103.479 199.525 102.947 200.7 102.681C206.896 101.306 212.592 96.7005 215.069 89.9825C215.805 87.9911 216.722 86.0682 217.557 84.1131C217.592 84.0239 217.636 83.9381 217.688 83.8571C217.73 83.7983 217.785 83.7506 217.85 83.7181C217.915 83.6856 217.986 83.6692 218.059 83.6704C218.131 83.6716 218.202 83.6903 218.265 83.7249C218.329 83.7596 218.383 83.8091 218.423 83.8692C218.49 83.9796 218.546 84.0956 218.593 84.2159C219.498 86.2799 220.431 88.3317 221.297 90.4118C223.863 96.5735 228.31 100.631 234.731 102.491C236.098 102.894 237.366 103.527 238.676 104.061C238.763 104.103 238.845 104.155 238.92 104.217C238.971 104.256 239.012 104.307 239.041 104.364C239.069 104.422 239.084 104.486 239.084 104.55C239.084 104.615 239.069 104.678 239.041 104.736C239.012 104.794 238.971 104.844 238.92 104.884C238.838 104.935 238.751 104.978 238.662 105.015C237.234 105.682 235.769 106.267 234.274 106.766C227.77 108.85 223.345 113.106 220.999 119.533C220.657 120.468 220.239 121.377 219.844 122.292C219.449 123.208 219.038 124.117 218.623 125.026C218.588 125.143 218.518 125.247 218.421 125.321C218.325 125.396 218.207 125.439 218.085 125.443V125.443Z" fill="#161718"/>
<path d="M177.33 91.5105C177.486 91.3765 177.653 91.2558 177.83 91.1497C178.586 90.7947 179.374 90.5119 180.184 90.3052C183.717 89.3599 186.394 87.2818 188.232 84.1234C188.558 83.5318 188.849 82.9213 189.103 82.2952C189.651 81.0254 190.179 79.7475 190.715 78.4757C190.8 78.2741 190.861 78.0343 191.201 78C191.317 78.1303 191.419 78.2729 191.503 78.4253C192.07 79.6891 192.654 80.9428 193.174 82.2247C194.841 86.3446 197.782 89.0394 202.043 90.3052C202.871 90.5531 203.656 90.9321 204.462 91.2545C204.548 91.295 204.63 91.345 204.706 91.4037C204.735 91.4296 204.76 91.4612 204.777 91.4968C204.794 91.5323 204.804 91.571 204.805 91.6104C204.807 91.6499 204.801 91.6892 204.787 91.7261C204.773 91.763 204.751 91.7966 204.724 91.825C204.622 91.9056 204.51 91.9733 204.391 92.0265C203.527 92.3732 202.674 92.7582 201.789 93.0444C197.488 94.4392 194.573 97.2429 193.009 101.488C192.578 102.663 192.022 103.794 191.52 104.942C191.481 105.027 191.421 105.144 191.346 105.164C191.293 105.187 191.235 105.198 191.177 105.198C191.119 105.198 191.061 105.187 191.008 105.164C190.914 105.079 190.844 104.971 190.806 104.85C190.261 103.579 189.716 102.307 189.173 101.034C187.545 97.2268 184.86 94.5218 180.895 93.1915C179.793 92.8207 178.749 92.3268 177.693 91.8552C177.58 91.7947 177.487 91.6597 177.33 91.5105Z" fill="#161718"/>
<path d="M185.558 105.617C185.697 105.766 185.821 105.929 185.927 106.103C186.364 107.07 186.803 108.038 187.209 109.017C188.48 112.095 190.702 114.13 193.874 115.123C194.517 115.324 195.14 115.588 195.765 115.84C195.951 115.939 196.127 116.055 196.293 116.185C196.158 116.306 196.01 116.414 195.853 116.505C195.17 116.786 194.493 117.088 193.789 117.312C190.546 118.36 188.331 120.47 187.112 123.655C186.757 124.586 186.33 125.487 185.929 126.4C185.87 126.504 185.803 126.602 185.727 126.694C185.429 126.724 185.378 126.505 185.306 126.342C184.903 125.428 184.5 124.515 184.125 123.594C182.847 120.508 180.68 118.378 177.473 117.324C176.651 117.054 175.861 116.657 175.075 116.316C175.028 116.296 175.006 116.213 174.942 116.114C175.01 116.042 175.075 115.913 175.171 115.881C175.73 115.637 176.303 115.425 176.887 115.248C180.333 114.329 182.704 112.212 184.042 108.915C184.415 107.99 184.814 107.076 185.211 106.161C185.314 105.972 185.43 105.791 185.558 105.617V105.617Z" fill="#161718"/>
</g>
<defs>
<clipPath id="clip0_527_86">
<rect width="313" height="313" fill="white"/>
</clipPath>
</defs>
</svg>
