<svg width="313" height="313" viewBox="0 0 313 313" fill="none" xmlns="http://www.w3.org/2000/svg">
<g clip-path="url(#clip0_527_66)">
<path d="M0 0H263C290.614 0 313 22.3858 313 50V263C313 290.614 290.614 313 263 313H50C22.3858 313 0 290.614 0 263V0Z" fill="white"/>
<path d="M67.3007 186.566L66.8034 187.553C66.7582 187.588 66.7113 187.621 66.6629 187.651C66.6379 187.665 66.6102 187.673 66.5818 187.674C62.2575 187.683 57.9381 187.69 53.6234 187.696C53.4522 187.696 53.2811 187.678 53.1099 187.663C53.0865 187.663 53.0649 187.636 53 187.595C53.0775 187.2 53.3964 186.921 53.564 186.566C53.7441 186.175 54.0883 185.985 54.454 185.793C56.6594 184.636 57.9747 182.772 58.5639 180.384C58.7442 179.595 58.8528 178.791 58.8882 177.982C59.0756 174.862 59.2426 171.741 59.3891 168.62C59.4918 166.395 59.5567 164.168 59.6143 161.942C59.6788 159.696 59.0556 157.484 57.8288 155.605C57.7837 155.533 57.7387 155.459 57.6954 155.383C57.677 155.342 57.6619 155.299 57.6504 155.256C57.8656 154.637 58.144 154.042 58.481 153.48H72.7889C73.2132 154.015 73.6095 154.571 73.9763 155.147C74.0741 155.322 74.1244 155.519 74.1222 155.719C74.2004 157.282 74.567 158.817 75.2033 160.245C75.9885 162.082 77.0256 163.8 78.2843 165.349C78.3906 165.481 78.5149 165.599 78.6321 165.722C78.8861 165.653 78.9312 165.441 79.0212 165.276C79.8322 163.741 80.4017 162.089 80.7095 160.379C81.0035 158.815 81.1596 157.228 81.1762 155.636C81.1762 155.455 81.1906 155.29 81.1996 155.093C81.8284 154.55 82.5365 154.099 83.205 153.601C83.402 153.479 83.6346 153.428 83.8644 153.456H86.0266H97.0859H97.9867L99.1327 155.421C99.0943 155.561 99.048 155.7 98.9939 155.835C98.1327 157.694 97.7201 159.671 97.4912 161.69C97.1309 164.835 97.194 167.985 97.4282 171.136C97.8169 176.068 98.5691 180.964 99.6786 185.784C99.7237 185.982 99.7615 186.181 99.7993 186.38C99.8041 186.449 99.8041 186.518 99.7993 186.586C99.5088 186.932 99.1827 187.246 98.8264 187.522C98.7137 187.608 98.5797 187.661 98.439 187.676C98.2382 187.692 98.0366 187.696 97.8354 187.687H81.987C81.7347 187.068 81.4945 186.484 81.2663 185.936C81.6572 184.669 82.0536 183.465 82.4032 182.245C83.3601 178.967 83.9866 175.601 84.2734 172.197C84.5743 168.461 84.4752 164.739 83.6356 161.065C83.5329 160.615 83.4014 160.171 83.2752 159.726C83.2401 159.658 83.1945 159.597 83.1401 159.545C82.9221 159.601 82.9707 159.775 82.9509 159.898C81.8045 166.956 79.752 173.836 76.8447 180.364C76.0289 182.216 75.1197 184.025 74.1204 185.784C73.9637 186.058 73.7961 186.327 73.6195 186.617C72.9303 186.453 72.2545 186.236 71.5979 185.969C71.5403 185.724 71.4646 185.478 71.4178 185.227C70.5277 179.053 68.4088 173.309 65.4016 167.876C64.5361 166.307 63.5814 164.789 62.5422 163.33C62.3818 163.107 62.2611 162.836 62.0143 162.707C61.8341 162.789 61.8755 162.921 61.8755 163.024C61.8864 168.204 61.8936 173.383 61.9242 178.563C61.9273 179.285 61.9985 180.006 62.1368 180.715C62.4061 181.967 63.0111 183.122 63.8863 184.054C64.6433 184.891 65.535 185.595 66.5241 186.135L67.3007 186.566Z" fill="#161718"/>
<path d="M182.54 149.413C183.597 147.544 184.316 145.501 184.664 143.379C184.956 141.696 185.069 139.987 185.001 138.28C184.846 134.297 183.826 130.519 182.282 126.874L181.922 126.034L183.561 123.239C184.206 123.337 184.822 123.438 185.448 123.527C188.426 123.947 191.412 124.097 194.406 123.751C195.235 123.657 196.057 123.496 196.884 123.389C199.449 123.053 201.997 123.129 204.51 123.793C205.939 124.148 207.298 124.741 208.532 125.547C211.188 127.33 212.709 129.802 212.963 133.02C213.209 136.125 212.206 138.768 209.986 140.937C209.161 141.752 208.16 142.366 207.062 142.731C206.9 142.784 206.745 142.858 206.541 142.941C206.643 143.017 206.751 143.086 206.862 143.148C207.889 143.611 208.55 144.415 209.013 145.425C209.418 146.353 209.687 147.336 209.811 148.342C210.071 150.1 209.991 151.863 209.968 153.628C209.948 155.076 209.941 156.525 209.995 157.973C210.047 159.305 210.277 160.624 210.68 161.894C210.92 162.699 211.285 163.461 211.761 164.152C212.529 165.235 213.675 165.989 214.971 166.262C216.267 166.535 217.618 166.309 218.755 165.627C219.148 165.386 219.503 165.089 219.811 164.745C220.656 163.8 220.775 162.649 220.172 161.528C219.999 161.228 219.81 160.937 219.606 160.658C219.087 159.924 218.719 159.093 218.525 158.214C218.376 157.533 218.371 156.828 218.51 156.144C218.988 153.892 220.842 152.495 223.249 152.545C224.737 152.578 225.898 153.241 226.791 154.406C227.467 155.313 227.918 156.368 228.107 157.484C228.87 161.541 227.566 167.517 221.415 170.175C217.671 171.791 213.865 171.833 210.064 170.334C207.92 169.506 206.117 167.975 204.947 165.989C203.8 164.044 202.987 161.918 202.543 159.702C202.193 157.972 201.952 156.222 201.822 154.463C201.669 152.652 201.521 150.829 201.312 149.019C201.204 148.188 201.031 147.367 200.795 146.564C200.644 146.066 200.433 145.588 200.165 145.143C199.929 144.726 199.608 144.363 199.224 144.078C198.84 143.793 198.4 143.593 197.934 143.49C197.766 143.45 197.597 143.419 197.426 143.398C197.033 143.35 196.639 143.311 196.183 143.262C196.062 145.367 195.925 147.413 196.754 149.451L195.914 151.124C195.7 151.146 195.503 151.182 195.309 151.182C191.795 151.182 188.282 151.182 184.767 151.182C184.582 151.198 184.396 151.17 184.225 151.099C184.053 151.028 183.901 150.917 183.781 150.775C183.408 150.32 182.983 149.897 182.54 149.413ZM196.066 126.181C195.873 126.507 195.957 126.831 195.965 127.14C196.037 130.496 196.114 133.851 196.197 137.206C196.197 137.322 196.21 137.438 196.206 137.552C196.195 137.741 196.227 137.93 196.3 138.105C196.373 138.28 196.485 138.436 196.628 138.56C196.942 138.854 197.288 139.112 197.66 139.328C198.33 139.69 199.073 139.782 199.833 139.789C201.674 139.806 203.772 138.714 204.3 136.089C204.491 135.064 204.491 134.011 204.3 132.986C204.148 131.951 203.781 130.961 203.222 130.078C202.663 129.196 201.925 128.442 201.056 127.866C199.754 127.002 198.277 126.438 196.732 126.213C196.511 126.189 196.288 126.178 196.066 126.181V126.181Z" fill="#161718"/>
<path d="M76.3961 133.944C76.7979 133.43 77.1564 132.977 77.5042 132.518C77.5749 132.408 77.672 132.319 77.7863 132.258C77.9007 132.196 78.0286 132.165 78.1582 132.166C78.2735 132.166 78.3889 132.156 78.5042 132.152C81.9275 132.031 85.3509 131.911 88.7743 131.79C89.1473 131.775 89.522 131.79 89.9472 131.79C90.3984 132.264 90.8078 132.777 91.1707 133.323C91.0013 134.056 90.8319 134.786 90.6662 135.517C90.0568 138.138 89.699 140.812 89.5977 143.501C89.5209 145.092 89.6493 146.686 89.9797 148.244C90.0626 148.606 90.0463 148.9 89.7671 149.197C89.313 149.68 88.9112 150.212 88.4824 150.719C88.3968 150.805 88.3052 150.884 88.2085 150.956C88.0067 150.759 87.8211 150.582 87.6374 150.4C87.0623 149.828 86.4096 149.341 85.6987 148.952C84.9809 148.548 84.186 148.301 83.3663 148.228C82.5466 148.156 81.7209 148.259 80.9438 148.53C79.4699 149.02 77.9871 149.483 76.4952 149.917C74.5569 150.482 72.5633 150.834 70.5493 150.967C68.9082 151.079 67.2601 150.914 65.6737 150.477C63.9156 149.987 62.3059 149.066 60.9891 147.797C58.1959 145.163 56.2868 141.721 55.5261 137.949C54.4509 133.017 54.9828 127.868 57.0432 123.263C59.4035 117.888 64.6647 113.628 70.3655 112.366C72.7079 111.847 75.0502 111.91 77.3925 112.366C79.7078 112.817 82.0338 113.217 84.3617 113.592C85.0751 113.682 85.7945 113.714 86.5131 113.69C87.0918 113.674 87.6576 113.514 88.1599 113.224C88.3869 113.103 88.6067 112.973 88.8806 112.819L90.1418 113.874C90.2203 113.94 90.2818 114.023 90.321 114.118C90.3602 114.213 90.376 114.315 90.3671 114.417C90.3671 114.504 90.3671 114.598 90.3671 114.678C90.4319 118.322 90.4968 121.967 90.5616 125.613C90.5616 125.872 90.5616 126.129 90.5616 126.408C90.0734 126.494 89.7004 126.259 89.2644 126.145C89.131 125.874 88.9905 125.591 88.8572 125.307C87.6842 122.81 86.2842 120.459 84.4843 118.362C83.6296 117.343 82.6417 116.444 81.5474 115.69C80.6004 115.026 79.5269 114.565 78.3943 114.338C77.503 114.152 76.5822 114.163 75.6956 114.37C74.809 114.577 73.9777 114.975 73.2592 115.536C72.4403 116.18 71.7475 116.97 71.216 117.868C70.3579 119.31 69.7196 120.874 69.3223 122.506C68.8733 124.272 68.5672 126.071 68.407 127.887C68.2462 129.615 68.2058 131.353 68.2863 133.088C68.3926 135.61 68.7241 138.099 69.4701 140.519C69.7996 141.629 70.2561 142.696 70.8304 143.7C71.2077 144.383 71.6824 145.007 72.2394 145.552C72.5757 145.867 72.9372 146.154 73.3205 146.409C74.7619 147.341 76.279 147.455 77.8357 146.706C79.6519 145.827 80.8807 144.453 81.3041 142.435C81.5154 141.377 81.4101 140.279 81.0014 139.281C80.4903 137.926 79.7354 136.676 78.7744 135.595C78.1889 134.945 77.5276 134.395 76.6772 134.12C76.5778 134.071 76.4836 134.012 76.3961 133.944V133.944Z" fill="#161718"/>
<path d="M153.657 149.354L152.324 150.802C151.566 150.893 142.611 150.914 141.067 150.831C140.679 150.366 140.259 149.855 139.829 149.356C139.755 149.267 139.705 149.162 139.681 149.049C139.658 148.937 139.662 148.82 139.694 148.709C139.998 147.091 140.326 145.474 140.58 143.847C140.978 141.301 141.243 138.742 141.182 136.158C141.161 135.145 141.047 134.136 140.841 133.144C140.722 132.546 140.494 131.976 140.169 131.462C139.877 130.995 139.493 130.593 139.041 130.28C137.818 129.449 136.429 129.5 135.274 130.425C134.668 130.92 134.195 131.56 133.897 132.286C133.808 132.528 133.765 132.786 133.771 133.044C133.773 134.462 133.86 135.879 134.032 137.286C134.448 140.967 135.14 144.612 136.104 148.188C136.153 148.323 136.168 148.468 136.15 148.61C136.131 148.752 136.079 148.888 135.998 149.006C135.591 149.602 135.207 150.212 134.832 150.79C134.126 150.9 123.272 150.936 121.87 150.835C121.415 150.078 121.02 149.249 120.573 148.42C120.661 148.166 120.735 147.92 120.831 147.683C121.774 145.38 122.436 142.971 122.802 140.508C123.315 136.9 123.103 133.354 121.856 129.901C121.422 128.674 120.835 127.506 120.108 126.427C120.027 126.31 119.959 126.183 119.854 126.011C120.33 125.012 120.833 124.02 121.353 123.062C122.054 122.959 133.032 122.935 134.07 123.033C134.421 123.681 134.722 124.354 134.971 125.048C135.006 125.243 134.983 125.445 134.904 125.627C134.737 126.179 134.544 126.724 134.364 127.275C134.331 127.432 134.307 127.591 134.292 127.751C134.512 127.51 134.652 127.389 134.762 127.233C135.277 126.535 135.866 125.896 136.519 125.327C138.746 123.408 141.351 122.595 144.267 122.669C145.853 122.686 147.413 123.083 148.816 123.828C150.629 124.812 151.866 126.268 152.337 128.316C152.502 129.08 152.553 129.866 152.488 130.646C152.277 133.618 152.09 136.594 152.128 139.576C152.151 141.718 152.234 143.856 152.569 145.978C152.749 147.145 153.002 148.297 153.657 149.354Z" fill="#161718"/>
<path d="M130.891 180.311C130.698 180.098 130.522 179.913 130.35 179.719C127.568 176.488 126.781 172.817 128.233 168.807C129.457 165.428 132.031 163.518 135.512 162.856C137.786 162.425 139.979 162.796 142.093 163.712L142.595 163.928C142.799 163.759 142.997 163.6 143.19 163.435C144.3 162.463 145.577 161.701 146.957 161.187C148.456 160.644 149.984 160.497 151.536 160.948C152.429 161.194 153.253 161.648 153.941 162.271C155.114 163.357 155.523 164.947 154.982 166.39C154.622 167.362 153.981 168.077 152.93 168.32C152.508 168.423 152.067 168.423 151.645 168.321C151.222 168.219 150.83 168.017 150.501 167.731C150.203 167.499 149.976 167.186 149.849 166.829C149.721 166.472 149.697 166.086 149.781 165.716C149.871 165.352 149.984 164.994 150.118 164.644C150.316 164.031 150.118 163.611 149.489 163.464C149.126 163.379 148.75 163.372 148.384 163.444C147.936 163.546 147.505 163.714 147.105 163.942C146.39 164.357 145.755 164.899 145.233 165.542C145.368 165.655 145.482 165.767 145.611 165.857C149.215 168.372 150.593 171.857 150.071 176.166C149.637 179.741 146.993 183.226 142.484 184.159C140.048 184.662 137.734 184.233 135.534 183.101C135.282 182.971 135.031 182.837 134.74 182.681C134.613 182.877 134.53 183.098 134.496 183.33C134.462 183.561 134.478 183.797 134.543 184.021C134.607 184.229 134.714 184.422 134.856 184.587C134.998 184.752 135.172 184.885 135.368 184.979C135.882 185.245 136.444 185.401 137.021 185.437C138.43 185.532 139.847 185.442 141.233 185.169C142.961 184.825 144.742 184.853 146.458 185.252C146.709 185.314 146.959 185.382 147.206 185.46C150.366 186.458 151.602 189.307 151.471 191.78C151.378 193.411 150.767 194.97 149.729 196.226C148.655 197.562 147.277 198.618 145.711 199.304C144.097 200.004 142.394 200.475 140.651 200.705C138.629 201.023 136.575 201.084 134.538 200.886C133.132 200.76 131.745 200.474 130.404 200.032C129.719 199.807 129.071 199.482 128.48 199.067C127.942 198.698 127.498 198.208 127.182 197.636C126.867 197.064 126.689 196.426 126.662 195.772C126.646 195.511 126.646 195.251 126.648 194.99C126.648 193.855 127.176 192.999 128.098 192.379C128.616 192.035 129.198 191.799 129.809 191.685C130.419 191.571 131.047 191.582 131.653 191.717C132.01 191.777 132.349 191.916 132.646 192.123C132.944 192.33 133.192 192.601 133.374 192.915C134.606 194.974 136.484 195.926 138.819 196.06C140 196.162 141.189 195.975 142.284 195.517C142.732 195.318 143.155 195.068 143.545 194.769C144.53 194.012 144.332 192.477 143.429 191.838C142.83 191.43 142.129 191.199 141.406 191.172C140.341 191.098 139.271 191.2 138.239 191.474C137.157 191.786 136.031 191.916 134.907 191.86C133.358 191.751 131.902 191.338 130.606 190.455C129.251 189.532 128.383 188.283 128.253 186.606C128.17 185.534 128.334 184.458 128.732 183.46C129.105 182.514 129.656 181.65 130.354 180.914L130.891 180.311ZM141.786 174.109C141.732 173.638 141.662 172.717 141.514 171.806C141.366 170.862 141.075 169.946 140.651 169.091C140.418 168.592 140.087 168.147 139.676 167.782C139.439 167.569 139.147 167.428 138.833 167.374C138.52 167.32 138.198 167.356 137.903 167.478C137.36 167.68 136.898 168.059 136.592 168.553C136.233 169.113 135.976 169.732 135.831 170.382C135.451 172.047 135.423 173.774 135.75 175.451C135.91 176.451 136.225 177.419 136.685 178.32C136.918 178.786 137.235 179.205 137.621 179.555C138.606 180.411 139.833 180.297 140.649 179.272C140.978 178.833 141.222 178.337 141.37 177.808C141.709 176.754 141.775 175.661 141.786 174.107V174.109Z" fill="#161718"/>
<path d="M241.503 149.916C241.267 150.397 241.175 150.821 240.871 151.183H228.237C227.965 150.882 227.826 150.504 227.65 150.12C228.042 149.47 228.518 148.835 228.219 147.904C227.974 148.113 227.777 148.266 227.595 148.435C226.52 149.444 225.313 150.301 224.008 150.984C222.864 151.601 221.617 152.002 220.329 152.168C218.138 152.418 216.224 151.793 214.619 150.287C214.026 149.749 213.572 149.074 213.296 148.321C213.02 147.567 212.93 146.758 213.035 145.962C213.327 143.123 214.812 141.005 217.106 139.417C218.106 138.722 219.224 138.253 220.367 137.85C221.561 137.428 222.765 137.038 223.97 136.628C224.929 136.32 225.853 135.913 226.729 135.415C227.513 134.973 228.153 134.312 228.57 133.512C228.872 132.949 229.05 132.329 229.092 131.691C229.135 131.054 229.041 130.415 228.817 129.817C228.686 129.465 228.508 129.133 228.287 128.83C227.538 127.786 226.392 127.427 225.064 127.909C224.071 128.271 223.534 128.995 223.462 130.058C223.397 130.666 223.505 131.28 223.774 131.828C223.82 131.934 223.871 132.038 223.929 132.138C224.967 133.648 223.749 136.173 221.803 136.622C219.315 137.196 216.152 135.438 216.051 132.246C215.972 129.696 217.005 127.577 218.924 125.91C220.214 124.791 221.734 124.118 223.381 123.727C226.758 122.925 230.073 123.109 233.291 124.465C236.776 125.937 238.855 128.575 239.482 132.321C239.608 133.151 239.648 133.991 239.602 134.83C239.532 136.68 239.404 138.527 239.285 140.375C239.179 142.022 239.087 143.67 239.21 145.317C239.264 145.98 239.385 146.635 239.57 147.273C239.825 148.264 240.42 149.133 241.249 149.727C241.3 149.782 241.372 149.829 241.503 149.916ZM228.768 138.049C228.617 138.128 228.549 138.141 228.525 138.181C227.995 139.032 227.194 139.51 226.295 139.868C225.839 140.042 225.392 140.239 224.956 140.458C224.05 140.927 223.363 141.732 223.041 142.703C222.779 143.427 222.828 144.119 223.327 144.743C224.214 145.848 226.57 146.407 227.904 144.825C228.349 144.293 228.666 143.666 228.831 142.991C229.235 141.362 229.113 139.738 228.761 138.049H228.768Z" fill="#161718"/>
<path d="M259.935 148.929L258.483 151.176C257.319 151.232 256.141 151.194 254.969 151.201C253.798 151.208 252.609 151.201 251.429 151.201C250.249 151.201 249.067 151.201 247.887 151.201C246.706 151.201 245.532 151.21 244.319 151.201C243.899 150.408 243.498 149.644 243.09 148.884C243.048 148.793 243.026 148.694 243.026 148.593C243.026 148.493 243.048 148.394 243.09 148.303C243.375 147.423 243.66 146.543 243.916 145.656C245.611 139.718 246.17 133.51 245.564 127.362C245.146 123.318 244.303 119.371 242.755 115.595C242.723 115.515 242.698 115.434 242.645 115.282L244.2 112.215C246.566 112.193 248.885 112.285 251.218 112.294C253.551 112.304 255.874 112.332 258.222 112.352C258.631 113.093 258.903 113.853 259.22 114.574C258.923 115.711 258.611 116.822 258.342 117.943C257.707 120.676 257.306 123.458 257.142 126.26C257.014 128.136 256.981 130.018 257.041 131.897C257.236 137.473 258.056 142.94 259.744 148.277C259.796 148.449 259.85 148.649 259.935 148.929Z" fill="#161718"/>
<path d="M103.392 136.421C103.318 137.059 103.305 137.703 103.354 138.344C103.415 139.618 103.708 140.87 104.219 142.039C104.619 143.006 105.257 143.856 106.071 144.51C107.653 145.723 109.394 146.025 111.279 145.33C111.879 145.111 112.411 144.736 112.821 144.244C113.082 143.952 113.264 143.597 113.348 143.214C113.432 142.831 113.416 142.432 113.302 142.057C113.165 141.617 113.077 141.162 113.041 140.703C112.965 138.82 114.497 137.395 116.417 137.772C118.192 138.117 119.318 139.401 119.387 141.291C119.414 142.047 119.283 142.8 119.003 143.501C117.419 147.52 114.542 150.044 110.302 150.861C106.062 151.677 100.771 150.194 97.4085 147.035C95.2356 144.999 93.9203 142.475 93.2771 139.578C92.0465 134.015 94.3852 128.082 99.0013 124.963C102.408 122.66 106.138 121.994 110.125 123.073C111.94 123.578 113.593 124.55 114.92 125.892C116.826 127.758 118.118 129.972 118.628 132.616C118.707 133.1 118.741 133.591 118.731 134.082C118.721 134.341 118.676 134.597 118.597 134.844C118.488 135.27 118.24 135.646 117.893 135.914C117.546 136.181 117.12 136.324 116.682 136.32C115.185 136.32 113.688 136.347 112.189 136.358L104.587 136.397C104.214 136.39 103.853 136.408 103.392 136.421ZM109.491 134.191C109.525 134.072 109.549 133.951 109.563 133.829C109.637 132.47 109.524 131.108 109.228 129.781C109.093 129.158 108.869 128.559 108.563 128.001C108.334 127.564 108.007 127.187 107.608 126.898C106.493 126.134 105.086 126.163 104.286 127.588C104.024 128.069 103.825 128.582 103.693 129.114C103.273 130.726 103.243 132.373 103.365 134.022C103.365 134.069 103.428 134.113 103.502 134.212C105.327 134.227 107.194 134.243 109.061 134.252C109.206 134.243 109.35 134.223 109.491 134.191Z" fill="#161718"/>
<path d="M165.505 136.49C165.469 136.626 165.442 136.766 165.426 136.906C165.344 138.471 165.574 140.037 166.102 141.512C166.463 142.587 167.094 143.551 167.934 144.311C169.417 145.599 171.118 145.987 173.008 145.467C173.595 145.307 174.135 145.008 174.584 144.597C175.375 143.872 175.712 143.009 175.359 141.943C175.117 141.289 175.066 140.579 175.211 139.897C175.561 138.427 176.804 137.543 178.296 137.744C180.226 137.998 181.429 139.365 181.474 141.336C181.491 142.178 181.327 143.013 180.993 143.785C179.346 147.703 176.464 150.133 172.274 150.886C167.725 151.706 161.81 149.961 158.401 145.884C156.577 143.728 155.447 141.069 155.158 138.255C154.637 133.405 156.204 129.304 159.765 126.008C161.837 124.09 164.327 123.039 167.127 122.691C169.046 122.431 171 122.628 172.829 123.265C174.711 123.938 176.387 125.089 177.694 126.607C179.173 128.245 180.203 130.241 180.682 132.4C180.838 133.079 180.869 133.781 180.773 134.471C180.664 135.195 180.325 135.775 179.647 136.117C179.332 136.261 178.987 136.329 178.64 136.314C177.287 136.327 175.938 136.343 174.581 136.35C171.988 136.367 169.397 136.374 166.804 136.394C166.388 136.394 165.956 136.345 165.505 136.49ZM171.61 134.167C171.709 133.142 171.692 132.11 171.559 131.089C171.476 130.168 171.246 129.266 170.878 128.417C170.584 127.778 170.208 127.197 169.593 126.824C168.305 126.044 167.06 126.388 166.406 127.57C166.128 128.075 165.917 128.614 165.777 129.174C165.413 130.754 165.302 132.383 165.448 133.999C165.448 134.047 165.503 134.095 165.534 134.142C166.253 134.263 170.84 134.292 171.61 134.167Z" fill="#161718"/>
<path d="M126.19 186.719C126.019 187.119 125.882 187.443 125.734 187.778C125.568 187.813 125.4 187.836 125.231 187.847C121.775 187.847 118.32 187.847 114.864 187.847C114.779 187.847 114.693 187.829 114.57 187.816C114.334 187.584 114.226 187.255 114.058 186.911C114.363 186.346 114.801 185.803 114.59 185.1C114.345 184.979 114.258 185.18 114.147 185.281C113.083 186.304 111.868 187.154 110.543 187.8C109.282 188.408 107.965 188.793 106.547 188.719C105.752 188.693 104.972 188.505 104.251 188.168C103.531 187.831 102.885 187.351 102.354 186.757C101.205 185.49 100.983 183.974 101.358 182.374C101.846 180.279 103.057 178.666 104.832 177.486C105.631 176.968 106.489 176.549 107.388 176.239C108.388 175.876 109.404 175.552 110.408 175.198C111.058 174.968 111.716 174.749 112.341 174.457C112.867 174.223 113.364 173.928 113.822 173.579C114.517 173.026 115.006 172.253 115.21 171.386C115.414 170.52 115.322 169.609 114.948 168.801C114.613 168.095 114.13 167.534 113.349 167.324C112.403 167.064 111.588 167.324 110.893 167.998C110.645 168.241 110.483 168.559 110.431 168.903C110.278 169.617 110.38 170.362 110.72 171.008C110.971 171.4 111.109 171.853 111.118 172.319C111.088 172.886 110.898 173.432 110.571 173.895C110.243 174.357 109.792 174.717 109.269 174.931C108.701 175.15 108.086 175.212 107.486 175.112C105.033 174.712 103.502 172.601 103.907 170.145C104.268 167.911 105.406 166.162 107.331 164.963C108.387 164.31 109.554 163.858 110.774 163.629C113.431 163.106 116.049 163.244 118.588 164.23C119.286 164.499 119.954 164.84 120.583 165.246C122.824 166.694 124.051 168.812 124.444 171.441C124.563 172.272 124.595 173.114 124.538 173.952C124.42 175.858 124.292 177.763 124.177 179.669C124.076 180.881 124.099 182.099 124.246 183.306C124.335 183.996 124.545 184.665 124.865 185.281C125.176 185.868 125.632 186.363 126.19 186.719V186.719ZM115.019 176.284C113.914 177.457 113.914 177.455 112.406 178.094C112.114 178.213 111.828 178.349 111.552 178.501C110.819 178.921 110.267 179.599 110.003 180.404C109.877 180.699 109.835 181.023 109.882 181.34C109.929 181.657 110.063 181.955 110.269 182.2C111.053 183.152 113.051 183.596 114.195 182.338C114.64 181.841 114.95 181.239 115.096 180.587C115.43 179.186 115.341 177.788 115.019 176.284Z" fill="#161718"/>
<path d="M189.838 179.464C190.827 179.935 191.798 180.351 192.76 180.884C192.69 181.086 192.648 181.246 192.58 181.401C192.177 182.236 191.634 182.995 190.975 183.645C189.155 185.479 186.853 186.757 184.339 187.329C182.119 187.878 179.796 187.837 177.596 187.211C175.3 186.581 173.266 185.226 171.795 183.346C170.144 181.312 169.16 178.815 168.979 176.197C168.618 171.309 170.487 167.46 174.506 164.695C176.128 163.582 177.962 163.017 179.912 162.807C182.677 162.51 185.469 163.017 187.955 164.268C189.208 164.864 190.315 165.729 191.198 166.803C192.33 168.14 192.922 169.855 192.857 171.609C192.824 172.596 192.549 173.56 192.057 174.415C191.047 176.189 189.175 176.798 187.497 176.551C186.75 176.43 186.066 176.056 185.558 175.492C184.996 174.905 184.613 174.168 184.454 173.369C184.364 172.972 184.373 172.559 184.483 172.167C184.506 172.083 184.539 172.002 184.56 171.919C184.921 170.554 184.366 169.688 182.973 169.393C182.319 169.271 181.644 169.328 181.02 169.558C179.909 169.914 178.975 170.68 178.404 171.701C177.967 172.437 177.679 173.252 177.557 174.1C177.435 174.948 177.482 175.812 177.694 176.642C178.054 178.205 178.904 179.611 180.119 180.652C181.741 182.062 183.629 182.432 185.69 182.055C186.198 181.952 186.695 181.8 187.173 181.601C188.245 181.177 188.757 180.75 189.838 179.464Z" fill="#161718"/>
<path d="M155.426 165.847L156.621 163.494C156.685 163.456 156.709 163.439 156.734 163.427C156.759 163.412 156.786 163.402 156.815 163.398C157.015 163.389 157.217 163.378 157.419 163.378L166.914 163.389C166.991 163.403 167.065 163.427 167.136 163.459C167.341 163.917 167.561 164.417 167.786 164.908C167.905 165.17 167.828 165.409 167.729 165.657C167.371 166.541 167.091 167.454 166.893 168.387C166.634 169.573 166.475 170.779 166.419 171.992C166.219 176.463 166.959 180.801 168.237 185.064C168.327 185.368 168.417 185.669 168.53 186.017L167.368 187.814H156.772C156.323 187.271 156.051 186.594 155.747 185.953C155.66 185.772 155.731 185.502 155.783 185.287C156.004 184.382 156.275 183.504 156.473 182.602C157.177 179.347 157.347 175.999 156.976 172.689C156.74 170.353 156.22 168.055 155.426 165.847V165.847Z" fill="#161718"/>
<path d="M260.666 181.126C260.608 181.244 260.59 181.338 260.53 181.389C260.441 181.461 260.341 181.518 260.233 181.557C259.332 181.919 258.431 182.316 257.502 182.624C253.502 183.96 250.777 186.606 249.259 190.551C248.79 191.762 248.246 192.943 247.734 194.138C247.7 194.217 247.658 194.292 247.608 194.362C247.579 194.394 247.544 194.419 247.504 194.435C247.465 194.452 247.422 194.46 247.38 194.458C247.337 194.456 247.295 194.445 247.257 194.425C247.219 194.406 247.186 194.378 247.159 194.344C247.078 194.191 247.005 194.033 246.941 193.871C246.401 192.593 245.9 191.301 245.32 190.041C243.698 186.443 241.078 183.896 237.297 182.66C236.253 182.319 235.28 181.82 234.273 181.393C234.192 181.365 234.123 181.309 234.079 181.235C234.048 181.132 234.053 181.022 234.091 180.922C234.136 180.848 234.207 180.793 234.289 180.768C234.967 180.45 235.668 180.188 236.387 179.982C239.072 179.353 241.477 177.856 243.233 175.721C244.149 174.603 244.879 173.343 245.396 171.991C245.895 170.724 246.444 169.488 246.974 168.238C247.008 168.159 247.048 168.083 247.095 168.01C247.119 167.975 247.152 167.946 247.19 167.927C247.228 167.907 247.271 167.897 247.314 167.897C247.356 167.897 247.399 167.907 247.437 167.927C247.475 167.946 247.508 167.975 247.532 168.01C247.61 168.131 247.677 168.258 247.734 168.39C248.298 169.688 248.868 170.985 249.419 172.288C251.041 176.115 253.819 178.652 257.783 179.848C258.656 180.136 259.512 180.477 260.345 180.868C260.464 180.937 260.572 181.024 260.666 181.126Z" fill="#161718"/>
<path d="M230.247 164.199C230.364 164.349 230.47 164.509 230.562 164.675C230.923 165.465 231.27 166.256 231.602 167.054C232.651 169.589 234.46 171.271 237.074 172.073C237.725 172.25 238.348 172.516 238.926 172.864C238.948 173.112 238.784 173.162 238.668 173.211C238.139 173.434 237.611 173.667 237.067 173.843C234.339 174.727 232.478 176.501 231.481 179.205C231.213 179.93 230.87 180.637 230.555 181.351C230.486 181.463 230.408 181.569 230.321 181.668C230.215 181.558 230.123 181.437 230.045 181.305C229.708 180.54 229.382 179.768 229.058 178.997C228.022 176.522 226.297 174.777 223.732 173.928C223.007 173.686 222.304 173.379 221.633 173.012C221.618 172.975 221.612 172.936 221.615 172.896C221.617 172.857 221.628 172.818 221.648 172.784C221.667 172.749 221.693 172.719 221.725 172.696C221.757 172.673 221.794 172.657 221.833 172.65C222.373 172.449 222.914 172.237 223.454 172.08C224.9 171.67 226.207 170.874 227.238 169.777C227.989 168.975 228.58 168.035 228.977 167.009C229.287 166.232 229.622 165.465 229.951 164.695C230.025 164.55 230.123 164.415 230.247 164.199Z" fill="#161718"/>
<path d="M226.73 181.818C226.896 182.099 226.994 182.235 227.06 182.383C227.318 182.964 227.567 183.549 227.817 184.132C228.613 185.991 229.956 187.251 231.878 187.877C232.455 188.029 233.005 188.269 233.511 188.587C233.4 188.689 233.28 188.778 233.15 188.853C232.698 189.034 232.249 189.215 231.781 189.38C230.86 189.681 230.02 190.189 229.323 190.864C228.626 191.539 228.091 192.365 227.758 193.278C227.538 193.843 227.289 194.397 227.037 194.952C226.957 195.096 226.866 195.234 226.765 195.363C226.653 195.17 226.574 195.059 226.52 194.936C226.289 194.408 226.06 193.877 225.839 193.343C225.031 191.399 223.685 190.028 221.671 189.351C221.079 189.176 220.514 188.916 219.994 188.582C220.275 188.267 220.621 188.202 220.927 188.078C221.138 187.993 221.37 187.959 221.59 187.897C222.505 187.627 223.348 187.154 224.056 186.512C224.765 185.87 225.32 185.076 225.682 184.19C225.925 183.634 226.149 183.069 226.388 182.512C226.466 182.321 226.565 182.148 226.73 181.818Z" fill="#161718"/>
<path d="M167.147 153.48C166.75 153.985 166.29 154.437 165.778 154.824C164.666 155.719 163.896 156.973 163.599 158.374C163.508 158.912 163.453 159.457 163.437 160.003C163.389 160.691 163.363 161.379 163.322 162.165C163.174 162.103 163.033 162.025 162.902 161.931C162.473 161.504 162.052 161.066 161.641 160.626C160.187 159.096 158.428 158.327 156.309 158.454C155.711 158.489 155.111 158.447 154.524 158.329C154.585 158.193 154.662 158.066 154.753 157.948C154.978 157.725 155.219 157.518 155.473 157.327C157.313 155.995 158.209 154.179 158.261 151.918C158.277 151.194 158.304 150.481 158.326 149.802C158.356 149.774 158.391 149.754 158.43 149.741C158.469 149.729 158.51 149.725 158.55 149.73C158.591 149.735 158.629 149.749 158.664 149.77C158.699 149.792 158.728 149.82 158.751 149.854C159.218 150.327 159.695 150.788 160.151 151.272C161.634 152.841 163.439 153.544 165.59 153.363C165.964 153.34 166.338 153.34 166.711 153.363C166.86 153.389 167.006 153.428 167.147 153.48V153.48Z" fill="#161718"/>
<path d="M115.098 180.586C115.432 179.18 115.343 177.788 115.019 176.283C113.916 177.453 113.913 177.454 112.42 178.089L112.408 178.094C112.116 178.212 111.831 178.348 111.554 178.501C110.821 178.92 110.269 179.598 110.005 180.404C109.879 180.698 109.837 181.022 109.885 181.34C109.932 181.657 110.066 181.954 110.271 182.199C111.055 183.152 113.053 183.595 114.197 182.337C114.642 181.841 114.953 181.238 115.098 180.586Z" fill="white"/>
</g>
<defs>
<clipPath id="clip0_527_66">
<rect width="313" height="313" fill="white"/>
</clipPath>
</defs>
</svg>
