<svg width="313" height="313" viewBox="0 0 313 313" fill="none" xmlns="http://www.w3.org/2000/svg">
<g clip-path="url(#clip0_527_94)">
<path d="M0 0H263C290.614 0 313 22.3858 313 50V263C313 290.614 290.614 313 263 313H50C22.3858 313 0 290.614 0 263V0Z" fill="white"/>
<path d="M201.323 229.008C201.149 228.905 200.681 228.784 200.495 228.488C200.124 227.877 199.811 227.233 199.558 226.564C196.768 219.956 194.137 213.277 191.167 206.753C183.045 188.905 170.066 176.234 151.243 169.985C148.327 169.028 145.464 167.916 142.665 166.656C140.234 165.559 137.803 164.481 135.371 163.39C135.077 163.295 134.821 163.109 134.64 162.858C134.459 162.608 134.362 162.307 134.364 161.998C134.369 161.69 134.471 161.391 134.653 161.143C134.836 160.894 135.091 160.709 135.384 160.612C138.855 159.098 142.248 157.404 145.989 156.558C165.71 152.182 183.84 137.523 191.725 116.14C194.067 109.801 196.986 103.681 199.642 97.4578C199.755 97.1737 199.895 96.9009 200.059 96.643C200.193 96.4559 200.37 96.3041 200.576 96.2006C200.782 96.0971 201.009 96.045 201.24 96.0488C201.47 96.0526 201.696 96.1121 201.898 96.2223C202.1 96.3325 202.272 96.4901 202.4 96.6815C202.612 97.033 202.792 97.4022 202.939 97.785C205.82 104.354 208.79 110.885 211.549 117.506C219.716 137.119 233.869 150.033 254.308 155.955C258.658 157.238 262.693 159.252 266.864 160.952C267.142 161.084 267.403 161.25 267.64 161.446C267.802 161.571 267.934 161.732 268.024 161.916C268.115 162.1 268.162 162.303 268.162 162.508C268.162 162.713 268.115 162.915 268.024 163.1C267.934 163.284 267.802 163.444 267.64 163.57C267.378 163.732 267.104 163.871 266.819 163.987C262.274 166.112 257.611 167.973 252.852 169.562C232.151 176.196 218.067 189.741 210.599 210.198C209.509 213.175 208.181 216.068 206.923 218.981C205.666 221.893 204.357 224.787 203.036 227.68C202.926 228.054 202.702 228.383 202.394 228.622C202.087 228.86 201.712 228.995 201.323 229.008V229.008Z" fill="#161718"/>
<path d="M71.6016 121.003C72.0988 120.577 72.631 120.192 73.1926 119.855C75.6002 118.725 78.1091 117.825 80.686 117.167C91.9324 114.158 100.452 107.543 106.303 97.4904C107.341 95.6073 108.267 93.6642 109.075 91.6715C110.82 87.6297 112.501 83.5623 114.207 79.5141C114.477 78.8725 114.669 78.1091 115.753 78C116.123 78.4147 116.445 78.8686 116.716 79.3537C118.518 83.3762 120.379 87.3667 122.034 91.4469C127.34 104.56 136.7 113.138 150.262 117.167C152.899 117.956 155.395 119.162 157.961 120.188C158.237 120.317 158.497 120.476 158.737 120.663C158.832 120.746 158.909 120.846 158.964 120.96C159.018 121.073 159.049 121.196 159.055 121.321C159.06 121.447 159.04 121.572 158.995 121.689C158.951 121.807 158.882 121.914 158.795 122.004C158.47 122.261 158.114 122.476 157.736 122.646C154.984 123.749 152.27 124.974 149.454 125.885C135.763 130.325 126.486 139.249 121.508 152.76C120.135 156.5 118.364 160.099 116.767 163.756C116.645 164.026 116.453 164.398 116.215 164.462C116.044 164.533 115.861 164.57 115.676 164.57C115.491 164.57 115.308 164.533 115.137 164.462C114.838 164.192 114.616 163.846 114.496 163.461C112.759 159.415 111.027 155.367 109.299 151.317C104.115 139.198 95.57 130.588 82.9506 126.354C79.4413 125.173 76.1181 123.602 72.7564 122.1C72.3971 121.908 72.102 121.478 71.6016 121.003Z" fill="#161718"/>
<path d="M97.7906 165.904C98.2339 166.378 98.6273 166.896 98.9646 167.45C100.357 170.53 101.755 173.609 103.045 176.727C107.091 186.521 114.163 192.999 124.261 196.16C126.308 196.801 128.29 197.642 130.279 198.443C130.87 198.759 131.433 199.126 131.96 199.541C131.529 199.927 131.06 200.269 130.561 200.561C128.386 201.452 126.231 202.415 123.992 203.127C113.669 206.463 106.618 213.18 102.737 223.316C101.608 226.28 100.248 229.148 98.971 232.054C98.7859 232.385 98.5712 232.699 98.3295 232.991C97.38 233.087 97.2196 232.388 96.9886 231.868C95.7055 228.962 94.4224 226.056 93.2291 223.124C89.1617 213.302 82.265 206.521 72.0579 203.165C69.4404 202.306 66.9255 201.042 64.4234 199.958C64.2759 199.893 64.2053 199.63 64 199.316C64.2181 199.085 64.4234 198.674 64.7314 198.572C66.5108 197.795 68.3338 197.123 70.191 196.557C81.1615 193.632 88.7062 186.896 92.9661 176.4C94.153 173.455 95.4232 170.549 96.6871 167.636C97.016 167.035 97.3846 166.456 97.7906 165.904V165.904Z" fill="#161718"/>
</g>
<defs>
<clipPath id="clip0_527_94">
<rect width="313" height="313" fill="white"/>
</clipPath>
</defs>
</svg>
