<svg width="354" height="354" viewBox="0 0 354 354" fill="none" xmlns="http://www.w3.org/2000/svg">
<g clip-path="url(#clip0_527_32)">
<circle cx="177" cy="177" r="177" fill="white"/>
<path d="M60.6391 229.188L59.991 230.474C59.9321 230.519 59.871 230.562 59.8078 230.601C59.7753 230.619 59.7392 230.629 59.7021 230.632C54.066 230.643 48.4361 230.652 42.8125 230.66C42.5894 230.66 42.3663 230.636 42.1433 230.617C42.1127 230.617 42.0845 230.582 42 230.528C42.101 230.013 42.5166 229.65 42.735 229.188C42.9699 228.678 43.4184 228.43 43.8951 228.18C46.7696 226.672 48.4839 224.242 49.2518 221.13C49.4868 220.101 49.6283 219.053 49.6745 217.998C49.9187 213.932 50.1364 209.865 50.3274 205.797C50.4612 202.897 50.5458 199.995 50.6209 197.092C50.705 194.165 49.8927 191.282 48.2937 188.834C48.235 188.739 48.1762 188.643 48.1199 188.544C48.0958 188.49 48.0762 188.435 48.0612 188.378C48.3417 187.571 48.7045 186.796 49.1438 186.064H67.7923C68.3453 186.761 68.8619 187.486 69.3399 188.237C69.4673 188.464 69.5329 188.721 69.5301 188.982C69.632 191.02 70.1098 193.02 70.9391 194.881C71.9626 197.276 73.3143 199.515 74.9548 201.533C75.0934 201.705 75.2554 201.859 75.4081 202.019C75.7392 201.93 75.7979 201.653 75.9153 201.439C76.9723 199.438 77.7145 197.285 78.1158 195.056C78.4989 193.017 78.7024 190.949 78.724 188.874C78.724 188.638 78.7428 188.423 78.7545 188.166C79.5741 187.458 80.497 186.871 81.3683 186.222C81.6251 186.062 81.9283 185.996 82.2278 186.033H85.0458H99.4602H100.634L102.128 188.593C102.078 188.777 102.018 188.957 101.947 189.133C100.825 191.557 100.287 194.133 99.9886 196.764C99.5189 200.863 99.6011 204.969 99.9064 209.077C100.413 215.505 101.393 221.886 102.84 228.168C102.898 228.425 102.948 228.685 102.997 228.945C103.003 229.034 103.003 229.124 102.997 229.213C102.618 229.664 102.193 230.073 101.729 230.433C101.582 230.545 101.407 230.615 101.224 230.634C100.962 230.655 100.699 230.66 100.437 230.648H79.7808C79.452 229.841 79.1389 229.081 78.8414 228.366C79.351 226.715 79.8677 225.146 80.3232 223.555C81.5704 219.283 82.3871 214.896 82.7609 210.459C83.153 205.589 83.0239 200.738 81.9295 195.95C81.7957 195.363 81.6242 194.785 81.4599 194.204C81.4141 194.117 81.3547 194.037 81.2837 193.968C80.9996 194.041 81.063 194.268 81.0372 194.428C79.5429 203.628 76.8677 212.595 73.0785 221.104C72.0153 223.518 70.8301 225.876 69.5277 228.168C69.3234 228.524 69.105 228.876 68.8749 229.254C67.9766 229.039 67.0958 228.757 66.24 228.409C66.1648 228.09 66.0662 227.769 66.0052 227.441C64.8451 219.395 62.0834 211.908 58.1639 204.827C57.0359 202.782 55.7915 200.804 54.437 198.902C54.228 198.612 54.0707 198.258 53.749 198.09C53.5141 198.197 53.5681 198.369 53.5681 198.503C53.5822 205.254 53.5916 212.005 53.6315 218.756C53.6356 219.698 53.7284 220.637 53.9086 221.561C54.2596 223.194 55.0481 224.698 56.1889 225.912C57.1755 227.004 58.3377 227.921 59.627 228.626L60.6391 229.188Z" fill="#161718"/>
<path d="M210.838 180.764C212.216 178.327 213.153 175.664 213.607 172.899C213.988 170.705 214.135 168.477 214.046 166.252C213.844 161.061 212.515 156.136 210.502 151.387L210.033 150.292L212.17 146.649C213.01 146.776 213.813 146.908 214.628 147.024C218.51 147.571 222.402 147.767 226.305 147.316C227.385 147.194 228.456 146.984 229.534 146.844C232.878 146.406 236.198 146.505 239.474 147.371C241.336 147.834 243.108 148.606 244.716 149.657C248.177 151.981 250.159 155.202 250.491 159.397C250.812 163.444 249.504 166.889 246.611 169.716C245.535 170.778 244.231 171.578 242.8 172.054C242.588 172.123 242.386 172.219 242.121 172.328C242.254 172.427 242.394 172.517 242.539 172.597C243.877 173.201 244.739 174.249 245.343 175.565C245.871 176.775 246.221 178.056 246.383 179.367C246.721 181.658 246.618 183.956 246.587 186.257C246.562 188.144 246.552 190.032 246.623 191.92C246.69 193.656 246.991 195.375 247.515 197.031C247.828 198.08 248.304 199.073 248.924 199.973C249.926 201.385 251.419 202.367 253.109 202.724C254.798 203.08 256.558 202.784 258.041 201.896C258.552 201.581 259.015 201.194 259.417 200.747C260.518 199.515 260.673 198.015 259.886 196.554C259.662 196.162 259.416 195.783 259.149 195.419C258.473 194.462 257.994 193.379 257.74 192.234C257.546 191.346 257.54 190.427 257.721 189.537C258.343 186.601 260.76 184.78 263.897 184.846C265.837 184.888 267.35 185.752 268.514 187.271C269.395 188.453 269.982 189.828 270.229 191.283C271.224 196.57 269.524 204.359 261.507 207.823C256.627 209.93 251.667 209.985 246.712 208.031C243.918 206.951 241.568 204.956 240.043 202.368C238.548 199.832 237.489 197.062 236.91 194.173C236.454 191.919 236.14 189.638 235.97 187.344C235.771 184.985 235.578 182.609 235.306 180.249C235.164 179.167 234.939 178.097 234.632 177.05C234.435 176.4 234.159 175.778 233.81 175.197C233.503 174.654 233.085 174.181 232.584 173.81C232.083 173.439 231.51 173.177 230.903 173.043C230.684 172.991 230.463 172.951 230.24 172.923C229.728 172.861 229.214 172.809 228.62 172.746C228.463 175.49 228.284 178.156 229.364 180.813L228.27 182.993C227.991 183.022 227.735 183.069 227.481 183.069C222.902 183.069 218.322 183.069 213.741 183.069C213.5 183.09 213.258 183.052 213.034 182.96C212.811 182.868 212.613 182.723 212.456 182.538C211.97 181.946 211.416 181.394 210.838 180.764ZM228.467 150.483C228.216 150.908 228.326 151.33 228.336 151.733C228.43 156.107 228.531 160.48 228.639 164.853C228.639 165.004 228.655 165.155 228.651 165.304C228.636 165.55 228.678 165.797 228.773 166.025C228.868 166.253 229.014 166.456 229.2 166.618C229.61 167.001 230.061 167.336 230.546 167.618C231.419 168.09 232.387 168.211 233.378 168.22C235.778 168.241 238.511 166.818 239.199 163.397C239.448 162.06 239.448 160.689 239.199 159.353C239.002 158.004 238.523 156.713 237.795 155.563C237.066 154.413 236.105 153.431 234.972 152.68C233.274 151.553 231.35 150.818 229.336 150.525C229.048 150.494 228.758 150.48 228.467 150.483V150.483Z" fill="#161718"/>
<path d="M72.4941 160.601C73.0177 159.931 73.4851 159.341 73.9383 158.742C74.0305 158.6 74.157 158.483 74.306 158.403C74.4551 158.323 74.6218 158.282 74.7908 158.284C74.9411 158.284 75.0914 158.27 75.2417 158.265C79.7036 158.108 84.1655 157.951 88.6274 157.793C89.1135 157.775 89.602 157.793 90.1562 157.793C90.7443 158.412 91.2778 159.081 91.7508 159.792C91.53 160.748 91.3093 161.699 91.0932 162.652C90.299 166.068 89.8326 169.552 89.7006 173.058C89.6005 175.131 89.7679 177.209 90.1985 179.24C90.3065 179.712 90.2854 180.094 89.9214 180.481C89.3296 181.111 88.8059 181.805 88.247 182.465C88.1354 182.577 88.0161 182.68 87.89 182.774C87.627 182.517 87.3851 182.286 87.1456 182.05C86.3961 181.304 85.5454 180.669 84.6187 180.162C83.6833 179.635 82.6471 179.314 81.5788 179.219C80.5105 179.124 79.4343 179.258 78.4214 179.613C76.5004 180.251 74.5677 180.854 72.6232 181.42C70.0969 182.157 67.4984 182.615 64.8736 182.789C62.7346 182.935 60.5864 182.719 58.5188 182.149C56.2273 181.511 54.1293 180.311 52.413 178.657C48.7724 175.224 46.2842 170.738 45.2927 165.821C43.8914 159.393 44.5846 152.682 47.2701 146.68C50.3465 139.674 57.2037 134.122 64.634 132.477C67.6869 131.8 70.7398 131.883 73.7927 132.477C76.8104 133.065 79.8421 133.586 82.8762 134.075C83.8061 134.192 84.7437 134.234 85.6802 134.202C86.4346 134.181 87.172 133.973 87.8266 133.596C88.1225 133.438 88.409 133.268 88.766 133.067L90.4099 134.443C90.5121 134.528 90.5922 134.637 90.6434 134.761C90.6945 134.884 90.7151 135.018 90.7034 135.151C90.7034 135.264 90.7034 135.387 90.7034 135.491C90.7879 140.24 90.8725 144.99 90.957 149.743C90.957 150.08 90.957 150.415 90.957 150.778C90.3206 150.892 89.8345 150.585 89.2662 150.436C89.0924 150.082 88.9092 149.714 88.7355 149.344C87.2067 146.09 85.382 143.025 83.0359 140.292C81.9221 138.963 80.6344 137.792 79.2081 136.81C77.9738 135.944 76.5746 135.343 75.0984 135.047C73.9368 134.805 72.7367 134.819 71.5811 135.089C70.4255 135.359 69.342 135.877 68.4055 136.609C67.3382 137.448 66.4352 138.478 65.7425 139.648C64.6241 141.528 63.7922 143.566 63.2743 145.694C62.6891 147.995 62.2901 150.34 62.0813 152.706C61.8717 154.959 61.8191 157.225 61.924 159.485C62.0625 162.772 62.4946 166.017 63.4669 169.171C63.8964 170.618 64.4914 172.009 65.2399 173.317C65.7316 174.208 66.3503 175.021 67.0763 175.731C67.5146 176.141 67.9859 176.515 68.4854 176.847C70.3641 178.062 72.3414 178.211 74.3704 177.234C76.7376 176.09 78.3392 174.299 78.891 171.668C79.1665 170.289 79.0292 168.858 78.4965 167.557C77.8303 165.791 76.8464 164.162 75.5939 162.753C74.8307 161.906 73.9688 161.189 72.8604 160.83C72.7309 160.767 72.6082 160.69 72.4941 160.601V160.601Z" fill="#161718"/>
<path d="M173.193 180.686L171.456 182.574C170.467 182.692 158.796 182.72 156.783 182.611C156.278 182.005 155.731 181.34 155.17 180.688C155.074 180.573 155.008 180.436 154.978 180.289C154.947 180.142 154.952 179.99 154.994 179.846C155.39 177.737 155.818 175.629 156.149 173.508C156.668 170.191 157.013 166.854 156.933 163.487C156.907 162.166 156.758 160.851 156.489 159.558C156.334 158.78 156.037 158.037 155.614 157.366C155.233 156.757 154.733 156.233 154.143 155.825C152.549 154.742 150.738 154.808 149.233 156.014C148.443 156.66 147.826 157.494 147.439 158.44C147.322 158.756 147.267 159.091 147.274 159.428C147.276 161.277 147.39 163.123 147.615 164.957C148.156 169.755 149.059 174.505 150.316 179.166C150.378 179.343 150.398 179.531 150.374 179.717C150.35 179.902 150.283 180.079 150.177 180.233C149.646 181.009 149.146 181.804 148.658 182.557C147.737 182.701 133.59 182.748 131.763 182.616C131.169 181.63 130.655 180.549 130.073 179.468C130.188 179.138 130.284 178.817 130.408 178.508C131.638 175.507 132.501 172.367 132.977 169.157C133.647 164.454 133.37 159.832 131.745 155.332C131.179 153.732 130.414 152.211 129.467 150.804C129.361 150.651 129.272 150.486 129.135 150.261C129.755 148.959 130.411 147.666 131.089 146.418C132.003 146.283 146.312 146.253 147.664 146.38C148.122 147.224 148.514 148.102 148.838 149.006C148.884 149.261 148.854 149.524 148.752 149.761C148.533 150.481 148.282 151.191 148.047 151.908C148.004 152.113 147.973 152.321 147.953 152.529C148.24 152.215 148.423 152.057 148.566 151.854C149.237 150.945 150.005 150.112 150.856 149.37C153.758 146.868 157.154 145.809 160.954 145.906C163.022 145.928 165.054 146.446 166.883 147.416C169.246 148.699 170.859 150.597 171.472 153.265C171.688 154.262 171.754 155.286 171.669 156.302C171.395 160.176 171.15 164.056 171.2 167.942C171.23 170.733 171.338 173.52 171.775 176.285C172.01 177.807 172.339 179.308 173.193 180.686Z" fill="#161718"/>
<path d="M143.521 221.035C143.27 220.757 143.039 220.516 142.816 220.264C139.19 216.052 138.164 211.266 140.057 206.04C141.652 201.637 145.007 199.148 149.544 198.284C152.508 197.722 155.366 198.206 158.121 199.4L158.776 199.681C159.041 199.461 159.3 199.254 159.551 199.039C160.998 197.772 162.662 196.779 164.461 196.108C166.415 195.401 168.407 195.209 170.429 195.797C171.593 196.119 172.667 196.709 173.564 197.522C175.092 198.938 175.626 201.009 174.921 202.89C174.451 204.157 173.615 205.089 172.246 205.405C171.696 205.54 171.122 205.541 170.571 205.407C170.02 205.274 169.509 205.01 169.081 204.638C168.691 204.336 168.396 203.928 168.23 203.463C168.063 202.998 168.033 202.494 168.141 202.012C168.259 201.538 168.406 201.071 168.58 200.615C168.839 199.815 168.58 199.268 167.761 199.077C167.288 198.966 166.798 198.957 166.321 199.051C165.737 199.183 165.175 199.402 164.654 199.7C163.722 200.241 162.895 200.948 162.214 201.786C162.39 201.932 162.538 202.078 162.707 202.196C167.404 205.474 169.2 210.016 168.519 215.632C167.953 220.292 164.508 224.834 158.63 226.049C155.455 226.705 152.44 226.146 149.573 224.671C149.244 224.501 148.917 224.327 148.537 224.124C148.372 224.379 148.264 224.668 148.22 224.969C148.176 225.27 148.197 225.578 148.281 225.87C148.365 226.141 148.503 226.393 148.689 226.607C148.874 226.822 149.101 226.996 149.357 227.118C150.026 227.465 150.759 227.668 151.51 227.715C153.348 227.84 155.193 227.723 157.001 227.366C159.253 226.918 161.574 226.954 163.811 227.474C164.137 227.555 164.464 227.644 164.785 227.746C168.905 229.046 170.515 232.76 170.344 235.983C170.223 238.109 169.427 240.14 168.073 241.778C166.675 243.52 164.878 244.896 162.836 245.79C160.733 246.701 158.513 247.316 156.242 247.616C153.606 248.031 150.929 248.11 148.274 247.852C146.442 247.687 144.635 247.314 142.887 246.738C141.994 246.445 141.149 246.021 140.379 245.481C139.678 245 139.099 244.361 138.687 243.616C138.276 242.87 138.044 242.038 138.009 241.186C137.988 240.846 137.988 240.507 137.99 240.167C137.99 238.687 138.678 237.571 139.881 236.764C140.556 236.315 141.314 236.008 142.11 235.859C142.906 235.711 143.724 235.725 144.514 235.901C144.979 235.979 145.421 236.16 145.809 236.43C146.197 236.7 146.52 237.053 146.757 237.463C148.363 240.145 150.81 241.387 153.854 241.561C155.394 241.694 156.943 241.451 158.37 240.853C158.954 240.595 159.506 240.268 160.014 239.879C161.298 238.893 161.04 236.892 159.863 236.059C159.082 235.527 158.169 235.226 157.226 235.19C155.838 235.094 154.443 235.227 153.098 235.584C151.687 235.99 150.22 236.16 148.755 236.087C146.736 235.945 144.838 235.407 143.15 234.256C141.384 233.053 140.252 231.424 140.083 229.239C139.975 227.842 140.189 226.439 140.707 225.139C141.193 223.906 141.911 222.78 142.821 221.821L143.521 221.035ZM157.722 212.951C157.651 212.338 157.559 211.137 157.367 209.95C157.174 208.719 156.795 207.525 156.242 206.41C155.939 205.761 155.506 205.18 154.972 204.704C154.662 204.427 154.282 204.243 153.873 204.173C153.464 204.102 153.044 204.149 152.661 204.308C151.952 204.572 151.351 205.065 150.951 205.71C150.484 206.439 150.148 207.246 149.96 208.093C149.464 210.263 149.428 212.514 149.854 214.7C150.062 216.003 150.473 217.265 151.073 218.44C151.377 219.047 151.79 219.593 152.292 220.049C153.577 221.165 155.176 221.016 156.24 219.681C156.668 219.109 156.987 218.461 157.179 217.772C157.621 216.399 157.707 214.973 157.722 212.949V212.951Z" fill="#161718"/>
<path d="M287.69 181.418C287.382 182.046 287.262 182.598 286.866 183.07H270.399C270.044 182.678 269.863 182.185 269.633 181.685C270.145 180.838 270.765 180.009 270.375 178.797C270.056 179.068 269.8 179.269 269.563 179.488C268.161 180.803 266.588 181.921 264.887 182.81C263.396 183.615 261.77 184.138 260.092 184.354C257.236 184.679 254.742 183.865 252.65 181.902C251.876 181.201 251.284 180.322 250.925 179.339C250.565 178.357 250.449 177.302 250.585 176.265C250.966 172.565 252.901 169.804 255.89 167.735C257.194 166.829 258.652 166.218 260.141 165.692C261.698 165.142 263.267 164.634 264.838 164.099C266.087 163.698 267.292 163.168 268.433 162.518C269.455 161.942 270.289 161.08 270.833 160.038C271.226 159.305 271.458 158.496 271.513 157.665C271.569 156.834 271.447 156.001 271.155 155.222C270.985 154.764 270.752 154.331 270.464 153.936C269.488 152.575 267.994 152.107 266.263 152.735C264.969 153.207 264.269 154.151 264.175 155.536C264.091 156.328 264.232 157.128 264.582 157.844C264.641 157.982 264.709 158.116 264.784 158.247C266.136 160.215 264.549 163.507 262.013 164.092C258.769 164.84 254.648 162.549 254.517 158.389C254.413 155.064 255.759 152.303 258.26 150.13C259.941 148.672 261.923 147.794 264.07 147.284C268.471 146.239 272.792 146.48 276.986 148.247C281.528 150.165 284.238 153.603 285.055 158.485C285.219 159.567 285.272 160.663 285.212 161.756C285.121 164.167 284.954 166.574 284.799 168.983C284.66 171.13 284.541 173.278 284.7 175.425C284.771 176.288 284.928 177.142 285.17 177.973C285.503 179.265 286.278 180.398 287.359 181.173C287.424 181.244 287.518 181.305 287.69 181.418ZM271.091 165.951C270.894 166.055 270.805 166.071 270.774 166.123C270.084 167.232 269.039 167.855 267.867 168.322C267.273 168.549 266.691 168.806 266.122 169.092C264.942 169.702 264.046 170.752 263.626 172.018C263.285 172.961 263.349 173.863 263.999 174.677C265.155 176.116 268.226 176.845 269.964 174.783C270.545 174.09 270.958 173.272 271.174 172.393C271.7 170.269 271.54 168.153 271.082 165.951H271.091Z" fill="#161718"/>
<path d="M311.713 180.132L309.82 183.061C308.303 183.134 306.767 183.084 305.241 183.094C303.715 183.103 302.165 183.094 300.626 183.094C299.088 183.094 297.548 183.094 296.01 183.094C294.471 183.094 292.94 183.106 291.36 183.094C290.813 182.06 290.289 181.064 289.758 180.073C289.703 179.955 289.674 179.826 289.674 179.695C289.674 179.564 289.703 179.435 289.758 179.316C290.129 178.169 290.5 177.023 290.834 175.866C293.044 168.126 293.773 160.036 292.982 152.023C292.438 146.751 291.339 141.607 289.321 136.685C289.279 136.581 289.246 136.475 289.178 136.277L291.205 132.28C294.288 132.252 297.311 132.372 300.352 132.384C303.393 132.396 306.42 132.433 309.48 132.459C310.013 133.424 310.368 134.415 310.781 135.354C310.393 136.836 309.987 138.285 309.637 139.746C308.809 143.308 308.286 146.934 308.073 150.586C307.906 153.031 307.862 155.484 307.942 157.933C308.195 165.201 309.264 172.327 311.464 179.283C311.532 179.507 311.603 179.767 311.713 180.132Z" fill="#161718"/>
<path d="M107.68 163.83C107.582 164.661 107.566 165.501 107.63 166.335C107.71 167.997 108.092 169.629 108.758 171.151C109.279 172.412 110.11 173.52 111.172 174.372C113.234 175.953 115.502 176.347 117.959 175.441C118.741 175.156 119.435 174.667 119.969 174.025C120.309 173.645 120.546 173.183 120.656 172.683C120.766 172.184 120.745 171.664 120.596 171.175C120.417 170.601 120.303 170.009 120.255 169.41C120.157 166.956 122.153 165.099 124.656 165.59C126.969 166.041 128.437 167.713 128.526 170.177C128.562 171.162 128.392 172.143 128.026 173.058C125.962 178.296 122.212 181.585 116.686 182.65C111.16 183.714 104.263 181.781 99.8808 177.664C97.0486 175.009 95.3343 171.72 94.496 167.945C92.892 160.694 95.9402 152.961 101.957 148.896C106.398 145.894 111.259 145.026 116.456 146.432C118.821 147.091 120.975 148.357 122.705 150.106C125.189 152.539 126.873 155.425 127.538 158.87C127.64 159.501 127.685 160.141 127.672 160.781C127.659 161.119 127.6 161.453 127.498 161.774C127.355 162.329 127.032 162.82 126.579 163.168C126.127 163.517 125.571 163.703 125.001 163.697C123.05 163.697 121.098 163.733 119.145 163.747L109.237 163.799C108.751 163.789 108.281 163.813 107.68 163.83ZM115.629 160.923C115.673 160.768 115.704 160.61 115.723 160.451C115.819 158.68 115.672 156.905 115.286 155.175C115.111 154.363 114.819 153.582 114.42 152.855C114.121 152.286 113.695 151.794 113.175 151.418C111.721 150.422 109.887 150.46 108.845 152.317C108.503 152.944 108.244 153.613 108.072 154.306C107.525 156.406 107.485 158.554 107.645 160.703C107.645 160.764 107.727 160.821 107.823 160.951C110.202 160.97 112.635 160.991 115.068 161.003C115.257 160.991 115.444 160.965 115.629 160.923Z" fill="#161718"/>
<path d="M188.636 163.919C188.589 164.097 188.554 164.279 188.533 164.462C188.426 166.502 188.725 168.542 189.413 170.465C189.885 171.866 190.707 173.123 191.802 174.113C193.734 175.793 195.951 176.298 198.415 175.62C199.179 175.411 199.884 175.022 200.47 174.485C201.5 173.542 201.94 172.416 201.479 171.026C201.164 170.174 201.097 169.249 201.287 168.36C201.742 166.444 203.363 165.292 205.307 165.554C207.822 165.885 209.391 167.666 209.45 170.236C209.472 171.333 209.258 172.422 208.823 173.428C206.676 178.534 202.919 181.701 197.459 182.683C191.529 183.751 183.819 181.477 179.376 176.163C177 173.354 175.526 169.887 175.149 166.22C174.471 159.898 176.514 154.554 181.154 150.257C183.855 147.758 187.1 146.387 190.75 145.934C193.251 145.596 195.797 145.852 198.182 146.682C200.635 147.559 202.82 149.06 204.523 151.038C206.451 153.173 207.793 155.775 208.416 158.589C208.62 159.474 208.661 160.389 208.536 161.288C208.393 162.232 207.951 162.987 207.068 163.433C206.657 163.621 206.207 163.709 205.756 163.69C203.992 163.707 202.233 163.728 200.465 163.737C197.085 163.759 193.709 163.768 190.329 163.794C189.787 163.794 189.223 163.73 188.636 163.919ZM196.592 160.892C196.722 159.556 196.7 158.211 196.527 156.88C196.418 155.679 196.118 154.503 195.639 153.398C195.256 152.565 194.765 151.807 193.964 151.321C192.285 150.304 190.663 150.753 189.81 152.293C189.448 152.952 189.172 153.654 188.991 154.384C188.516 156.444 188.371 158.567 188.561 160.672C188.561 160.736 188.634 160.797 188.674 160.859C189.611 161.017 195.59 161.055 196.592 160.892Z" fill="#161718"/>
<path d="M137.393 229.386C137.17 229.908 136.991 230.33 136.799 230.767C136.583 230.812 136.364 230.842 136.144 230.856C131.639 230.856 127.135 230.856 122.631 230.856C122.521 230.856 122.408 230.833 122.248 230.816C121.941 230.514 121.8 230.085 121.581 229.636C121.978 228.9 122.549 228.192 122.274 227.277C121.955 227.119 121.842 227.381 121.696 227.513C120.311 228.846 118.726 229.954 117 230.795C115.356 231.588 113.639 232.09 111.791 231.994C110.756 231.959 109.738 231.715 108.799 231.275C107.86 230.836 107.019 230.21 106.326 229.436C104.828 227.784 104.539 225.809 105.028 223.723C105.664 220.993 107.242 218.891 109.555 217.352C110.597 216.678 111.716 216.132 112.888 215.727C114.191 215.255 115.516 214.832 116.824 214.37C117.671 214.07 118.528 213.785 119.343 213.405C120.029 213.1 120.677 212.716 121.274 212.26C122.179 211.539 122.816 210.532 123.082 209.403C123.349 208.273 123.229 207.086 122.741 206.033C122.305 205.113 121.675 204.382 120.656 204.108C119.423 203.768 118.362 204.108 117.455 204.986C117.133 205.303 116.922 205.717 116.854 206.166C116.654 207.096 116.787 208.068 117.23 208.91C117.557 209.42 117.737 210.011 117.749 210.618C117.709 211.357 117.462 212.069 117.035 212.671C116.609 213.274 116.021 213.743 115.339 214.023C114.599 214.308 113.797 214.389 113.014 214.259C109.818 213.737 107.822 210.986 108.351 207.784C108.82 204.872 110.304 202.593 112.813 201.031C114.189 200.179 115.711 199.59 117.3 199.292C120.764 198.61 124.176 198.789 127.485 200.075C128.395 200.426 129.266 200.87 130.085 201.399C133.006 203.287 134.606 206.048 135.117 209.474C135.273 210.557 135.314 211.654 135.24 212.746C135.087 215.231 134.92 217.713 134.77 220.198C134.638 221.777 134.667 223.366 134.859 224.938C134.975 225.838 135.249 226.709 135.667 227.513C136.071 228.277 136.666 228.923 137.393 229.386V229.386ZM122.833 215.786C121.394 217.315 121.394 217.312 119.428 218.145C119.047 218.3 118.675 218.477 118.315 218.676C117.359 219.223 116.64 220.107 116.295 221.156C116.131 221.54 116.077 221.963 116.139 222.376C116.2 222.789 116.374 223.177 116.643 223.497C117.664 224.738 120.269 225.316 121.76 223.676C122.34 223.029 122.744 222.244 122.934 221.394C123.368 219.568 123.253 217.746 122.833 215.786Z" fill="#161718"/>
<path d="M220.35 219.931C221.639 220.545 222.905 221.087 224.159 221.781C224.068 222.045 224.014 222.253 223.924 222.456C223.399 223.544 222.691 224.532 221.832 225.379C219.46 227.771 216.46 229.436 213.183 230.181C210.29 230.897 207.262 230.844 204.395 230.028C201.402 229.207 198.751 227.441 196.833 224.99C194.682 222.339 193.4 219.084 193.163 215.672C192.693 209.301 195.129 204.285 200.368 200.682C202.481 199.23 204.872 198.494 207.413 198.22C211.017 197.833 214.656 198.494 217.896 200.125C219.529 200.902 220.972 202.029 222.123 203.428C223.598 205.171 224.37 207.406 224.286 209.693C224.242 210.979 223.884 212.235 223.243 213.35C221.926 215.663 219.486 216.455 217.3 216.135C216.326 215.976 215.435 215.489 214.773 214.754C214.04 213.988 213.541 213.028 213.333 211.986C213.215 211.469 213.228 210.93 213.371 210.42C213.401 210.311 213.444 210.205 213.472 210.096C213.941 208.317 213.218 207.189 211.403 206.805C210.55 206.646 209.671 206.72 208.857 207.019C207.41 207.484 206.191 208.482 205.447 209.813C204.878 210.772 204.503 211.835 204.344 212.94C204.185 214.045 204.246 215.171 204.522 216.252C204.991 218.29 206.099 220.122 207.683 221.479C209.797 223.317 212.258 223.798 214.944 223.308C215.606 223.174 216.253 222.976 216.877 222.715C218.274 222.163 218.941 221.606 220.35 219.931Z" fill="#161718"/>
<path d="M175.499 202.183L177.056 199.115C177.141 199.066 177.171 199.045 177.204 199.028C177.236 199.008 177.272 198.995 177.31 198.99C177.571 198.979 177.834 198.964 178.097 198.964L190.473 198.979C190.572 198.998 190.669 199.028 190.761 199.071C191.029 199.668 191.316 200.319 191.609 200.958C191.764 201.3 191.663 201.612 191.534 201.935C191.068 203.087 190.703 204.278 190.444 205.493C190.107 207.039 189.901 208.611 189.827 210.191C189.566 216.02 190.531 221.673 192.196 227.23C192.314 227.626 192.431 228.018 192.579 228.471L191.064 230.814H177.254C176.669 230.106 176.314 229.224 175.917 228.388C175.805 228.153 175.896 227.801 175.964 227.52C176.253 226.34 176.605 225.196 176.864 224.021C177.782 219.779 178.003 215.414 177.519 211.1C177.212 208.056 176.534 205.061 175.499 202.183V202.183Z" fill="#161718"/>
<path d="M312.665 222.097C312.59 222.251 312.567 222.373 312.489 222.44C312.373 222.534 312.242 222.608 312.102 222.659C310.927 223.131 309.753 223.648 308.542 224.049C303.328 225.79 299.777 229.24 297.798 234.381C297.187 235.96 296.478 237.498 295.811 239.056C295.767 239.159 295.712 239.257 295.647 239.348C295.609 239.39 295.563 239.422 295.511 239.444C295.46 239.465 295.404 239.475 295.349 239.473C295.293 239.471 295.239 239.456 295.189 239.431C295.139 239.405 295.096 239.369 295.062 239.325C294.956 239.125 294.861 238.919 294.778 238.709C294.073 237.043 293.42 235.358 292.664 233.716C290.551 229.027 287.136 225.708 282.207 224.096C280.847 223.652 279.579 223.001 278.266 222.444C278.16 222.408 278.07 222.336 278.013 222.239C277.973 222.105 277.979 221.961 278.029 221.831C278.087 221.734 278.179 221.662 278.287 221.63C279.17 221.216 280.084 220.874 281.021 220.606C284.52 219.786 287.655 217.835 289.945 215.052C291.138 213.594 292.09 211.953 292.763 210.191C293.413 208.539 294.13 206.928 294.82 205.299C294.864 205.196 294.917 205.097 294.977 205.002C295.01 204.956 295.052 204.919 295.102 204.893C295.152 204.868 295.207 204.854 295.263 204.854C295.318 204.854 295.374 204.868 295.423 204.893C295.473 204.919 295.516 204.956 295.548 205.002C295.649 205.16 295.737 205.326 295.811 205.498C296.546 207.189 297.288 208.879 298.007 210.578C300.12 215.566 303.741 218.872 308.908 220.432C310.046 220.807 311.162 221.25 312.247 221.76C312.403 221.85 312.544 221.964 312.665 222.097Z" fill="#161718"/>
<path d="M273.019 200.035C273.172 200.231 273.309 200.438 273.43 200.655C273.899 201.684 274.353 202.715 274.785 203.756C276.152 207.059 278.509 209.251 281.917 210.297C282.765 210.528 283.577 210.874 284.331 211.328C284.359 211.651 284.145 211.717 283.995 211.781C283.305 212.071 282.617 212.376 281.907 212.604C278.352 213.756 275.926 216.068 274.627 219.594C274.278 220.537 273.831 221.46 273.42 222.39C273.331 222.536 273.229 222.674 273.115 222.803C272.977 222.66 272.857 222.501 272.756 222.331C272.317 221.333 271.892 220.327 271.469 219.322C270.119 216.097 267.871 213.822 264.527 212.715C263.582 212.399 262.666 212 261.791 211.521C261.772 211.473 261.764 211.422 261.768 211.37C261.771 211.319 261.786 211.269 261.811 211.224C261.835 211.178 261.87 211.139 261.912 211.109C261.953 211.079 262.001 211.059 262.052 211.049C262.756 210.788 263.461 210.511 264.165 210.306C266.049 209.772 267.753 208.735 269.097 207.305C270.076 206.26 270.846 205.035 271.363 203.697C271.767 202.685 272.204 201.684 272.634 200.681C272.73 200.493 272.857 200.316 273.019 200.035Z" fill="#161718"/>
<path d="M268.435 222.999C268.651 223.365 268.778 223.542 268.865 223.735C269.201 224.493 269.525 225.255 269.851 226.014C270.889 228.438 272.639 230.08 275.144 230.896C275.896 231.094 276.614 231.406 277.272 231.821C277.129 231.954 276.971 232.07 276.802 232.168C276.213 232.404 275.628 232.64 275.018 232.855C273.818 233.248 272.723 233.909 271.814 234.789C270.906 235.669 270.208 236.745 269.774 237.935C269.487 238.671 269.163 239.393 268.834 240.118C268.73 240.305 268.612 240.484 268.48 240.653C268.334 240.401 268.231 240.257 268.16 240.097C267.86 239.408 267.562 238.716 267.273 238.02C266.221 235.486 264.466 233.7 261.841 232.817C261.069 232.588 260.333 232.251 259.655 231.814C260.021 231.404 260.472 231.319 260.871 231.158C261.146 231.047 261.449 231.003 261.735 230.922C262.928 230.57 264.026 229.953 264.95 229.117C265.873 228.28 266.597 227.246 267.068 226.09C267.385 225.366 267.677 224.629 267.989 223.903C268.09 223.655 268.219 223.428 268.435 222.999Z" fill="#161718"/>
<path d="M190.776 186.064C190.258 186.722 189.658 187.311 188.991 187.815C187.542 188.982 186.539 190.617 186.152 192.442C186.032 193.144 185.961 193.854 185.94 194.566C185.877 195.463 185.844 196.359 185.79 197.383C185.597 197.303 185.413 197.201 185.243 197.079C184.684 196.522 184.135 195.951 183.599 195.378C181.704 193.384 179.412 192.381 176.65 192.546C175.871 192.593 175.089 192.538 174.323 192.383C174.403 192.207 174.503 192.041 174.621 191.888C174.915 191.597 175.229 191.326 175.561 191.078C177.958 189.342 179.125 186.975 179.194 184.028C179.215 183.084 179.25 182.154 179.278 181.27C179.317 181.234 179.364 181.207 179.414 181.191C179.465 181.175 179.518 181.17 179.571 181.176C179.623 181.183 179.674 181.201 179.719 181.229C179.764 181.256 179.803 181.294 179.832 181.338C180.441 181.954 181.063 182.556 181.657 183.186C183.59 185.231 185.943 186.147 188.747 185.911C189.233 185.881 189.721 185.881 190.207 185.911C190.401 185.945 190.591 185.997 190.776 186.064V186.064Z" fill="#161718"/>
<path d="M122.937 221.394C123.372 219.56 123.257 217.746 122.834 215.785C121.396 217.31 121.392 217.311 119.446 218.138L119.431 218.144C119.05 218.299 118.678 218.476 118.318 218.675C117.362 219.222 116.643 220.106 116.298 221.155C116.135 221.539 116.08 221.962 116.142 222.375C116.203 222.788 116.378 223.177 116.646 223.496C117.668 224.737 120.272 225.315 121.763 223.675C122.343 223.028 122.747 222.243 122.937 221.394Z" fill="white"/>
</g>
<defs>
<clipPath id="clip0_527_32">
<rect width="354" height="354" fill="white"/>
</clipPath>
</defs>
</svg>
