<svg width="884" height="377" viewBox="0 0 884 377" fill="none" xmlns="http://www.w3.org/2000/svg">
<g clip-path="url(#clip0_527_8)">
<path d="M60.8662 315.86L58.7496 320.039C58.5574 320.188 58.3578 320.326 58.1515 320.453C58.0453 320.512 57.9274 320.546 57.8064 320.553C39.4016 320.589 21.0172 320.62 2.65336 320.645C1.92483 320.645 1.19631 320.569 0.467787 320.507C0.368095 320.507 0.276072 320.392 0 320.216C0.329752 318.544 1.68711 317.363 2.40029 315.86C3.16716 314.204 4.63187 313.398 6.18861 312.585C15.5751 307.685 21.1732 299.786 23.6808 289.672C24.4484 286.328 24.9104 282.922 25.0612 279.495C25.8587 266.28 26.5694 253.061 27.1931 239.841C27.6302 230.416 27.9063 220.983 28.1517 211.551C28.4263 202.037 25.7736 192.668 20.552 184.711C20.3603 184.404 20.1686 184.089 19.9845 183.767C19.9059 183.594 19.8418 183.414 19.7928 183.23C20.7089 180.608 21.8936 178.087 23.3281 175.707H84.2249C86.0309 177.972 87.7177 180.33 89.2786 182.77C89.6948 183.51 89.909 184.345 89.8997 185.194C90.2324 191.814 91.7926 198.315 94.5009 204.365C97.8431 212.147 102.257 219.424 107.614 225.983C108.067 226.543 108.596 227.042 109.094 227.563C110.176 227.272 110.367 226.374 110.751 225.677C114.202 219.174 116.626 212.177 117.936 204.933C119.188 198.307 119.852 191.584 119.923 184.841C119.923 184.074 119.984 183.376 120.022 182.54C122.699 180.24 125.712 178.33 128.557 176.221C129.396 175.704 130.386 175.487 131.364 175.608H140.567H187.637H191.471L196.348 183.928C196.185 184.524 195.988 185.111 195.758 185.684C192.092 193.56 190.336 201.934 189.362 210.485C187.829 223.805 188.097 237.149 189.094 250.5C190.748 271.391 193.95 292.13 198.672 312.547C198.864 313.383 199.025 314.227 199.186 315.07C199.206 315.361 199.206 315.653 199.186 315.944C197.949 317.408 196.561 318.737 195.045 319.909C194.565 320.273 193.995 320.499 193.396 320.561C192.541 320.63 191.683 320.645 190.827 320.607H123.373C122.3 317.984 121.277 315.512 120.306 313.191C121.97 307.823 123.657 302.724 125.145 297.555C129.218 283.67 131.884 269.412 133.105 254.994C134.386 239.166 133.964 223.399 130.39 207.839C129.953 205.93 129.393 204.051 128.857 202.164C128.707 201.88 128.513 201.621 128.281 201.398C127.353 201.635 127.561 202.371 127.476 202.893C122.597 232.793 113.861 261.934 101.487 289.587C98.0151 297.433 94.1451 305.096 89.8921 312.547C89.2249 313.705 88.5117 314.848 87.7602 316.075C84.8268 315.379 81.9504 314.461 79.1559 313.329C78.9105 312.294 78.5884 311.251 78.3891 310.185C74.6007 284.035 65.5824 259.702 52.7834 236.689C49.0997 230.042 45.0363 223.612 40.6132 217.433C39.9307 216.489 39.4169 215.339 38.3663 214.795C37.5994 215.14 37.7758 215.7 37.7758 216.137C37.8218 238.077 37.8525 260.017 37.9829 281.957C37.9961 285.018 38.2991 288.071 38.8878 291.075C40.0338 296.379 42.6088 301.269 46.3341 305.216C49.5557 308.764 53.3509 311.745 57.561 314.035L60.8662 315.86Z" fill="white"/>
<path d="M551.345 158.483C555.844 150.564 558.905 141.91 560.387 132.923C561.631 125.794 562.112 118.552 561.821 111.321C561.161 94.4497 556.821 78.4452 550.249 63.0082L548.715 59.4499L555.693 47.6095C558.439 48.0236 561.062 48.4531 563.723 48.8288C576.399 50.608 589.106 51.2444 601.851 49.7797C605.379 49.381 608.876 48.6985 612.396 48.246C623.316 46.8196 634.159 47.1417 644.857 49.9561C650.937 51.4608 656.723 53.9725 661.973 57.3871C673.277 64.9407 679.749 75.4084 680.831 89.0433C681.881 102.195 677.61 113.391 668.162 122.578C664.649 126.03 660.391 128.63 655.716 130.178C655.026 130.4 654.366 130.715 653.5 131.068C653.935 131.388 654.391 131.68 654.865 131.942C659.236 133.905 662.05 137.31 664.021 141.589C665.746 145.521 666.89 149.682 667.418 153.943C668.522 161.389 668.185 168.859 668.085 176.336C668.001 182.471 667.97 188.606 668.2 194.74C668.422 200.383 669.402 205.97 671.115 211.351C672.137 214.76 673.69 217.987 675.716 220.914C678.986 225.504 683.864 228.695 689.38 229.853C694.896 231.011 700.645 230.051 705.485 227.164C707.155 226.141 708.668 224.883 709.979 223.429C713.576 219.426 714.082 214.549 711.513 209.802C710.78 208.528 709.976 207.297 709.105 206.113C706.897 203.003 705.332 199.483 704.504 195.76C703.87 192.875 703.849 189.889 704.443 186.995C706.475 177.455 714.366 171.535 724.611 171.75C730.945 171.888 735.884 174.695 739.688 179.633C742.563 183.472 744.482 187.941 745.286 192.67C748.537 209.855 742.985 235.17 716.804 246.427C700.869 253.275 684.673 253.452 668.492 247.102C659.368 243.593 651.695 237.108 646.713 228.697C641.832 220.457 638.374 211.453 636.483 202.064C634.994 194.738 633.969 187.326 633.415 179.871C632.764 172.202 632.135 164.48 631.245 156.811C630.783 153.293 630.047 149.816 629.044 146.413C628.403 144.302 627.501 142.28 626.36 140.393C625.357 138.626 623.993 137.089 622.357 135.883C620.722 134.677 618.851 133.828 616.866 133.391C616.153 133.222 615.431 133.091 614.704 133C613.032 132.801 611.353 132.632 609.412 132.425C608.899 141.344 608.316 150.009 611.843 158.644L608.27 165.73C607.357 165.822 606.521 165.975 605.693 165.975C590.739 165.975 575.785 165.975 560.824 165.975C560.038 166.043 559.247 165.922 558.517 165.622C557.787 165.322 557.14 164.851 556.629 164.25C555.042 162.325 553.232 160.531 551.345 158.483ZM608.914 60.0711C608.093 61.4514 608.454 62.8241 608.485 64.1355C608.791 78.3481 609.121 92.5606 609.474 106.773C609.474 107.264 609.528 107.755 609.512 108.238C609.464 109.04 609.601 109.842 609.912 110.583C610.223 111.323 610.7 111.982 611.307 112.509C612.645 113.754 614.119 114.845 615.701 115.761C618.554 117.295 621.713 117.686 624.949 117.716C632.787 117.785 641.713 113.161 643.96 102.042C644.773 97.698 644.773 93.2412 643.96 88.8976C643.314 84.515 641.751 80.3179 639.373 76.5808C636.994 72.8438 633.853 69.6508 630.156 67.2106C624.612 63.55 618.327 61.1593 611.751 60.2091C610.809 60.1069 609.862 60.0608 608.914 60.0711V60.0711Z" fill="white"/>
<path d="M99.585 92.9544C101.295 90.7765 102.821 88.8594 104.301 86.9115C104.602 86.4491 105.015 86.0702 105.502 85.8101C105.989 85.55 106.533 85.4171 107.085 85.4238C107.576 85.4238 108.067 85.3778 108.557 85.3625C123.128 84.8512 137.698 84.34 152.269 83.8287C153.856 83.7674 155.451 83.8287 157.261 83.8287C159.181 85.8391 160.924 88.0123 162.468 90.3241C161.747 93.4299 161.026 96.5204 160.321 99.6185C157.727 110.72 156.204 122.045 155.773 133.437C155.446 140.177 155.993 146.93 157.399 153.529C157.752 155.063 157.683 156.305 156.494 157.563C154.562 159.61 152.852 161.865 151.026 164.012C150.662 164.374 150.272 164.71 149.861 165.017C149.002 164.181 148.212 163.429 147.43 162.663C144.982 160.239 142.204 158.174 139.178 156.528C136.124 154.815 132.74 153.77 129.251 153.462C125.763 153.154 122.248 153.59 118.941 154.741C112.668 156.816 106.356 158.775 100.007 160.615C91.757 163.009 83.2718 164.5 74.7002 165.063C67.7155 165.538 60.7005 164.836 53.9488 162.985C46.4658 160.91 39.6148 157.01 34.0103 151.635C22.1218 140.476 13.9964 125.898 10.7589 109.918C6.18273 89.0257 8.4465 67.216 17.2159 47.7093C27.2619 24.9411 49.6544 6.89672 73.918 1.55166C83.8873 -0.649247 93.8565 -0.380844 103.826 1.55166C113.68 3.46116 123.58 5.15592 133.488 6.74333C136.525 7.12344 139.586 7.26192 142.645 7.15745C145.108 7.08959 147.516 6.41246 149.654 5.1866C150.62 4.6728 151.556 4.12066 152.721 3.46882L158.089 7.93964C158.423 8.21702 158.685 8.57125 158.852 8.97195C159.019 9.37264 159.086 9.80784 159.048 10.2402C159.048 10.6083 159.048 11.0071 159.048 11.3445C159.324 26.779 159.6 42.2186 159.876 57.6632C159.876 58.7599 159.876 59.8488 159.876 61.0298C157.798 61.3979 156.21 60.401 154.355 59.9178C153.787 58.7675 153.189 57.5712 152.621 56.3673C147.629 45.7922 141.671 35.8306 134.01 26.9503C130.372 22.6311 126.168 18.8236 121.51 15.6313C117.479 12.8166 112.91 10.8662 108.09 9.90282C104.296 9.1158 100.377 9.16218 96.6037 10.0387C92.8301 10.9153 89.2919 12.6011 86.2339 14.9795C82.7485 17.705 79.7998 21.0542 77.5376 24.8567C73.8856 30.9668 71.1689 37.5893 69.4778 44.5038C67.5669 51.9835 66.2641 59.6054 65.5822 67.2951C64.8975 74.6182 64.7258 81.9801 65.0684 89.3272C65.5208 100.01 66.9318 110.554 70.1067 120.807C71.5093 125.507 73.4522 130.028 75.8965 134.281C77.5022 137.174 79.5225 139.817 81.8934 142.126C83.3246 143.46 84.8636 144.673 86.4946 145.753C92.6295 149.703 99.0865 150.186 105.712 147.011C113.442 143.292 118.672 137.471 120.474 128.92C121.374 124.438 120.926 119.79 119.186 115.562C117.011 109.82 113.798 104.528 109.708 99.9483C107.215 97.1952 104.401 94.8639 100.781 93.6983C100.358 93.4913 99.9577 93.2421 99.585 92.9544V92.9544Z" fill="white"/>
<path d="M428.402 158.231L422.727 164.366C419.499 164.749 381.385 164.841 374.813 164.488C373.165 162.517 371.378 160.355 369.545 158.238C369.233 157.863 369.018 157.418 368.918 156.941C368.817 156.464 368.835 155.969 368.97 155.501C370.266 148.645 371.662 141.797 372.743 134.903C374.438 124.12 375.565 113.277 375.304 102.334C375.217 98.0419 374.732 93.7675 373.855 89.5654C373.348 87.0349 372.378 84.6198 370.994 82.4412C369.752 80.4628 368.118 78.7588 366.194 77.4336C360.987 73.9137 355.074 74.1284 350.159 78.0471C347.579 80.1452 345.565 82.8552 344.3 85.9304C343.92 86.958 343.738 88.0483 343.763 89.1436C343.769 95.1498 344.141 101.15 344.875 107.111C346.643 122.706 349.591 138.144 353.694 153.292C353.899 153.864 353.964 154.477 353.886 155.08C353.807 155.682 353.586 156.258 353.241 156.758C351.508 159.281 349.875 161.866 348.28 164.312C345.274 164.78 299.078 164.933 293.112 164.504C291.171 161.298 289.492 157.786 287.59 154.274C287.966 153.2 288.28 152.157 288.687 151.152C292.703 141.399 295.52 131.194 297.076 120.762C299.262 105.478 298.357 90.4549 293.05 75.8308C291.204 70.6303 288.704 65.6854 285.612 61.1146C285.266 60.6162 284.975 60.0794 284.53 59.3509C286.555 55.1178 288.694 50.9153 290.911 46.8586C293.894 46.4215 340.619 46.3218 345.036 46.7359C346.529 49.4793 347.811 52.3327 348.87 55.2711C349.019 56.0992 348.92 56.9527 348.587 57.7251C347.873 60.064 347.053 62.3723 346.286 64.7036C346.146 65.3695 346.043 66.0429 345.979 66.7205C346.915 65.7005 347.513 65.1867 347.981 64.5272C350.173 61.5725 352.68 58.8649 355.458 56.4521C364.936 48.3233 376.025 44.8801 388.433 45.1945C395.186 45.2674 401.824 46.9499 407.796 50.1025C415.511 54.2742 420.779 60.4398 422.781 69.1131C423.486 72.3525 423.703 75.6791 423.425 78.9826C422.528 91.5746 421.73 104.182 421.891 116.812C421.991 125.884 422.344 134.941 423.77 143.929C424.537 148.875 425.611 153.752 428.402 158.231Z" fill="white"/>
<path d="M331.51 289.364C330.689 288.459 329.938 287.677 329.209 286.857C317.369 273.168 314.018 257.616 320.199 240.63C325.406 226.32 336.364 218.23 351.18 215.423C360.858 213.598 370.19 215.17 379.186 219.05L381.325 219.963C382.192 219.25 383.036 218.575 383.856 217.877C388.582 213.76 394.015 210.533 399.891 208.353C406.272 206.052 412.775 205.431 419.377 207.34C423.18 208.386 426.686 210.305 429.615 212.946C434.607 217.547 436.348 224.28 434.047 230.392C432.514 234.51 429.784 237.54 425.313 238.567C423.516 239.005 421.64 239.008 419.842 238.574C418.044 238.14 416.375 237.284 414.975 236.075C413.704 235.092 412.74 233.767 412.197 232.255C411.654 230.743 411.553 229.107 411.908 227.54C412.293 225.999 412.772 224.482 413.342 223C414.186 220.4 413.342 218.621 410.666 218C409.122 217.639 407.52 217.61 405.965 217.915C404.056 218.346 402.221 219.057 400.52 220.024C397.475 221.783 394.776 224.08 392.552 226.803C393.127 227.279 393.611 227.754 394.163 228.138C409.5 238.79 415.367 253.552 413.143 271.803C411.295 286.949 400.045 301.711 380.85 305.66C370.482 307.792 360.635 305.975 351.272 301.182C350.198 300.63 349.132 300.062 347.89 299.403C347.352 300.233 346.999 301.17 346.855 302.149C346.71 303.128 346.778 304.127 347.054 305.077C347.327 305.96 347.78 306.776 348.385 307.474C348.99 308.172 349.732 308.738 350.566 309.134C352.751 310.261 355.145 310.922 357.599 311.074C363.599 311.48 369.627 311.098 375.528 309.939C382.882 308.482 390.462 308.602 397.767 310.292C398.833 310.553 399.899 310.844 400.949 311.174C414.4 315.399 419.661 327.47 419.101 337.945C418.706 344.855 416.107 351.455 411.686 356.78C407.118 362.439 401.252 366.911 394.585 369.816C387.715 372.779 380.468 374.777 373.051 375.752C364.444 377.099 355.702 377.357 347.031 376.519C341.049 375.984 335.147 374.77 329.439 372.899C326.523 371.946 323.764 370.569 321.249 368.812C318.96 367.25 317.069 365.174 315.725 362.751C314.382 360.327 313.624 357.623 313.511 354.855C313.442 353.75 313.442 352.646 313.45 351.542C313.45 346.734 315.697 343.106 319.623 340.484C321.828 339.025 324.304 338.025 326.903 337.543C329.503 337.061 332.172 337.107 334.754 337.677C336.272 337.933 337.716 338.521 338.982 339.398C340.247 340.276 341.304 341.421 342.077 342.754C347.323 351.473 355.313 355.507 365.252 356.074C370.281 356.505 375.34 355.715 379.999 353.773C381.907 352.933 383.709 351.87 385.367 350.606C389.562 347.401 388.718 340.898 384.876 338.191C382.326 336.463 379.342 335.485 376.264 335.369C371.73 335.057 367.176 335.489 362.783 336.649C358.178 337.969 353.387 338.521 348.603 338.283C342.008 337.823 335.812 336.074 330.298 332.332C324.531 328.421 320.835 323.13 320.283 316.028C319.93 311.488 320.628 306.927 322.323 302.7C323.909 298.696 326.252 295.035 329.225 291.918L331.51 289.364ZM377.882 263.092C377.652 261.098 377.353 257.194 376.724 253.337C376.095 249.337 374.856 245.458 373.051 241.834C372.06 239.723 370.648 237.836 368.902 236.29C367.892 235.388 366.649 234.789 365.314 234.561C363.98 234.333 362.608 234.486 361.356 235.001C359.042 235.86 357.079 237.462 355.773 239.556C354.246 241.927 353.151 244.549 352.537 247.302C350.916 254.356 350.799 261.672 352.192 268.774C352.87 273.01 354.214 277.112 356.172 280.929C357.163 282.904 358.512 284.678 360.152 286.159C364.347 289.786 369.569 289.303 373.043 284.963C374.442 283.103 375.482 280.999 376.111 278.759C377.552 274.295 377.836 269.664 377.882 263.084V263.092Z" fill="white"/>
<path d="M802.31 160.608C801.306 162.648 800.915 164.443 799.619 165.976H745.846C744.688 164.703 744.098 163.101 743.346 161.475C745.018 158.722 747.042 156.03 745.769 152.088C744.726 152.97 743.891 153.622 743.116 154.335C738.539 158.609 733.402 162.241 727.848 165.133C722.978 167.747 717.671 169.447 712.188 170.148C702.863 171.206 694.719 168.561 687.886 162.18C685.361 159.902 683.428 157.044 682.254 153.853C681.079 150.661 680.699 147.231 681.146 143.86C682.388 131.836 688.707 122.863 698.469 116.138C702.725 113.193 707.487 111.207 712.349 109.497C717.434 107.71 722.556 106.061 727.687 104.32C731.767 103.017 735.701 101.295 739.427 99.1824C742.764 97.3105 745.487 94.5108 747.265 91.1226C748.548 88.7402 749.305 86.1105 749.487 83.4106C749.668 80.7108 749.268 78.0034 748.315 75.4709C747.759 73.9809 747.001 72.5746 746.061 71.2915C742.871 66.8666 737.993 65.3483 732.342 67.3881C728.116 68.9219 725.831 71.9893 725.524 76.4908C725.247 79.066 725.707 81.6669 726.851 83.9908C727.046 84.4399 727.266 84.8777 727.51 85.3021C731.927 91.6978 726.743 102.396 718.461 104.297C707.871 106.728 694.412 99.2821 693.983 85.7622C693.645 74.9571 698.04 65.9847 706.207 58.9219C711.698 54.1827 718.17 51.3299 725.179 49.6735C739.55 46.2763 753.66 47.0585 767.357 52.8023C782.188 59.0369 791.038 70.2102 793.706 86.0766C794.242 89.5926 794.414 93.1542 794.22 96.7054C793.921 104.543 793.376 112.365 792.87 120.195C792.418 127.173 792.027 134.151 792.548 141.13C792.779 143.935 793.293 146.71 794.082 149.412C795.169 153.61 797.699 157.292 801.229 159.811C801.444 160.041 801.751 160.24 802.31 160.608ZM748.108 110.34C747.464 110.678 747.173 110.731 747.073 110.9C744.818 114.504 741.406 116.529 737.579 118.047C735.639 118.784 733.737 119.619 731.881 120.547C728.027 122.532 725.102 125.944 723.73 130.056C722.618 133.124 722.825 136.053 724.949 138.699C728.722 143.377 738.753 145.746 744.427 139.044C746.323 136.792 747.674 134.134 748.377 131.276C750.094 124.374 749.573 117.495 748.078 110.34H748.108Z" fill="white"/>
<path d="M880.747 156.429L874.566 165.946C869.612 166.183 864.597 166.022 859.612 166.053C854.628 166.084 849.566 166.053 844.543 166.053C839.52 166.053 834.49 166.053 829.467 166.053C824.444 166.053 819.444 166.091 814.283 166.053C812.496 162.694 810.786 159.458 809.053 156.237C808.873 155.852 808.779 155.432 808.779 155.006C808.779 154.581 808.873 154.161 809.053 153.775C810.264 150.048 811.476 146.321 812.565 142.564C819.781 117.409 822.162 91.1139 819.582 65.072C817.803 47.9402 814.214 31.2225 807.626 15.2257C807.488 14.8882 807.381 14.5432 807.159 13.899L813.777 0.908278C823.846 0.816254 833.715 1.20736 843.646 1.2457C853.577 1.28404 863.462 1.40673 873.454 1.49108C875.195 4.62756 876.353 7.84842 877.703 10.9005C876.437 15.7165 875.111 20.425 873.968 25.1719C871.264 36.7481 869.555 48.5343 868.861 60.4017C868.315 68.3495 868.172 76.3197 868.431 84.282C869.259 107.901 872.749 131.061 879.934 153.668C880.157 154.397 880.387 155.24 880.747 156.429Z" fill="white"/>
<path d="M214.464 103.446C214.146 106.149 214.093 108.877 214.303 111.59C214.562 116.989 215.81 122.294 217.984 127.242C219.687 131.34 222.399 134.941 225.867 137.709C232.601 142.847 240.008 144.128 248.03 141.183C250.586 140.257 252.851 138.669 254.594 136.582C255.706 135.346 256.479 133.843 256.838 132.22C257.196 130.597 257.129 128.908 256.642 127.318C256.057 125.454 255.684 123.53 255.53 121.582C255.208 113.607 261.726 107.572 269.901 109.167C277.455 110.631 282.247 116.069 282.539 124.075C282.655 127.276 282.099 130.465 280.905 133.438C274.165 150.462 261.918 161.153 243.873 164.611C225.829 168.07 203.306 161.789 188.997 148.407C179.748 139.78 174.15 129.09 171.412 116.82C166.175 93.2543 176.128 68.124 195.776 54.9109C210.277 45.1564 226.151 42.3343 243.122 46.9049C250.846 49.0441 257.879 53.1594 263.528 58.845C271.642 66.7514 277.14 76.1301 279.31 87.3264C279.645 89.3793 279.791 91.4585 279.747 93.538C279.706 94.635 279.515 95.7212 279.18 96.7665C278.714 98.5689 277.659 100.164 276.181 101.296C274.704 102.429 272.89 103.035 271.028 103.016C264.656 103.016 258.283 103.131 251.903 103.177L219.548 103.346C217.961 103.316 216.427 103.392 214.464 103.446ZM240.423 93.9981C240.566 93.4961 240.669 92.9831 240.729 92.4644C241.042 86.7103 240.562 80.9406 239.303 75.3173C238.729 72.6808 237.776 70.1416 236.473 67.779C235.497 65.9293 234.106 64.3308 232.409 63.1087C227.662 59.8726 221.673 59.9953 218.268 66.0305C217.154 68.0686 216.306 70.2413 215.745 72.4952C213.958 79.3203 213.828 86.2988 214.349 93.2849C214.349 93.4843 214.617 93.6684 214.932 94.0901C222.7 94.1515 230.645 94.2205 238.59 94.2588C239.207 94.2218 239.82 94.1346 240.423 93.9981Z" fill="white"/>
<path d="M478.833 103.738C478.679 104.317 478.566 104.906 478.496 105.501C478.148 112.131 479.125 118.763 481.372 125.01C482.911 129.566 485.597 133.649 489.171 136.866C495.482 142.326 502.721 143.967 510.766 141.767C513.263 141.086 515.563 139.822 517.476 138.078C520.842 135.01 522.276 131.352 520.773 126.836C519.742 124.066 519.524 121.059 520.144 118.17C521.632 111.943 526.923 108.201 533.273 109.052C541.486 110.126 546.609 115.915 546.801 124.267C546.872 127.832 546.174 131.371 544.753 134.642C537.744 151.237 525.474 161.529 507.644 164.719C488.281 168.193 463.105 160.8 448.596 143.53C440.835 134.401 436.022 123.134 434.792 111.215C432.576 90.6702 439.248 73.3007 454.401 59.3361C463.22 51.215 473.818 46.7595 485.735 45.2871C493.904 44.1861 502.218 45.0187 510.006 47.718C518.016 50.5673 525.15 55.4448 530.712 61.8744C537.007 68.8125 541.389 77.2695 543.426 86.4141C544.092 89.2899 544.225 92.2634 543.817 95.1871C543.35 98.2545 541.908 100.708 539.025 102.158C537.681 102.769 536.212 103.055 534.738 102.994C528.979 103.047 523.235 103.116 517.46 103.147C506.425 103.216 495.398 103.247 484.362 103.331C482.591 103.331 480.75 103.124 478.833 103.738ZM504.815 93.8987C505.238 89.5591 505.166 85.1853 504.6 80.862C504.245 76.9583 503.266 73.1368 501.701 69.5431C500.451 66.836 498.848 64.3744 496.233 62.7946C490.75 59.4894 485.451 60.9465 482.668 65.9541C481.484 68.0932 480.585 70.3772 479.991 72.7485C478.441 79.443 477.967 86.3419 478.588 93.1855C478.588 93.3926 478.826 93.592 478.956 93.7914C482.016 94.3052 501.54 94.4278 504.815 93.8987Z" fill="white"/>
<path d="M311.516 316.504C310.787 318.199 310.204 319.572 309.575 320.99C308.87 321.139 308.155 321.236 307.436 321.282C292.727 321.282 278.019 321.282 263.31 321.282C262.95 321.282 262.582 321.205 262.06 321.152C261.056 320.17 260.596 318.774 259.883 317.317C261.179 314.925 263.042 312.624 262.145 309.649C261.102 309.135 260.734 309.986 260.258 310.415C255.733 314.749 250.558 318.348 244.921 321.082C239.553 323.659 233.947 325.293 227.912 324.978C224.531 324.866 221.207 324.072 218.141 322.643C215.074 321.215 212.328 319.181 210.067 316.665C205.174 311.297 204.231 304.879 205.826 298.1C207.904 289.227 213.058 282.394 220.611 277.394C224.013 275.201 227.666 273.427 231.493 272.11C235.749 270.577 240.074 269.204 244.346 267.701C247.114 266.727 249.913 265.799 252.574 264.564C254.813 263.573 256.928 262.325 258.878 260.845C261.834 258.501 263.914 255.229 264.784 251.558C265.653 247.886 265.261 244.029 263.671 240.608C262.244 237.617 260.189 235.239 256.861 234.35C252.835 233.246 249.369 234.35 246.409 237.203C245.356 238.234 244.667 239.58 244.446 241.037C243.792 244.062 244.226 247.22 245.672 249.956C246.742 251.613 247.329 253.535 247.367 255.508C247.238 257.908 246.43 260.222 245.037 262.181C243.645 264.14 241.724 265.664 239.499 266.574C237.082 267.499 234.461 267.764 231.907 267.341C221.47 265.646 214.952 256.704 216.677 246.298C218.211 236.835 223.058 229.427 231.248 224.35C235.744 221.581 240.712 219.665 245.903 218.698C257.214 216.482 268.356 217.065 279.162 221.244C282.131 222.384 284.976 223.825 287.651 225.546C297.191 231.681 302.413 240.654 304.085 251.788C304.593 255.31 304.727 258.875 304.483 262.425C303.985 270.5 303.441 278.567 302.95 286.643C302.517 291.774 302.615 296.937 303.241 302.049C303.621 304.971 304.514 307.804 305.879 310.415C307.199 312.899 309.141 314.997 311.516 316.504V316.504ZM263.97 272.302C259.269 277.271 259.269 277.264 252.85 279.971C251.605 280.473 250.391 281.049 249.215 281.696C246.095 283.474 243.745 286.345 242.62 289.756C242.085 291.005 241.908 292.377 242.109 293.721C242.309 295.064 242.879 296.325 243.755 297.363C247.091 301.397 255.596 303.276 260.465 297.946C262.358 295.844 263.679 293.29 264.3 290.531C265.718 284.595 265.343 278.675 263.97 272.302Z" fill="white"/>
<path d="M582.404 285.776C586.614 287.77 590.748 289.533 594.843 291.788C594.544 292.647 594.367 293.322 594.076 293.981C592.359 297.516 590.048 300.73 587.243 303.483C579.496 311.255 569.702 316.666 558.999 319.088C549.552 321.413 539.663 321.242 530.303 318.59C520.529 315.922 511.872 310.182 505.61 302.217C498.584 293.602 494.397 283.024 493.624 271.934C492.09 251.228 500.043 234.925 517.151 223.215C524.053 218.498 531.86 216.106 540.157 215.216C551.926 213.956 563.808 216.104 574.39 221.405C579.722 223.93 584.434 227.595 588.194 232.141C593.01 237.807 595.529 245.07 595.257 252.501C595.113 256.683 593.944 260.765 591.852 264.388C587.55 271.903 579.582 274.48 572.442 273.437C569.262 272.922 566.352 271.339 564.191 268.951C561.799 266.461 560.168 263.34 559.49 259.955C559.105 258.274 559.147 256.524 559.613 254.863C559.712 254.511 559.85 254.165 559.943 253.813C561.476 248.031 559.114 244.365 553.186 243.115C550.403 242.598 547.532 242.839 544.874 243.813C540.147 245.322 536.169 248.567 533.739 252.892C531.878 256.009 530.653 259.462 530.135 263.054C529.616 266.646 529.814 270.305 530.717 273.82C532.25 280.442 535.868 286.396 541.039 290.806C547.941 296.78 555.978 298.345 564.751 296.75C566.912 296.315 569.026 295.67 571.062 294.825C575.625 293.03 577.803 291.22 582.404 285.776Z" fill="white"/>
<path d="M435.939 228.092L441.024 218.123C441.3 217.962 441.4 217.893 441.507 217.839C441.612 217.775 441.73 217.733 441.852 217.717C442.703 217.678 443.562 217.632 444.421 217.632L484.835 217.678C485.16 217.74 485.477 217.841 485.778 217.978C486.652 219.918 487.588 222.034 488.546 224.112C489.053 225.224 488.723 226.237 488.301 227.287C486.779 231.03 485.588 234.9 484.743 238.852C483.642 243.875 482.968 248.983 482.726 254.12C481.875 273.062 485.027 291.436 490.464 309.495C490.847 310.784 491.23 312.057 491.714 313.529L486.767 321.144H441.668C439.758 318.843 438.601 315.975 437.304 313.261C436.936 312.494 437.235 311.351 437.458 310.439C438.401 306.604 439.551 302.885 440.395 299.066C443.393 285.278 444.115 271.093 442.534 257.072C441.532 247.179 439.317 237.446 435.939 228.092V228.092Z" fill="white"/>
<path d="M883.868 292.815C883.622 293.314 883.546 293.712 883.293 293.927C882.914 294.234 882.486 294.475 882.027 294.64C878.193 296.174 874.359 297.853 870.402 299.157C853.377 304.817 841.782 316.028 835.318 332.738C833.324 337.868 831.008 342.868 828.83 347.93C828.686 348.265 828.506 348.584 828.293 348.881C828.17 349.015 828.02 349.121 827.852 349.191C827.684 349.261 827.502 349.293 827.321 349.286C827.139 349.279 826.961 349.232 826.799 349.149C826.637 349.065 826.495 348.948 826.384 348.804C826.037 348.155 825.727 347.486 825.456 346.802C823.155 341.388 821.023 335.913 818.554 330.576C811.652 315.338 800.502 304.548 784.405 299.31C779.965 297.869 775.824 295.752 771.537 293.942C771.19 293.826 770.897 293.589 770.709 293.275C770.581 292.839 770.6 292.373 770.763 291.949C770.953 291.634 771.254 291.402 771.606 291.297C774.488 289.951 777.473 288.838 780.533 287.968C791.96 285.302 802.197 278.961 809.674 269.916C813.571 265.18 816.678 259.846 818.876 254.119C821 248.751 823.339 243.513 825.594 238.222C825.737 237.886 825.909 237.563 826.108 237.256C826.213 237.107 826.353 236.986 826.515 236.902C826.677 236.818 826.857 236.774 827.039 236.774C827.222 236.774 827.401 236.818 827.564 236.902C827.726 236.986 827.865 237.107 827.971 237.256C828.301 237.768 828.588 238.307 828.83 238.866C831.23 244.364 833.653 249.855 836 255.377C842.902 271.588 854.727 282.332 871.598 287.401C875.316 288.62 878.958 290.062 882.503 291.718C883.011 292.012 883.471 292.382 883.868 292.815Z" fill="white"/>
<path d="M754.387 221.114C754.887 221.749 755.335 222.424 755.729 223.13C757.263 226.474 758.743 229.825 760.154 233.207C764.617 243.943 772.316 251.067 783.443 254.465C786.213 255.215 788.865 256.342 791.327 257.816C791.419 258.866 790.721 259.081 790.23 259.288C787.976 260.231 785.729 261.221 783.413 261.965C771.802 265.707 763.881 273.222 759.64 284.679C758.497 287.747 757.04 290.745 755.698 293.766C755.406 294.242 755.073 294.691 754.701 295.108C754.252 294.645 753.858 294.13 753.528 293.575C752.094 290.331 750.706 287.064 749.326 283.797C744.916 273.314 737.577 265.922 726.657 262.325C723.57 261.297 720.581 259.999 717.723 258.445C717.661 258.289 717.635 258.121 717.646 257.953C717.657 257.786 717.705 257.623 717.786 257.477C717.868 257.33 717.98 257.203 718.117 257.105C718.253 257.007 718.409 256.941 718.574 256.911C720.875 256.06 723.175 255.162 725.476 254.495C731.627 252.76 737.193 249.388 741.58 244.741C744.778 241.344 747.291 237.363 748.981 233.015C750.3 229.725 751.726 226.474 753.129 223.215C753.444 222.601 753.858 222.026 754.387 221.114Z" fill="white"/>
<path d="M739.429 295.745C740.135 296.934 740.549 297.509 740.833 298.138C741.929 300.599 742.988 303.076 744.053 305.546C747.443 313.421 753.156 318.759 761.339 321.412C763.794 322.055 766.137 323.069 768.286 324.418C767.818 324.848 767.303 325.226 766.753 325.545C764.828 326.312 762.918 327.079 760.925 327.777C757.007 329.054 753.43 331.203 750.464 334.063C747.497 336.923 745.219 340.419 743.8 344.288C742.865 346.68 741.807 349.027 740.733 351.381C740.393 351.991 740.006 352.573 739.575 353.122C739.099 352.301 738.762 351.834 738.532 351.312C737.55 349.073 736.576 346.826 735.633 344.564C732.198 336.328 726.469 330.522 717.896 327.654C715.374 326.911 712.97 325.813 710.756 324.395C711.952 323.061 713.425 322.785 714.728 322.263C715.626 321.903 716.615 321.757 717.551 321.496C721.445 320.352 725.033 318.346 728.047 315.627C731.062 312.909 733.427 309.547 734.966 305.791C736.001 303.437 736.952 301.044 737.972 298.682C738.302 297.877 738.724 297.141 739.429 295.745Z" fill="white"/>
<path d="M485.818 175.707C484.127 177.845 482.168 179.758 479.99 181.398C475.258 185.191 471.982 190.504 470.719 196.436C470.328 198.718 470.097 201.024 470.029 203.338C469.822 206.252 469.714 209.166 469.538 212.494C468.907 212.232 468.308 211.9 467.751 211.505C465.926 209.695 464.131 207.839 462.383 205.976C456.194 199.496 448.71 196.236 439.691 196.773C437.146 196.925 434.592 196.747 432.092 196.244C432.352 195.671 432.679 195.131 433.066 194.634C434.026 193.687 435.051 192.809 436.133 192.003C443.963 186.359 447.774 178.668 447.997 169.089C448.066 166.022 448.181 163 448.273 160.125C448.401 160.008 448.553 159.921 448.717 159.869C448.882 159.817 449.057 159.8 449.228 159.821C449.4 159.843 449.565 159.9 449.713 159.991C449.86 160.082 449.986 160.203 450.082 160.347C452.069 162.349 454.101 164.304 456.041 166.352C462.352 173 470.036 175.976 479.193 175.209C480.781 175.113 482.374 175.113 483.963 175.209C484.595 175.32 485.216 175.487 485.818 175.707V175.707Z" fill="white"/>
</g>
<defs>
<clipPath id="clip0_527_8">
<rect width="883.868" height="377" fill="white"/>
</clipPath>
</defs>
</svg>
