<svg width="636" height="376" viewBox="0 0 636 376" fill="none" xmlns="http://www.w3.org/2000/svg">
<g clip-path="url(#clip0_527_26)">
<path d="M303.086 375.562C302.362 374.766 301.762 374.109 301.156 373.453C295.052 366.726 287.841 361.095 279.834 356.805C273.276 353.244 266.073 351.028 258.647 350.285C251.837 349.665 244.973 350.464 238.487 352.63C229.729 355.498 220.992 358.41 212.166 361.148C199.104 365.315 185.817 368.741 172.368 371.41C163.838 373.081 155.221 374.274 146.558 374.984C139.939 375.503 133.295 375.632 126.661 375.372C112.213 374.81 98.2028 372.123 84.8431 366.394C73.8531 361.679 63.7849 355.055 55.1052 346.829C33.318 326.371 18.0731 301.818 9.03948 273.359C5.73864 262.927 3.35983 252.225 1.93043 241.377C0.159258 228.216 -0.394828 214.92 0.275207 201.657C1.3466 180.144 5.46297 158.892 12.5014 138.534C22.2252 110.48 38.4408 86.7286 60.3514 66.7985C76.7106 51.7852 95.7127 39.9365 116.393 31.8537C126.83 27.7648 137.677 24.8132 148.746 23.0501C160.005 21.2577 171.436 20.7906 182.804 21.6586C190.065 22.2197 197.202 23.4766 204.345 24.7895C216.588 27.0339 228.831 29.3344 241.091 31.5563C247.88 32.7851 254.669 34.0027 261.492 35.0519C269.291 36.2583 277.124 37.1672 285.058 36.9316C292.992 36.6959 300.415 34.5132 306.991 29.873C307.552 29.4634 308.175 29.0987 308.843 28.661C309.404 29.0594 309.926 29.3849 310.391 29.7832C313.836 32.656 317.237 35.5849 320.727 38.4016C321.303 38.81 321.769 39.3548 322.083 39.9873C322.398 40.6198 322.55 41.3204 322.528 42.0263C322.528 46.5992 322.69 51.1721 322.78 55.745C323.124 73.7673 323.467 91.7915 323.807 109.818C324.054 123.284 324.286 136.735 324.503 150.171C324.503 151.131 324.677 152.118 324.267 153.252C320.194 152.169 316.26 151.041 312.366 149.79C311.962 148.87 311.609 148.05 311.244 147.237C301.706 125.966 290.198 105.856 275.895 87.4019C268.82 78.119 260.771 69.6205 251.886 62.0517C244.592 55.9077 236.68 50.6671 227.877 46.8685C220.072 43.3922 211.652 41.5075 203.11 41.3249C186.917 41.1117 172.946 46.6834 161.202 57.8379C155.845 63.0206 151.193 68.8857 147.366 75.2823C141.631 84.6693 137.378 94.7241 133.956 105.144C130.108 117.092 127.186 129.319 125.214 141.716C123.57 151.63 122.408 161.601 121.651 171.616C120.839 181.9 120.555 192.219 120.798 202.533C120.966 208.705 121.129 214.91 121.544 221.082C122.891 241.08 125.848 260.819 131.734 280.036C134.348 288.805 137.799 297.302 142.041 305.409C145.309 311.703 149.326 317.579 154.003 322.909C159.755 329.351 166.449 334.474 174.444 337.879C183.315 341.661 192.337 342.233 201.5 339.333C216.739 334.502 228.331 325.12 235.682 310.852C241.613 299.338 242.415 287.201 239.11 274.756C238.464 272.238 237.641 269.769 236.647 267.367C231.939 256.24 225.902 245.894 217.974 236.714C215.119 233.364 211.891 230.352 208.351 227.737C204.558 224.931 200.496 222.687 195.839 221.756C195.594 221.685 195.357 221.589 195.132 221.469C195.07 221.368 195.003 221.301 195.003 221.234C194.993 221.143 195.015 221.052 195.064 220.976C195.429 220.465 195.794 219.949 196.186 219.461L207.689 204.872C211.151 204.71 214.545 204.513 217.946 204.39C230.29 203.952 242.684 203.548 255.056 203.11C269.843 202.583 284.63 202.044 299.416 201.495C305.426 201.276 311.429 201.062 317.433 200.776C317.96 200.71 318.495 200.789 318.981 201.005C319.466 201.22 319.884 201.564 320.188 201.999C323.364 206.118 326.607 210.186 329.816 214.276C329.983 214.518 330.133 214.771 330.265 215.034C329.311 218.81 328.313 222.62 327.392 226.446C324.157 239.868 321.516 253.409 319.47 267.069C317.786 278.162 316.575 289.3 316.002 300.499C315.345 311.518 315.504 322.57 316.479 333.565C317.08 340.432 318.234 347.239 319.93 353.921C320.031 354.416 320.104 354.916 320.149 355.419C317.949 358.438 304.842 373.952 303.086 375.562Z" fill="white"/>
<path d="M519.977 375.736C518.574 372.252 517.144 368.683 515.69 365.126C515.343 364.284 515.662 363.566 515.915 362.797C517.43 358.202 518.962 353.612 520.404 348.995C525.415 332.995 529.29 316.663 532.001 300.118C533.32 292.072 534.279 283.97 534.981 275.834C535.878 265.468 536.176 255.059 535.873 244.659C535.424 229.656 533.763 214.798 530.009 200.226C529.406 197.534 528.596 194.893 527.586 192.326C526.839 192.405 526.89 192.887 526.822 193.331C523.972 211.485 520.174 229.477 515.444 247.235C506.146 282.157 493.718 315.913 477.289 348.125C474.074 354.426 470.494 360.547 467.06 366.742C466.634 367.511 466.107 368.223 465.557 369.07C461.006 367.696 456.635 366.164 452.27 364.7C445.991 318.572 429.882 276.243 405.991 236.731C399.006 225.167 392.087 215.292 389.719 213.345C389.493 214.208 389.425 215.105 389.517 215.993C389.478 223.977 389.416 231.956 389.439 239.941C389.502 263.88 389.589 287.82 389.697 311.76C389.697 314.992 389.893 318.219 389.966 321.445C390.151 331.298 393.495 340.831 399.505 348.641C405.553 356.682 413.33 362.629 422.246 367.157C422.959 367.522 423.666 367.903 424.373 368.279C424.434 368.313 424.451 368.431 424.485 368.498C424.519 368.672 424.519 368.851 424.485 369.026C423.363 371.27 422.24 373.514 421.118 375.686C419.042 375.989 334.547 376.062 331.293 375.764C331.42 375.351 331.584 374.949 331.781 374.564C333.464 371.904 335.148 369.267 336.797 366.602C337.251 365.83 337.933 365.218 338.75 364.851C353.86 357.978 363.006 346.066 367.612 330.355C369.161 325.07 369.767 319.644 370.059 314.173C370.762 301.189 371.461 288.206 372.157 275.222C372.612 266.536 373.061 257.828 373.442 249.159C373.913 238.405 374.34 227.651 374.721 216.896C375 211.701 374.948 206.493 374.564 201.304C373.568 189.64 369.714 178.401 363.342 168.581C362.86 167.829 362.355 167.088 361.76 166.185C363.539 162.431 365.334 158.638 367.186 154.744C367.904 154.682 368.606 154.576 369.307 154.57C373.519 154.537 377.734 154.52 381.954 154.52H439.511C445.52 154.52 451.529 154.48 457.539 154.464H460.165C460.614 154.991 460.984 155.373 461.287 155.805C463.531 158.93 465.776 162.072 468.02 165.186C468.64 165.956 468.989 166.908 469.013 167.896C469.103 179.028 472.082 189.493 476.492 199.604C481.845 211.67 488.857 222.93 497.326 233.056C497.556 233.331 497.792 233.617 498.038 233.858C498.176 233.983 498.324 234.096 498.482 234.195C499.329 234.066 499.492 233.269 499.828 232.691C503.676 226.001 506.691 218.865 508.806 211.443C511.368 202.65 513.078 193.631 513.912 184.51C514.525 178.442 514.808 172.345 514.759 166.247C514.759 165.809 514.826 165.371 514.866 164.866C515.382 164.479 515.876 164.098 516.375 163.744C520.162 161.017 523.967 158.324 527.72 155.558C528.714 154.791 529.944 154.395 531.199 154.436C535.413 154.503 539.615 154.503 543.84 154.509L605.19 154.593L621.602 154.626C622.315 154.626 623.027 154.626 623.645 154.626C625.059 156.231 630.148 164.855 631.393 167.75C631.27 168.065 631.135 168.491 630.945 168.873C626.865 177.328 624.329 186.266 622.584 195.468C620.661 206.058 619.536 216.777 619.218 227.535C618.87 236.956 618.965 246.376 619.442 255.775C619.869 264.191 620.564 272.607 621.35 280.984C622.141 289.193 623.067 297.396 624.251 305.555C625.749 315.84 627.466 326.096 629.267 336.331C631.163 347.098 633.458 357.787 636 368.386C634.839 370.069 632.011 372.762 628.251 375.826C624.11 376.112 522.21 376.017 519.977 375.736Z" fill="white"/>
<path d="M487.394 132.07C487.242 131.98 486.833 131.873 486.67 131.615C486.346 131.08 486.071 130.517 485.851 129.932C483.41 124.153 481.11 118.312 478.512 112.605C471.408 96.9957 460.057 85.9141 443.595 80.449C441.045 79.6116 438.54 78.6396 436.093 77.537C433.967 76.5775 431.84 75.6349 429.713 74.681C429.456 74.5977 429.233 74.4349 429.074 74.216C428.916 73.9971 428.831 73.7336 428.833 73.4635C428.837 73.1939 428.926 72.9326 429.086 72.7155C429.246 72.4984 429.469 72.3363 429.725 72.2515C432.76 70.9273 435.728 69.446 439 68.7054C456.248 64.8787 472.104 52.0578 479 33.3565C481.048 27.8129 483.601 22.4601 485.924 17.0175C486.023 16.7691 486.145 16.5305 486.288 16.3049C486.406 16.1413 486.561 16.0085 486.741 15.918C486.921 15.8275 487.12 15.7819 487.321 15.7852C487.523 15.7885 487.72 15.8406 487.897 15.937C488.074 16.0334 488.225 16.1712 488.336 16.3386C488.521 16.646 488.679 16.9689 488.808 17.3037C491.327 23.0493 493.925 28.7612 496.338 34.5517C503.48 51.7043 515.858 62.9991 533.734 68.178C537.539 69.3001 541.068 71.062 544.715 72.5489C544.959 72.664 545.187 72.8091 545.394 72.9809C545.536 73.0905 545.651 73.2311 545.73 73.3921C545.809 73.5531 545.851 73.7301 545.851 73.9095C545.851 74.0889 545.809 74.2659 545.73 74.4269C545.651 74.5879 545.536 74.7286 545.394 74.8381C545.165 74.9796 544.925 75.1016 544.676 75.2028C540.701 77.0615 536.623 78.6895 532.461 80.0787C514.356 85.8804 502.038 97.727 495.507 115.618C494.553 118.222 493.392 120.752 492.292 123.3C491.192 125.847 490.048 128.378 488.892 130.908C488.796 131.235 488.6 131.523 488.331 131.732C488.062 131.94 487.734 132.058 487.394 132.07V132.07Z" fill="white"/>
<path d="M373.943 37.6101C374.378 37.2369 374.843 36.9009 375.334 36.6057C377.44 35.6174 379.634 34.8302 381.888 34.2547C391.724 31.6232 399.175 25.8383 404.292 17.046C405.2 15.3991 406.01 13.6997 406.716 11.9569C408.242 8.422 409.712 4.86468 411.205 1.32418C411.441 0.763087 411.609 0.0953858 412.557 0C412.88 0.362658 413.162 0.75967 413.399 1.18391C414.975 4.70196 416.603 8.19196 418.05 11.7605C422.691 23.2293 430.877 30.7311 442.738 34.2547C445.044 34.9449 447.227 35.9997 449.472 36.8975C449.713 37.01 449.94 37.1493 450.15 37.3127C450.233 37.3847 450.301 37.4729 450.349 37.5718C450.396 37.6708 450.423 37.7784 450.428 37.8882C450.433 37.9979 450.415 38.1075 450.376 38.2102C450.337 38.3129 450.277 38.4065 450.201 38.4854C449.917 38.71 449.606 38.8984 449.275 39.0465C446.868 40.0115 444.495 41.0832 442.031 41.88C430.058 45.7627 421.944 53.5676 417.59 65.3842C416.389 68.6553 414.841 71.8031 413.444 75.0013C413.337 75.237 413.169 75.5624 412.961 75.6185C412.812 75.6808 412.652 75.713 412.49 75.713C412.328 75.713 412.168 75.6808 412.019 75.6185C411.756 75.3823 411.563 75.08 411.457 74.7432C409.939 71.2046 408.424 67.6641 406.913 64.1217C402.379 53.5227 394.905 45.9928 383.868 42.2896C380.799 41.2572 377.893 39.8825 374.953 38.5695C374.639 38.4012 374.38 38.0253 373.943 37.6101Z" fill="white"/>
<path d="M396.846 76.8796C397.234 77.294 397.578 77.7471 397.873 78.2319C399.091 80.9251 400.314 83.6184 401.442 86.3453C404.98 94.9113 411.165 100.576 419.997 103.341C421.787 103.902 423.521 104.637 425.26 105.338C425.777 105.614 426.269 105.935 426.73 106.298C426.354 106.636 425.944 106.935 425.507 107.19C423.605 107.97 421.72 108.811 419.761 109.434C410.733 112.352 404.567 118.227 401.172 127.092C400.185 129.684 398.995 132.192 397.879 134.734C397.717 135.023 397.529 135.298 397.318 135.553C396.487 135.637 396.347 135.026 396.145 134.571C395.023 132.029 393.901 129.488 392.857 126.924C389.3 118.333 383.268 112.402 374.341 109.468C372.052 108.716 369.852 107.611 367.664 106.662C367.535 106.606 367.473 106.376 367.294 106.101C367.484 105.899 367.664 105.54 367.933 105.45C369.49 104.772 371.084 104.183 372.708 103.689C382.303 101.13 388.901 95.2386 392.627 86.0591C393.665 83.4837 394.776 80.942 395.881 78.3946C396.169 77.8687 396.491 77.3626 396.846 76.8796V76.8796Z" fill="white"/>
</g>
<defs>
<clipPath id="clip0_527_26">
<rect width="636" height="375.999" fill="white"/>
</clipPath>
</defs>
</svg>
