<svg width="401" height="400" viewBox="0 0 401 400" fill="none" xmlns="http://www.w3.org/2000/svg">
<rect x="0.58252" width="400" height="400" fill="#BF68FF"/>
<path d="M104.345 277C89.7452 277 67.4611 273.922 67.4611 260.993C67.4611 253.76 74.3768 249.45 81.1389 248.065C69.1516 244.371 67 236.676 67 232.212C67 223.747 74.2232 217.437 85.1347 214.051C76.221 209.434 69.4589 201.584 69.4589 190.503C69.4589 171.572 88.6695 162.491 105.114 162.491C111.415 162.491 118.33 163.876 124.324 166.647C128.474 155.104 140 150.794 149.528 152.949L147.069 170.341H145.994C140.307 166.801 134.775 166.647 129.088 169.263C136.158 173.881 141.076 180.806 141.076 190.349C141.076 209.28 121.404 218.668 104.96 218.668C99.8884 218.668 94.6631 217.745 89.5916 215.898C86.9789 217.745 84.8274 219.592 84.8274 221.9C84.8274 225.44 89.8989 227.133 98.9663 227.287L122.48 227.595C135.85 227.749 147.069 235.906 147.069 249.758C147.069 267.304 130.318 277 104.345 277ZM85.7495 256.068C85.7495 264.379 95.4316 270.69 109.878 270.69C122.173 270.69 130.779 265.919 130.779 258.839C130.779 252.528 124.017 250.835 116.025 250.681L97.1221 250.374C93.8947 250.374 91.1284 250.066 88.5158 249.758C86.2105 251.451 85.7495 254.221 85.7495 256.068ZM97.2758 190.657C97.2758 199.583 98.1979 213.281 104.96 213.281C111.722 213.281 112.798 199.583 112.798 190.657C112.798 181.576 111.722 168.032 104.96 168.032C98.1979 168.032 97.2758 181.576 97.2758 190.657Z" fill="#E4FF96"/>
<path d="M246.734 239.6C249.654 238.523 254.111 236.522 254.111 226.056V192.35C254.111 184.039 248.578 180.96 242.431 180.96C239.511 180.96 236.437 181.73 233.517 182.807C233.824 184.5 233.978 186.347 233.978 188.194V226.056C233.978 236.522 238.435 238.523 241.355 239.6V242.062H198.631V239.6C201.551 238.523 206.008 236.522 206.008 226.056V192.35C206.008 183.885 200.321 180.96 194.02 180.96C191.1 180.96 188.18 181.576 185.721 182.653V226.056C185.721 236.522 190.178 238.523 193.098 239.6V242.062H147.761V239.6C151.603 238.523 157.597 236.522 157.597 226.056V179.575C157.597 169.109 151.603 167.108 147.761 166.031V163.569H185.721V178.652C190.025 170.341 197.862 162.645 210.311 162.645C221.376 162.645 230.136 168.801 233.056 180.037C237.206 171.264 245.351 162.645 258.414 162.645C271.784 162.645 282.235 171.88 282.235 188.194V226.056C282.235 236.522 288.229 238.523 292.071 239.6V242.062H246.734V239.6Z" fill="#E4FF96"/>
<path d="M336 173.3C335.84 173.162 335.669 173.039 335.488 172.93C334.713 172.566 333.905 172.275 333.076 172.063C329.456 171.093 326.713 168.961 324.83 165.72C324.495 165.113 324.197 164.487 323.937 163.844C323.376 162.541 322.835 161.23 322.285 159.925C322.199 159.718 322.137 159.472 321.788 159.437C321.669 159.571 321.565 159.717 321.478 159.873C320.898 161.17 320.299 162.457 319.766 163.772C318.058 167.999 315.045 170.764 310.679 172.063C309.83 172.318 309.027 172.706 308.201 173.037C308.112 173.079 308.028 173.13 307.951 173.19C307.921 173.217 307.896 173.249 307.878 173.286C307.861 173.322 307.851 173.362 307.849 173.403C307.847 173.443 307.854 173.483 307.868 173.521C307.882 173.559 307.904 173.594 307.933 173.623C308.037 173.705 308.152 173.775 308.273 173.83C309.159 174.185 310.033 174.58 310.939 174.874C315.346 176.305 318.333 179.182 319.935 183.538C320.377 184.743 320.947 185.904 321.461 187.082C321.501 187.169 321.563 187.289 321.639 187.31C321.694 187.333 321.753 187.345 321.812 187.345C321.872 187.345 321.931 187.333 321.986 187.31C322.082 187.223 322.154 187.111 322.192 186.987C322.751 185.683 323.309 184.378 323.865 183.072C325.534 179.165 328.285 176.39 332.347 175.025C333.476 174.644 334.546 174.138 335.628 173.654C335.744 173.592 335.839 173.453 336 173.3Z" fill="#E4FF96"/>
<path d="M315.761 193.004C315.639 192.899 315.508 192.804 315.37 192.721C314.779 192.443 314.163 192.222 313.531 192.06C310.77 191.321 308.679 189.695 307.242 187.223C306.987 186.76 306.76 186.282 306.562 185.793C306.134 184.799 305.721 183.799 305.302 182.804C305.236 182.646 305.189 182.458 304.922 182.432C304.832 182.534 304.753 182.645 304.686 182.764C304.244 183.753 303.787 184.734 303.381 185.737C302.078 188.961 299.78 191.07 296.451 192.06C295.804 192.254 295.191 192.551 294.561 192.803C294.494 192.835 294.43 192.874 294.371 192.92C294.347 192.94 294.328 192.965 294.315 192.993C294.302 193.021 294.294 193.051 294.293 193.082C294.291 193.113 294.296 193.143 294.307 193.172C294.318 193.201 294.335 193.227 294.357 193.25C294.436 193.313 294.524 193.366 294.616 193.407C295.292 193.679 295.958 193.98 296.65 194.204C300.01 195.295 302.288 197.489 303.51 200.811C303.847 201.73 304.282 202.615 304.674 203.514C304.704 203.58 304.751 203.672 304.809 203.688C304.851 203.705 304.896 203.714 304.941 203.714C304.987 203.714 305.032 203.705 305.074 203.688C305.147 203.621 305.202 203.536 305.231 203.442C305.657 202.447 306.083 201.452 306.507 200.456C307.779 197.477 309.877 195.36 312.975 194.319C313.836 194.029 314.652 193.642 315.477 193.273C315.566 193.226 315.638 193.12 315.761 193.004Z" fill="#E4FF96"/>
<path d="M296.444 173.227C296.509 173.188 296.686 173.142 296.756 173.03C296.896 172.799 297.014 172.556 297.11 172.303C298.162 169.807 299.154 167.284 300.275 164.819C303.339 158.077 308.234 153.291 315.334 150.93C316.434 150.568 317.514 150.149 318.57 149.672C319.487 149.258 320.404 148.851 321.321 148.439C321.432 148.403 321.529 148.332 321.597 148.238C321.665 148.143 321.702 148.03 321.701 147.913C321.699 147.796 321.661 147.684 321.592 147.59C321.523 147.496 321.427 147.426 321.317 147.389C320.007 146.817 318.727 146.178 317.316 145.858C309.877 144.205 303.039 138.667 300.064 130.59C299.181 128.195 298.08 125.883 297.078 123.532C297.035 123.425 296.983 123.322 296.921 123.225C296.87 123.154 296.803 123.097 296.726 123.057C296.648 123.018 296.562 122.999 296.475 123C296.389 123.002 296.303 123.024 296.227 123.066C296.151 123.107 296.086 123.167 296.038 123.239C295.958 123.372 295.89 123.511 295.834 123.656C294.748 126.138 293.627 128.605 292.587 131.106C289.506 138.514 284.168 143.393 276.458 145.63C274.817 146.115 273.295 146.876 271.722 147.518C271.617 147.568 271.518 147.63 271.429 147.704C271.368 147.752 271.318 147.813 271.284 147.882C271.25 147.952 271.232 148.028 271.232 148.106C271.232 148.183 271.25 148.26 271.284 148.329C271.318 148.399 271.368 148.459 271.429 148.507C271.528 148.568 271.631 148.62 271.739 148.664C273.453 149.467 275.212 150.17 277.007 150.77C284.815 153.276 290.128 158.393 292.945 166.121C293.356 167.245 293.857 168.338 294.331 169.439C294.806 170.539 295.299 171.632 295.798 172.725C295.839 172.866 295.924 172.99 296.04 173.081C296.156 173.171 296.297 173.222 296.444 173.227Z" fill="#E4FF96"/>
</svg>
