<svg width="401" height="401" viewBox="0 0 401 401" fill="none" xmlns="http://www.w3.org/2000/svg">
<rect x="0.433838" y="0.783203" width="400" height="400" fill="#E4FF96"/>
<path d="M103.345 278C88.7452 278 66.4611 274.922 66.4611 261.993C66.4611 254.76 73.3768 250.45 80.1389 249.065C68.1516 245.371 66 237.676 66 233.212C66 224.747 73.2232 218.437 84.1347 215.051C75.221 210.434 68.4589 202.584 68.4589 191.503C68.4589 172.572 87.6695 163.491 104.114 163.491C110.415 163.491 117.33 164.876 123.324 167.647C127.474 156.104 139 151.794 148.528 153.949L146.069 171.341H144.994C139.307 167.801 133.775 167.647 128.088 170.263C135.158 174.881 140.076 181.806 140.076 191.349C140.076 210.28 120.404 219.668 103.96 219.668C98.8884 219.668 93.6631 218.745 88.5916 216.898C85.9789 218.745 83.8274 220.592 83.8274 222.9C83.8274 226.44 88.8989 228.133 97.9663 228.287L121.48 228.595C134.85 228.749 146.069 236.906 146.069 250.758C146.069 268.304 129.318 278 103.345 278ZM84.7495 257.068C84.7495 265.379 94.4316 271.69 108.878 271.69C121.173 271.69 129.779 266.919 129.779 259.839C129.779 253.528 123.017 251.835 115.025 251.681L96.1221 251.374C92.8947 251.374 90.1284 251.066 87.5158 250.758C85.2105 252.451 84.7495 255.221 84.7495 257.068ZM96.2758 191.657C96.2758 200.583 97.1979 214.281 103.96 214.281C110.722 214.281 111.798 200.583 111.798 191.657C111.798 182.576 110.722 169.032 103.96 169.032C97.1979 169.032 96.2758 182.576 96.2758 191.657Z" fill="#BF68FF"/>
<path d="M245.734 240.6C248.654 239.523 253.111 237.522 253.111 227.056V193.35C253.111 185.039 247.578 181.96 241.431 181.96C238.511 181.96 235.437 182.73 232.517 183.807C232.824 185.5 232.978 187.347 232.978 189.194V227.056C232.978 237.522 237.435 239.523 240.355 240.6V243.062H197.631V240.6C200.551 239.523 205.008 237.522 205.008 227.056V193.35C205.008 184.885 199.321 181.96 193.02 181.96C190.1 181.96 187.18 182.576 184.721 183.653V227.056C184.721 237.522 189.178 239.523 192.098 240.6V243.062H146.761V240.6C150.603 239.523 156.597 237.522 156.597 227.056V180.575C156.597 170.109 150.603 168.108 146.761 167.031V164.569H184.721V179.652C189.025 171.341 196.862 163.645 209.311 163.645C220.376 163.645 229.136 169.801 232.056 181.037C236.206 172.264 244.351 163.645 257.414 163.645C270.784 163.645 281.235 172.88 281.235 189.194V227.056C281.235 237.522 287.229 239.523 291.071 240.6V243.062H245.734V240.6Z" fill="#BF68FF"/>
<path d="M335 174.3C334.84 174.162 334.669 174.039 334.488 173.93C333.713 173.566 332.905 173.275 332.076 173.063C328.456 172.093 325.713 169.961 323.83 166.72C323.495 166.113 323.197 165.487 322.937 164.844C322.376 163.541 321.835 162.23 321.285 160.925C321.199 160.718 321.137 160.472 320.788 160.437C320.669 160.571 320.565 160.717 320.478 160.873C319.898 162.17 319.299 163.457 318.766 164.772C317.058 168.999 314.045 171.764 309.679 173.063C308.83 173.318 308.027 173.706 307.201 174.037C307.112 174.079 307.028 174.13 306.951 174.19C306.921 174.217 306.896 174.249 306.878 174.286C306.861 174.322 306.851 174.362 306.849 174.403C306.847 174.443 306.854 174.483 306.868 174.521C306.882 174.559 306.904 174.594 306.933 174.623C307.037 174.705 307.152 174.775 307.273 174.83C308.159 175.185 309.033 175.58 309.939 175.874C314.346 177.305 317.333 180.182 318.935 184.538C319.377 185.743 319.947 186.904 320.461 188.082C320.501 188.169 320.563 188.289 320.639 188.31C320.694 188.333 320.753 188.345 320.812 188.345C320.872 188.345 320.931 188.333 320.986 188.31C321.082 188.223 321.154 188.111 321.192 187.987C321.751 186.683 322.309 185.378 322.865 184.072C324.534 180.165 327.285 177.39 331.347 176.025C332.476 175.644 333.546 175.138 334.628 174.654C334.744 174.592 334.839 174.453 335 174.3Z" fill="#BF68FF"/>
<path d="M314.761 194.004C314.639 193.899 314.508 193.804 314.37 193.721C313.779 193.443 313.163 193.222 312.531 193.06C309.77 192.321 307.679 190.695 306.242 188.223C305.987 187.76 305.76 187.282 305.562 186.793C305.134 185.799 304.721 184.799 304.302 183.804C304.236 183.646 304.189 183.458 303.922 183.432C303.832 183.534 303.753 183.645 303.686 183.764C303.244 184.753 302.787 185.734 302.381 186.737C301.078 189.961 298.78 192.07 295.451 193.06C294.804 193.254 294.191 193.551 293.561 193.803C293.494 193.835 293.43 193.874 293.371 193.92C293.347 193.94 293.328 193.965 293.315 193.993C293.302 194.021 293.294 194.051 293.293 194.082C293.291 194.113 293.296 194.143 293.307 194.172C293.318 194.201 293.335 194.227 293.357 194.25C293.436 194.313 293.524 194.366 293.616 194.407C294.292 194.679 294.958 194.98 295.65 195.204C299.01 196.295 301.288 198.489 302.51 201.811C302.847 202.73 303.282 203.615 303.674 204.514C303.704 204.58 303.751 204.672 303.809 204.688C303.851 204.705 303.896 204.714 303.941 204.714C303.987 204.714 304.032 204.705 304.074 204.688C304.147 204.621 304.202 204.536 304.231 204.442C304.657 203.447 305.083 202.452 305.507 201.456C306.779 198.477 308.877 196.36 311.975 195.319C312.836 195.029 313.652 194.642 314.477 194.273C314.566 194.226 314.638 194.12 314.761 194.004Z" fill="#BF68FF"/>
<path d="M295.444 174.227C295.509 174.188 295.686 174.142 295.756 174.03C295.896 173.799 296.014 173.556 296.11 173.303C297.162 170.807 298.154 168.284 299.275 165.819C302.339 159.077 307.234 154.291 314.334 151.93C315.434 151.568 316.514 151.149 317.57 150.672C318.487 150.258 319.404 149.851 320.321 149.439C320.432 149.403 320.529 149.332 320.597 149.238C320.665 149.143 320.702 149.03 320.701 148.913C320.699 148.796 320.661 148.684 320.592 148.59C320.523 148.496 320.427 148.426 320.317 148.389C319.007 147.817 317.727 147.178 316.316 146.858C308.877 145.205 302.039 139.667 299.064 131.59C298.181 129.195 297.08 126.883 296.078 124.532C296.035 124.425 295.983 124.322 295.921 124.225C295.87 124.154 295.803 124.097 295.726 124.057C295.648 124.018 295.562 123.999 295.475 124C295.389 124.002 295.303 124.024 295.227 124.066C295.151 124.107 295.086 124.167 295.038 124.239C294.958 124.372 294.89 124.511 294.834 124.656C293.748 127.138 292.627 129.605 291.587 132.106C288.506 139.514 283.168 144.393 275.458 146.63C273.817 147.115 272.295 147.876 270.722 148.518C270.617 148.568 270.518 148.63 270.429 148.704C270.368 148.752 270.318 148.813 270.284 148.882C270.25 148.952 270.232 149.028 270.232 149.106C270.232 149.183 270.25 149.26 270.284 149.329C270.318 149.399 270.368 149.459 270.429 149.507C270.528 149.568 270.631 149.62 270.739 149.664C272.453 150.467 274.212 151.17 276.007 151.77C283.815 154.276 289.128 159.393 291.945 167.121C292.356 168.245 292.857 169.338 293.331 170.439C293.806 171.539 294.299 172.632 294.798 173.725C294.839 173.866 294.924 173.99 295.04 174.081C295.156 174.171 295.297 174.222 295.444 174.227Z" fill="#BF68FF"/>
</svg>
