<svg width="702" height="150" viewBox="0 0 702 150" fill="none" xmlns="http://www.w3.org/2000/svg">
<rect width="702" height="150" fill="#E4FF96"/>
<path d="M69.4347 119.277C60.6639 119.277 47.277 117.43 47.277 109.675C47.277 105.336 51.4316 102.751 55.4938 101.92C48.2926 99.7043 47.0001 95.0881 47.0001 92.4107C47.0001 87.3329 51.3393 83.5477 57.8942 81.5165C52.5395 78.7468 48.4772 74.0383 48.4772 67.391C48.4772 56.0352 60.0177 50.5881 69.8963 50.5881C73.6816 50.5881 77.8361 51.4191 81.4367 53.0809C83.9295 46.1566 90.8537 43.5716 96.5778 44.8641L95.1006 55.2967H94.4544C91.0384 53.1732 87.7147 53.0809 84.2988 54.6504C88.5457 57.4201 91.5 61.5747 91.5 67.2987C91.5 78.6545 79.6826 84.2862 69.804 84.2862C66.7573 84.2862 63.6183 83.7323 60.5716 82.6244C59.0021 83.7323 57.7096 84.8402 57.7096 86.225C57.7096 88.3485 60.7563 89.364 66.2034 89.4564L80.3289 89.641C88.361 89.7333 95.1006 94.6265 95.1006 102.936C95.1006 113.46 85.0374 119.277 69.4347 119.277ZM58.2635 106.721C58.2635 111.706 64.0799 115.492 72.7583 115.492C80.1442 115.492 85.3143 112.63 85.3143 108.383C85.3143 104.597 81.2521 103.582 76.4513 103.49L65.0955 103.305C63.1567 103.305 61.4949 103.12 59.9254 102.936C58.5405 103.951 58.2635 105.613 58.2635 106.721ZM65.1878 67.4834C65.1878 72.8381 65.7417 81.0549 69.804 81.0549C73.8662 81.0549 74.5125 72.8381 74.5125 67.4834C74.5125 62.0363 73.8662 53.9118 69.804 53.9118C65.7417 53.9118 65.1878 62.0363 65.1878 67.4834Z" fill="#BF68FF"/>
<path d="M119.514 99.4273C108.62 99.4273 95.7873 92.2261 95.7873 74.9616C95.7873 59.4512 104.927 50.6805 119.053 50.6805C135.671 50.6805 141.395 63.4211 141.21 74.223H113.698C114.621 86.3174 120.53 90.6566 126.716 90.6566C130.87 90.6566 135.209 88.8101 139.549 84.1939L140.841 84.4709C138.902 90.3796 131.701 99.4273 119.514 99.4273ZM113.606 70.9917H124.408C124.592 65.2676 124.131 53.9118 119.145 53.9118C113.975 53.9118 113.606 66.3755 113.606 70.9917Z" fill="#BF68FF"/>
<path d="M170.419 96.8423C172.173 96.196 174.943 94.9958 174.943 88.7178V68.4989C174.943 63.0518 172.45 61.2977 169.219 61.2054C167.003 61.113 164.788 61.8516 162.941 62.7749V88.7178C162.941 94.9958 165.711 96.196 167.465 96.8423V98.3194H139.583V96.8423C141.891 96.196 145.584 94.9958 145.584 88.7178V60.8361C145.584 54.5581 141.891 53.3579 139.583 52.7116V51.2344H162.941V59.8205C164.972 55.389 169.773 50.6805 177.436 50.6805C185.56 50.6805 192.3 56.2199 192.3 66.0062V88.7178C192.3 94.9958 195.993 96.196 198.301 96.8423V98.3194H170.419V96.8423Z" fill="#BF68FF"/>
<path d="M220.944 99.4273C210.05 99.4273 197.217 92.2261 197.217 74.9616C197.217 59.4512 206.357 50.6805 220.482 50.6805C237.101 50.6805 242.825 63.4211 242.64 74.223H215.128C216.051 86.3174 221.96 90.6566 228.145 90.6566C232.3 90.6566 236.639 88.8101 240.978 84.1939L242.271 84.4709C240.332 90.3796 233.131 99.4273 220.944 99.4273ZM215.035 70.9917H225.837C226.022 65.2676 225.56 53.9118 220.575 53.9118C215.405 53.9118 215.035 66.3755 215.035 70.9917Z" fill="#BF68FF"/>
<path d="M241.193 96.8423C243.501 96.196 247.194 94.9958 247.194 88.7178V60.8361C247.194 54.5581 243.501 53.3579 241.193 52.7116V51.2344H264.551V66.0985C266.952 56.0352 274.43 49.2033 283.754 50.9574L281.077 66.4678H279.969C272.122 62.5902 265.197 66.8371 264.551 76.2541V88.7178C264.551 94.9958 268.244 96.196 270.552 96.8423V98.3194H241.193V96.8423Z" fill="#BF68FF"/>
<path d="M294.712 99.1503C287.603 99.1503 281.417 93.7033 281.417 86.1327C281.417 76.5311 290.373 69.8838 305.791 72.6535V67.2987C305.791 61.667 301.544 58.8973 296.466 58.8973C292.681 58.8973 288.249 60.4668 284.649 65.8215L283.079 65.5446C284.741 58.528 291.481 50.9574 303.298 50.6805C315.762 50.4035 322.871 58.528 322.871 67.2064V85.6711C322.871 88.2562 323.332 90.5642 325.086 90.5642C325.363 90.5642 325.917 90.4719 326.194 90.2873L326.933 90.8412C325.548 94.9958 321.486 99.2427 315.669 99.2427C310.961 99.2427 307.36 96.5653 306.16 92.78C303.852 96.196 299.974 99.1503 294.712 99.1503ZM296.835 84.1939C296.835 88.4408 298.682 91.9491 301.729 91.9491C303.39 91.9491 304.96 90.9335 305.791 90.0103V75.3309C300.159 75.1462 296.835 78.4699 296.835 84.1939Z" fill="#BF68FF"/>
<path d="M325.4 96.8423C327.708 96.196 331.401 94.9958 331.401 88.7178V42.4637C331.401 36.0934 327.708 35.5394 325.308 35.2624L325.123 33.7853L348.758 30V88.7178C348.758 94.9958 352.451 96.196 354.759 96.8423V98.3194H325.4V96.8423Z" fill="#BF68FF"/>
<path d="M603.893 58.592C603.861 58.6056 603.795 58.6585 603.734 58.6538C603.61 58.6423 603.488 58.6192 603.368 58.585C602.153 58.2893 600.945 57.9637 599.723 57.7017C596.381 56.9846 593.26 57.4851 590.43 59.4706C589.993 59.7793 589.54 60.0646 589.073 60.3253C588.667 60.5517 588.263 60.7801 587.858 61.0071C587.814 61.0383 587.762 61.0548 587.708 61.0542C587.654 61.0535 587.602 61.0358 587.559 61.0035C587.516 60.9707 587.485 60.9255 587.469 60.8741C587.453 60.8228 587.454 60.7678 587.471 60.7167C587.619 60.0737 587.735 59.4227 588.005 58.8113C589.441 55.5965 589.272 51.5361 587.098 48.2114C586.454 47.2253 585.901 46.181 585.306 45.1628C585.278 45.1175 585.254 45.0696 585.235 45.0198C585.223 44.9816 585.22 44.941 585.227 44.9015C585.234 44.8619 585.25 44.8247 585.275 44.7928C585.299 44.761 585.331 44.7356 585.367 44.7187C585.404 44.7019 585.444 44.6941 585.484 44.6961C585.555 44.703 585.625 44.7161 585.694 44.7353C586.913 45.0145 588.136 45.2771 589.349 45.5787C592.942 46.4728 596.22 45.8333 599.172 43.5875C599.803 43.112 600.504 42.7564 601.175 42.3494C601.223 42.3241 601.273 42.3048 601.325 42.292C601.36 42.2823 601.396 42.2806 601.431 42.287C601.466 42.2935 601.499 42.3079 601.528 42.3292C601.557 42.3506 601.58 42.3782 601.597 42.4099C601.613 42.4417 601.622 42.4768 601.622 42.5126C601.618 42.566 601.609 42.6189 601.595 42.6708C601.421 43.5277 601.197 44.3737 600.925 45.2048C599.703 48.7912 600.136 52.1695 602.224 55.3397C602.527 55.8015 602.794 56.2879 603.071 56.7665C603.348 57.245 603.617 57.7288 603.885 58.2143C603.926 58.2684 603.949 58.334 603.95 58.4019C603.952 58.4697 603.932 58.5362 603.893 58.592Z" fill="#BF68FF"/>
<path d="M458.584 97.4406C460.338 96.7943 463.015 95.5941 463.015 89.3161V69.0973C463.015 64.1118 459.692 62.2653 455.999 62.2653C454.245 62.2653 452.398 62.7269 450.644 63.3732C450.829 64.3888 450.921 65.4966 450.921 66.6045V89.3161C450.921 95.5941 453.598 96.7943 455.353 97.4406V98.9178H429.687V97.4406C431.441 96.7943 434.118 95.5941 434.118 89.3161V69.0973C434.118 64.0195 430.702 62.2653 426.917 62.2653C425.163 62.2653 423.409 62.6346 421.931 63.2809V89.3161C421.931 95.5941 424.609 96.7943 426.363 97.4406V98.9178H399.128V97.4406C401.436 96.7943 405.036 95.5941 405.036 89.3161V61.4344C405.036 55.1564 401.436 53.9562 399.128 53.3099V51.8328H421.931V60.8805C424.516 55.895 429.225 51.2788 436.703 51.2788C443.35 51.2788 448.613 54.9718 450.367 61.7114C452.86 56.4489 457.753 51.2788 465.6 51.2788C473.633 51.2788 479.911 56.8182 479.911 66.6045V89.3161C479.911 95.5941 483.511 96.7943 485.819 97.4406V98.9178H458.584V97.4406Z" fill="#BF68FF"/>
<path d="M497.636 99.7487C490.527 99.7487 484.341 94.3016 484.341 86.7311C484.341 77.1294 493.297 70.4821 508.715 73.2518V67.8971C508.715 62.2653 504.468 59.4956 499.39 59.4956C495.605 59.4956 491.173 61.0651 487.573 66.4199L486.003 66.1429C487.665 59.1263 494.405 51.5558 506.222 51.2788C518.686 51.0018 525.795 59.1263 525.795 67.8047V86.2694C525.795 88.8545 526.256 91.1626 528.01 91.1626C528.287 91.1626 528.841 91.0703 529.118 90.8856L529.857 91.4396C528.472 95.5941 524.41 99.841 518.593 99.841C513.885 99.841 510.284 97.1636 509.084 93.3783C506.776 96.7943 502.898 99.7487 497.636 99.7487ZM499.759 84.7923C499.759 89.0391 501.606 92.5474 504.653 92.5474C506.314 92.5474 507.884 91.5319 508.715 90.6087V75.9292C503.083 75.7446 499.759 79.0682 499.759 84.7923Z" fill="#BF68FF"/>
<path d="M554.108 119.875C545.337 119.875 531.95 118.029 531.95 110.274C531.95 105.934 536.105 103.349 540.167 102.518C532.966 100.303 531.673 95.6864 531.673 93.0091C531.673 87.9313 536.012 84.146 542.567 82.1149C537.213 79.3452 533.15 74.6367 533.15 67.9894C533.15 56.6336 544.691 51.1865 554.569 51.1865C558.355 51.1865 562.509 52.0174 566.11 53.6792C568.603 46.755 575.527 44.1699 581.251 45.4624L579.774 55.895H579.127C575.711 53.7716 572.388 53.6792 568.972 55.2487C573.219 58.0184 576.173 62.173 576.173 67.8971C576.173 79.2529 564.356 84.8846 554.477 84.8846C551.43 84.8846 548.291 84.3306 545.245 83.2228C543.675 84.3306 542.383 85.4385 542.383 86.8234C542.383 88.9468 545.429 89.9624 550.876 90.0547L565.002 90.2394C573.034 90.3317 579.774 95.2248 579.774 103.534C579.774 114.059 569.71 119.875 554.108 119.875ZM542.937 107.319C542.937 112.305 548.753 116.09 557.431 116.09C564.817 116.09 569.987 113.228 569.987 108.981C569.987 105.196 565.925 104.18 561.124 104.088L549.769 103.903C547.83 103.903 546.168 103.719 544.598 103.534C543.214 104.55 542.937 106.211 542.937 107.319ZM549.861 68.0817C549.861 73.4365 550.415 81.6533 554.477 81.6533C558.539 81.6533 559.186 73.4365 559.186 68.0817C559.186 62.6346 558.539 54.5101 554.477 54.5101C550.415 54.5101 549.861 62.6346 549.861 68.0817Z" fill="#BF68FF"/>
<path d="M581.718 97.4406C584.026 96.7943 587.719 95.5941 587.719 89.3161V73.2518C587.719 66.9738 584.026 65.7736 581.718 65.1274V63.6502H604.984V89.3161C604.984 95.5941 608.677 96.7943 610.985 97.4406V98.9178H581.718V97.4406Z" fill="#BF68FF"/>
<path d="M633.474 100.026C622.672 100.026 610.024 92.8244 610.024 75.5599C610.024 60.2342 620.826 51.2788 635.136 51.2788C640.214 51.2788 646.4 52.3867 651.57 54.4178V69.0049H649.908C644.738 57.9261 641.137 55.3411 637.444 55.3411C630.797 55.3411 628.212 63.3732 628.304 72.5132C628.489 83.7767 633.013 91.6242 641.045 91.6242C646.677 91.6242 650.831 87.6543 653.047 84.7923L654.339 85.0692C652.493 91.0703 645.569 100.026 633.474 100.026Z" fill="#BF68FF"/>
<path d="M377.056 92.1326C377.1 92.1068 377.217 92.0761 377.264 92.0018C377.358 91.8479 377.437 91.6857 377.5 91.5173C378.203 89.8538 378.865 88.1725 379.613 86.53C381.657 82.0369 384.925 78.8472 389.663 77.2741C390.397 77.033 391.118 76.7532 391.822 76.4359C392.435 76.1597 393.047 75.8884 393.659 75.6138C393.733 75.5898 393.797 75.543 393.843 75.48C393.888 75.417 393.913 75.3411 393.912 75.2633C393.911 75.1858 393.885 75.1105 393.839 75.048C393.793 74.9856 393.729 74.9389 393.655 74.9145C392.782 74.5333 391.927 74.107 390.986 73.8938C386.021 72.7923 381.457 69.1019 379.472 63.7189C378.883 62.1232 378.148 60.5825 377.479 59.0159C377.451 58.9444 377.415 58.8757 377.374 58.8108C377.34 58.7637 377.296 58.7254 377.244 58.6994C377.192 58.6733 377.135 58.6602 377.077 58.6612C377.019 58.6621 376.962 58.6771 376.911 58.7049C376.86 58.7326 376.817 58.7723 376.785 58.8205C376.731 58.9089 376.686 59.0019 376.649 59.0982C375.924 60.7521 375.176 62.3962 374.482 64.0629C372.426 69.0002 368.863 72.2513 363.717 73.742C362.622 74.065 361.606 74.5721 360.557 75.0001C360.486 75.0332 360.421 75.075 360.361 75.1245C360.32 75.156 360.287 75.1965 360.264 75.2428C360.242 75.2891 360.23 75.3401 360.23 75.3917C360.23 75.4434 360.242 75.4943 360.264 75.5407C360.287 75.587 360.32 75.6275 360.361 75.659C360.427 75.6998 360.496 75.7349 360.568 75.764C361.712 76.299 362.886 76.7676 364.084 77.1675C369.295 78.8375 372.841 82.2474 374.721 87.3973C374.995 88.1466 375.329 88.875 375.646 89.6083C375.963 90.3415 376.292 91.0699 376.625 91.7983C376.652 91.8923 376.709 91.9753 376.786 92.0353C376.864 92.0954 376.958 92.1294 377.056 92.1326Z" fill="#BF68FF"/>
</svg>
