<svg width="400" height="400" viewBox="0 0 400 400" fill="none" xmlns="http://www.w3.org/2000/svg">
<path d="M103.345 277C88.7452 277 66.4611 273.922 66.4611 260.993C66.4611 253.76 73.3768 249.45 80.1389 248.065C68.1516 244.371 66 236.676 66 232.212C66 223.747 73.2232 217.437 84.1347 214.051C75.221 209.434 68.4589 201.584 68.4589 190.503C68.4589 171.572 87.6695 162.491 104.114 162.491C110.415 162.491 117.33 163.876 123.324 166.647C127.474 155.104 139 150.794 148.528 152.949L146.069 170.341H144.994C139.307 166.801 133.775 166.647 128.088 169.263C135.158 173.881 140.076 180.806 140.076 190.349C140.076 209.28 120.404 218.668 103.96 218.668C98.8884 218.668 93.6631 217.745 88.5916 215.898C85.9789 217.745 83.8274 219.592 83.8274 221.9C83.8274 225.44 88.8989 227.133 97.9663 227.287L121.48 227.595C134.85 227.749 146.069 235.906 146.069 249.758C146.069 267.304 129.318 277 103.345 277ZM84.7495 256.068C84.7495 264.379 94.4316 270.69 108.878 270.69C121.173 270.69 129.779 265.919 129.779 258.839C129.779 252.528 123.017 250.835 115.025 250.681L96.1221 250.374C92.8947 250.374 90.1284 250.066 87.5158 249.758C85.2105 251.451 84.7495 254.221 84.7495 256.068ZM96.2758 190.657C96.2758 199.583 97.1979 213.281 103.96 213.281C110.722 213.281 111.798 199.583 111.798 190.657C111.798 181.576 110.722 168.032 103.96 168.032C97.1979 168.032 96.2758 181.576 96.2758 190.657Z" fill="#5A30A1"/>
<path d="M245.734 239.6C248.654 238.523 253.111 236.522 253.111 226.056V192.35C253.111 184.039 247.578 180.96 241.431 180.96C238.511 180.96 235.437 181.73 232.517 182.807C232.824 184.5 232.978 186.347 232.978 188.194V226.056C232.978 236.522 237.435 238.523 240.355 239.6V242.062H197.631V239.6C200.551 238.523 205.008 236.522 205.008 226.056V192.35C205.008 183.885 199.321 180.96 193.02 180.96C190.1 180.96 187.18 181.576 184.721 182.653V226.056C184.721 236.522 189.178 238.523 192.098 239.6V242.062H146.761V239.6C150.603 238.523 156.597 236.522 156.597 226.056V179.575C156.597 169.109 150.603 167.108 146.761 166.031V163.569H184.721V178.652C189.025 170.341 196.862 162.645 209.311 162.645C220.376 162.645 229.136 168.801 232.056 180.037C236.206 171.264 244.351 162.645 257.414 162.645C270.784 162.645 281.235 171.88 281.235 188.194V226.056C281.235 236.522 287.229 238.523 291.071 239.6V242.062H245.734V239.6Z" fill="#5A30A1"/>
<path d="M335 173.3C334.84 173.162 334.669 173.039 334.488 172.93C333.713 172.566 332.905 172.275 332.076 172.063C328.456 171.093 325.713 168.961 323.83 165.72C323.495 165.113 323.197 164.487 322.937 163.844C322.376 162.541 321.835 161.23 321.285 159.925C321.199 159.718 321.137 159.472 320.788 159.437C320.669 159.571 320.565 159.717 320.478 159.873C319.898 161.17 319.299 162.457 318.766 163.772C317.058 167.999 314.045 170.764 309.679 172.063C308.83 172.318 308.027 172.706 307.201 173.037C307.112 173.079 307.028 173.13 306.951 173.19C306.921 173.217 306.896 173.249 306.878 173.286C306.861 173.322 306.851 173.362 306.849 173.403C306.847 173.443 306.854 173.483 306.868 173.521C306.882 173.559 306.904 173.594 306.933 173.623C307.037 173.705 307.152 173.775 307.273 173.83C308.159 174.185 309.033 174.58 309.939 174.874C314.346 176.305 317.333 179.182 318.935 183.538C319.377 184.743 319.947 185.904 320.461 187.082C320.501 187.169 320.563 187.289 320.639 187.31C320.694 187.333 320.753 187.345 320.812 187.345C320.872 187.345 320.931 187.333 320.986 187.31C321.082 187.223 321.154 187.111 321.192 186.987C321.751 185.683 322.309 184.378 322.865 183.072C324.534 179.165 327.285 176.39 331.347 175.025C332.476 174.644 333.546 174.138 334.628 173.654C334.744 173.592 334.839 173.453 335 173.3Z" fill="#5A30A1"/>
<path d="M314.761 193.004C314.639 192.899 314.508 192.804 314.37 192.721C313.779 192.443 313.163 192.222 312.531 192.06C309.77 191.321 307.679 189.695 306.242 187.223C305.987 186.76 305.76 186.282 305.562 185.793C305.134 184.799 304.721 183.799 304.302 182.804C304.236 182.646 304.189 182.458 303.922 182.432C303.832 182.534 303.753 182.645 303.686 182.764C303.244 183.753 302.787 184.734 302.381 185.737C301.078 188.961 298.78 191.07 295.451 192.06C294.804 192.254 294.191 192.551 293.561 192.803C293.494 192.835 293.43 192.874 293.371 192.92C293.347 192.94 293.328 192.965 293.315 192.993C293.302 193.021 293.294 193.051 293.293 193.082C293.291 193.113 293.296 193.143 293.307 193.172C293.318 193.201 293.335 193.227 293.357 193.25C293.436 193.313 293.524 193.366 293.616 193.407C294.292 193.679 294.958 193.98 295.65 194.204C299.01 195.295 301.288 197.489 302.51 200.811C302.847 201.73 303.282 202.615 303.674 203.514C303.704 203.58 303.751 203.672 303.809 203.688C303.851 203.705 303.896 203.714 303.941 203.714C303.987 203.714 304.032 203.705 304.074 203.688C304.147 203.621 304.202 203.536 304.231 203.442C304.657 202.447 305.083 201.452 305.507 200.456C306.779 197.477 308.877 195.36 311.975 194.319C312.836 194.029 313.652 193.642 314.477 193.273C314.566 193.226 314.638 193.12 314.761 193.004Z" fill="#5A30A1"/>
<path d="M295.444 173.227C295.509 173.188 295.686 173.142 295.756 173.03C295.896 172.799 296.014 172.556 296.11 172.303C297.162 169.807 298.154 167.284 299.275 164.819C302.339 158.077 307.234 153.291 314.334 150.93C315.434 150.568 316.514 150.149 317.57 149.672C318.487 149.258 319.404 148.851 320.321 148.439C320.432 148.403 320.529 148.332 320.597 148.238C320.665 148.143 320.702 148.03 320.701 147.913C320.699 147.796 320.661 147.684 320.592 147.59C320.523 147.496 320.427 147.426 320.317 147.389C319.007 146.817 317.727 146.178 316.316 145.858C308.877 144.205 302.039 138.667 299.064 130.59C298.181 128.195 297.08 125.883 296.078 123.532C296.035 123.425 295.983 123.322 295.921 123.225C295.87 123.154 295.803 123.097 295.726 123.057C295.648 123.018 295.562 122.999 295.475 123C295.389 123.002 295.303 123.024 295.227 123.066C295.151 123.107 295.086 123.167 295.038 123.239C294.958 123.372 294.89 123.511 294.834 123.656C293.748 126.138 292.627 128.605 291.587 131.106C288.506 138.514 283.168 143.393 275.458 145.63C273.817 146.115 272.295 146.876 270.722 147.518C270.617 147.568 270.518 147.63 270.429 147.704C270.368 147.752 270.318 147.813 270.284 147.882C270.25 147.952 270.232 148.028 270.232 148.106C270.232 148.183 270.25 148.26 270.284 148.329C270.318 148.399 270.368 148.459 270.429 148.507C270.528 148.568 270.631 148.62 270.739 148.664C272.453 149.467 274.212 150.17 276.007 150.77C283.815 153.276 289.128 158.393 291.945 166.121C292.356 167.245 292.857 168.338 293.331 169.439C293.806 170.539 294.299 171.632 294.798 172.725C294.839 172.866 294.924 172.99 295.04 173.081C295.156 173.171 295.297 173.222 295.444 173.227Z" fill="#5A30A1"/>
</svg>
